<?xml version="1.0" encoding="UTF-8"?> <!-- Generator: Adobe Illustrator 25.0.1, SVG Export Plug-In . SVG Version: 6.00 Build 0) --> <svg xmlns="http://www.w3.org/2000/svg" xmlns:xlink="http://www.w3.org/1999/xlink" version="1.1" id="レイヤー_1" x="0px" y="0px" viewBox="0 0 300 80" style="enable-background:new 0 0 300 80;" xml:space="preserve"> <style type="text/css"> .st0{fill:#EC6D7B;} .st1{enable-background:new ;} .st2{fill:#FFFFFF;} </style> <g id="Wire_frame"> <path class="st0" d="M10,0h280c5.5,0,10,4.5,10,10v60c0,5.5-4.5,10-10,10H10C4.5,80,0,75.5,0,70V10C0,4.5,4.5,0,10,0z"></path> <g class="st1"> <path class="st2" d="M99.3,42.1c2.6,3.4,6.8,6.6,10.6,8.3c-0.6,0.6-1.5,1.6-1.9,2.4c-3.8-1.9-7.7-5.3-10.5-9v10.1h-2.9v-10 c-2.8,3.7-6.7,7-10.5,8.9c-0.4-0.7-1.4-1.8-2-2.3c3.9-1.7,8-4.8,10.7-8.3h-10v-2.7h11.8v-7H84.2v-2.7h10.3v-3.5h2.9v3.5h10.6v2.7 H97.5v7h11.8v2.7H99.3z M88.9,32.8c1.1,1.7,2.3,4,2.7,5.5l-2.6,1c-0.4-1.5-1.4-3.8-2.5-5.6L88.9,32.8z M100.5,38.6 c1-1.6,2.2-4.1,2.8-5.8l2.9,0.9c-1,2-2.3,4.3-3.3,5.8L100.5,38.6z"></path> <path class="st2" d="M127.9,44.4c-3,1.5-6.2,3.2-8.8,4.3l-1.1-2.8c1.1-0.4,2.4-1,3.9-1.6v-8.9h-3.3v-2.6h3.3v-6.1h2.6v6.1h3v2.6 h-3v7.8c0.9-0.4,1.8-0.8,2.8-1.3L127.9,44.4z M133.7,40.8c-0.3,0.6-0.7,1.2-1.1,1.8h12.5c0,0,0,0.7-0.1,1c-0.5,6-0.9,8.3-1.7,9.2 c-0.5,0.6-1.1,0.8-1.8,0.8c-0.7,0.1-1.8,0.1-3,0c0-0.7-0.3-1.7-0.6-2.3c1,0.1,2,0.1,2.3,0.1c0.4,0,0.7,0,0.9-0.3 c0.5-0.5,0.8-2.2,1.2-6.4h-1.8c-1.2,3.5-3.5,7.2-6,9.1c-0.5-0.5-1.3-1.2-2-1.6c2.3-1.6,4.4-4.5,5.7-7.6h-2.4 c-1.6,3-4.5,6.1-7.1,7.8c-0.4-0.6-1.2-1.3-1.9-1.7c2.4-1.3,4.8-3.7,6.5-6.1h-2.5c-1.1,1.3-2.4,2.3-3.7,3.2 c-0.4-0.4-1.3-1.3-1.9-1.7c2.3-1.3,4.3-3.2,5.7-5.5H127v-2.4h18.7v2.4H133.7z M143.7,37h-13.9v-9.8h13.9V37z M141.1,29.2h-8.8v1.9 h8.8V29.2z M141.1,33h-8.8v2h8.8V33z"></path> <path class="st2" d="M181.6,38.4c-1.5,2.7-3.4,5.6-5.1,7.5l-2.3-1.4c0.9-1.1,2-2.7,2.9-4.2h-7.5v10.4c0,1.6-0.4,2.3-1.6,2.7 c-1.2,0.4-3,0.4-5.6,0.4c-0.2-0.8-0.7-1.9-1-2.7c2,0.1,4,0.1,4.6,0.1c0.6,0,0.7-0.2,0.7-0.6V40.2h-12.1v-2.7h14.7 c-2.4-1.1-5.4-2.5-7.7-3.4l1.4-2.1c1.5,0.6,3.3,1.3,5.1,2c1.7-1,3.5-2.3,4.9-3.5h-15.5V28h18.2l0.6-0.2l2,1.6 c-2,2-4.8,4.2-7.4,5.9c1.1,0.5,2.2,1,2.9,1.4l-0.6,0.9h5.5l0.5-0.2L181.6,38.4z"></path> <path class="st2" d="M193.9,43.9c-0.4,2.8-1.1,5.7-2,7.6c-0.4-0.3-1.6-0.8-2.1-1c0.9-1.8,1.5-4.4,1.8-7L193.9,43.9z M199.5,35.9 c1.2,2,2.5,4.5,2.9,6.2l-2.1,1c-0.1-0.5-0.3-1-0.5-1.7l-2.2,0.1v12.4H195V41.7c-1.7,0.1-3.3,0.2-4.7,0.3l-0.2-2.5l2.1-0.1 c0.6-0.7,1.1-1.5,1.7-2.3c-0.9-1.3-2.5-2.9-3.8-4.2l1.3-1.9c0.3,0.2,0.5,0.5,0.8,0.7c0.9-1.6,1.9-3.8,2.5-5.4l2.5,0.9 c-1.1,2-2.3,4.4-3.4,6c0.6,0.6,1.1,1.2,1.5,1.7c1.2-1.8,2.3-3.7,3-5.2l2.4,1c-1.7,2.7-4,6-6,8.5l4-0.1c-0.4-0.8-0.8-1.7-1.3-2.4 L199.5,35.9z M200.3,43.4c0.8,1.8,1.6,4.1,1.9,5.7l-2.2,0.8c-0.3-1.6-1.1-3.9-1.8-5.8L200.3,43.4z M217.2,32.9 c-0.5,13.2-0.9,17.9-2.2,19.4c-0.7,1-1.5,1.3-2.6,1.4c-1,0.2-2.8,0.1-4.6,0c-0.1-0.8-0.4-2-0.9-2.8c2,0.1,3.8,0.2,4.5,0.2 c0.6,0,1-0.1,1.3-0.5c1-1,1.4-5.4,1.8-16.4h-9.1c-0.8,1.5-1.7,2.9-2.6,4c-0.5-0.5-1.8-1.3-2.5-1.7c2.3-2.4,4.1-6.3,5.2-10.3 l2.8,0.7c-0.5,1.6-1,3.1-1.7,4.6h10.6V32.9z M208,46.3c-0.6-1.8-2.3-4.7-3.8-6.9l2.3-1.1c1.6,2,3.4,4.9,4,6.8L208,46.3z"></path> </g> </g> </svg> 