<?xml version="1.0" encoding="UTF-8"?> <!-- Generator: Adobe Illustrator 25.0.1, SVG Export Plug-In . SVG Version: 6.00 Build 0) --> <svg xmlns="http://www.w3.org/2000/svg" xmlns:xlink="http://www.w3.org/1999/xlink" version="1.1" id="レイヤー_1" x="0px" y="0px" viewBox="0 0 300 80" style="enable-background:new 0 0 300 80;" xml:space="preserve"> <style type="text/css"> .st0{fill:#0D335B;} .st1{enable-background:new ;} .st2{fill:#FFFFFF;} </style> <path class="st0" d="M10,0h280c5.5,0,10,4.5,10,10v60c0,5.5-4.5,10-10,10H10C4.5,80,0,75.5,0,70V10C0,4.5,4.5,0,10,0z"></path> <g class="st1"> <path class="st2" d="M76.2,29.4h3.6l2.1,11.5l1.2,7.1h0.1c0.5-2.4,1-4.7,1.5-7.1l2.9-11.5h3.1l2.9,11.5c0.5,2.3,1,4.7,1.5,7.1h0.1 c0.4-2.4,0.8-4.8,1.1-7.1l2.1-11.5h3.3l-4.4,22.1H93l-3-12.3c-0.4-1.7-0.7-3.4-1-5.1h-0.1c-0.3,1.7-0.7,3.3-1,5.1L85,51.5h-4.2 L76.2,29.4z"></path> <path class="st2" d="M111.3,29.4h13v2.9h-9.6v6.1h8.1v2.9h-8.1v7.1h9.9v2.9h-13.4V29.4z"></path> <path class="st2" d="M135.3,29.4h6.8c4.5,0,7.8,1.4,7.8,5.4c0,2.1-1.2,4.1-3.1,4.8v0.2c2.5,0.5,4.3,2.3,4.3,5.3 c0,4.4-3.6,6.5-8.5,6.5h-7.4V29.4z M141.8,38.7c3.4,0,4.8-1.3,4.8-3.3c0-2.3-1.6-3.2-4.7-3.2h-3.1v6.5H141.8z M142.3,48.8 c3.5,0,5.4-1.2,5.4-3.9c0-2.5-1.9-3.6-5.4-3.6h-3.5v7.5H142.3z"></path> <path class="st2" d="M167.3,37.5c1,1.1,3.7,4.2,4.3,5l-1.7,2.3c-0.5-1-1.6-2.6-2.6-4.1v13.1h-2.7V40.6c-1.1,3.1-2.5,6-3.9,7.9 c-0.3-0.8-1-1.9-1.4-2.5c2-2.5,4-6.9,4.9-10.7H160v-2.6h4.6v-6.3h2.7v6.3h4v2.6h-4V37.5z M186.2,28v25.5h-2.8v-1.6h-8.2v1.8h-2.7 V28H186.2z M175.2,30.7v4.4h8.2v-4.4H175.2z M175.2,42.2h8.2v-4.6h-8.2V42.2z M183.4,49.3v-4.6h-8.2v4.6H183.4z"></path> <path class="st2" d="M206.8,33.5h-11.2v-2.2h11.2V33.5z M205.8,52.2h-6.4v1.3H197V43.4h8.8V52.2z M205.8,37.5H197v-2.2h8.8V37.5z M197,39.4h8.8v2.2H197V39.4z M205.7,29.5h-8.6v-2.2h8.6V29.5z M199.4,45.7V50h4v-4.3H199.4z M216.4,43.2c0,1.8,1.1,6.2,7,8.4 c-0.5,0.6-1.3,1.7-1.6,2.4c-4.2-1.7-6.3-5.3-6.8-7.1c-0.5,1.8-2.8,5.3-7.5,7.1c-0.3-0.6-1-1.7-1.6-2.3c6.4-2.3,7.7-6.7,7.7-8.5 v-4.4h2.8V43.2z M206.4,46.3c1.4-1.1,2.3-3.1,2.7-5.2l2.5,0.5c-0.4,2.3-1.4,4.6-2.9,6L206.4,46.3z M221.3,39.9 c-1.4-1.3-4-3.1-6.5-4.7c-1.2,2.2-3.1,3.8-6.5,4.9c-0.3-0.7-1-1.7-1.6-2.2c6.1-1.9,6.8-5.4,7.1-11.5h2.7c-0.1,2.5-0.3,4.6-0.8,6.5 c2.6,1.5,5.7,3.5,7.4,4.9L221.3,39.9z M211.7,28.7c-0.3,2-1.1,4.2-2.4,5.5l-2.1-1c1.2-1,1.9-3,2.3-4.9L211.7,28.7z M217.6,46.1 c0.9-1.4,2-3.7,2.6-5.2l2.7,0.9c-1.1,1.8-2.3,3.8-3.2,5.1L217.6,46.1z M222.6,29c-1,1.7-2.1,3.6-2.9,4.8l-2.1-0.8 c0.8-1.3,1.8-3.4,2.3-4.8L222.6,29z"></path> </g> </svg> 