<?xml version="1.0" encoding="UTF-8"?> <svg xmlns="http://www.w3.org/2000/svg" viewBox="0 0 321 18"><g id="Wire_frame" data-name="Wire frame"><path d="M1.3,11.6c.5,2,2.5,2.5,4.4,2.5a29.7,29.7,0,0,0,5.9-.7H12c.3,0,.3.3.3.5s0,.7-.3.8a36.9,36.9,0,0,1-6,.6c-2,0-4.1-.3-5.3-2.1A3.7,3.7,0,0,1,0,11.6c0-.4.8-.5.8-.5S1.2,11.3,1.3,11.6ZM2.6,3.3a12.9,12.9,0,0,0,4,.5,16.3,16.3,0,0,0,3.1-.3H10c.3,0,.3.4.3.7s-.1.6-.4.6L6.9,5A16.1,16.1,0,0,1,2,4.4c-.2-.1-.2-.2-.2-.4s.1-.8.4-.8Zm9.9-.2c.2.2.9.9.9,1.1s-.4.7-.7.7l-.3-.2A10.7,10.7,0,0,0,11,3.1a.3.3,0,0,1-.1-.2.9.9,0,0,1,.6-.6C11.7,2.3,12.4,3,12.5,3.1Zm1.7-1.3c.2.2.9.9.9,1.1a.9.9,0,0,1-.7.6l-.3-.2L12.8,1.8l-.2-.2c0-.2.4-.7.6-.7S14.1,1.6,14.2,1.8Z"></path><path d="M30.5,10.3c-.2,0-.2.1-.2.2v6.4c0,.6,0,.9-.6.9s-.6-.3-.6-.8.1-1.9.1-2.9V10.5a.2.2,0,0,0-.2-.2h-.2a29.5,29.5,0,0,1-5.4,5.2,9.6,9.6,0,0,1-2,1.3.7.7,0,0,1-.6-.6c0-.3.5-.6.7-.7A27.2,27.2,0,0,0,28,9.9c.1-.1.1-.1.1-.2s-.1-.2-.3-.2H21.4c-.4,0-.4-.2-.4-.5s0-.6.4-.6h7.2a.5.5,0,0,0,.6-.6V4.4a.5.5,0,0,0-.6-.6H23.1c-.4,0-.4-.2-.4-.5s0-.5.4-.5h5.5c.4,0,.6-.2.6-.5A9.7,9.7,0,0,0,29.1.6V.4a.3.3,0,0,1,.3-.3H30c.5,0,.9,0,.9.3l-.3.3c-.3.1-.3.4-.3,1.5s.2.5.6.5h5.6c.4,0,.4.2.4.5s0,.5-.4.5H30.9a.5.5,0,0,0-.6.6V7.9a.5.5,0,0,0,.6.6H31a.7.7,0,0,0,.7-.3A19.3,19.3,0,0,0,34,4.5a.2.2,0,0,1,.2-.2c.1,0,1,.6,1,.8s0,.2-.2.2h-.4A12.8,12.8,0,0,1,33,8.1h0a.3.3,0,0,0,.3.3h4.8c.4,0,.4.2.4.6s0,.5-.4.5H31.6c-.1,0-.3,0-.3.2s.1.1.1.2A27.3,27.3,0,0,0,38,15.5c.2.1.7.3.7.6a.7.7,0,0,1-.6.6,16.6,16.6,0,0,1-3-1.9,26.8,26.8,0,0,1-4.5-4.4ZM26.4,7.9c-.3,0-.4-.2-.5-.4S25,5.9,24.5,5.1s-.1-.2-.1-.3.4-.5.6-.5a.5.5,0,0,1,.4.2l.8,1.3c.1.3.8,1.5.8,1.7S26.6,7.9,26.4,7.9Z"></path><path d="M47.6,6.5a.5.5,0,0,0-.6-.6H45.3c-.4,0-.4-.3-.4-.6s0-.5.4-.5H47c.4,0,.6-.1.6-.5V3.2A16.9,16.9,0,0,0,47.5.9V.7a.3.3,0,0,1,.3-.3h.6c.4,0,.8,0,.8.2s-.1.2-.3.3-.2.6-.2,2.2V4.4c0,.4.1.5.5.5H51c.3,0,.3.3.3.5s0,.6-.3.6H49.2c-.4,0-.5.2-.5.6v4.6a.3.3,0,0,0,.3.3h.1l1.6-.8h.2c.3,0,.5.4.5.6a.5.5,0,0,1-.2.4c-1.7.8-3.2,1.6-5,2.3s-.4.2-.5.4,0,.3-.2.3-.7-1.1-.7-1.2a.2.2,0,0,1,.2-.2,13.1,13.1,0,0,0,2.1-.8c.4-.2.5-.3.5-.7Zm11.5,5.2a.5.5,0,0,0-.6.4,12.1,12.1,0,0,1-4.1,5.3,1.3,1.3,0,0,1-.7.4c-.2,0-.5-.4-.5-.6s.4-.5.5-.6a11.2,11.2,0,0,0,3.7-4.4c.1,0,.1-.1.1-.2s-.3-.3-.4-.3h-.7a.7.7,0,0,0-.7.4,12.8,12.8,0,0,1-3.7,4l-.5.2c-.2,0-.5-.4-.5-.6s.3-.4.5-.6a10.4,10.4,0,0,0,3-2.9V12a.3.3,0,0,0-.3-.3h-.5c-.4,0-.5.1-.8.4a9.3,9.3,0,0,1-2.3,2.1h-.4a.6.6,0,0,1-.5-.6c0-.2.3-.4.5-.5a12.2,12.2,0,0,0,3.1-3.3V9.7a.3.3,0,0,0-.3-.3H50.7c-.4,0-.4-.2-.4-.5s0-.5.4-.5H62c.4,0,.4.2.4.5s0,.5-.4.5H55.1a.5.5,0,0,0-.6.4l-.3.5h0c0,.3.1.3.3.3h6.1c.5,0,.8.2.8.7a21.6,21.6,0,0,1-.7,5.1c-.4,1.2-1.3,1.2-2.5,1.2s-1.1.1-1.1-.8a.3.3,0,0,1,.3-.3h1.1c.6,0,1-.1,1.2-.7a16.7,16.7,0,0,0,.5-3.9c0-.3-.1-.4-.5-.4Zm1.2-6c0,.2.1.5.1.7s-.3.7-.8.7H53.7c-.6,0-.8-.2-.8-.7V1.6c0-.7.3-.8.9-.8h5.7c.5,0,.9.1.9.7s-.1.5-.1.7ZM58.8,3.5a.5.5,0,0,0,.5-.5V2.3a.5.5,0,0,0-.5-.5H54.5a.5.5,0,0,0-.5.5V3a.5.5,0,0,0,.5.5Zm-4.3,1a.5.5,0,0,0-.5.4v.8a.5.5,0,0,0,.5.4h4.3a.5.5,0,0,0,.5-.4V4.9a.5.5,0,0,0-.5-.4Z"></path><path d="M77.3,8.9c0-.4-.1-.6-.5-.6H69.5c-.3,0-.4-.1-.4-.5s.1-.5.4-.5H85.3a1,1,0,0,1,1,.9c0,.3-.9,1-1.1,1.2s-2,1.7-2.4,1.7-.6-.5-.6-.7.1-.3.3-.4,2.1-1.3,2.1-1.6H79a.5.5,0,0,0-.6.6v7a1.6,1.6,0,0,1-.8,1.5,6.9,6.9,0,0,1-2.5.3h-.7a2.5,2.5,0,0,1-.2-.7.3.3,0,0,1,.3-.3h.9c1.9,0,1.9-.3,1.9-1.9Zm1.4-3.4a.2.2,0,0,0,.2.2c.2.2.7.6.7.9a.6.6,0,0,1-.6.5l-.5-.2a28.5,28.5,0,0,0-3.2-2.7c-.1-.1-.3-.2-.3-.4a.6.6,0,0,1,.5-.6,9.4,9.4,0,0,1,1.8,1.2l.4.2h.4c.5-.2,3.5-1.9,3.5-2.2s-.1-.2-.2-.2H72.1c-.3,0-.4-.1-.4-.5s.1-.6.4-.6H82.8a.9.9,0,0,1,.9.7c0,.5-1.9,1.7-2.3,2L78.9,5.2Z"></path><path d="M99.3,8.3c0-.1-.1-.1-.1-.2a2.8,2.8,0,0,1-.4-.8c0-.3.3-.4.6-.4s.3.2,1.1,1.6a5.6,5.6,0,0,1,.7,1.6c0,.2-.3.4-.5.4s-.4-.2-.7-.9-.2-.3-.4-.3h-.1l-1.1.2c-.4.1-.5.2-.5.6V17c0,.5,0,.7-.6.7s-.5-.2-.5-.7V10.2c0-.3-.1-.5-.5-.5L94,10c-.2,0-.2,0-.3.2a.2.2,0,0,1-.2.2c-.3,0-.5-1.1-.5-1.2s.2-.2.6-.2h1.3c.4,0,.5-.1.8-.4l.5-.8a.8.8,0,0,0,.2-.4.5.5,0,0,0-.2-.4L93.9,4.6c-.3-.3-.5-.4-.5-.6a.6.6,0,0,1,.6-.5c.2,0,.3.2.5.4h.3l.3-.2A39.2,39.2,0,0,0,96.7.2a.2.2,0,0,1,.2-.2C97,0,98,.4,98,.7s-.2.1-.3.1l-.3.2a18,18,0,0,1-1.7,3.4c0,.1-.1.2-.1.3a.5.5,0,0,0,.2.4l.8.9.3.2.4-.2c.7-1.2,1.2-2.1,1.8-3.3s.1-.3.2-.3l.5.3c.2,0,.6.2.6.4s-.2.1-.3.1l-.3.2c-.5,1-2.3,4-3,5h0c0,.2.1.3.2.3l2-.2C99,8.5,99.3,8.5,99.3,8.3Zm-3.4,3.5-.2.2c-.1,0-.2.1-.3.4s-.4,1.4-.8,2.6-.4,1.2-.8,1.2-.6-.2-.6-.4.1-.3.1-.4a16.8,16.8,0,0,0,1.2-3.8c0-.1,0-.3.2-.3S95.9,11.5,95.9,11.8Zm4.9,3.2a.4.4,0,0,1-.4-.4L99.3,12a.6.6,0,0,1-.1-.4c0-.2.3-.4.6-.4s.4.3.9,1.6a12.2,12.2,0,0,1,.7,1.7C101.4,14.8,101,15,100.8,15Zm.8-7.6c-.1.2-.2.3-.4.3s-.7-.2-.7-.5.1-.2.2-.3A21.8,21.8,0,0,0,103.6.3c0-.1,0-.3.2-.3s1.2.3,1.2.5-.1.2-.2.3-.3.2-.4.5a15.5,15.5,0,0,1-.8,2.3v.2c0,.3.3.3.4.3h4.9a.8.8,0,0,1,.9.9c0,2.5-.3,8.3-1,10.6a2.2,2.2,0,0,1-1.5,1.7,7.8,7.8,0,0,1-2.2.3c-.4,0-.9.1-.9-.9a.3.3,0,0,1,.3-.3h1.1c1.2,0,1.9-.2,2.2-1.4s.9-7.1.9-9.3c0-.6-.1-.6-1.1-.6h-4.1a.7.7,0,0,0-.8.5A10.4,10.4,0,0,1,101.6,7.4Zm3.5,5c-.3,0-.4-.2-.5-.4A18.2,18.2,0,0,0,103,8.9V8.6c0-.3.4-.5.6-.5a.5.5,0,0,1,.5.3l.9,1.7a9.1,9.1,0,0,1,.8,1.8A.6.6,0,0,1,105.1,12.4Z"></path><path d="M120.4,9a1.8,1.8,0,0,1-1.8,1.8A1.6,1.6,0,0,1,117,9.2a1.8,1.8,0,0,1,1.8-1.9A1.6,1.6,0,0,1,120.4,9Z"></path><path d="M132.1,4.2c0,.2-.2.3-.3.4s-2.3,2.1-3.5,3.1,0,.7-.4.7-.9-.8-.9-1,.2-.2.3-.3a24.4,24.4,0,0,0,3.9-3.4h.3A.9.9,0,0,1,132.1,4.2ZM133.4,16h-.6c-1,.4-3.9,1.6-4.9,1.6s-.6-.5-.6-.7.3-.4.7-.4a18.6,18.6,0,0,0,4.5-1.6h.2c.2,0,.5.5.7.7s.2.2.2.3ZM129.9,1.3c.6.4,1.1.7,1.1,1s-.2.6-.5.6a1.3,1.3,0,0,1-.7-.4l-1.7-1.1c-.3-.2-.6-.3-.6-.5a.6.6,0,0,1,.5-.6A8.7,8.7,0,0,1,129.9,1.3Zm11.6,11.8c0,.3.1.5.1.8s-.4.7-1,.7H131c-.7,0-1.1,0-1.1-.7V8.1c0-.7.3-.8,1-.8h9.6c.6,0,1.1,0,1.1.7s-.1.6-.1.8ZM131,9a.4.4,0,0,0,.4.4h8.7a.4.4,0,0,0,.4-.4V8.7a.4.4,0,0,0-.4-.4h-8.7a.4.4,0,0,0-.4.4Zm0,2.1a.4.4,0,0,0,.4.4h8.7a.4.4,0,0,0,.4-.4v-.4a.4.4,0,0,0-.4-.4h-8.7a.4.4,0,0,0-.4.4Zm0,2.1a.4.4,0,0,0,.4.4h8.7a.4.4,0,0,0,.4-.4v-.4a.4.4,0,0,0-.4-.4h-8.7a.4.4,0,0,0-.4.4ZM137.1,3c0-.2-.2-.3-.4-.3h-1.4a1.1,1.1,0,0,0-.9.4c-.6.8-.8,1.2-1.1,1.2s-.6-.3-.6-.5a.5.5,0,0,1,.2-.4A34.6,34.6,0,0,0,135.1.3c0-.1.1-.3.2-.3l1,.4.2.2c0,.2-.2.2-.3.2s-.3.2-.5.6a.1.1,0,0,0-.1.1c0,.2.2.2.3.2h6.7a1.1,1.1,0,0,1,1,.9,9.1,9.1,0,0,1-.8,1.3c-.2.2-.6.8-.9.8a.9.9,0,0,1-.7-.6c0-.2.3-.4.4-.5a3.7,3.7,0,0,0,.6-.7c0-.2-.2-.2-.3-.2h-3.1a.3.3,0,0,0-.3.3v.2a11.4,11.4,0,0,0,5.2,3.7q.3.1.3.3c0,.3-.1.7-.5.7a3.4,3.4,0,0,1-1.4-.5,12.3,12.3,0,0,1-4-3.2c-.1-.1-.1-.2-.3-.2l-.3.2a7.7,7.7,0,0,1-4,2.8l-.8.2c-.4,0-.5-.5-.5-.7s.1-.2.3-.3a7,7,0,0,0,4.6-3Zm6.6,14.8a19.1,19.1,0,0,1-4.7-1.7c-.5-.2-.8-.4-.8-.6s.3-.6.5-.6h.3a21.5,21.5,0,0,0,4.8,1.8c.2,0,.4.1.4.3S144.1,17.8,143.7,17.8Z"></path><path d="M155.8,8.5c-.1,0-.1.1-.2.2v5.6c0,.9.1,1.9.1,2.8s0,.7-.6.7-.6-.3-.6-.7.1-1.9.1-2.8V9.2h-.2a20.9,20.9,0,0,1-2.8,4.6c-.2.2-.3.4-.5.4a.7.7,0,0,1-.6-.6c0-.1.1-.3.2-.3a31.9,31.9,0,0,0,3.5-5.5V7.5c0-.3-.3-.3-.4-.3h-2.5c-.3,0-.3-.3-.3-.6s0-.5.3-.5H154c.4,0,.6-.1.6-.5V3a18.5,18.5,0,0,0-.1-2.4V.4a.3.3,0,0,1,.3-.3h.6c.4,0,.8,0,.8.2s-.1.2-.3.3-.3.6-.3,2.3V5.7c0,.4.2.5.6.5h2.7c.4,0,.4.2.4.5s0,.6-.4.6h-2.5c-.2,0-.4.1-.4.3s.1.1.1.2a16.2,16.2,0,0,0,2.5,2.8c.1.1.3.2.3.4a.7.7,0,0,1-.6.6c-.5,0-2.1-2.4-2.4-2.9Zm-2.8-3c-.2,0-.3-.2-.4-.4a17.1,17.1,0,0,0-1.4-2.7c0-.1-.1-.3-.1-.4s.4-.5.6-.5.7.7,1.2,1.8.7,1.5.7,1.7A.6.6,0,0,1,153,5.5Zm6.3-3.6c-.2,0-.2.1-.3.3s-.8,2-1.3,3-.2.4-.4.4-.7-.2-.7-.4.1-.3.1-.4a18.3,18.3,0,0,0,1.4-3.2c0-.2,0-.3.2-.3h.6q.6.2.6.3A.2.2,0,0,1,159.3,1.9Zm6.5,12.5v2.7c0,.5,0,.8-.5.8s-.6-.3-.6-.7v-5a.4.4,0,0,0-.4-.4h-.1l-4.2.9-2,.4c-.3,0-.4-.6-.4-.8s.2-.3.6-.3l1.6-.3,4.4-.9c.4-.1.5-.3.5-.7V3a19.2,19.2,0,0,0,0-2.4V.4c0-.2.2-.2.3-.2h.6c.6.1.8.1.8.3l-.2.3c-.4.2-.3.6-.3,2.2V9.9c0,.3.1.5.4.5h.1l1.8-.4c.3,0,.4.5.4.7s-.1.3-.5.4l-1.7.3c-.4.1-.5.2-.5.6ZM162.3,9c-.2,0-.3-.2-.5-.4L160.1,7c-.1-.1-.3-.3-.3-.4a.6.6,0,0,1,.6-.6c.2,0,1,.8,1.2.9l1.2,1.2c.1.1.1.2.1.4A.6.6,0,0,1,162.3,9Zm.4-4.7a.7.7,0,0,1-.5-.4l-1.5-1.4c-.1-.1-.3-.2-.3-.4a.6.6,0,0,1,.6-.6c.3,0,1,.8,1.2,1s1.1,1,1.1,1.2A.7.7,0,0,1,162.7,4.3Z"></path><path d="M176.8,4.5h-1.7c-.3,0-.4-.3-.4-.5s.1-.6.4-.6h6.2c.4,0,.4.3.4.6s0,.5-.4.5h-4.5Zm.5-2.6h-1.2c-.4,0-.4-.3-.4-.6s.1-.5.4-.5h4c.3,0,.3.3.3.6s0,.5-.3.5h-2.8Zm2.5,15c-.1-.3-.1-.3-.4-.3h-2.2c-.2,0-.4.1-.4.3v.4c0,.3-.1.4-.5.4s-.5-.2-.5-.5V12.3c0-.6.1-.8.8-.8H180c.7,0,.8.2.8.8v4.5c0,.4,0,.5-.5.5s-.5,0-.5-.4Zm-2.1-9.7h-1.2c-.3,0-.3-.3-.3-.5s0-.5.3-.5h3.6c.3,0,.4.2.4.5s-.1.5-.4.5h-2.4Zm0,2.7h-1.2c-.3,0-.3-.3-.3-.6s0-.5.3-.5h3.6c.3,0,.3.3.3.6s0,.5-.3.5h-2.4Zm1.5,5.7c.4,0,.5-.2.6-.5V13c-.1-.4-.2-.5-.6-.6h-1.8c-.4.1-.5.2-.6.6v2.1c.1.3.2.5.6.5ZM187.8,2h3.7c.4,0,.4.1.4.5s0,.5-.4.5h-3.7c-.4,0-.5.1-.5.4v.4c0,.4.1.5.5.5h3.3c.4,0,.4.2.4.5s0,.5-.4.5h-3.3c-.4,0-.5.2-.5.5v.4c0,.4.1.5.5.5h4.4c.3,0,.3.2.3.5s0,.5-.3.5H181.9c-.3,0-.4-.2-.4-.5s.1-.5.4-.5h3.8c.4,0,.5-.1.5-.5V5.7c0-.3-.1-.5-.5-.5h-2.8c-.4,0-.4-.2-.4-.5s0-.5.4-.5h2.8c.4,0,.5-.1.5-.5V3.4c0-.3-.1-.4-.5-.4h-3.3c-.3,0-.4-.2-.4-.5s.1-.5.4-.5h3.3c.3,0,.5-.1.5-.5a1.9,1.9,0,0,0-.1-.8V.5a.3.3,0,0,1,.3-.3h.6c.4.1.8.1.8.3s-.1.2-.3.3a.8.8,0,0,0-.2.7C187.3,1.9,187.5,2,187.8,2Zm1.7,13c0-.4-.2-.5-.5-.5h-4.5c-.4,0-.5.1-.5.5v2.4c0,.4-.1.5-.6.5s-.5-.1-.5-.5V9.6c0-.6.2-.7.8-.7h6.1c.6,0,.8.1.8.7v6.8c0,.5,0,.9-.5,1.2a5.6,5.6,0,0,1-2.3.3c-.5,0-.7,0-.7-.7s0-.3.2-.3h.8c1.4,0,1.4-.3,1.4-.9Zm-.5-3.8a.5.5,0,0,0,.5-.5v-.3a.5.5,0,0,0-.5-.5h-4.5a.5.5,0,0,0-.5.5v.3a.5.5,0,0,0,.5.5ZM184,13a.5.5,0,0,0,.5.5H189a.5.5,0,0,0,.5-.5v-.3a.5.5,0,0,0-.5-.5h-4.5a.5.5,0,0,0-.5.5Z"></path><path d="M205.8,11.6a42.9,42.9,0,0,1-5.5,3.1c-.4.2-.4.2-.5.5s0,.2-.2.2-.8-1-.8-1.1.2-.2.4-.3a39.9,39.9,0,0,0,6.1-3.4h.3c.3,0,.5.4.5.7S206,11.5,205.8,11.6Zm4.9-2.3c.2,0,.2-.1.3-.2a24.2,24.2,0,0,0,3.1-2.5.2.2,0,0,1,.2-.2c.2,0,.9.9.9,1l-.2.2h-.5a20.9,20.9,0,0,1-2.9,2.3c-.1.1-.3.2-.3.4l.2.3a17.3,17.3,0,0,0,4.3,3.8c.3.2.5.3.5.5s-.3.6-.5.6-2.9-1.9-3.4-2.4a16.4,16.4,0,0,1-4-5.7c0-.1-.1,0-.1,0h-.1v6.9c0,.5.1,1,.1,1.4a1.5,1.5,0,0,1-.6,1.4c-.6.6-1.9.6-2.7.6s-.9,0-.9-.8.1-.5.4-.5h1c1.6,0,1.6-.5,1.6-2V5.2c0-.4-.2-.5-.6-.5h-7.2c-.3,0-.4-.2-.4-.6s.1-.5.4-.5h7.2c.4,0,.6-.1.6-.5A21.7,21.7,0,0,0,207,.5V.3c0-.2.1-.2.3-.2h1c.2.1.5.1.5.3l-.3.3c-.3.2-.3.7-.3,2.4s.2.5.6.5h7.1c.4,0,.5.1.5.5s-.1.6-.4.6h-7.1c-.2,0-.4.1-.4.3v.2A26.4,26.4,0,0,0,210.3,9C210.4,9.1,210.5,9.3,210.7,9.3Zm-7,.6c-.2,0-.3-.2-.5-.3a18.1,18.1,0,0,0-2.4-2.4c-.2-.2-.3-.2-.3-.4a.6.6,0,0,1,.6-.6c.3,0,1.4,1.1,1.7,1.4s1.5,1.3,1.5,1.7A.6.6,0,0,1,203.7,9.9ZM212.8,3a.7.7,0,0,1-.5-.4L210.4,1c-.1-.1-.3-.2-.3-.4a.6.6,0,0,1,.5-.5,4.9,4.9,0,0,1,1.5,1c.3.2,1.3,1,1.3,1.3A.7.7,0,0,1,212.8,3Z"></path><path d="M227.1,2.4a.3.3,0,0,1,.3.3l-.2.3c-.3.1-.3.2-.4.4a5.5,5.5,0,0,0-.6,1.8,21.4,21.4,0,0,0-.6,5c0,.5.1,3.7.7,3.7a.3.3,0,0,0,.1-.2c.1-.1.5-1.2.6-1.4s.3-.7.5-.7.4.1.4.3v.2a9.5,9.5,0,0,0-.8,3.7V16a.5.5,0,0,1-.3.5l-.6.2c-.2,0-.4-.4-.5-.6a14.7,14.7,0,0,1-1.1-5.9,22.3,22.3,0,0,1,.9-6.3l.5-1.7c0-.1.1-.3.2-.3A4.7,4.7,0,0,1,227.1,2.4Zm8.2-.5a.2.2,0,0,1,.2.2c0,.1-.1.2-.2.3s-.2.6-.2,1.5-.1,1.4.4,1.4a9.8,9.8,0,0,0,2.3-.6h.3c.3,0,.3.3.4.6v.3c0,.2-.1.3-.4.4l-2.2.3c-.4.1-.7.2-.7.6s.2,4,.2,4.9a.7.7,0,0,0,.4.7c.5.2,3,1.4,3,2s-.4.9-.7.9l-.5-.4c-.3-.3-1.6-1.4-2-1.4s-.2.2-.2.3c-.1,1.6-1.2,2.1-2.6,2.1s-3.1-.6-3.1-2.2,1.5-2.1,2.9-2.1H234a.3.3,0,0,0,.3-.3c0-1-.1-3-.1-4s0-.9-.5-.9h-4.4c-.2,0-.3-.4-.3-.8s.1-.4.3-.4h3c1.3,0,1.7,0,1.7-.5s-.2-2.5-.3-3.1V1.8c0-.1.1-.2.3-.2Zm-4.5,11.9c0,.9,1.2,1.2,1.9,1.2a1.4,1.4,0,0,0,1.6-1.6c0-.2,0-.4-.2-.4a3.5,3.5,0,0,0-1.4-.3C232,12.7,230.8,13,230.8,13.8Z"></path><path d="M247.9,11.6c.5,2,2.5,2.5,4.3,2.5a29.8,29.8,0,0,0,6-.7h.4c.3,0,.3.3.3.5s0,.7-.3.8a36.9,36.9,0,0,1-6,.6c-2,0-4.1-.3-5.4-2.1a5.2,5.2,0,0,1-.6-1.6c0-.4.8-.5.8-.5S247.8,11.3,247.9,11.6Zm1.4-8.3a10.2,10.2,0,0,0,3.5.5,15,15,0,0,0,3.7-.4h.2c.3,0,.3.4.3.7s-.1.5-.4.6l-3.7.2a14,14,0,0,1-4.1-.5c-.2-.1-.3-.2-.3-.4s.1-.8.4-.8Z"></path><path d="M273.4,1.4l.4.3c0,.2-.2.3-.3.4s-.5.8-.6,1.5a2.5,2.5,0,0,0-.2.7c0,.1.1.3.4.3h.3a23.9,23.9,0,0,0,4.5-.9c0-.1.1-.1.2-.1s.4.8.4,1-.2.2-.4.3l-5.1.7c-.8.1-.5.4-1.5,3.8v.4a.1.1,0,0,0,.1.1.5.5,0,0,0,.4-.2,7.7,7.7,0,0,1,4.3-1.5,4.2,4.2,0,0,1,2.7.9,4.2,4.2,0,0,1,1,2.8,4.5,4.5,0,0,1-3.8,4.4,19.3,19.3,0,0,1-4.1.6c-.4,0-.5-.1-.6-.4a1.4,1.4,0,0,1-.2-.6.3.3,0,0,1,.3-.3h1.4a11.5,11.5,0,0,0,3.6-.7,3.2,3.2,0,0,0,2.3-3.2,2.5,2.5,0,0,0-2.6-2.6,8,8,0,0,0-4.4,1.7,3.1,3.1,0,0,0-.9,1.1l-.4.2c-.3,0-.8-.4-.8-.7s0-.3.1-.4A29.1,29.1,0,0,0,271,7.1a4.3,4.3,0,0,0,.2-1.1c0-.2-.1-.2-.3-.2l-3.1.2h-.3c-.4,0-.5-.5-.5-.9s.2-.4.5-.4H269a8.6,8.6,0,0,0,2.4-.2c.2-.2.2-.4.3-.8a16.6,16.6,0,0,0,.3-2.2c.1-.3.1-.5.2-.5Z"></path><path d="M292.3,4.9c.3.1.5.2.5.4s-.1.2-.3.4-.2.8-.2,1.1-.4,2.4-.7,3.6v.3h.1l.3-.2a10.3,10.3,0,0,1,3.3-2.1,5.2,5.2,0,0,1,2.1-.4,3.8,3.8,0,0,1,4,3.8c0,2.7-2.2,3.7-4.5,4.4l-2.2.5c-.3,0-.4,0-.5-.2a2.6,2.6,0,0,1-.3-.8c0-.3.3-.2.5-.3a10.9,10.9,0,0,0,2.6-.4c1.7-.5,3.2-1.3,3.2-3.3a2.6,2.6,0,0,0-2.9-2.6c-2.3,0-4.5,1.7-5.9,3.4-.1.1-.3.4-.5.4s-.9-.1-.9-.5a1.1,1.1,0,0,1,.2-.6,12.9,12.9,0,0,0,.4-1.9,21.2,21.2,0,0,0,.5-4.4c0-.5,0-.9.3-.9Zm2.8-3.1c.7.4,1.6.9,1.6,1.1s-.4,1-.7,1l-.4-.3A16.7,16.7,0,0,0,293,1.9a.2.2,0,0,1-.2-.2c0-.3.4-.9.7-.9A10.1,10.1,0,0,1,295.1,1.8Z"></path><path d="M311.3,15.3a.9.9,0,0,1-1,1,.9.9,0,0,1-.9-.9,1,1,0,0,1,1-1A.8.8,0,0,1,311.3,15.3Zm-.9-2.8c-.4,0-.5,0-.5-.4V6.5c0-.7-.1-2-.1-2.9a10.5,10.5,0,0,0-.1-1.2c0-.4.1-.4.5-.4h.5c.4,0,.5,0,.5.4a7.5,7.5,0,0,1-.1,1.2v8.5c0,.4-.1.4-.5.4Z"></path><path d="M320.8,15.3a.9.9,0,0,1-.9,1,.9.9,0,0,1-.9-.9.9.9,0,0,1,1-1A.8.8,0,0,1,320.8,15.3Zm-.9-2.8c-.4,0-.5,0-.5-.4V6.5c0-.7,0-2-.1-2.9V2.4c0-.4.1-.4.5-.4h.4c.4,0,.5,0,.5.4V3.6c-.1.9-.1,2.2-.1,2.9v5.6c0,.4-.1.4-.5.4Z"></path></g></svg> 