<?xml version="1.0" encoding="UTF-8"?> <svg xmlns="http://www.w3.org/2000/svg" viewBox="0 0 350.65 25.5"><defs><style>.cls-1{fill:#42210b;}.cls-2{fill:#fff;}.cls-3{fill:none;stroke:#42210b;stroke-miterlimit:10;}</style></defs><g id="レイヤー_2" data-name="レイヤー 2"><g id="Wire_frame" data-name="Wire frame"><path class="cls-1" d="M5,0H91.5a5,5,0,0,1,5,5V25a0,0,0,0,1,0,0H0a0,0,0,0,1,0,0V5A5,5,0,0,1,5,0Z"></path><path class="cls-2" d="M26.92,13.58a.11.11,0,0,1-.12.12l-2,0h-3.9v4L21,20a.11.11,0,0,1-.12.12H20c-.07,0-.11,0-.11-.12l0-2.35v-4h-3.8l-2,0a.11.11,0,0,1-.12-.12v-.74c0-.07,0-.1.12-.1H20V9.29c-1.2.21-2.57.39-4.1.56h-.18c-.09,0-.17-.08-.23-.24A2.09,2.09,0,0,0,15.1,9a33.72,33.72,0,0,0,8.11-1.43,3.28,3.28,0,0,0,1-.48,6.32,6.32,0,0,1,.73.55c.11.09.17.17.17.23s-.12.18-.35.2a6.22,6.22,0,0,0-.87.24,25.64,25.64,0,0,1-3,.79v3.66H26.8c.08,0,.12,0,.12.1Z"></path><path class="cls-2" d="M42.37,19.21a1.94,1.94,0,0,0-.4.52c-.08.17-.15.25-.21.25l-.21,0a12.74,12.74,0,0,1-5.65-2.89c0,.77,0,1.55,0,2.32q0,.89,0,.9c0,.07,0,.1-.12.1h-.74c-.07,0-.11,0-.11-.1s0-.23,0-.54c0-.91.06-1.81.06-2.68a12.13,12.13,0,0,1-5.44,2.89.87.87,0,0,1-.21,0c-.06,0-.14-.08-.23-.25a1.87,1.87,0,0,0-.37-.47,12.09,12.09,0,0,0,5.48-2.46H31.14l-2,0a.1.1,0,0,1-.11-.11v-.56c0-.08,0-.12.11-.12l2,0h3.92A6.1,6.1,0,0,0,35,15c.27,0,.59,0,1,.07.12,0,.18.06.18.14a.37.37,0,0,1,0,.16l0,.14a2,2,0,0,0-.07.58h4.14l2,0a.11.11,0,0,1,.12.12v.56c0,.07,0,.11-.12.11l-2,0H36.6a9.75,9.75,0,0,0,2.68,1.53A21.69,21.69,0,0,0,42.37,19.21ZM42,8.63a.11.11,0,0,1-.12.12l-2,0H37.9l0,.91c0,.08,0,.12-.11.12H37.2c-.09,0-.14,0-.14-.12l0-.91H33.78l0,.9a.11.11,0,0,1-.12.12h-.61c-.09,0-.14,0-.14-.12s0-.11,0-.29,0-.4,0-.61H31.09l-2,0A.11.11,0,0,1,29,8.63V8.07c0-.07,0-.11.12-.11l2,0H33a5.29,5.29,0,0,0-.09-1.14,6.88,6.88,0,0,1,.89.06c.1,0,.16.06.16.13a1.31,1.31,0,0,1-.08.21,2.38,2.38,0,0,0-.07.74h3.31A5.08,5.08,0,0,0,37,6.87a6.64,6.64,0,0,1,.89,0c.11,0,.17.06.17.14s0,.08-.07.21A1.61,1.61,0,0,0,37.9,8H40l2,0C42,8,42,8,42,8.07Zm-.18,2.81a.1.1,0,0,1-.11.11l-2,0H39.3v.32l0,1.28c0,.08,0,.12-.11.12l-1.43,0H36.36l-1.41,0c-.08,0-.11,0-.11-.12l0-1.28v-.32H32.48v2.56h6.46l2.07,0a.11.11,0,0,1,.12.12v.54a.11.11,0,0,1-.12.12l-2.07,0H32.48v.39a.11.11,0,0,1-.12.12h-.67c-.07,0-.11,0-.11-.12l0-1.26V11.52h-.39l-2,0a.1.1,0,0,1-.11-.11v-.53c0-.08,0-.12.11-.12l2,0h.39v-.06a9.27,9.27,0,0,0-.06-1.3c.42,0,.72,0,.91.07s.16.06.16.12a.35.35,0,0,1,0,.12.42.42,0,0,0-.05.12,2.86,2.86,0,0,0-.06.76v.17h2.39v-.17a4.16,4.16,0,0,0-.11-1.1c.37,0,.67,0,.9,0s.16.07.16.14a.41.41,0,0,1,0,.19,1.92,1.92,0,0,0-.08.74v.15h2.77V10.7a4.91,4.91,0,0,0-.09-1.15c.39,0,.7,0,.92,0s.15.07.15.14a.41.41,0,0,1-.06.19,2.42,2.42,0,0,0-.08.77v.12h.44l2,0c.07,0,.11,0,.11.12Zm-3.39,1.11v-1H35.69v1Z"></path><path class="cls-2" d="M50.67,10.79v5.64h2.61c.56,0,1.48,0,2.76-.07h.05c.11,0,.16.07.16.19v.69c0,.13-.07.19-.21.19l-2.75,0H47c-.51,0-1.32,0-2.43.07a.22.22,0,0,1-.24-.22,6.48,6.48,0,0,1-.08-.88c.65.05,1.57.07,2.75.07h2.62V10.79H48.1c-.74,0-1.5,0-2.28.08h0c-.07,0-.12-.07-.15-.23a5.8,5.8,0,0,1-.06-.88c.68.05,1.5.07,2.48.07H52c.82,0,1.69,0,2.62-.05h0c.07,0,.1.05.1.15v.73c0,.13-.06.19-.17.19-.84,0-1.7-.06-2.59-.06Z"></path><path class="cls-2" d="M60.15,7.94a9.09,9.09,0,0,1,1.22.24.22.22,0,0,1,.17.22.39.39,0,0,1,0,.14,4.65,4.65,0,0,0-.15,1.58v2.53c0,.67,0,1.33,0,2,0,.15-.07.23-.22.23h-.7c-.13,0-.19-.06-.19-.18v0c0-.89,0-1.58,0-2.06V10.12A11.74,11.74,0,0,0,60.15,7.94Zm.69,11a7.07,7.07,0,0,0,3.5-2.06,6.18,6.18,0,0,0,1.2-4V10.33a14,14,0,0,0-.17-2.63,6.25,6.25,0,0,1,1.27.24.2.2,0,0,1,.16.2.49.49,0,0,1,0,.18,6.8,6.8,0,0,0-.15,2v2.53a7.26,7.26,0,0,1-1.3,4.59A7.45,7.45,0,0,1,62,19.62l-.18,0a.33.33,0,0,1-.24-.11A2.7,2.7,0,0,0,60.84,19Z"></path><path class="cls-2" d="M70.72,8.75c.71.07,1.74.1,3.09.1h6.24a4.39,4.39,0,0,0,1.12-.09.65.65,0,0,1,.23-.06.38.38,0,0,1,.22.11,3.26,3.26,0,0,1,.55.58.29.29,0,0,1,.08.2.27.27,0,0,1-.15.23,1.44,1.44,0,0,0-.33.39,12.4,12.4,0,0,1-2.86,2.95.33.33,0,0,1-.19.06.26.26,0,0,1-.2-.08,2.16,2.16,0,0,0-.79-.38,9.59,9.59,0,0,0,3-2.95H73.93a27.17,27.17,0,0,0-2.8.14h0a.19.19,0,0,1-.2-.17A6.33,6.33,0,0,1,70.72,8.75Zm1.1,10.36a6.69,6.69,0,0,0,3.1-2.94,8.44,8.44,0,0,0,.75-3.69,5.61,5.61,0,0,0-.14-1.24,4.55,4.55,0,0,1,1.19.2c.13.06.2.14.2.24a.45.45,0,0,1-.06.2,1.63,1.63,0,0,0-.11.73,8.89,8.89,0,0,1-.86,4,7.61,7.61,0,0,1-2.81,3,.48.48,0,0,1-.25.08.28.28,0,0,1-.21-.08A2.44,2.44,0,0,0,71.82,19.11Z"></path><line class="cls-3" y1="25" x2="350.65" y2="25"></line></g></g></svg> 