<svg xmlns="http://www.w3.org/2000/svg" viewBox="0 0 350.65 25.5"><defs><style>.cls-1{fill:#42210b;}.cls-2{fill:#fff;}.cls-3{fill:none;stroke:#42210b;stroke-miterlimit:10;}</style></defs><g id="レイヤー_2" data-name="レイヤー 2"><g id="阪和エリア"><path class="cls-1" d="M5,0H91.5a5,5,0,0,1,5,5V25a0,0,0,0,1,0,0H0a0,0,0,0,1,0,0V5A5,5,0,0,1,5,0Z"/><path class="cls-2" d="M19.07,8.15a.31.31,0,0,1-.11.22,1.08,1.08,0,0,0-.27.45,31.33,31.33,0,0,1-1.58,3.07,9.19,9.19,0,0,1,1.42,2,3.25,3.25,0,0,1,.28,1.36,1.9,1.9,0,0,1-.56,1.43,2.4,2.4,0,0,1-1.63.59h-.15a.2.2,0,0,1-.16-.05.61.61,0,0,1-.07-.22,1.09,1.09,0,0,0-.29-.61h.32c1.11,0,1.67-.39,1.67-1.15a2.83,2.83,0,0,0-.39-1.37A14,14,0,0,0,16.18,12a25.49,25.49,0,0,0,1.69-3.6H15.51v8.76l0,3a.11.11,0,0,1-.12.12h-.7c-.07,0-.11,0-.11-.12l0-3V10.72l0-3.06c0-.08,0-.12.11-.12l1.19,0h2a.91.91,0,0,0,.36-.05.27.27,0,0,1,.13,0c.09,0,.23.09.4.27S19.07,8.08,19.07,8.15ZM27.26,19.4a1.64,1.64,0,0,0-.41.57c-.06.15-.12.23-.17.23a.53.53,0,0,1-.22-.12,14.39,14.39,0,0,1-2.79-2.49,11.19,11.19,0,0,1-3.3,2.6,1,1,0,0,1-.24.1s-.11-.08-.21-.23a1.69,1.69,0,0,0-.45-.47,10.07,10.07,0,0,0,3.66-2.71A11.66,11.66,0,0,1,21.27,12h-.53a21.5,21.5,0,0,1-.4,3.71A9.37,9.37,0,0,1,18,20.05c-.1.11-.17.16-.21.16s-.1-.05-.2-.16a1.32,1.32,0,0,0-.52-.37,8.26,8.26,0,0,0,2.46-4.4,23.6,23.6,0,0,0,.34-4.58l0-3.07A.11.11,0,0,1,20,7.51l1.94,0H25l1.9,0a.11.11,0,0,1,.12.12v.68c0,.07,0,.1-.12.1l-1.9,0H20.76v2.78H25.2a1,1,0,0,0,.36,0,.46.46,0,0,1,.18-.06c.09,0,.23.1.4.29s.29.35.29.44,0,.1-.1.17a1.15,1.15,0,0,0-.26.57,12.92,12.92,0,0,1-1.86,4.34A11.42,11.42,0,0,0,27.26,19.4ZM25.3,12H22.05a10.69,10.69,0,0,0,1.62,4.18A11.25,11.25,0,0,0,25.3,12Z"/><path class="cls-2" d="M35.1,12c0,.09,0,.13-.12.13l-1.78,0h-.35a13.3,13.3,0,0,0,2.21,3,2.5,2.5,0,0,0-.38.6c-.06.12-.11.18-.14.18s-.08-.05-.16-.15a15.24,15.24,0,0,1-1.8-3.05c0,1.71,0,3.52.07,5.42,0,.45,0,1,0,1.6,0,.29,0,.45,0,.48a.11.11,0,0,1-.12.12h-.75a.11.11,0,0,1-.12-.12l0-1.17c.06-2.27.1-4.37.1-6.31a20.15,20.15,0,0,1-2.55,4.89c-.07.1-.12.15-.16.15s-.09,0-.15-.17a2.31,2.31,0,0,0-.41-.61,19.34,19.34,0,0,0,2.94-4.91h-.63l-1.79,0c-.06,0-.1,0-.1-.13v-.58c0-.08,0-.12.1-.12l1.79,0h.89V9c-.55.16-1.2.32-1.94.46l-.19,0c-.08,0-.16-.08-.25-.24A2.25,2.25,0,0,0,29,8.75a17.87,17.87,0,0,0,2.71-.63,12.06,12.06,0,0,0,1.75-.64A3.1,3.1,0,0,0,34.17,7a5.8,5.8,0,0,1,.64.53.4.4,0,0,1,.14.25c0,.08-.08.12-.25.14a2.7,2.7,0,0,0-.64.19c-.23.11-.7.28-1.41.53v2.61h.55l1.78,0a.11.11,0,0,1,.12.12Zm6.25,7.45c0,.08,0,.13-.11.13h-.7c-.08,0-.12-.05-.12-.13v-1H36.67v1.16a.1.1,0,0,1-.11.11h-.68c-.08,0-.12,0-.12-.11l0-4.78V12l0-3.57a.11.11,0,0,1,.12-.12l1.67,0h2l1.67,0c.08,0,.11,0,.11.12l0,3.2v3.1Zm-.93-1.87V9.16H36.67v8.38Z"/><path class="cls-2" d="M50.67,10.79v5.64h2.61c.56,0,1.48,0,2.76-.07h.05c.11,0,.16.07.16.19v.69c0,.13-.07.19-.21.19l-2.75,0H47c-.51,0-1.32,0-2.43.07a.22.22,0,0,1-.24-.22,6.48,6.48,0,0,1-.08-.88c.65.05,1.57.07,2.75.07h2.62V10.79H48.1c-.74,0-1.5,0-2.28.08h0c-.07,0-.12-.07-.15-.23a5.8,5.8,0,0,1-.06-.88c.68.05,1.5.07,2.48.07H52c.82,0,1.69,0,2.62-.05h0c.07,0,.1.05.1.15v.73c0,.13-.06.19-.17.19-.84,0-1.7-.06-2.59-.06Z"/><path class="cls-2" d="M60.15,7.94a9.09,9.09,0,0,1,1.22.24.22.22,0,0,1,.17.22.39.39,0,0,1,0,.14,4.65,4.65,0,0,0-.15,1.58v2.53c0,.67,0,1.33,0,2,0,.15-.07.23-.22.23h-.7c-.13,0-.19-.06-.19-.18v0c0-.89,0-1.58,0-2.06V10.12A11.74,11.74,0,0,0,60.15,7.94Zm.69,11a7.07,7.07,0,0,0,3.5-2.06,6.18,6.18,0,0,0,1.2-4V10.33a14,14,0,0,0-.17-2.63,6.25,6.25,0,0,1,1.27.24.2.2,0,0,1,.16.2.49.49,0,0,1,0,.18,6.8,6.8,0,0,0-.15,2v2.53a7.26,7.26,0,0,1-1.3,4.59A7.45,7.45,0,0,1,62,19.62l-.18,0a.33.33,0,0,1-.24-.11A2.7,2.7,0,0,0,60.84,19Z"/><path class="cls-2" d="M70.72,8.75c.71.07,1.74.1,3.09.1h6.24a4.39,4.39,0,0,0,1.12-.09.65.65,0,0,1,.23-.06.38.38,0,0,1,.22.11,3.26,3.26,0,0,1,.55.58.29.29,0,0,1,.08.2.27.27,0,0,1-.15.23,1.44,1.44,0,0,0-.33.39,12.4,12.4,0,0,1-2.86,2.95.33.33,0,0,1-.19.06.26.26,0,0,1-.2-.08,2.16,2.16,0,0,0-.79-.38,9.59,9.59,0,0,0,3-2.95H73.93a27.17,27.17,0,0,0-2.8.14h0a.19.19,0,0,1-.2-.17A6.33,6.33,0,0,1,70.72,8.75Zm1.1,10.36a6.69,6.69,0,0,0,3.1-2.94,8.44,8.44,0,0,0,.75-3.69,5.61,5.61,0,0,0-.14-1.24,4.55,4.55,0,0,1,1.19.2c.13.06.2.14.2.24a.45.45,0,0,1-.06.2,1.63,1.63,0,0,0-.11.73,8.89,8.89,0,0,1-.86,4,7.61,7.61,0,0,1-2.81,3,.48.48,0,0,1-.25.08.28.28,0,0,1-.21-.08A2.44,2.44,0,0,0,71.82,19.11Z"/><line class="cls-3" y1="25" x2="350.65" y2="25"/></g></g></svg>