<?xml version="1.0" encoding="UTF-8"?> <svg xmlns="http://www.w3.org/2000/svg" viewBox="0 0 262.05 183.39"><defs><style>.cls-1{fill:#40220f;}.cls-2{fill:#0d335b;}.cls-3{fill:#fff;}.cls-4{fill:#ad0003;}</style></defs><g id="レイヤー_2" data-name="レイヤー 2"><g id="Wire_frame" data-name="Wire frame"><path class="cls-1" d="M9.38,8.28l6.44-.46h.08a.79.79,0,0,1,.82.86.78.78,0,0,1-.8.86L9.38,10v7.66a.86.86,0,0,1-.94.82.86.86,0,0,1-.94-.82V10.1l-6.62.44A.77.77,0,0,1,0,9.74a.81.81,0,0,1,.8-.88L7.5,8.4v-4a32.48,32.48,0,0,1-4.32.94c-.5,0-.78-.24-.78-.68a.73.73,0,0,1,.36-.62,3.78,3.78,0,0,1,.94-.28,48.39,48.39,0,0,0,7.68-2.64A1.3,1.3,0,0,1,11.9,1a.86.86,0,0,1,.92.9,1,1,0,0,1-.64.92c-.44.2-2.06.78-2.8,1Z"></path><path class="cls-1" d="M28.42,5.52l0-.92c0-.48.28-.74.84-.74A.69.69,0,0,1,30,4.6v.82l2.8-.16.08-.84a.72.72,0,0,1,.78-.72c.5,0,.9.34.84.72l0,.14-.08.6L37.5,5c.46,0,.72.22.72.64a.61.61,0,0,1-.66.66l-3.32.2-.12,1a.56.56,0,0,1,.54.58.59.59,0,0,1-.64.6l-4,.2a.61.61,0,0,1-.66.36c-.48,0-.78-.24-.8-.68l-.06-1.64L26.14,7l.1,2.34c0,.34.18.48.56.46l8.3-.48c.48,0,.78.2.78.58a.6.6,0,0,1-.66.66l-9.14.52c-1,0-1.46-.34-1.5-1.26l-.12-2.7-2.94.18c-.46,0-.74-.22-.74-.64A.61.61,0,0,1,21.42,6l3-.18,0-.68a.72.72,0,0,1,.82-.76.76.76,0,0,1,.86.74l0,.6Zm3,7.92a29.5,29.5,0,0,0,6.38,2.76c.66.18,1,.36,1,.54s-1.48.84-2.2.84c-1,0-4.34-1.88-6.22-3.52V17.8a.78.78,0,0,1-.84.74.75.75,0,0,1-.84-.74V14.32a23,23,0,0,1-5.56,3,6.53,6.53,0,0,1-1.64.46c-.34,0-.54-.22-.54-.6a.58.58,0,0,1,.34-.5L22,16.4a28.13,28.13,0,0,0,5.16-2.74l-4.58.24a.67.67,0,0,1-.76-.68.64.64,0,0,1,.64-.7l6.26-.32v-.54c0-.42.36-.7.86-.7a.74.74,0,0,1,.82.66v.48l6.24-.32a.68.68,0,0,1,.74.68.63.63,0,0,1-.62.7Zm1.4-9.7a.75.75,0,0,1-.8.7.7.7,0,0,1-.72-.88l0-.4-3.74.2.06.52a.73.73,0,0,1-.8.84A.72.72,0,0,1,26.06,4L26,3.44l-3.72.2A.67.67,0,0,1,21.5,3a.65.65,0,0,1,.62-.68l3.64-.2-.14-.84a.64.64,0,0,1,0-.16.83.83,0,0,1,.92-.78.82.82,0,0,1,.86.78l.1.9,4-.22.08-.88a.83.83,0,0,1,.88-.76.81.81,0,0,1,.88.76.56.56,0,0,1,0,.16l-.12.64,3.5-.2a.68.68,0,0,1,.74.68.64.64,0,0,1-.62.66L33,3.06Zm-.16,2.8L30,6.7l0,1L32.6,7.5Z"></path><path class="cls-1" d="M43.66,6.66a.9.9,0,0,1-.94-1,.77.77,0,0,1,.54-.76,4.58,4.58,0,0,1,1.08-.16C46.4,4.58,52,3.7,54.66,3.16a3.36,3.36,0,0,1,.54-.06,1,1,0,0,1,1,1.08c0,.4-.2.62-.74.82a7.42,7.42,0,0,0-2.84,2,6.7,6.7,0,0,0-1.86,4.46c0,1.9,1.16,3.3,3.32,4,.56.16.82.46.82.92a.88.88,0,0,1-.92.9,4.75,4.75,0,0,1-2-.72,5.63,5.63,0,0,1-3-5,8.12,8.12,0,0,1,3.3-6.22.86.86,0,0,1,.22-.16C49.68,5.76,44.34,6.66,43.66,6.66ZM58.5,2.76c.52.54.76.92.76,1.26a.75.75,0,0,1-.76.72c-.28,0-.42-.1-.66-.46A8.82,8.82,0,0,0,56.4,2.46a.87.87,0,0,1-.3-.54.5.5,0,0,1,.5-.48A3.89,3.89,0,0,1,58.5,2.76Zm1-2.16C60.48,1.3,61,2,61,2.46a.75.75,0,0,1-.74.72c-.3,0-.4-.08-.66-.44A9.6,9.6,0,0,0,58.12,1a.77.77,0,0,1-.26-.5A.48.48,0,0,1,58.34,0,2.37,2.37,0,0,1,59.54.6Z"></path><path class="cls-1" d="M66.85,7.06c1.13.62,1.32.84,1.32,1.38a.88.88,0,0,1-.88.9,1.1,1.1,0,0,1-.86-.4c-.34-.3-.58-.5-1.3-1.08s-.82-.68-.82-1a.59.59,0,0,1,.58-.6A5.57,5.57,0,0,1,66.85,7.06Zm2.42,4.58a16.51,16.51,0,0,1-2,4.36c-.72,1.18-1.06,1.5-1.54,1.5a1,1,0,0,1-.92-.88c0-.32,0-.42.46-1a35.14,35.14,0,0,0,2.48-4c.28-.52.48-.7.81-.7A.74.74,0,0,1,69.27,11.64ZM68.11,3c.85.46,1.11.78,1.11,1.26a1,1,0,0,1-.93.92c-.3,0-.48-.08-.86-.44s-.88-.76-1.6-1.32c-.32-.26-.46-.46-.46-.72a.62.62,0,0,1,.66-.6A6.06,6.06,0,0,1,68.11,3ZM81.32,15.22a.77.77,0,0,1,.86.82.76.76,0,0,1-.78.86l-11.56.5a.75.75,0,0,1-.84-.8.74.74,0,0,1,.78-.82l4.76-.24V11.48l-3.24.22a.78.78,0,1,1-.1-1.56l3.34-.22V6.66l-3.86.28a.73.73,0,0,1-.86-.76.75.75,0,0,1,.74-.84L80.1,4.6a.77.77,0,0,1,.92.76.79.79,0,0,1-.76.88l-4,.28V9.8l3.22-.2a.71.71,0,0,1,.86.74.72.72,0,0,1-.76.82l-3.32.22v4.08ZM75.9,2.06c.76.52,1,.76,1,1.18a1,1,0,0,1-1,.94c-.3,0-.44-.08-.78-.44a19.81,19.81,0,0,0-2.14-1.86.73.73,0,0,1-.36-.58A.62.62,0,0,1,73.2.7,8.58,8.58,0,0,1,75.9,2.06Z"></path><path class="cls-1" d="M99.23,5.84A17.24,17.24,0,0,1,96,12.24a24.36,24.36,0,0,0,7,4.06c.52.2.78.4.78.58s-.18.28-.5.4a6.15,6.15,0,0,1-2,.5,2.39,2.39,0,0,1-1.35-.52,27.58,27.58,0,0,1-5-3.82,17.78,17.78,0,0,1-6.5,3.84,3.78,3.78,0,0,1-1.12.28.64.64,0,0,1-.7-.64.6.6,0,0,1,.32-.52,3.55,3.55,0,0,1,.64-.26,19,19,0,0,0,6.14-4,27.11,27.11,0,0,1-3.9-5.78l-2.24.12a.76.76,0,0,1-.9-.8.76.76,0,0,1,.76-.8l6.44-.38V1.72a.93.93,0,0,1,1.86,0v2.7l6.13-.36a.79.79,0,0,1,.88.8.77.77,0,0,1-.74.82Zm-7.9.44A25.9,25.9,0,0,0,94.67,11a16,16,0,0,0,2.5-5Z"></path><path class="cls-1" d="M110.85,17.3a.83.83,0,0,1-1.66,0v-9c-1.1,1.58-1.64,2.16-2.1,2.16a.61.61,0,0,1-.58-.6c0-.26,0-.26.56-1.08a33.74,33.74,0,0,0,3.46-6.9c.22-.58.47-.82.91-.82a.8.8,0,0,1,.86.78,13.38,13.38,0,0,1-1.45,3.62Zm8-7.42,3.16-.2a.71.71,0,0,1,.84.76.71.71,0,0,1-.74.8l-3.26.2v4.1l4.94-.24a.81.81,0,0,1,.86.82.78.78,0,0,1-.8.86l-11.24.52a.76.76,0,0,1-.85-.8.74.74,0,0,1,.77-.84l4.54-.22V11.56l-3.18.2A.71.71,0,0,1,113,11a.72.72,0,0,1,.74-.8L117,10V6.74L113.26,7a.73.73,0,0,1-.88-.76.77.77,0,0,1,.74-.86l9.44-.74a.78.78,0,0,1,.9.78.79.79,0,0,1-.74.88l-3.9.28Zm-1-8.12c1.18.76,1.48,1.08,1.48,1.56a1,1,0,0,1-1,.92c-.32,0-.44-.06-.8-.44a16.47,16.47,0,0,0-2.16-1.86.65.65,0,0,1-.3-.52.73.73,0,0,1,.66-.68A6,6,0,0,1,117.86,1.76Z"></path><path class="cls-1" d="M143.51,3h.18c.68,0,1.08.32,1.08.84a5.14,5.14,0,0,1-1.28,2.38c-.62.76-.94,1-1.24,1a.61.61,0,0,1-.58-.58.91.91,0,0,1,.22-.54,3.59,3.59,0,0,0,.62-1.38c0-.14-.12-.22-.28-.2h-.08l-11.6.8c-.1,2-.42,2.76-1.18,2.76a.88.88,0,0,1-1-.86,1.64,1.64,0,0,1,.18-.7A10.48,10.48,0,0,0,129.23,4c0-.46.28-.72.66-.72a.58.58,0,0,1,.62.6l5-.34V1.34a.83.83,0,0,1,.9-.8.85.85,0,0,1,.9.8v2Zm-7,7.78,6.4-.8.16,0a.8.8,0,0,1,.78.84.76.76,0,0,1-.76.78l-6.6.8,0,2.68v.1a.86.86,0,0,0,.62,1,11.63,11.63,0,0,0,1.9.08,11.56,11.56,0,0,0,3.76-.36c.38-.2.42-.44.44-2.1,0-.5.18-.72.58-.72s.48.18.58.56a10.77,10.77,0,0,1,.4,2.42,1.37,1.37,0,0,1-1.24,1.54,27.11,27.11,0,0,1-5,.34c-2,0-2.7-.12-3.24-.54a1.62,1.62,0,0,1-.56-1c0-.14,0-.44,0-.48v-.06l0-3.16-5.32.66a.78.78,0,0,1-.88-.8.73.73,0,0,1,.7-.76l5.52-.7,0-2.12a25.86,25.86,0,0,1-3,.54.65.65,0,0,1-.68-.7.57.57,0,0,1,.34-.54,4,4,0,0,1,.72-.18,37,37,0,0,0,6.28-1.88,1.49,1.49,0,0,1,.68-.18.85.85,0,0,1,.78.86c0,.68-.56,1-3.28,1.66Z"></path><path class="cls-1" d="M158.31,13.06a.81.81,0,0,1-.86.88c-.54,0-.82-.3-.82-.88V12c-1.64,1-2.26,1.68-2.26,2.5s.74,1.08,2.24,1.08c1,0,3.16-.14,4-.24a.44.44,0,0,1,.16,0,.85.85,0,0,1,.84.9c0,.48-.28.76-.86.84a38.49,38.49,0,0,1-4.08.18c-2.66,0-4.08-.92-4.08-2.62s.94-2.62,4-4.38c-.18-.86-.46-1.16-1.14-1.16a4,4,0,0,0-2.28.72,1.38,1.38,0,0,1-.72.26.89.89,0,0,1-.82-.86.87.87,0,0,1,.28-.62,15.61,15.61,0,0,0,1.9-3.06c-.78.06-1.92.12-2.3.12-.68,0-1-.26-1-.76A.8.8,0,0,1,151,4a2.07,2.07,0,0,1,.64,0c.48,0,2-.06,3-.16.44-.92.64-1.38,1-2.18.22-.5.46-.7.88-.7a.83.83,0,0,1,.86.78,5.81,5.81,0,0,1-.8,1.88,21,21,0,0,0,2.62-.44,1,1,0,0,1,.36-.06.81.81,0,0,1,.76.86c0,.38-.26.64-.76.76a31,31,0,0,1-3.88.6c-.66,1.2-1.1,2-1.56,2.66l0,.06A4.89,4.89,0,0,1,156,7.64a2.12,2.12,0,0,1,2.16,1.78,16.66,16.66,0,0,1,4.22-1.72.83.83,0,0,1,.82.9c0,.38-.14.52-.76.76-1.8.7-3,1.2-4.12,1.74Z"></path><path class="cls-1" d="M172.76,7.92c.8,0,1.16.34,1.16,1.1a11.74,11.74,0,0,1-1.1,4,37.79,37.79,0,0,0,12.7,3.62c.66.06,1,.18,1,.36s-.14.28-.58.56a3.85,3.85,0,0,1-2.08.8c-2,0-8.08-2.16-11.72-4.16a10.71,10.71,0,0,1-2.9,3,.89.89,0,0,1-.6.24.64.64,0,0,1-.58-.64c0-.28,0-.28.7-.88a10.78,10.78,0,0,0,2.1-2.46.83.83,0,0,1-.22-.14c-.1,0-.18-.1-.26-.14a16.57,16.57,0,0,1-1.8-1.22.72.72,0,0,1-.34-.56.62.62,0,0,1,.6-.6c.24,0,.32,0,1,.54.3.2,1,.64,1.58.94a9.62,9.62,0,0,0,.76-2.68c0-.18-.1-.26-.3-.26h-.16L170,9.56l-.12,0a.68.68,0,0,1-.74-.7.7.7,0,0,1,.16-.48s.08-.14.18-.26a20,20,0,0,0,2-4c0-.12-.1-.2-.24-.2a1.23,1.23,0,0,0-.26,0l-2,.38a.44.44,0,0,1-.16,0,.72.72,0,0,1-.72-.76.79.79,0,0,1,.7-.78l3.34-.5a2.42,2.42,0,0,1,.4,0,.88.88,0,0,1,1,.88,2.4,2.4,0,0,1-.32,1.08,28,28,0,0,1-2,3.76l1.22-.1Zm7.42,1.56,3.26-.22a.62.62,0,0,1,.76.62.61.61,0,0,1-.56.64l-3.46.24V11.9l4.48-.24a1.72,1.72,0,0,1,.5.14.66.66,0,0,1,.24.54.63.63,0,0,1-.58.66l-4.64.24v1.34a.74.74,0,0,1-.8.74.78.78,0,0,1-.84-.74V13.34l-3.58.18a.65.65,0,0,1-.76-.66.6.6,0,0,1,.56-.66l3.78-.2V10.88l-2.88.2a.63.63,0,0,1-.7-.66.6.6,0,0,1,.58-.64l3-.2V8.46l-2.78.24a.63.63,0,0,1-.68-.64.61.61,0,0,1,.58-.64l2.88-.24V6l-4.24.36a.56.56,0,0,1-.64-.6.61.61,0,0,1,.56-.66l4.32-.38V3.6l-2.78.28a.59.59,0,0,1-.68-.62.62.62,0,0,1,.58-.64l2.88-.28V1.14a.75.75,0,0,1,.84-.74.74.74,0,0,1,.8.74v1L182.54,2a1.85,1.85,0,0,1,.3,0c.84,0,1.24.38,1.24,1.2a1.63,1.63,0,0,1,0,.28l-.1.82,1.34-.12a.59.59,0,0,1,.66.6.63.63,0,0,1-.58.68l-1.56.14-.14,1.26a.6.6,0,0,1,.46.6.64.64,0,0,1-.6.64l-3.36.28Zm2.22-5.1.06-.74c0-.26-.1-.38-.32-.38l-2,.2V4.58Zm-.22,2.5.1-1.22-2.1.2V7Z"></path><path class="cls-1" d="M200.92,4.8c-3.64.66-8.62,1.46-9.22,1.46a.9.9,0,0,1-.94-1,.77.77,0,0,1,.54-.76,4.66,4.66,0,0,1,1.1-.16c2.24-.22,8.58-1.2,11.26-1.74a3.15,3.15,0,0,1,.54-.06,1,1,0,0,1,1.06,1.1c0,.4-.22.6-.82.8-3.08.94-5.6,3.9-5.6,6.6,0,1.86,1.18,3.28,3.32,4,.56.16.82.46.82.92a.88.88,0,0,1-.92.9,4.75,4.75,0,0,1-2-.72,5.61,5.61,0,0,1-3-4.94,8,8,0,0,1,3.7-6.3Z"></path><path class="cls-1" d="M218,3.62a37.63,37.63,0,0,1-4.34.7.83.83,0,0,1-.9-.84.79.79,0,0,1,.6-.8,3.16,3.16,0,0,1,.68-.08,36.77,36.77,0,0,0,4.82-.68,1.64,1.64,0,0,1,.36-.06,1.2,1.2,0,0,1,1.2,1.1c0,.38-.06.48-.68,1.14-3.06,3.28-3.94,4.18-5.72,5.8l.06.06a8,8,0,0,1,4.58-1.46c2.86,0,4.9,1.64,4.9,3.94,0,3-2.54,4.92-6.4,4.92-1.9,0-3.42-1.08-3.42-2.44,0-1.2,1.28-2.12,3-2.12a4.26,4.26,0,0,1,3.66,2.2,3.07,3.07,0,0,0,1.3-2.5c0-1.46-1.3-2.52-3.12-2.52a9.87,9.87,0,0,0-6.3,2.44,1.38,1.38,0,0,1-.83.38,1,1,0,0,1-.86-1c0-.42.06-.5.9-1.24a75.76,75.76,0,0,0,6.63-6.88Zm-1.36,10.62c-.72,0-1.24.3-1.24.72s.78.92,1.76.92a7.38,7.38,0,0,0,1.68-.2A2.75,2.75,0,0,0,216.67,14.24Z"></path><path class="cls-1" d="M233.77,2c.18-.58.42-.8.9-.8a.79.79,0,0,1,.86.78,11.42,11.42,0,0,1-.74,2.28c.44-.08,1.24-.22,1.48-.3a2.44,2.44,0,0,1,.44-.06.74.74,0,0,1,.72.84.73.73,0,0,1-.66.78c-.5.12-1.74.3-2.64.42a37.55,37.55,0,0,1-2.94,5.9.93.93,0,0,1-.82.54.89.89,0,0,1-.86-.82c0-.24,0-.32.4-.86a26.84,26.84,0,0,0,2.3-4.52c-.4.06-.78.1-1.36.16l-.56,0a1.15,1.15,0,0,1-.24,0,.75.75,0,0,1-.74-.8c0-.56.32-.8,1-.86.38,0,1.64-.12,2.54-.22C233.27,3.46,233.53,2.7,233.77,2ZM238,10.42c0-1.24.32-1.82,1-1.82a.75.75,0,0,1,.78.74,1,1,0,0,1,0,.3,4.93,4.93,0,0,0-.06.86v2.42a12.26,12.26,0,0,1,3,1.32,1,1,0,0,1,.58.86.89.89,0,0,1-.8.86c-.2,0-.3,0-.64-.28a12.55,12.55,0,0,0-2.18-1.16v.62a2.14,2.14,0,0,1-2.34,2.36c-1.84,0-3.62-1.46-3.62-3,0-1.26,1.18-2.12,2.9-2.12a7.4,7.4,0,0,1,1.42.14Zm0,3.6a7.88,7.88,0,0,0-1.42-.14c-.8,0-1.26.26-1.26.7,0,.7,1,1.42,1.9,1.42.48,0,.78-.34.78-.9Zm2.44-8.4a.64.64,0,0,1-.32-.54.58.58,0,0,1,.66-.58,6.35,6.35,0,0,1,2.8,1.58c.68.58,1,1,1,1.48s-.34.74-1.06.76a10.32,10.32,0,0,0-1.38.16,1.46,1.46,0,0,1-.36,0c-.36,0-.58-.18-.58-.48s.3-.52,1.26-.76A10.81,10.81,0,0,0,240.39,5.62Z"></path><path class="cls-1" d="M252.89,11.2a10.12,10.12,0,0,1,5.24-1.6c2.36,0,3.92,1.3,3.92,3.26a4.21,4.21,0,0,1-2.68,3.78,11,11,0,0,1-3.62,1,.64.64,0,0,1-.28-1.24l.74-.18c2.38-.56,3.9-1.84,3.9-3.3,0-1.06-.84-1.76-2.1-1.76a9.08,9.08,0,0,0-5.08,1.8,1.5,1.5,0,0,1-.86.3,1,1,0,0,1-1-1.14,57.21,57.21,0,0,1,1-6,.88.88,0,0,1,.94-.76.79.79,0,0,1,.84.82,2.36,2.36,0,0,1-.12.6,27.73,27.73,0,0,0-.82,4.22ZM254,2.08a.59.59,0,0,1-.36-.5.57.57,0,0,1,.64-.56A6.65,6.65,0,0,1,257,2.34a2.16,2.16,0,0,1,1.1,1.6c0,.48-.38.74-1.12.74a14.84,14.84,0,0,0-1.48.2.75.75,0,0,1-.2,0c-.36,0-.56-.18-.56-.46s.24-.5,1.28-.78A6.49,6.49,0,0,0,254,2.08Z"></path><path class="cls-2" d="M85.78,42.12a7.58,7.58,0,0,0-1.79.22V40.17a9.58,9.58,0,0,0,1.79.19h23.78c-.67,8-4.5,12-12.69,13.56-.73,4.7-4,7.86-9.94,9.81a4.75,4.75,0,0,0-1.44.64l-.76-1.92c1,.07,2.84-.67,4.92-2a9.54,9.54,0,0,0,4.57-8.34V47.49A9.67,9.67,0,0,0,94,45.7h3.19A10.21,10.21,0,0,0,97,47.49v4.76c5.47-1.34,8.57-4.76,9.24-10.13Z"></path><path class="cls-2" d="M115.93,52.25c3.06-.25,9.23-2.87,12.65-5.33s7.68-6.56,8.54-8.57l2.56,2.2c-.29.26-.71.68-1.28,1.25a41.33,41.33,0,0,1-6.68,6v15a9.34,9.34,0,0,0,.19,1.79h-3.23a7.44,7.44,0,0,0,.22-1.79V49.51a44.67,44.67,0,0,1-10.74,4,5.8,5.8,0,0,0-1.56.55Z"></path><path class="cls-2" d="M162.12,61.72h10.51a14.94,14.94,0,0,0,2.11-.19v2l-.35,0-.44-.06c-.36,0-.77-.06-1.32-.06H148.56a13.49,13.49,0,0,0-2.14.16v-2a15,15,0,0,0,2.14.19h10.36V42.09h-8.5c-.45,0-.83,0-1.22.06l-.6.1-.29,0v-2a13.14,13.14,0,0,0,2.11.16h20.49a13.25,13.25,0,0,0,2.14-.16v2l-.16,0-.64-.07a8.74,8.74,0,0,0-1.34-.09h-8.79Z"></path><path class="cls-2" d="M207.06,41.42a15.54,15.54,0,0,1-3.51,6,21.66,21.66,0,0,0,5.27,2.23l1.66.32-1.56,2.66L207.64,52a23.37,23.37,0,0,1-5.76-3.13,22.41,22.41,0,0,1-6.42,3.26l-.93.57-.93-1.5a27.45,27.45,0,0,1-1.69,3.23l-.48,1.18-1.5-.7.61-1.09a39.79,39.79,0,0,0,1.05-4.25h-2.36V63.73c0,1.22-.52,1.82-1.54,1.82a16,16,0,0,1-3.45-.57l-1.44-.19-.22-1.6a33.18,33.18,0,0,0,3.38.22c.58,0,.71-.13.71-.67V53.47a27.62,27.62,0,0,1-5,7.1l-.8,1.11-1.34-1.18,1-1a32.5,32.5,0,0,0,5-10h-2.94a13.39,13.39,0,0,0-2.11.16V47.78a13.72,13.72,0,0,0,2.11.16h5.59l-.22-.32a48.79,48.79,0,0,0-4.6-4.32l-1-.6,1.19-1.31.83.73c.77.45,2.2,1.34,2.81,1.76a24.25,24.25,0,0,0,3-4.25h-6.93a13.49,13.49,0,0,0-2.14.16V37.84a14,14,0,0,0,2.14.16h7.54a17.37,17.37,0,0,0,3.23-.13v1.28a50.23,50.23,0,0,1-5.5,5.59l.39.29.35.22.64.45,1.12.67-1.54,1.57h2.11a14.92,14.92,0,0,0,2.85-.13v1.25c-.29.83-.58,1.53-.8,2.08l1.24-.26a21.39,21.39,0,0,0,5.37-3.39,15.82,15.82,0,0,1-3.19-4.73,33.73,33.73,0,0,1-2.3,2.49l-.9.93-1.25-1.09,1-.83a20.6,20.6,0,0,0,4.09-7.16l.26-1.18,3.07.73-.7,1.22a20.77,20.77,0,0,1-1.09,1.92h8.6a12.75,12.75,0,0,0,2.11-.16v1.95l-.35,0-.45-.07c-.35,0-.77-.06-1.31-.06ZM195.55,55.9a13,13,0,0,0-2.07.16v-2a13.26,13.26,0,0,0,2.07.16h3.62V54l0-.13c0-.35.09-1.18.09-1.63l-.06-1.6,3,.1-.26,1.5c0,.48,0,.83-.06,1.57l-.07.48H206a16.24,16.24,0,0,0,2.84-.13v1.22c-.38,5.24-.57,7-1,8.4-.38,1.25-1,1.82-2,1.82a16.11,16.11,0,0,1-4.1-.76l-1.53-.26L200,63a33.72,33.72,0,0,0,4,.28c.83,0,1.05-.19,1.28-1a30.89,30.89,0,0,0,.8-6.39h-4.48c-1,4.54-3.23,7.26-7.9,9.43l-1.21.67-1-1.53L193,64c3.42-2.11,5.33-4.7,5.94-8.09Zm2.5-14.42A15.57,15.57,0,0,0,201.63,46a14,14,0,0,0,2.46-4.6h-6Z"></path><path class="cls-2" d="M229,38.35c0-.42,0-.8-.06-1.18l-.1-.64,0-.29h3.26a13,13,0,0,0-.19,2.11v2.14h9.43a10.48,10.48,0,0,0,2.11-.19v2a13.22,13.22,0,0,0-2.11-.16H220.74v7.42c0,6.36-1.18,10.64-4.09,14.89l-.57,1.19-1.51-.9.77-1c1.76-4.09,2.46-8.09,2.46-14.16V42.79a13.33,13.33,0,0,0-.19-2.43,19.78,19.78,0,0,0,2.62.13H229Zm10,16.14a16.9,16.9,0,0,0,2.62-.13,13.69,13.69,0,0,0-.19,2.66v6.14a12.24,12.24,0,0,0,.19,2.07,20.08,20.08,0,0,0-2.11-.12H224.26a19.4,19.4,0,0,0-2.2.12,14.61,14.61,0,0,0,.19-2.65V56.67a12.9,12.9,0,0,0-.19-2.31,21,21,0,0,0,2.65.13h5V45.25c0-.51,0-.73-.1-1.56l-.06-.55h3.26a13.08,13.08,0,0,0-.19,2.11v2.47h8.12a13.94,13.94,0,0,0,2.11-.16v1.95l-.35,0-.45-.06c-.35,0-.77-.06-1.31-.06h-8.12v5.14Zm-13.84,1.63v7.35h13.39V56.12Z"></path><rect class="cls-2" x="18.06" y="27.34" width="50" height="50"></rect><path class="cls-3" d="M23.88,55.28h2.53L36.49,42,46.58,55.28h2.53L36.49,38.71Zm33.08,0h2V39.62H57Z"></path><polygon class="cls-3" points="24.45 59.95 24.45 61.18 25.61 59.95 26.42 59.95 25.27 61.12 26.54 62.91 25.72 62.91 24.83 61.59 24.45 61.96 24.45 62.91 23.8 62.91 23.8 59.95 24.45 59.95"></polygon><path class="cls-3" d="M28.84,60.83a1.77,1.77,0,0,1,.29-.5,1.21,1.21,0,0,1,.46-.33,1.61,1.61,0,0,1,1.22,0,1.39,1.39,0,0,1,.46.33,1.54,1.54,0,0,1,.28.5,1.75,1.75,0,0,1,.1.62,1.72,1.72,0,0,1-.1.6,1.39,1.39,0,0,1-.28.49,1.54,1.54,0,0,1-.46.33,1.75,1.75,0,0,1-1.22,0,1.33,1.33,0,0,1-.46-.33,1.59,1.59,0,0,1-.29-.49,1.72,1.72,0,0,1-.1-.6,1.75,1.75,0,0,1,.1-.62m.6,1a1.15,1.15,0,0,0,.14.32.64.64,0,0,0,.24.22.76.76,0,0,0,.38.09.72.72,0,0,0,.37-.09.6.6,0,0,0,.25-.22,1.15,1.15,0,0,0,.14-.32,1.49,1.49,0,0,0,.05-.36,1.58,1.58,0,0,0-.05-.38,1,1,0,0,0-.14-.32.56.56,0,0,0-.25-.23.72.72,0,0,0-.37-.09.76.76,0,0,0-.38.09.59.59,0,0,0-.24.23,1,1,0,0,0-.14.32,1.58,1.58,0,0,0,0,.38,1.47,1.47,0,0,0,0,.36"></path><path class="cls-3" d="M36.35,62.69a1.64,1.64,0,0,1-1.86,0,1.12,1.12,0,0,1-.33-.89V60h.65V61.8a1.64,1.64,0,0,0,0,.23.43.43,0,0,0,.09.21.51.51,0,0,0,.18.14.73.73,0,0,0,.32.06.63.63,0,0,0,.48-.15A.77.77,0,0,0,36,61.8V60h.66V61.8a1.15,1.15,0,0,1-.34.89"></path><polygon class="cls-3" points="40.24 59.95 40.93 61.99 40.94 61.99 41.59 59.95 42.51 59.95 42.51 62.91 41.9 62.91 41.9 60.82 41.89 60.82 41.16 62.91 40.66 62.91 39.94 60.83 39.93 60.83 39.93 62.91 39.32 62.91 39.32 59.95 40.24 59.95"></polygon><path class="cls-3" d="M47.33,62.69a1.64,1.64,0,0,1-1.86,0,1.12,1.12,0,0,1-.33-.89V60h.65V61.8a1.64,1.64,0,0,0,0,.23.46.46,0,0,0,.27.35.73.73,0,0,0,.32.06.61.61,0,0,0,.48-.15A.77.77,0,0,0,47,61.8V60h.65V61.8a1.15,1.15,0,0,1-.34.89"></path><polygon class="cls-3" points="50.07 60.5 50.07 59.95 52.49 59.95 52.5 60.5 51.61 60.5 51.61 62.91 50.95 62.91 50.95 60.5 50.07 60.5"></polygon><polygon class="cls-3" points="57.12 59.95 57.12 60.5 55.56 60.5 55.56 61.14 56.99 61.14 56.99 61.64 55.56 61.64 55.56 62.37 57.16 62.37 57.16 62.91 54.91 62.91 54.91 59.95 57.12 59.95"></polygon><polygon class="cls-3" points="60.32 59.95 61.55 61.94 61.56 61.94 61.56 59.95 62.17 59.95 62.17 62.91 61.52 62.91 60.29 60.93 60.28 60.93 60.28 62.91 59.67 62.91 59.67 59.95 60.32 59.95"></polygon><path class="cls-1" d="M48,109.83l12.88-.92H61a1.72,1.72,0,0,1,0,3.44L48,113.23v15.32a1.9,1.9,0,0,1-3.76,0V113.47L31,114.35a1.54,1.54,0,0,1-1.76-1.6,1.62,1.62,0,0,1,1.6-1.76l13.4-.92v-8A65,65,0,0,1,35.57,104c-1,0-1.56-.48-1.56-1.36a1.46,1.46,0,0,1,.72-1.24,7.55,7.55,0,0,1,1.88-.56A96.78,96.78,0,0,0,52,95.55a2.61,2.61,0,0,1,1-.24,1.71,1.71,0,0,1,1.84,1.8A1.92,1.92,0,0,1,53.57,99c-.88.4-4.12,1.56-5.6,2Z"></path><path class="cls-1" d="M90.77,104.31l-.08-1.84c0-1,.56-1.48,1.68-1.48a1.37,1.37,0,0,1,1.56,1.48v1.64l5.6-.32.16-1.68a1.44,1.44,0,0,1,1.56-1.44c1,0,1.8.68,1.68,1.44l0,.28-.16,1.2,6.2-.4c.92,0,1.44.44,1.44,1.28a1.22,1.22,0,0,1-1.32,1.32l-6.64.4-.24,1.92a1.12,1.12,0,0,1,1.08,1.16,1.18,1.18,0,0,1-1.28,1.2l-8.08.4a1.22,1.22,0,0,1-1.32.72c-1,0-1.56-.48-1.6-1.36L90.85,107l-4.64.28.2,4.68c0,.68.36,1,1.12.92l16.6-1c1,0,1.56.4,1.56,1.16a1.2,1.2,0,0,1-1.32,1.32l-18.28,1c-2,.08-2.92-.68-3-2.52l-.24-5.4-5.88.36c-.92,0-1.48-.44-1.48-1.28a1.22,1.22,0,0,1,1.28-1.36l6-.36,0-1.36A1.44,1.44,0,0,1,84.33,102a1.52,1.52,0,0,1,1.72,1.48l0,1.2Zm6,15.84a59,59,0,0,0,12.76,5.52c1.32.36,1.92.72,1.92,1.08,0,.56-3,1.68-4.4,1.68-2,0-8.68-3.76-12.44-7v7.48A1.56,1.56,0,0,1,93,130.35a1.51,1.51,0,0,1-1.68-1.48v-7a46.09,46.09,0,0,1-11.12,6,13.07,13.07,0,0,1-3.28.92c-.68,0-1.08-.44-1.08-1.2a1.15,1.15,0,0,1,.68-1,13.66,13.66,0,0,1,1.36-.52,56.25,56.25,0,0,0,10.32-5.48l-9.16.48a1.35,1.35,0,0,1-1.52-1.36,1.27,1.27,0,0,1,1.28-1.4l12.52-.64v-1.08c0-.84.72-1.4,1.72-1.4a1.48,1.48,0,0,1,1.64,1.32v1l12.48-.64a1.36,1.36,0,0,1,1.48,1.36,1.27,1.27,0,0,1-1.24,1.4Zm2.8-19.4a1.51,1.51,0,0,1-1.6,1.4,1.4,1.4,0,0,1-1.44-1.76l.08-.8-7.48.4.12,1a1.46,1.46,0,0,1-1.6,1.68,1.44,1.44,0,0,1-1.64-1.44l-.2-1.12-7.44.4a1.34,1.34,0,0,1-1.48-1.28,1.3,1.3,0,0,1,1.24-1.36l7.28-.4-.28-1.68a1.29,1.29,0,0,1,0-.32A1.67,1.67,0,0,1,87,94a1.65,1.65,0,0,1,1.72,1.56l.2,1.8,8-.44.16-1.76a1.66,1.66,0,0,1,1.76-1.52,1.61,1.61,0,0,1,1.76,1.52,1.13,1.13,0,0,1,0,.32l-.24,1.28,7-.4a1.36,1.36,0,0,1,1.48,1.36A1.29,1.29,0,0,1,107.57,99l-7.72.4Zm-.32,5.6-5.32.32,0,1.92,5.12-.32Z"></path><path class="cls-1" d="M137.13,106c-1.72.16-3,.28-5.4.4-.84.08-1.76.12-1.8.12a2.3,2.3,0,0,1-.48,0,1.6,1.6,0,0,1-1.72-1.64,1.56,1.56,0,0,1,1.24-1.68,8.13,8.13,0,0,1,1.8-.12c3.08,0,11.84-.84,16.4-1.52a3.11,3.11,0,0,1,.52,0,1.62,1.62,0,0,1,1.72,1.72c0,1-.52,1.52-1.8,1.68-2,.24-4.64.52-6.88.72V118l1,0c6.88-.36,11-.6,12.2-.64a1.66,1.66,0,0,1,.4,0,1.69,1.69,0,0,1,1.88,1.76,1.55,1.55,0,0,1-1.08,1.64,14.75,14.75,0,0,1-2.72.16c-7.84.24-19.64.92-27.52,1.64a3.71,3.71,0,0,1-.52,0,1.71,1.71,0,0,1-.28-3.4c.72-.12,7.24-.6,12-.84l1.08-.08Z"></path><path class="cls-1" d="M174.73,112.31a1.82,1.82,0,1,1-3.64,0V99.39a1.69,1.69,0,0,1,1.8-1.84,1.72,1.72,0,0,1,1.84,1.84Zm13.68-3c0,7.52-1.76,12.72-5.56,16.48-1.68,1.64-3,2.52-3.84,2.52a1.15,1.15,0,0,1-1.16-1.12c0-.64.08-.76,1.6-2.36,3.84-4.16,5.36-8.56,5.36-15.48V97.59A1.55,1.55,0,0,1,186.57,96c1.16,0,1.84.6,1.84,1.64Z"></path><path class="cls-1" d="M234.57,101.75c0,1.52-2.12,4.68-5.16,7.76-2.28,2.28-4.12,3.6-5,3.6a1.27,1.27,0,0,1-1.24-1.2c0-.52.16-.76,1.32-1.72,2.24-1.84,5.6-6.16,5.6-7.2,0-.2-.16-.28-.48-.28s-.88,0-1.44.08l-3.36.24c-3.92.2-6,.4-18.2,1.44l-.52,0a1.71,1.71,0,0,1-1.84-1.72,1.54,1.54,0,0,1,1.12-1.6,9.9,9.9,0,0,1,2.28-.2c4.88-.32,12.16-.84,21.8-1.52,1.44-.12,1.8-.16,2-.16C233.29,99.31,234.57,100.31,234.57,101.75ZM221,107.51c.28.44.28.52.28,1.88a52.59,52.59,0,0,1-.44,7.16,16.62,16.62,0,0,1-7.6,11,2.49,2.49,0,0,1-1.28.4,1.23,1.23,0,0,1-1.28-1.24c0-.68.16-.88,1.52-2a15.17,15.17,0,0,0,5.12-9.48c.12-1.32.2-3.4.24-6.48,0-1.4.6-2.12,1.84-2.12A2,2,0,0,1,221,107.51Z"></path><path class="cls-4" d="M45.45,168.91l6-.32a1.48,1.48,0,0,1,1.68,1.52,1.5,1.5,0,0,1-1.52,1.64l-6.2.32v5.76l11.2-.4A1.47,1.47,0,0,1,58.33,179a1.5,1.5,0,0,1-1.56,1.68l-25.36.92a1.64,1.64,0,0,1-.16-3.28L41.93,178v-5.72l-6.24.32a1.56,1.56,0,1,1-.16-3.12l6.4-.32v-4.8l-6.4.36a1.44,1.44,0,0,1-1.72-1.44,1.85,1.85,0,0,1,.28-1c-3.2,2.44-5.44,3.76-6.36,3.76a1.28,1.28,0,0,1-1.24-1.28c0-.64,0-.68,1.8-1.72a43.61,43.61,0,0,0,13.24-14.36,2,2,0,0,1,1.84-1.28,1.71,1.71,0,0,1,1.8,1.6,2.42,2.42,0,0,1-.2,1A66.13,66.13,0,0,0,61.09,162c.92.48,1.4.92,1.4,1.32,0,.24-.28.48-.72.64a13.43,13.43,0,0,1-3.24.68c-1,0-1.76-.44-5.12-3.12a3.09,3.09,0,0,1,.08.6A1.5,1.5,0,0,1,52,163.71l-6.56.4Zm6.36-8.36a2,2,0,0,1,.48,0,74.91,74.91,0,0,1-8.68-8.44,44.37,44.37,0,0,1-8.88,9.56,1.28,1.28,0,0,1,.56-.12Z"></path><path class="cls-4" d="M76,173.31a2.28,2.28,0,0,1-2.56-2.24,4.33,4.33,0,0,1,.6-2l9.6-17.88a1.51,1.51,0,0,1,1.4-.88,2,2,0,0,1,2,1.72,2.55,2.55,0,0,1-.36,1.2l-9,16.52h9.64V158.23a1.94,1.94,0,0,1,3.84,0v11.56h4.12a1.77,1.77,0,0,1,0,3.52H91.25v4.6a1.93,1.93,0,0,1-3.84,0v-4.6Z"></path><path class="cls-4" d="M115.41,160.23A40.88,40.88,0,0,1,113,174.47a36,36,0,0,1-2.92,5.84,1.72,1.72,0,0,1-1.32.88,1.47,1.47,0,0,1-1.4-1.4c0-.36,0-.44.64-1.6,3.28-6.92,4.08-11.72,4-24.4V153a1.4,1.4,0,0,1-1-1.4,1.44,1.44,0,0,1,1.4-1.4l23.2-1.64c1.84-.12,3,.72,3,2.2a4.61,4.61,0,0,1-.12,1l-.76,2.88a1.28,1.28,0,0,1,.84,1.28,1.26,1.26,0,0,1-1.2,1.32l-21.88,1.48Zm5.56,5-3,.2-.2,0a1.28,1.28,0,0,1-1.32-1.32,1.33,1.33,0,0,1,1.24-1.4l3.16-.2-.12-2.28a1.55,1.55,0,0,1,1.72-1.52,1.51,1.51,0,0,1,1.64,1.44l.08,2.12,5.72-.4.08-2.28a1.63,1.63,0,0,1,1.76-1.48,1.55,1.55,0,0,1,1.68,1.56l-.08,2,3.56-.24h.2a1.32,1.32,0,0,1,1.32,1.36,1.28,1.28,0,0,1-1.28,1.36l-4,.28-.16,3.68,6.52-.4h.12l.08,0c.88.2.92.24,1.16.68a2.81,2.81,0,0,1,.2.72,1.28,1.28,0,0,1-1.32,1.32l-17.88,1.12v8a32.05,32.05,0,0,0,5.16-1.56,2.41,2.41,0,0,1,1-.24,1.19,1.19,0,0,1,1.12,1.2c0,.56-.32.92-1.28,1.44-2.76,1.48-6.64,2.92-7.8,2.92-.92,0-1.56-.92-1.56-2.2v-9.4l-2,.12h-.2a1.41,1.41,0,0,1-1.36-1.4,1.3,1.3,0,0,1,1.32-1.4l5-.28Zm13.44-10.48.36-2.6V152c0-.4-.24-.6-.72-.56l-18.52,1.36V156Zm-4.72,13.56.12-3.64-5.6.36.12,3.6ZM141,179.67c1.08.36,1.64.76,1.64,1.08s-.32.52-.88.76a9.9,9.9,0,0,1-3.48.92c-.72,0-1.08-.12-2.44-.92a51.16,51.16,0,0,1-10-7.6c-.52-.56-.68-.84-.68-1.28a1.19,1.19,0,0,1,1.2-1.08c.56,0,.72.08,2.2,1.4a32.77,32.77,0,0,0,2.84,2.12,25.59,25.59,0,0,0,3.76-3.4,1.85,1.85,0,0,1,1.36-.72,2,2,0,0,1,1.8,1.8,1.45,1.45,0,0,1-.76,1.28,26.48,26.48,0,0,1-3.84,2.44A46.94,46.94,0,0,0,141,179.67Z"></path><path class="cls-4" d="M174.41,179.15c0,2.24-1,3.44-3,3.44a15.64,15.64,0,0,1-5.84-2c-.84-.48-1.12-.84-1.12-1.36a1.07,1.07,0,0,1,1.16-1.16,3,3,0,0,1,.92.16,16.83,16.83,0,0,0,3.2.64c.76,0,1-.36,1-1.32V164l-13.48.92a1.49,1.49,0,0,1-1.76-1.6,1.58,1.58,0,0,1,1.52-1.76l30.44-2.12a1.49,1.49,0,0,1,1.72,1.6,1.6,1.6,0,0,1-1.52,1.8l-13.28.92Zm-8.76-10.56c0,1.28-2.84,5.32-5.68,8.16-1.44,1.4-2.16,1.88-2.8,1.88a1.4,1.4,0,0,1-1.32-1.36c0-.52.08-.64.92-1.64a37.65,37.65,0,0,0,5.12-7.44c.48-1,1-1.4,1.84-1.4A1.87,1.87,0,0,1,165.65,168.59Zm-3.2-13.76a1.5,1.5,0,0,1-1.72-1.64,1.54,1.54,0,0,1,1.48-1.76l18.88-1.4a1.52,1.52,0,0,1,1.76,1.6,1.6,1.6,0,0,1-1.52,1.8ZM181.25,167a39.32,39.32,0,0,1,6.44,7.16,3.39,3.39,0,0,1,.72,2,1.88,1.88,0,0,1-2,1.8,2,2,0,0,1-1.48-.72c-.12-.12-.12-.12-.56-.88a81.89,81.89,0,0,0-5.28-7.52,2.07,2.07,0,0,1-.64-1.4,1.15,1.15,0,0,1,1.2-1.16A2.45,2.45,0,0,1,181.25,167Z"></path><path class="cls-4" d="M209.81,169.47c.36-.24.88-.56,1.52-.92a15.05,15.05,0,0,0,1.4-1,2.34,2.34,0,0,1,1.2-.44,1.4,1.4,0,0,1,1.32,1.36c0,.8-.88,1.56-4.24,3.76-3.92,2.52-7.32,4.32-8.24,4.32a1.73,1.73,0,0,1-1.64-1.76c0-.88.28-1.16,1.8-1.84,1.28-.56,2.24-1,3.48-1.68V161.19l-3.28.48a.9.9,0,0,1-.28,0,1.52,1.52,0,0,1-1.4-1.68,1.45,1.45,0,0,1,1.36-1.48l3.6-.48v-8a1.72,1.72,0,0,1,3.4,0v7.48l2.64-.4h.28a1.39,1.39,0,0,1,1.36,1.52,1.44,1.44,0,0,1-1.32,1.56l-3,.44Zm21.68.84a27.43,27.43,0,0,1-9.12,11c-1,.76-1.44,1-1.88,1a1.19,1.19,0,0,1-1.12-1.2c0-.64,0-.72,1.36-1.8a28.23,28.23,0,0,0,7.36-8.76l-2.72.16c-1.88,3.52-7.76,8.88-9.72,8.88a1.21,1.21,0,0,1-1.12-1.16c0-.6.12-.76,1.48-1.68a27.65,27.65,0,0,0,5.84-5.84l-2.76.2c-2.68,2.52-4.12,3.56-4.84,3.56a1.17,1.17,0,0,1-1.12-1.08c0-.56.12-.68,1.2-1.48a33.29,33.29,0,0,0,5.72-6.32l-4.68.28-.2,0a1.23,1.23,0,0,1-1.32-1.28,1.37,1.37,0,0,1,1.4-1.4L236.37,162h.16a1.28,1.28,0,0,1,1.4,1.32,1.34,1.34,0,0,1-1.36,1.44l-13,.8a21.94,21.94,0,0,1-1.8,2.6l-.16.2,12.2-.84h.32c1.64,0,2.44.76,2.44,2.32a39.11,39.11,0,0,1-1.72,8.8c-1,2.92-2.16,4.16-3.84,4.16a10.6,10.6,0,0,1-3.92-1.28c-.84-.48-1.24-.92-1.24-1.48A1.08,1.08,0,0,1,227,179a2.52,2.52,0,0,1,.8.16,6.65,6.65,0,0,0,2,.44c.92,0,1.32-.44,1.92-2.08a33.1,33.1,0,0,0,1.44-6.4c0-.52-.32-.8-.92-.8h-.16Zm-11-9.64c-.12.72-.64,1.08-1.52,1.08a1.4,1.4,0,0,1-1.52-1.48l-.68-10v-.2a1.51,1.51,0,0,1,1.68-1.6,1.35,1.35,0,0,1,1.32.68l10.88-1a5,5,0,0,0,.64,0c1.68,0,2.48.88,2.36,2.6l-.52,8.8a1.36,1.36,0,0,1-1.56,1.44,1.38,1.38,0,0,1-1.52-1Zm9.76-8.88c0-.6-.28-1-.76-.92h-.16l-9.24.8.08,2,10-.8ZM220.29,156l.12,2.12,9.64-.64,0-2.24Z"></path></g></g></svg> 