<?xml version="1.0" encoding="UTF-8"?> <svg xmlns="http://www.w3.org/2000/svg" viewBox="0 0 300 80"><g id="Wire_frame" data-name="Wire frame"><rect width="300" height="80" rx="10" style="fill:#0d335b"></rect><path d="M91.1,34.6,83.5,37l-1.1-2.5c2.2-.4,5.3-1.2,8.4-2.1Zm2.8,15.7A44.2,44.2,0,0,1,84.7,54a20.8,20.8,0,0,0-2.1-2.1,31.8,31.8,0,0,0,8.7-2.8Zm-3.8-19a37.6,37.6,0,0,0-6.3-2.5L85,26.9a38.3,38.3,0,0,1,6.3,2.2Zm5.6-.8A14.8,14.8,0,0,1,93.2,33a9.6,9.6,0,0,0-2.1-1.4,12.3,12.3,0,0,0,4.4-5.2l2.5.3a7.6,7.6,0,0,1-.9,1.8h10.1l1.8.4a21,21,0,0,1-2.9,4.4l-2.2-.7a17.3,17.3,0,0,0,1.5-2h-4.1c.6,2.1,2.3,4,8.4,4.9a6.4,6.4,0,0,0-1.4,2.2l-2.3-.5V49H86.4V37h6.1a12.7,12.7,0,0,0-1.3-1.9c4.9-.7,6.6-2.2,7.3-4.6Zm7.5,8.2H89.1v1.7h14.1Zm0,3.4H89.1v1.7h14.1Zm0,3.4H89.1v1.8h14.1Zm2.3-8.5c-3-1-4.6-2.4-5.5-4-1.1,1.9-3.1,3.1-6.7,4Zm-5.1,12.2a86.9,86.9,0,0,1,9,3.4L106.2,54a49.1,49.1,0,0,0-8-3.4Z" style="fill:#fff"></path><path d="M125.7,39.3c.9.9,3.8,4.6,4.4,5.5L128.3,47a48.8,48.8,0,0,0-2.6-4.6V53.9h-2.6V42.4a30.6,30.6,0,0,1-3.8,7.9,18.3,18.3,0,0,0-1.4-2.8,26.6,26.6,0,0,0,4.3-8.6h-3.8V36.3h4.7V26.5h2.6v9.8h4.7v2.6h-4.7Zm-5.6-3.8a40.2,40.2,0,0,0-1.5-6.8l1.9-.5a31.4,31.4,0,0,1,1.7,6.7Zm10.5-6.9c-.8,2.4-1.7,5.2-2.4,6.9l-1.8-.6a67.5,67.5,0,0,0,1.8-6.8Zm11.6,17v8.3h-2.6V46.1l-8.9,1.6-.4-2.6,9.3-1.6V26.4h2.6V43l3.4-.6.3,2.6Zm-6.4-4.3a21.5,21.5,0,0,0-4.9-3.6l1.3-2a28.9,28.9,0,0,1,5,3.3ZM137,34a23.5,23.5,0,0,0-4.7-3.8l1.4-1.9a20.6,20.6,0,0,1,4.7,3.6Z" style="fill:#fff"></path><path d="M165.4,33.5H154.2V31.3h11.2Zm-1,18.7h-6.5v1.3h-2.4V43.4h8.9Zm0-14.7h-8.8V35.4h8.8Zm-8.8,1.9h8.8v2.2h-8.8Zm8.7-9.9h-8.6V27.3h8.6Zm-6.4,16.2V50H162V45.7Zm23.8-10.4v2.1H165.3V35.3h6.8V33.7h-5.3v-2h5.3V30.2H166v-2h6.1V26.4h2.7v1.8h6.3v2h-6.3v1.5h5.8v2h-5.8v1.6ZM180,51.1c0,1.3-.3,1.9-1.1,2.3a11.8,11.8,0,0,1-4.2.4,5.1,5.1,0,0,0-.7-2.3h2.8c.4-.1.6-.2.6-.5V48.3h-7.3v5.5h-2.6V38.9H180Zm-9.9-10.2v1.8h7.3V40.9Zm7.3,5.5V44.6h-7.3v1.8Z" style="fill:#fff"></path><path d="M201,45.6,191.8,51l-1.7-2.5c2.6-1.2,6.4-3.4,10-5.5Zm15-9.1a71,71,0,0,1-6.2,6.1,21.9,21.9,0,0,0,8.2,6.7,9.6,9.6,0,0,0-2,2.5c-4.6-2.3-8.1-6.5-10.7-11.6V50.3c0,1.8-.4,2.6-1.5,3.1a18,18,0,0,1-5.5.5,16.6,16.6,0,0,0-1-2.9h4.4c.6,0,.8-.2.8-.7V33.8H191V31.1h11.5V26.4h2.8v4.7h7.4c-1.3-.9-3.3-2.1-4.9-3l1.7-1.7a31.8,31.8,0,0,1,5.5,3.2l-1.4,1.5h3.5v2.7H205.3v.4a30.7,30.7,0,0,0,3.1,6.3,38,38,0,0,0,5.1-5.7Zm-18.9,5.7a31.4,31.4,0,0,0-4.7-5.5l2.1-1.4a25.3,25.3,0,0,1,4.8,5.2Z" style="fill:#fff"></path></g></svg> 