<?xml version="1.0" encoding="utf-8"?>
<!-- Generator: Adobe Illustrator 25.3.1, SVG Export Plug-In . SVG Version: 6.00 Build 0)  -->
<svg version="1.1" id="レイヤー_1" xmlns="http://www.w3.org/2000/svg" xmlns:xlink="http://www.w3.org/1999/xlink" x="0px"
	 y="0px" viewBox="0 0 303.2 215.9" style="enable-background:new 0 0 303.2 215.9;" xml:space="preserve">
<style type="text/css">
	.st0{fill:#40220F;}
	.st1{fill:#0D335B;}
	.st2{fill:#FFFFFF;}
</style>
<g>
	<g>
		<path class="st0" d="M29.2,24.4c-0.6,2.3-1.6,4.1-3.3,5.7c-1.4,1.4-3.7,2.9-4.4,2.9c-0.3,0-0.6-0.3-0.6-0.7c0-0.3,0.1-0.4,0.9-0.9
			c3.3-2.1,5.4-5.1,5.9-8.5l-5.8,0.4c-0.5,0-0.8-0.3-0.8-0.9c0-0.5,0.3-0.8,0.7-0.8l6-0.4c0-0.4,0.1-1.5,0.1-2.3v-1.8
			c0-0.5,0.4-0.8,0.9-0.8c0.5,0,0.9,0.4,0.9,0.8v1.8c0,0.9,0,1.6-0.1,2.2l6.5-0.5c0.5,0,0.8,0.3,0.8,0.8c0,0.5-0.3,0.8-0.7,0.9
			l-6.4,0.5c1.7,3.6,4.7,7.2,7.5,9c0.5,0.3,0.7,0.5,0.7,0.7c0,0.1-0.1,0.2-0.4,0.3c-0.5,0.1-1.6,0.3-2,0.3c-0.7,0-1-0.3-2.1-1.6
			c-1.8-2.1-3.1-4.3-4.3-6.8L29.2,24.4z"/>
		<path class="st0" d="M44.3,32.5c0,0.4-0.4,0.7-0.8,0.7c-0.5,0-0.8-0.3-0.8-0.7V18.7c-0.3-0.1-0.5-0.3-0.5-0.7
			c0-0.4,0.3-0.7,0.7-0.7l4.1-0.4c0.1,0,0.2,0,0.2,0c0.7,0,1.1,0.4,1.1,0.9c0,0.6-0.8,2.3-1.8,3.9c1.1,1.1,1.8,2.6,1.8,3.9
			c0,1-0.6,1.7-1.4,1.7c-1,0-2.3-0.7-2.3-1.2c0-0.4,0.2-0.6,0.5-0.6c0.1,0,0.2,0,0.4,0.1c0.2,0.1,0.3,0.1,0.5,0.1
			c0.4,0,0.6-0.2,0.6-0.7c0-0.9-0.6-2-1.5-2.9c-0.1-0.1-0.2-0.2-0.2-0.4c0-0.3,0.2-0.5,0.4-0.6c0.6-1.2,1-2.2,1-2.4
			c0-0.2-0.2-0.3-0.4-0.2l-1.6,0.2V32.5z M51,23.7c-0.1,1.6-0.2,2.5-0.5,3.4c-0.5,1.9-1.3,3.8-2.3,5c-0.2,0.3-0.4,0.4-0.6,0.4
			c-0.4,0-0.7-0.3-0.7-0.6c0-0.2,0-0.3,0.4-0.9c1.7-3,2.1-4.9,2.3-11.2l0-0.7c-0.4-0.1-0.6-0.4-0.6-0.8c0-0.5,0.3-0.8,0.7-0.8
			l8.3-0.8h0.1c0.4,0,0.7,0.3,0.7,0.8s-0.2,0.8-0.7,0.8l-6.9,0.7l0,0.2c0,0.8,0,1.3-0.1,2.7v0.1l5.4-0.5h0.3c0.8,0,1.3,0.4,1.3,1.1
			c0,0.3,0,0.5-0.2,0.9c-0.5,1.7-1.1,3.1-2.3,4.9c1.1,1.2,2.8,2.7,3.9,3.4c0.3,0.2,0.5,0.4,0.5,0.5c0,0.2-1.1,0.6-1.8,0.6
			c-0.3,0-0.5-0.1-0.9-0.4c-1.1-1-1.9-1.9-2.7-2.9l-0.1,0.1c-1.2,1.5-3.4,3.3-4,3.3c-0.3,0-0.6-0.3-0.6-0.6c0-0.3,0.1-0.4,0.7-0.9
			c0.9-0.7,2.2-2,3-3.1l0.1-0.1l-0.1-0.2c-1.3-1.7-2.1-3.2-2.1-3.7c0-0.3,0.3-0.6,0.7-0.6c0.3,0,0.4,0.1,0.8,0.7
			c0.4,0.7,1.2,1.9,1.7,2.5c0.8-1.3,1.6-3.2,1.6-3.8c0-0.2-0.1-0.3-0.4-0.3h-0.1L51,23.7z"/>
		<path class="st0" d="M63.9,21.9c-0.6,0-0.9-0.4-0.9-1c0-0.4,0.2-0.6,0.5-0.8c0.2-0.1,0.2-0.1,1.1-0.2c2.1-0.2,7.6-1.1,10.3-1.6
			c0.3,0,0.4-0.1,0.5-0.1c0.6,0,1,0.5,1,1.1c0,0.4-0.2,0.6-0.7,0.8c-1,0.3-2,1.1-2.8,2c-1.2,1.3-1.9,2.9-1.9,4.5
			c0,1.9,1.2,3.3,3.3,4c0.6,0.2,0.8,0.5,0.8,0.9c0,0.5-0.4,0.9-0.9,0.9c-0.5,0-1.3-0.3-2-0.7c-1.9-1.2-3-2.9-3-5
			c0-2.3,1.3-4.7,3.3-6.2c0.1-0.1,0.1-0.1,0.2-0.2C69.9,21,64.6,21.9,63.9,21.9z M78.7,18c0.5,0.5,0.8,0.9,0.8,1.3
			c0,0.4-0.4,0.7-0.8,0.7c-0.3,0-0.4-0.1-0.7-0.5c-0.3-0.6-0.8-1.2-1.4-1.8c-0.2-0.2-0.3-0.4-0.3-0.5c0-0.3,0.2-0.5,0.5-0.5
			C77.2,16.7,78,17.2,78.7,18z M79.8,15.8c0.9,0.7,1.5,1.4,1.5,1.9c0,0.4-0.3,0.7-0.7,0.7c-0.3,0-0.4-0.1-0.7-0.4
			c-0.4-0.6-1-1.3-1.5-1.8c-0.2-0.2-0.3-0.3-0.3-0.5c0-0.2,0.2-0.5,0.5-0.5C78.9,15.2,79.2,15.4,79.8,15.8z"/>
		<path class="st0" d="M87.1,22.3c1.1,0.6,1.3,0.8,1.3,1.4c0,0.5-0.4,0.9-0.9,0.9c-0.3,0-0.5-0.1-0.9-0.4c-0.3-0.3-0.6-0.5-1.3-1.1
			c-0.7-0.6-0.8-0.7-0.8-1c0-0.3,0.3-0.6,0.6-0.6C85.5,21.5,86.1,21.8,87.1,22.3z M89.5,26.9c0,0.5-1,2.7-2,4.4
			c-0.7,1.2-1.1,1.5-1.5,1.5c-0.5,0-0.9-0.4-0.9-0.9c0-0.3,0-0.4,0.5-1c1.1-1.6,2-3,2.5-4c0.3-0.5,0.5-0.7,0.8-0.7
			C89.2,26.2,89.5,26.5,89.5,26.9z M88.4,18.2c0.8,0.5,1.1,0.8,1.1,1.3s-0.4,0.9-0.9,0.9c-0.3,0-0.5-0.1-0.9-0.4
			c-0.3-0.3-0.9-0.8-1.6-1.3c-0.3-0.3-0.5-0.5-0.5-0.7c0-0.3,0.3-0.6,0.7-0.6C86.6,17.3,87.4,17.6,88.4,18.2z M101.6,30.5
			c0.5,0,0.9,0.3,0.9,0.8c0,0.5-0.3,0.8-0.8,0.9l-11.6,0.5c-0.5,0-0.8-0.3-0.8-0.8c0-0.5,0.3-0.8,0.8-0.8l4.8-0.2v-4.1l-3.2,0.2
			c-0.5,0-0.8-0.3-0.8-0.8c0-0.5,0.3-0.7,0.7-0.8l3.3-0.2v-3.3l-3.9,0.3c-0.5,0-0.9-0.3-0.9-0.8s0.3-0.8,0.7-0.8l9.5-0.7
			c0.5,0,0.9,0.3,0.9,0.8c0,0.5-0.3,0.8-0.8,0.9l-4,0.3V25l3.2-0.2c0.5,0,0.9,0.2,0.9,0.7c0,0.5-0.2,0.8-0.8,0.8l-3.3,0.2v4.1
			L101.6,30.5z M96.1,17.3c0.8,0.5,1,0.8,1,1.2c0,0.5-0.5,0.9-1,0.9c-0.3,0-0.4-0.1-0.8-0.4c-0.6-0.6-1.6-1.5-2.1-1.9
			c-0.2-0.2-0.4-0.4-0.4-0.6c0-0.3,0.3-0.6,0.6-0.6C93.8,15.9,95,16.6,96.1,17.3z"/>
		<path class="st0" d="M119.5,21.1c-0.6,2.2-1.8,4.7-3.3,6.4c1.7,1.5,4.2,3,6.9,4.1c0.5,0.2,0.8,0.4,0.8,0.6c0,0.1-0.2,0.3-0.5,0.4
			c-0.8,0.3-1.5,0.5-2,0.5c-0.4,0-0.6-0.1-1.3-0.5c-1.7-1-3.3-2.2-5-3.8c-2,1.8-4,3-6.5,3.8c-0.6,0.2-0.9,0.3-1.1,0.3
			c-0.4,0-0.7-0.3-0.7-0.6c0-0.2,0.1-0.4,0.3-0.5c0.1,0,0.1,0,0.6-0.3c2.2-0.9,4.5-2.4,6.1-4c-1.3-1.4-3-3.9-3.9-5.8l-2.2,0.1
			c-0.6,0-0.9-0.3-0.9-0.8c0-0.5,0.3-0.8,0.8-0.8l6.4-0.4V17c0-0.5,0.4-0.8,0.9-0.8c0.5,0,0.9,0.4,0.9,0.8v2.7l6.1-0.4
			c0.5,0,0.9,0.3,0.9,0.8c0,0.5-0.3,0.8-0.7,0.8L119.5,21.1z M111.6,21.5c0.7,1.3,2.1,3.3,3.3,4.7c1.1-1.4,2-3.2,2.5-5L111.6,21.5z"
			/>
		<path class="st0" d="M131.1,32.5c0,0.4-0.4,0.8-0.8,0.8c-0.5,0-0.8-0.3-0.8-0.8v-9c-1.1,1.6-1.6,2.2-2.1,2.2
			c-0.3,0-0.6-0.3-0.6-0.6c0-0.3,0-0.3,0.6-1.1c1.3-2,2.6-4.5,3.5-6.9c0.2-0.6,0.5-0.8,0.9-0.8c0.5,0,0.9,0.3,0.9,0.8
			c0,0.5-0.6,2.1-1.4,3.6V32.5z M139.1,25.1l3.2-0.2c0.5,0,0.8,0.3,0.8,0.8s-0.2,0.8-0.7,0.8l-3.3,0.2v4.1l4.9-0.2
			c0.5,0,0.9,0.3,0.9,0.8c0,0.5-0.3,0.8-0.8,0.9l-11.2,0.5c-0.5,0-0.8-0.3-0.8-0.8c0-0.5,0.3-0.8,0.8-0.8l4.5-0.2v-4.1l-3.2,0.2
			c-0.5,0-0.8-0.3-0.8-0.7c0-0.5,0.3-0.8,0.7-0.8l3.3-0.2V22l-3.8,0.3c-0.5,0-0.9-0.3-0.9-0.8s0.3-0.8,0.7-0.9l9.4-0.7
			c0.5,0,0.9,0.3,0.9,0.8c0,0.5-0.3,0.8-0.7,0.9l-3.9,0.3V25.1z M138.1,17c1.2,0.8,1.5,1.1,1.5,1.6c0,0.5-0.5,0.9-1,0.9
			c-0.3,0-0.4-0.1-0.8-0.4c-0.6-0.6-1.5-1.4-2.2-1.9c-0.2-0.2-0.3-0.3-0.3-0.5c0-0.3,0.3-0.7,0.7-0.7C136.3,16,137.1,16.3,138.1,17z
			"/>
		<path class="st0" d="M163.8,18.2h0.2c0.7,0,1.1,0.3,1.1,0.8c0,0.5-0.5,1.4-1.3,2.4c-0.6,0.8-0.9,1-1.2,1c-0.3,0-0.6-0.3-0.6-0.6
			c0-0.2,0.1-0.3,0.2-0.5c0.3-0.5,0.6-1.1,0.6-1.4c0-0.1-0.1-0.2-0.3-0.2h-0.1l-11.6,0.8c-0.1,2-0.4,2.8-1.2,2.8c-0.6,0-1-0.4-1-0.9
			c0-0.2,0-0.3,0.2-0.7c0.3-0.8,0.6-1.9,0.6-2.5c0-0.5,0.3-0.7,0.7-0.7c0.4,0,0.6,0.2,0.6,0.6l5-0.3v-2.2c0-0.5,0.4-0.8,0.9-0.8
			c0.5,0,0.9,0.4,0.9,0.8v2L163.8,18.2z M156.8,26l6.4-0.8l0.2,0c0.4,0,0.8,0.4,0.8,0.8c0,0.4-0.3,0.7-0.8,0.8l-6.6,0.8l0,2.7v0.1
			c0,0.5,0.2,0.8,0.6,1c0.2,0.1,0.9,0.1,1.9,0.1c2,0,3.3-0.1,3.8-0.4c0.4-0.2,0.4-0.4,0.4-2.1c0-0.5,0.2-0.7,0.6-0.7
			c0.3,0,0.5,0.2,0.6,0.6c0.2,0.9,0.4,1.9,0.4,2.4c0,0.9-0.3,1.3-1.2,1.5c-0.8,0.2-2.8,0.3-5,0.3c-2,0-2.7-0.1-3.2-0.5
			c-0.3-0.2-0.5-0.6-0.6-1c0-0.1,0-0.4,0-0.5V31l0-3.2l-5.3,0.7c-0.5,0.1-0.9-0.3-0.9-0.8c0-0.4,0.3-0.7,0.7-0.8l5.5-0.7l0-2.1
			c-1.8,0.4-2.8,0.5-3,0.5c-0.4,0-0.7-0.3-0.7-0.7c0-0.2,0.1-0.4,0.3-0.5c0.1,0,0.2-0.1,0.7-0.2c2.9-0.7,5-1.3,6.3-1.9
			c0.3-0.1,0.5-0.2,0.7-0.2c0.4,0,0.8,0.4,0.8,0.9c0,0.7-0.6,1-3.3,1.7L156.8,26z"/>
		<path class="st0" d="M178.6,28.3c0,0.5-0.3,0.9-0.9,0.9c-0.5,0-0.8-0.3-0.8-0.9v-1.1c-1.6,1-2.3,1.7-2.3,2.5
			c0,0.7,0.7,1.1,2.2,1.1c1,0,3.2-0.1,4-0.2c0.1,0,0.1,0,0.2,0c0.5,0,0.8,0.4,0.8,0.9c0,0.5-0.3,0.8-0.9,0.8
			c-0.6,0.1-2.6,0.2-4.1,0.2c-2.7,0-4.1-0.9-4.1-2.6c0-1.6,0.9-2.6,4-4.4c-0.2-0.9-0.5-1.2-1.1-1.2c-0.8,0-1.6,0.2-2.3,0.7
			c-0.2,0.2-0.5,0.3-0.7,0.3c-0.4,0-0.8-0.4-0.8-0.9c0-0.2,0.1-0.4,0.3-0.6c0.4-0.4,1-1.3,1.9-3.1c-0.8,0.1-1.9,0.1-2.3,0.1
			c-0.7,0-1-0.3-1-0.8c0-0.4,0.2-0.7,0.6-0.8c0.1,0,0.2,0,0.6,0c0.5,0,2-0.1,3-0.2c0.4-0.9,0.6-1.4,1-2.2c0.2-0.5,0.5-0.7,0.9-0.7
			c0.5,0,0.9,0.4,0.9,0.8c0,0.2-0.1,0.6-0.8,1.9c0.9-0.1,1.8-0.2,2.6-0.4c0.2-0.1,0.3-0.1,0.4-0.1c0.4,0,0.8,0.4,0.8,0.9
			c0,0.4-0.3,0.6-0.8,0.8c-0.8,0.2-2.4,0.5-3.9,0.6c-0.7,1.2-1.1,2-1.6,2.7l0,0.1c0.6-0.3,1.3-0.4,1.8-0.4c1.1,0,1.8,0.6,2.2,1.8
			c2.1-1.1,3.7-1.7,4.2-1.7c0.5,0,0.8,0.4,0.8,0.9c0,0.4-0.1,0.5-0.8,0.8c-1.8,0.7-3,1.2-4.1,1.7V28.3z"/>
		<path class="st0" d="M193,23.2c0.8,0,1.2,0.3,1.2,1.1c0,0.9-0.5,2.7-1.1,4c3.7,1.9,8.1,3.1,12.7,3.6c0.7,0.1,1,0.2,1,0.4
			c0,0.2-0.1,0.3-0.6,0.6c-1,0.6-1.5,0.8-2.1,0.8c-2,0-8.1-2.2-11.7-4.2c-0.9,1.3-1.6,2.1-2.9,3c-0.2,0.2-0.4,0.2-0.6,0.2
			c-0.3,0-0.6-0.3-0.6-0.6c0-0.3,0-0.3,0.7-0.9c0.8-0.7,1.5-1.6,2.1-2.5c-0.1,0-0.2-0.1-0.2-0.1c-0.1,0-0.2-0.1-0.3-0.1
			c-0.6-0.3-1.4-0.9-1.8-1.2c-0.2-0.2-0.3-0.4-0.3-0.6c0-0.3,0.3-0.6,0.6-0.6c0.2,0,0.3,0,1,0.5c0.3,0.2,1,0.6,1.6,0.9
			c0.4-0.9,0.8-2.2,0.8-2.7c0-0.2-0.1-0.3-0.3-0.3H192l-1.7,0.2l-0.1,0c-0.4,0-0.7-0.3-0.7-0.7c0-0.2,0-0.3,0.2-0.5
			c0,0,0.1-0.1,0.2-0.3c0.9-1.4,2-3.6,2-4c0-0.1-0.1-0.2-0.2-0.2c-0.1,0-0.2,0-0.3,0l-2,0.4c-0.1,0-0.1,0-0.2,0
			c-0.4,0-0.7-0.3-0.7-0.8c0-0.4,0.3-0.7,0.7-0.8l3.3-0.5c0.1,0,0.2,0,0.4,0c0.6,0,1,0.3,1,0.9c0,0.3-0.1,0.6-0.3,1.1
			c-0.8,1.7-1.4,2.9-2,3.8l1.2-0.1H193z M200.4,24.7l3.3-0.2c0.5,0,0.8,0.2,0.8,0.6c0,0.4-0.2,0.6-0.6,0.6l-3.5,0.2v1.1l4.5-0.2
			c0.1,0,0.4,0.1,0.5,0.1c0.1,0.1,0.2,0.3,0.2,0.5c0,0.4-0.2,0.6-0.6,0.7l-4.6,0.2v1.3c0,0.4-0.3,0.7-0.8,0.7
			c-0.5,0-0.8-0.3-0.8-0.7v-1.2l-3.6,0.2c-0.5,0-0.8-0.2-0.8-0.7c0-0.4,0.2-0.6,0.6-0.7l3.8-0.2v-1.1l-2.9,0.2
			c-0.4,0-0.7-0.2-0.7-0.7c0-0.4,0.2-0.6,0.6-0.6l3-0.2v-1.1l-2.8,0.2c-0.4,0-0.7-0.3-0.7-0.6c0-0.4,0.2-0.6,0.6-0.6l2.9-0.2v-1.2
			l-4.2,0.4c-0.4,0-0.6-0.2-0.6-0.6c0-0.4,0.2-0.6,0.6-0.7l4.3-0.4v-1.1l-2.8,0.3c-0.4,0-0.7-0.2-0.7-0.6c0-0.4,0.2-0.6,0.6-0.6
			l2.9-0.3v-1.2c0-0.4,0.3-0.7,0.8-0.7c0.5,0,0.8,0.3,0.8,0.7v1l2.4-0.2c0.1,0,0.2,0,0.3,0c0.8,0,1.2,0.4,1.2,1.2c0,0.1,0,0.2,0,0.3
			l-0.1,0.8l1.3-0.1c0.4,0,0.7,0.2,0.7,0.6c0,0.4-0.2,0.7-0.6,0.7l-1.6,0.1l-0.1,1.3c0.3,0.1,0.5,0.3,0.5,0.6c0,0.3-0.2,0.6-0.6,0.6
			l-3.4,0.3V24.7z M202.6,19.6l0.1-0.7c0-0.3-0.1-0.4-0.3-0.4l-2,0.2v1.1L202.6,19.6z M202.4,22.1l0.1-1.2l-2.1,0.2v1.2L202.4,22.1z
			"/>
		<path class="st0" d="M221.2,20c-3.6,0.7-8.6,1.5-9.2,1.5c-0.6,0-0.9-0.4-0.9-1c0-0.4,0.2-0.6,0.5-0.8c0.2-0.1,0.3-0.1,1.1-0.2
			c2.2-0.2,8.6-1.2,11.3-1.7c0.2,0,0.4-0.1,0.5-0.1c0.6,0,1.1,0.5,1.1,1.1c0,0.4-0.2,0.6-0.8,0.8c-3.1,0.9-5.6,3.9-5.6,6.6
			c0,1.9,1.2,3.3,3.3,4c0.6,0.2,0.8,0.5,0.8,0.9c0,0.5-0.4,0.9-0.9,0.9c-0.5,0-1.3-0.3-2-0.7c-1.9-1.2-3-2.9-3-4.9
			c0-2.3,1.4-4.7,3.7-6.3L221.2,20z"/>
		<path class="st0" d="M238.3,18.9c-1.9,0.4-3.8,0.7-4.3,0.7c-0.5,0-0.9-0.3-0.9-0.8c0-0.4,0.2-0.7,0.6-0.8c0.1,0,0.2,0,0.7-0.1
			c1.2-0.1,3.6-0.4,4.8-0.7c0.2,0,0.3-0.1,0.4-0.1c0.6,0,1.2,0.5,1.2,1.1c0,0.4-0.1,0.5-0.7,1.1c-3.1,3.3-3.9,4.2-5.7,5.8l0.1,0.1
			c1.5-1,3-1.5,4.6-1.5c2.9,0,4.9,1.6,4.9,3.9c0,3-2.5,4.9-6.4,4.9c-1.9,0-3.4-1.1-3.4-2.4c0-1.2,1.3-2.1,3-2.1
			c1.5,0,2.8,0.8,3.7,2.2c0.9-0.7,1.3-1.5,1.3-2.5c0-1.5-1.3-2.5-3.1-2.5c-2.2,0-4.2,0.8-6.3,2.4c-0.3,0.3-0.6,0.4-0.8,0.4
			c-0.4,0-0.9-0.5-0.9-1c0-0.4,0.1-0.5,0.9-1.2C233.7,24.1,236.7,21,238.3,18.9L238.3,18.9z M236.9,29.5c-0.7,0-1.2,0.3-1.2,0.7
			c0,0.5,0.8,0.9,1.8,0.9c0.5,0,1.1-0.1,1.7-0.2C238.5,30,237.7,29.5,236.9,29.5z"/>
		<path class="st0" d="M254,17.2c0.2-0.6,0.4-0.8,0.9-0.8c0.5,0,0.9,0.3,0.9,0.8c0,0.2-0.2,0.9-0.7,2.3c0.4-0.1,1.2-0.2,1.5-0.3
			c0.2,0,0.3-0.1,0.4-0.1c0.4,0,0.7,0.3,0.7,0.8c0,0.4-0.2,0.7-0.7,0.8c-0.5,0.1-1.7,0.3-2.6,0.4c-1,2.4-1.9,4.3-2.9,5.9
			c-0.2,0.4-0.5,0.5-0.8,0.5c-0.4,0-0.9-0.4-0.9-0.8c0-0.2,0-0.3,0.4-0.9c0.7-1.1,1.6-2.7,2.3-4.5c-0.4,0.1-0.8,0.1-1.4,0.2
			c-0.3,0-0.5,0-0.6,0c-0.1,0-0.2,0-0.2,0c-0.4,0-0.7-0.3-0.7-0.8c0-0.6,0.3-0.8,1-0.9c0.4,0,1.6-0.1,2.5-0.2
			C253.5,18.7,253.8,17.9,254,17.2z M258.2,25.7c0-1.2,0.3-1.8,1-1.8c0.4,0,0.8,0.3,0.8,0.7c0,0.1,0,0.1,0,0.3
			c0,0.1-0.1,0.6-0.1,0.9v2.4c1.2,0.4,2,0.7,3,1.3c0.4,0.2,0.6,0.5,0.6,0.9c0,0.4-0.4,0.9-0.8,0.9c-0.2,0-0.3,0-0.6-0.3
			c-0.7-0.5-1.4-0.8-2.2-1.2v0.6c0,1.5-0.9,2.4-2.3,2.4c-1.8,0-3.6-1.5-3.6-3c0-1.3,1.2-2.1,2.9-2.1c0.5,0,0.9,0,1.4,0.1V25.7z
			 M258.2,29.3c-0.5-0.1-1-0.1-1.4-0.1c-0.8,0-1.3,0.3-1.3,0.7c0,0.7,1,1.4,1.9,1.4c0.5,0,0.8-0.3,0.8-0.9V29.3z M260.6,20.9
			c-0.2-0.2-0.3-0.3-0.3-0.5c0-0.4,0.3-0.6,0.7-0.6c0.5,0,1.7,0.7,2.8,1.6c0.7,0.6,1,1,1,1.5c0,0.5-0.3,0.7-1.1,0.8
			c-0.3,0-0.7,0.1-1.4,0.2c-0.2,0-0.3,0-0.4,0c-0.4,0-0.6-0.2-0.6-0.5c0-0.3,0.3-0.5,1.3-0.8C262.2,22,261.5,21.4,260.6,20.9z"/>
		<path class="st0" d="M273.1,26.4c1.7-1,3.5-1.6,5.2-1.6c2.4,0,3.9,1.3,3.9,3.3c0,1.6-0.9,2.9-2.7,3.8c-1,0.5-2.8,1-3.6,1
			c-0.4,0-0.7-0.3-0.7-0.7c0-0.3,0.2-0.5,0.4-0.6c0.1,0,0.1,0,0.7-0.2c2.4-0.6,3.9-1.8,3.9-3.3c0-1.1-0.8-1.8-2.1-1.8
			c-1.6,0-3.5,0.7-5.1,1.8c-0.3,0.2-0.6,0.3-0.9,0.3c-0.6,0-1-0.5-1-1.1s0.7-4.6,1-6c0.1-0.5,0.4-0.8,0.9-0.8c0.5,0,0.8,0.3,0.8,0.8
			c0,0.1,0,0.2-0.1,0.6c-0.3,0.8-0.7,2.9-0.8,4.2L273.1,26.4z M274.3,17.3c-0.2-0.1-0.4-0.3-0.4-0.5c0-0.3,0.3-0.6,0.6-0.6
			c0.5,0,1.7,0.6,2.7,1.3c0.7,0.5,1.1,1.1,1.1,1.6c0,0.5-0.4,0.7-1.1,0.7c-0.2,0-0.9,0.1-1.5,0.2c-0.1,0-0.1,0-0.2,0
			c-0.4,0-0.6-0.2-0.6-0.5c0-0.4,0.2-0.5,1.3-0.8C275.8,18.3,275.1,17.7,274.3,17.3z"/>
	</g>
	<g>
		<path class="st0" d="M74.2,113.4c-0.6,2.3-1.6,4.1-3.3,5.7c-1.4,1.4-3.7,2.9-4.4,2.9c-0.3,0-0.6-0.3-0.6-0.7
			c0-0.3,0.1-0.4,0.9-0.9c3.3-2.1,5.4-5.1,5.9-8.5l-5.8,0.4c-0.5,0-0.8-0.3-0.8-0.9c0-0.5,0.3-0.8,0.7-0.8l6-0.4
			c0-0.4,0.1-1.5,0.1-2.3v-1.8c0-0.5,0.4-0.8,0.9-0.8c0.5,0,0.9,0.4,0.9,0.8v1.8c0,0.9,0,1.6-0.1,2.2l6.5-0.5c0.5,0,0.8,0.3,0.8,0.8
			c0,0.5-0.3,0.8-0.7,0.9l-6.4,0.5c1.7,3.6,4.7,7.2,7.5,9c0.5,0.3,0.7,0.5,0.7,0.7c0,0.1-0.1,0.2-0.4,0.3c-0.5,0.1-1.6,0.3-2,0.3
			c-0.7,0-1-0.3-2.1-1.6c-1.8-2.1-3.1-4.3-4.3-6.8L74.2,113.4z"/>
		<path class="st0" d="M89.2,121.5c0,0.4-0.4,0.7-0.8,0.7c-0.5,0-0.8-0.3-0.8-0.7v-13.8c-0.3-0.1-0.5-0.3-0.5-0.7
			c0-0.4,0.3-0.7,0.7-0.7l4.1-0.4c0.1,0,0.2,0,0.2,0c0.7,0,1.1,0.4,1.1,0.9c0,0.6-0.8,2.3-1.8,3.9c1.1,1.1,1.8,2.6,1.8,3.9
			c0,1-0.6,1.7-1.4,1.7c-1,0-2.3-0.7-2.3-1.2c0-0.4,0.2-0.6,0.5-0.6c0.1,0,0.2,0,0.4,0.1c0.2,0.1,0.3,0.1,0.5,0.1
			c0.4,0,0.6-0.2,0.6-0.7c0-0.9-0.6-2-1.5-2.9c-0.1-0.1-0.2-0.2-0.2-0.4c0-0.3,0.2-0.5,0.4-0.6c0.6-1.2,1-2.2,1-2.4
			c0-0.2-0.2-0.3-0.4-0.2l-1.6,0.2V121.5z M96,112.7c-0.1,1.6-0.2,2.5-0.5,3.4c-0.5,1.9-1.3,3.8-2.3,5c-0.2,0.3-0.4,0.4-0.6,0.4
			c-0.4,0-0.7-0.3-0.7-0.6c0-0.2,0-0.3,0.4-0.9c1.7-3,2.1-4.9,2.3-11.2l0-0.7c-0.4-0.1-0.6-0.4-0.6-0.8c0-0.5,0.3-0.8,0.7-0.8
			l8.3-0.8h0.1c0.4,0,0.7,0.3,0.7,0.8s-0.2,0.8-0.7,0.8l-6.9,0.7l0,0.2c0,0.8,0,1.3-0.1,2.7v0.1l5.4-0.5h0.3c0.8,0,1.3,0.4,1.3,1.1
			c0,0.3,0,0.5-0.2,0.9c-0.5,1.7-1.1,3.1-2.3,4.9c1.1,1.2,2.8,2.7,3.9,3.4c0.3,0.2,0.5,0.4,0.5,0.5c0,0.2-1.1,0.6-1.8,0.6
			c-0.3,0-0.5-0.1-0.9-0.4c-1.1-1-1.9-1.9-2.7-2.9l-0.1,0.1c-1.2,1.5-3.4,3.3-4,3.3c-0.3,0-0.6-0.3-0.6-0.6c0-0.3,0.1-0.4,0.7-0.9
			c0.9-0.7,2.2-2,3-3.1l0.1-0.1l-0.1-0.2c-1.3-1.7-2.1-3.2-2.1-3.7c0-0.3,0.3-0.6,0.7-0.6c0.3,0,0.4,0.1,0.8,0.7
			c0.4,0.7,1.2,1.9,1.7,2.5c0.8-1.3,1.6-3.2,1.6-3.8c0-0.2-0.1-0.3-0.4-0.3h-0.1L96,112.7z"/>
		<path class="st0" d="M125.3,106.9c0.5,0,0.8,0.3,0.8,0.8c0,0.4-0.3,0.8-0.7,0.8l-12.7,0.8c0,0.3,0,0.6,0,0.7
			c0,2.6-0.3,5.4-0.7,7.3c-0.4,1.6-0.9,3-1.6,4c-0.2,0.3-0.5,0.5-0.7,0.5c-0.4,0-0.7-0.3-0.7-0.6c0-0.2,0-0.3,0.3-0.8
			c1.1-2.4,1.6-5.1,1.6-10l0-0.9c-0.5,0-0.7-0.3-0.7-0.8c0-0.5,0.3-0.8,0.8-0.8l6.3-0.4v-1.9c0-0.5,0.4-0.8,0.9-0.8
			c0.5,0,0.9,0.3,0.9,0.8v1.8L125.3,106.9z M114.4,115.5c-0.1,0.1-0.1,0.2-0.2,0.2c-0.7,0.8-0.9,0.9-1.2,0.9c-0.3,0-0.6-0.3-0.6-0.6
			c0-0.2,0-0.2,0.4-0.7c1.2-1.5,2.5-3.8,3.1-5.4c0.1-0.4,0.4-0.6,0.8-0.6c0.5,0,0.9,0.4,0.9,0.8c0,0.5-0.7,1.8-1.6,3.2l0,8.2
			c0,0.5-0.3,0.8-0.8,0.8c-0.4,0-0.7-0.2-0.8-0.7l0-0.1v-0.1L114.4,115.5z M124.1,121c0,1.1-0.5,1.7-1.3,1.7c-0.6,0-1.9-0.5-3-1.1
			c-0.3-0.2-0.5-0.4-0.5-0.6c0-0.3,0.2-0.5,0.5-0.5c0.1,0,0.2,0,0.5,0.1c0.7,0.2,1.3,0.3,1.6,0.3c0.3,0,0.4-0.2,0.4-0.6v-6.2
			l-4.7,0.3l-0.1,0c-0.4,0-0.7-0.3-0.7-0.7c0-0.5,0.3-0.7,0.7-0.8l4.8-0.3v-2.7c0-0.4,0.4-0.8,0.9-0.8s0.9,0.4,0.9,0.8v2.5l2-0.1
			h0.1c0.4,0,0.8,0.4,0.8,0.8c0,0.4-0.3,0.7-0.8,0.7l-2.1,0.1V121z M119.9,116.3c0.6,0.7,0.9,1.1,0.9,1.5c0,0.4-0.4,0.9-0.9,0.9
			c-0.4,0-0.5-0.1-0.8-0.6c-0.3-0.6-0.7-1.2-1.2-1.7c-0.2-0.2-0.3-0.4-0.3-0.6c0-0.3,0.3-0.6,0.6-0.6
			C118.6,115.1,119.1,115.5,119.9,116.3z"/>
		<path class="st0" d="M140.7,115.6l3-0.2c0.5,0,0.8,0.3,0.8,0.8s-0.3,0.8-0.8,0.8l-3.1,0.2v2.9l5.6-0.2c0.5,0,0.8,0.3,0.8,0.8
			c0,0.5-0.3,0.8-0.8,0.8l-12.7,0.5c-0.5,0-0.8-0.3-0.8-0.8s0.3-0.8,0.8-0.8l5.3-0.2v-2.9l-3.1,0.2c-0.5,0-0.8-0.3-0.8-0.8
			c0-0.5,0.3-0.8,0.8-0.8l3.2-0.2v-2.4l-3.2,0.2c-0.5,0-0.9-0.3-0.9-0.7c0-0.2,0-0.4,0.1-0.5c-1.6,1.2-2.7,1.9-3.2,1.9
			c-0.3,0-0.6-0.3-0.6-0.6c0-0.3,0-0.3,0.9-0.9c2.4-1.6,5.1-4.4,6.6-7.2c0.3-0.5,0.5-0.6,0.9-0.6c0.5,0,0.9,0.4,0.9,0.8
			c0,0.1,0,0.3-0.1,0.5c2.3,2.4,5.4,4.7,8.1,6c0.5,0.2,0.7,0.5,0.7,0.7c0,0.1-0.1,0.2-0.4,0.3c-0.4,0.2-1.3,0.3-1.6,0.3
			c-0.5,0-0.9-0.2-2.6-1.6c0,0.1,0,0.2,0,0.3c0,0.5-0.3,0.8-0.7,0.8l-3.3,0.2V115.6z M143.9,111.4c0.1,0,0.2,0,0.2,0
			c-1.4-1.2-3.1-2.8-4.3-4.2c-1.1,1.6-2.8,3.5-4.4,4.8c0.1,0,0.2-0.1,0.3-0.1L143.9,111.4z"/>
		<path class="st0" d="M157.5,120c0,0.5-0.4,0.9-1,0.9c-0.6,0-1-0.4-1-0.9v-12.7c0-0.5,0.4-0.9,1-0.9c0.6,0,1,0.4,1,0.9V120z"/>
		<path class="st0" d="M175.7,113.6c0,4.6-2.2,7.5-5.6,7.5c-3.4,0-5.6-3-5.6-7.5c0-4.3,2.3-7.3,5.6-7.3
			C173.4,106.2,175.7,109.3,175.7,113.6z M166.6,113.7c0,3.4,1.4,5.6,3.5,5.6c2.1,0,3.5-2.2,3.5-5.6s-1.4-5.7-3.5-5.7
			C168,108,166.6,110.3,166.6,113.7z"/>
		<path class="st0" d="M183.5,111.2c-0.1,2.9-0.4,5-1.2,7.1c-0.4,0.9-1.1,2.3-1.5,2.9c-0.2,0.3-0.4,0.4-0.7,0.4
			c-0.4,0-0.7-0.3-0.7-0.7c0-0.2,0-0.2,0.3-0.8c1.6-3.5,2-5.9,2-12.2v-0.4c-0.3-0.1-0.5-0.4-0.5-0.7c0-0.4,0.3-0.7,0.7-0.7l11.6-0.8
			c0.9-0.1,1.5,0.4,1.5,1.1c0,0.1,0,0.4-0.1,0.5l-0.4,1.4c0.3,0.1,0.4,0.3,0.4,0.6c0,0.4-0.2,0.6-0.6,0.7l-10.9,0.7L183.5,111.2z
			 M186.3,113.7l-1.5,0.1l-0.1,0c-0.3,0-0.7-0.3-0.7-0.7c0-0.4,0.2-0.7,0.6-0.7l1.6-0.1l-0.1-1.1c0-0.4,0.3-0.8,0.9-0.8
			c0.5,0,0.8,0.3,0.8,0.7l0,1.1l2.9-0.2l0-1.1c0-0.4,0.4-0.7,0.9-0.7s0.9,0.3,0.8,0.8l0,1l1.8-0.1h0.1c0.4,0,0.7,0.3,0.7,0.7
			c0,0.4-0.3,0.7-0.6,0.7l-2,0.1l-0.1,1.8l3.3-0.2h0.1l0,0c0.4,0.1,0.5,0.1,0.6,0.3c0,0.1,0.1,0.3,0.1,0.4c0,0.4-0.3,0.6-0.7,0.7
			l-8.9,0.6v4c0.8-0.2,1.8-0.5,2.6-0.8c0.2-0.1,0.3-0.1,0.5-0.1c0.3,0,0.6,0.3,0.6,0.6c0,0.3-0.2,0.5-0.6,0.7
			c-1.4,0.7-3.3,1.5-3.9,1.5c-0.5,0-0.8-0.5-0.8-1.1V117l-1,0.1h0h-0.1c-0.4,0-0.7-0.3-0.7-0.7c0-0.4,0.2-0.7,0.7-0.7l2.5-0.1
			L186.3,113.7z M193,108.5l0.2-1.3v-0.1c0-0.2-0.1-0.3-0.4-0.3l-9.3,0.7v0.3v0.5v0.5v0.4L193,108.5z M190.6,115.3l0.1-1.8l-2.8,0.2
			l0.1,1.8L190.6,115.3z M196.3,120.9c0.5,0.2,0.8,0.4,0.8,0.5c0,0.1-0.2,0.3-0.4,0.4c-0.8,0.3-1.3,0.5-1.7,0.5
			c-0.4,0-0.5-0.1-1.2-0.5c-1.7-0.9-4-2.7-5-3.8c-0.3-0.3-0.3-0.4-0.3-0.6c0-0.3,0.3-0.5,0.6-0.5c0.3,0,0.4,0,1.1,0.7
			c0.4,0.3,0.9,0.7,1.4,1.1c0.7-0.5,1.6-1.3,1.9-1.7c0.2-0.2,0.4-0.4,0.7-0.4c0.4,0,0.9,0.5,0.9,0.9c0,0.3-0.1,0.4-0.4,0.6
			c-0.5,0.4-1.2,0.9-1.9,1.2C193.7,119.9,194.9,120.5,196.3,120.9z"/>
		<path class="st0" d="M210.5,120.7c0,1.1-0.5,1.7-1.5,1.7c-0.6,0-2-0.5-2.9-1c-0.4-0.2-0.6-0.4-0.6-0.7c0-0.4,0.2-0.6,0.6-0.6
			c0.1,0,0.3,0,0.5,0.1c0.6,0.2,1.4,0.3,1.6,0.3c0.4,0,0.5-0.2,0.5-0.7v-6.8l-6.7,0.5c-0.5,0-0.9-0.3-0.9-0.8c0-0.5,0.3-0.8,0.8-0.9
			l15.2-1.1c0.5,0,0.9,0.3,0.9,0.8c0,0.5-0.3,0.9-0.8,0.9l-6.6,0.5V120.7z M206.1,115.4c0,0.6-1.4,2.7-2.8,4.1
			c-0.7,0.7-1.1,0.9-1.4,0.9c-0.3,0-0.7-0.3-0.7-0.7c0-0.3,0-0.3,0.5-0.8c1-1.2,2-2.6,2.6-3.7c0.2-0.5,0.5-0.7,0.9-0.7
			C205.7,114.5,206.1,114.9,206.1,115.4z M204.5,108.5c-0.5,0-0.9-0.3-0.9-0.8s0.3-0.8,0.7-0.9l9.4-0.7c0.5,0,0.9,0.3,0.9,0.8
			c0,0.5-0.3,0.9-0.8,0.9L204.5,108.5z M213.9,114.6c1.3,1.1,2.6,2.6,3.2,3.6c0.3,0.4,0.4,0.7,0.4,1c0,0.5-0.4,0.9-1,0.9
			c-0.3,0-0.6-0.1-0.7-0.4c-0.1-0.1-0.1-0.1-0.3-0.4c-0.6-1.1-1.7-2.6-2.6-3.8c-0.2-0.3-0.3-0.5-0.3-0.7c0-0.3,0.3-0.6,0.6-0.6
			C213.4,114.2,213.6,114.3,213.9,114.6z"/>
		<path class="st0" d="M226.5,115.8c0.2-0.1,0.4-0.3,0.8-0.5c0.2-0.1,0.2-0.1,0.7-0.5c0.2-0.1,0.4-0.2,0.6-0.2
			c0.3,0,0.7,0.3,0.7,0.7c0,0.4-0.4,0.8-2.1,1.9c-2,1.3-3.7,2.2-4.1,2.2c-0.4,0-0.8-0.4-0.8-0.9c0-0.4,0.1-0.6,0.9-0.9
			c0.6-0.3,1.1-0.5,1.7-0.8v-5.1l-1.6,0.2c-0.1,0-0.1,0-0.1,0c-0.4,0-0.7-0.4-0.7-0.8c0-0.4,0.3-0.7,0.7-0.7l1.8-0.2v-4
			c0-0.4,0.4-0.7,0.9-0.7c0.5,0,0.8,0.3,0.8,0.7v3.7l1.3-0.2h0.1c0.4,0,0.7,0.3,0.7,0.8s-0.2,0.7-0.7,0.8l-1.5,0.2V115.8z
			 M237.3,116.3c-0.8,1.9-2.6,4.1-4.6,5.5c-0.5,0.4-0.7,0.5-0.9,0.5c-0.3,0-0.6-0.3-0.6-0.6c0-0.3,0-0.4,0.7-0.9
			c1.7-1.4,3-2.9,3.7-4.4l-1.4,0.1c-0.9,1.8-3.9,4.4-4.9,4.4c-0.3,0-0.6-0.3-0.6-0.6c0-0.3,0.1-0.4,0.7-0.8c0.8-0.5,2-1.8,2.9-2.9
			l-1.4,0.1c-1.3,1.3-2.1,1.8-2.4,1.8c-0.3,0-0.6-0.3-0.6-0.5c0-0.3,0.1-0.3,0.6-0.7c0.8-0.6,1.8-1.8,2.9-3.2l-2.3,0.1l-0.1,0
			c-0.4,0-0.7-0.3-0.7-0.6c0-0.4,0.3-0.7,0.7-0.7l10.6-0.7h0.1c0.4,0,0.7,0.3,0.7,0.7c0,0.4-0.3,0.7-0.7,0.7l-6.5,0.4
			c-0.2,0.4-0.5,0.8-0.9,1.3l-0.1,0.1l6.1-0.4h0.2c0.8,0,1.2,0.4,1.2,1.2c0,0.9-0.5,3.3-0.9,4.4c-0.5,1.5-1.1,2.1-1.9,2.1
			c-0.4,0-1.4-0.3-2-0.6c-0.4-0.2-0.6-0.5-0.6-0.7c0-0.3,0.2-0.5,0.5-0.5c0.1,0,0.2,0,0.4,0.1c0.5,0.2,0.8,0.2,1,0.2
			c0.5,0,0.7-0.2,1-1c0.3-0.8,0.7-2.7,0.7-3.2c0-0.3-0.2-0.4-0.5-0.4h-0.1L237.3,116.3z M231.8,111.4c-0.1,0.4-0.3,0.5-0.8,0.5
			c-0.5,0-0.7-0.2-0.8-0.7l-0.3-5v-0.1c0-0.5,0.3-0.8,0.8-0.8c0.3,0,0.5,0.1,0.7,0.3l5.4-0.5c0.2,0,0.3,0,0.3,0
			c0.8,0,1.2,0.4,1.2,1.3l-0.3,4.4c0,0.5-0.3,0.7-0.8,0.7c-0.4,0-0.7-0.2-0.8-0.5L231.8,111.4z M236.7,107c0-0.3-0.1-0.5-0.4-0.5
			h-0.1l-4.6,0.4l0,1l5-0.4L236.7,107z M231.7,109.1l0.1,1.1l4.8-0.3l0-1.1L231.7,109.1z"/>
	</g>
	<g>
		<g>
			<path class="st1" d="M106.3,57.4c-0.5,0-1.1,0.1-1.8,0.2v-2.2c0.7,0.1,1.3,0.2,1.8,0.2H130c-0.7,8-4.5,12.1-12.7,13.6
				c-0.7,4.7-4,7.9-9.9,9.8c-0.8,0.3-1.1,0.4-1.4,0.6l-0.8-1.9c1.1,0.1,2.8-0.7,4.9-2c3-2,4.6-4.8,4.6-8.3v-4.6
				c0-0.6-0.1-1.1-0.2-1.8h3.2c-0.1,0.7-0.2,1.2-0.2,1.8v4.8c5.5-1.3,8.6-4.8,9.2-10.1H106.3z"/>
			<path class="st1" d="M136.4,67.5c3.1-0.3,9.2-2.9,12.7-5.3c3.4-2.3,7.7-6.6,8.5-8.6l2.6,2.2c-0.3,0.3-0.7,0.7-1.3,1.2
				c-2.6,2.7-4.6,4.6-6.7,6v15c0,0.5,0.1,1.2,0.2,1.8h-3.2c0.2-1,0.2-1.2,0.2-1.8V64.8c-3.1,1.7-6.4,2.9-10.7,4
				c-0.7,0.2-1.1,0.3-1.6,0.5L136.4,67.5z"/>
			<path class="st1" d="M182.6,77h10.5c0.7,0,0.8,0,2.1-0.2v2l-0.4,0l-0.4-0.1c-0.4,0-0.8-0.1-1.3-0.1H169c-0.8,0-1.1,0-2.1,0.2v-2
				c1.2,0.2,1.5,0.2,2.1,0.2h10.4V57.3h-8.5c-0.4,0-0.8,0-1.2,0.1l-0.6,0.1l-0.3,0v-2c1,0.1,1.4,0.2,2.1,0.2h20.5
				c0.8,0,1.2,0,2.1-0.2v2l-0.2,0l-0.6-0.1c-0.4-0.1-0.8-0.1-1.3-0.1h-8.8V77z"/>
			<path class="st1" d="M227.5,56.7c-0.9,2.5-1.9,4.2-3.5,6c1.4,0.9,3.1,1.6,5.3,2.2l1.7,0.3l-1.6,2.7l-1.3-0.6
				c-2.3-0.9-4.2-1.9-5.8-3.1c-1.8,1.3-3.8,2.3-6.4,3.3l-0.9,0.6l-0.9-1.5c-0.6,1.3-1,2-1.7,3.2l-0.5,1.2l-1.5-0.7l0.6-1.1
				c0.8-2.9,0.8-3.1,1.1-4.3h-2.4V79c0,1.2-0.5,1.8-1.5,1.8c-0.8,0-1.7-0.2-3.5-0.6l-1.4-0.2l-0.2-1.6c1.6,0.2,2.5,0.2,3.4,0.2
				c0.6,0,0.7-0.1,0.7-0.7v-9.3c-1.2,2.5-2.8,4.8-5,7.1l-0.8,1.1l-1.3-1.2l1-1c2.1-2.7,3.8-6.1,5-10h-2.9c-0.8,0-1.1,0-2.1,0.2V63
				c1,0.1,1.4,0.2,2.1,0.2h5.6l-0.2-0.3c-1.8-1.9-3.3-3.3-4.6-4.3l-1-0.6l1.2-1.3l0.8,0.7c0.8,0.4,2.2,1.3,2.8,1.8
				c1.3-1.6,2.4-3.1,3-4.3h-6.9c-0.8,0-1.1,0-2.1,0.2v-2c1,0.1,1.4,0.2,2.1,0.2h7.5c2.1,0,2.4,0,3.2-0.1v1.3
				c-1.8,2.1-3.5,3.9-5.5,5.6l0.4,0.3l0.4,0.2l0.6,0.4l1.1,0.7l-1.5,1.6h2.1c1.7,0,2.1,0,2.8-0.1v1.2c-0.3,0.8-0.6,1.5-0.8,2.1
				l1.2-0.3c2.3-1.1,3.9-2.1,5.4-3.4c-1.3-1.4-2.4-2.9-3.2-4.7c-0.8,1-1.4,1.6-2.3,2.5l-0.9,0.9l-1.2-1.1l1-0.8
				c2-2.4,3.3-4.7,4.1-7.2l0.3-1.2l3.1,0.7l-0.7,1.2c-0.4,0.8-0.6,1.1-1.1,1.9h8.6c0.7,0,1.2,0,2.1-0.2v1.9l-0.4,0l-0.4-0.1
				c-0.4,0-0.8-0.1-1.3-0.1H227.5z M216,71.1c-0.7,0-1.1,0-2.1,0.2v-1.9c1,0.1,1.4,0.2,2.1,0.2h3.6v-0.3l0-0.1
				c0-0.4,0.1-1.2,0.1-1.6l-0.1-1.6l3,0.1l-0.3,1.5c0,0.5,0,0.8-0.1,1.6l-0.1,0.5h4.2c1.6,0,2,0,2.8-0.1v1.2c-0.4,5.2-0.6,7-1,8.4
				c-0.4,1.2-1,1.8-2,1.8c-1,0-2.5-0.3-4.1-0.8l-1.5-0.3l-0.2-1.6c1.6,0.2,2.8,0.3,4,0.3c0.8,0,1.1-0.2,1.3-1
				c0.4-1.5,0.8-4.2,0.8-6.4h-4.5c-1,4.5-3.2,7.3-7.9,9.4l-1.2,0.7l-1-1.5l1.4-0.5c3.4-2.1,5.3-4.7,5.9-8.1H216z M218.5,56.7
				c1,1.8,2.2,3.4,3.6,4.5c1.1-1.3,1.9-2.9,2.5-4.6L218.5,56.7L218.5,56.7z"/>
			<path class="st1" d="M249.5,53.6c0-0.4,0-0.8-0.1-1.2l-0.1-0.6l0-0.3h3.3c-0.2,1.2-0.2,1.4-0.2,2.1v2.1h9.4c0.8,0,1.1,0,2.1-0.2
				v2c-1.1-0.1-1.2-0.2-2.1-0.2h-20.6v7.4c0,6.4-1.2,10.6-4.1,14.9l-0.6,1.2l-1.5-0.9l0.8-1c1.8-4.1,2.5-8.1,2.5-14.2v-6.4V58
				c0-0.9,0-1.4-0.2-2.4c0.9,0.1,1.4,0.1,2.6,0.1h8.8V53.6z M259.5,69.7c1.2,0,1.6,0,2.6-0.1c-0.2,1-0.2,1.4-0.2,2.7v5.6v0.4v0.2
				c0,0.6,0.1,1.3,0.2,2.1c-1.1-0.1-1.3-0.1-2.1-0.1h-0.5h-14.3h-0.4c-0.8,0-1.3,0-2.2,0.1c0.2-1.1,0.2-1.4,0.2-2.7v-5.6v-0.4
				c0-0.8,0-1.4-0.2-2.3c1,0.1,1.5,0.1,2.7,0.1h5.1v-9.2c0-0.5,0-0.7-0.1-1.6l-0.1-0.5h3.3c-0.2,1.2-0.2,1.4-0.2,2.1V63h8.1
				c0.7,0,1.2,0,2.1-0.2v2l-0.4,0l-0.4-0.1c-0.4,0-0.8-0.1-1.3-0.1h-8.1v5.1H259.5z M245.6,71.4v7.4H259v-7.4H245.6z"/>
		</g>
		<g>
			<rect x="38.5" y="42.6" class="st1" width="50" height="50"/>
			<path class="st2" d="M44.4,70.5h2.5L57,57.3l10.1,13.2h2.5L57,54L44.4,70.5z M77.4,70.5h2V54.9l-2,0V70.5z"/>
			<polygon class="st2" points="44.9,75.2 44.9,76.4 46.1,75.2 46.9,75.2 45.8,76.4 47,78.2 46.2,78.2 45.3,76.8 44.9,77.2 
				44.9,78.2 44.3,78.2 44.3,75.2 			"/>
			<path class="st2" d="M49.3,76.1c0.1-0.2,0.2-0.4,0.3-0.5c0.1-0.1,0.3-0.3,0.5-0.3c0.2-0.1,0.4-0.1,0.6-0.1c0.2,0,0.4,0,0.6,0.1
				c0.2,0.1,0.3,0.2,0.5,0.3c0.1,0.1,0.2,0.3,0.3,0.5c0.1,0.2,0.1,0.4,0.1,0.6c0,0.2,0,0.4-0.1,0.6c-0.1,0.2-0.2,0.3-0.3,0.5
				c-0.1,0.1-0.3,0.2-0.5,0.3c-0.2,0.1-0.4,0.1-0.6,0.1c-0.2,0-0.4,0-0.6-0.1c-0.2-0.1-0.3-0.2-0.5-0.3c-0.1-0.1-0.2-0.3-0.3-0.5
				c-0.1-0.2-0.1-0.4-0.1-0.6C49.2,76.5,49.3,76.3,49.3,76.1 M49.9,77.1c0,0.1,0.1,0.2,0.1,0.3c0.1,0.1,0.1,0.2,0.2,0.2
				c0.1,0.1,0.2,0.1,0.4,0.1c0.1,0,0.3,0,0.4-0.1c0.1-0.1,0.2-0.1,0.3-0.2c0.1-0.1,0.1-0.2,0.1-0.3c0-0.1,0-0.2,0-0.4
				c0-0.1,0-0.3,0-0.4c0-0.1-0.1-0.2-0.1-0.3c-0.1-0.1-0.1-0.2-0.3-0.2c-0.1-0.1-0.2-0.1-0.4-0.1c-0.1,0-0.3,0-0.4,0.1
				c-0.1,0.1-0.2,0.1-0.2,0.2c-0.1,0.1-0.1,0.2-0.1,0.3c0,0.1,0,0.2,0,0.4C49.9,76.8,49.9,76.9,49.9,77.1"/>
			<path class="st2" d="M56.8,77.9c-0.2,0.2-0.5,0.3-0.9,0.3c-0.4,0-0.7-0.1-0.9-0.3c-0.2-0.2-0.3-0.5-0.3-0.9v-1.8h0.6V77
				c0,0.1,0,0.2,0,0.2c0,0.1,0,0.1,0.1,0.2c0,0.1,0.1,0.1,0.2,0.1c0.1,0,0.2,0.1,0.3,0.1c0.2,0,0.4,0,0.5-0.2
				c0.1-0.1,0.1-0.3,0.1-0.5v-1.8h0.7V77C57.2,77.4,57.1,77.7,56.8,77.9"/>
			<polygon class="st2" points="60.7,75.2 61.4,77.2 61.4,77.2 62.1,75.2 63,75.2 63,78.2 62.4,78.2 62.4,76.1 62.4,76.1 61.6,78.2 
				61.1,78.2 60.4,76.1 60.4,76.1 60.4,78.2 59.8,78.2 59.8,75.2 			"/>
			<path class="st2" d="M67.8,77.9c-0.2,0.2-0.5,0.3-0.9,0.3c-0.4,0-0.7-0.1-0.9-0.3c-0.2-0.2-0.3-0.5-0.3-0.9l0-1.8h0.7V77
				c0,0.1,0,0.2,0,0.2c0,0.1,0,0.1,0.1,0.2c0,0.1,0.1,0.1,0.2,0.1c0.1,0,0.2,0.1,0.3,0.1c0.2,0,0.4,0,0.5-0.2
				c0.1-0.1,0.1-0.3,0.1-0.5v-1.8h0.7V77C68.2,77.4,68,77.7,67.8,77.9"/>
			<polygon class="st2" points="70.6,75.7 70.6,75.2 73,75.2 73,75.7 72.1,75.7 72.1,78.2 71.4,78.2 71.4,75.7 			"/>
			<polygon class="st2" points="77.6,75.2 77.6,75.7 76,75.7 76,76.4 77.5,76.4 77.5,76.9 76,76.9 76,77.6 77.6,77.6 77.6,78.2 
				75.4,78.2 75.4,75.2 			"/>
			<polygon class="st2" points="80.8,75.2 82,77.2 82,77.2 82,75.2 82.7,75.2 82.7,78.2 82,78.2 80.8,76.2 80.8,76.2 80.8,78.2 
				80.2,78.2 80.2,75.2 			"/>
		</g>
	</g>
	<g>
		<path class="st0" d="M24.5,160.9c0,0.7-0.6,1.2-1.4,1.2s-1.4-0.5-1.4-1.2v-24.2c-0.6-0.1-0.9-0.6-0.9-1.2c0-0.7,0.5-1.2,1.2-1.3
			l7.1-0.8c0.2,0,0.4,0,0.4,0c1.2,0,1.9,0.6,1.9,1.6c0,1.1-1.4,4.1-3.2,6.8c1.9,1.9,3.1,4.5,3.1,6.8c0,1.8-1,2.9-2.5,2.9
			c-1.7,0-4-1.2-4-2.1c0-0.6,0.3-1,0.9-1c0.2,0,0.4,0,0.7,0.1c0.3,0.1,0.6,0.1,0.9,0.1c0.7,0,1-0.3,1-1.2c0-1.5-1-3.4-2.7-5.1
			c-0.2-0.2-0.3-0.4-0.3-0.6c0-0.5,0.3-0.9,0.7-1.1c1-2,1.8-3.9,1.8-4.3c0-0.3-0.3-0.5-0.7-0.4l-2.7,0.3V160.9z M36.4,145.5
			c-0.2,2.8-0.4,4.3-0.8,6c-0.8,3.4-2.3,6.6-4,8.8c-0.4,0.5-0.7,0.7-1.1,0.7c-0.6,0-1.2-0.5-1.2-1.1c0-0.4,0-0.5,0.7-1.5
			c3-5.3,3.7-8.5,4-19.5l0-1.2c-0.7-0.1-1.1-0.6-1.1-1.4c0-0.8,0.5-1.3,1.3-1.4l14.5-1.4h0.2c0.8,0,1.3,0.6,1.3,1.4
			c0,0.8-0.4,1.4-1.2,1.4l-12.1,1.2l0,0.4c0,1.4-0.1,2.3-0.2,4.7v0.2l9.5-0.9h0.5c1.5,0,2.2,0.6,2.2,1.9c0,0.5-0.1,0.8-0.3,1.6
			c-0.8,3-2,5.5-4.1,8.6c1.9,2.2,4.9,4.8,6.9,6c0.6,0.4,0.9,0.7,0.9,0.9c0,0.4-1.9,1.1-3.2,1.1c-0.6,0-0.9-0.2-1.6-0.8
			c-1.9-1.8-3.4-3.4-4.7-5.1l-0.1,0.2c-2.1,2.6-6,5.8-7,5.8c-0.5,0-1.1-0.5-1.1-1.1c0-0.5,0.1-0.7,1.2-1.5c1.5-1.2,3.8-3.5,5.3-5.5
			l0.1-0.1l-0.2-0.3c-2.2-3-3.7-5.6-3.7-6.4c0-0.6,0.6-1.1,1.2-1.1c0.5,0,0.7,0.2,1.4,1.3c0.7,1.3,2.1,3.3,2.9,4.3
			c1.4-2.3,2.7-5.6,2.7-6.7c0-0.4-0.2-0.5-0.7-0.5h-0.1L36.4,145.5z"/>
		<path class="st0" d="M68.4,149.2c-1.4,2.3-3.2,4.5-4.7,6.1c-0.8,0.8-1.2,1.1-1.6,1.1c-0.5,0-1-0.6-1-1.1c0-0.4,0-0.5,0.8-1.4
			c1.9-2.1,4.5-6.1,5.8-8.8l-4.8,0.6c-0.8,0.1-1.5-0.5-1.5-1.4c0-0.7,0.5-1.2,1.2-1.3l5.8-0.7v-4.4c-2.4,0.6-4.2,1.1-4.7,1.1
			c-0.7,0-1.1-0.5-1.1-1.1c0-0.5,0.2-0.8,0.7-1c0.1-0.1,0.1-0.1,1-0.2c2.5-0.6,5.5-1.8,8.6-3.3c0.5-0.2,0.8-0.3,1.2-0.3
			c0.8,0,1.4,0.6,1.4,1.4c0,1-0.7,1.4-4.1,2.6v5l4.1-0.5c0.8-0.1,1.5,0.5,1.5,1.3c0,0.7-0.4,1.2-1.2,1.3l-4.4,0.6v1.8
			c4.6,2.5,5.8,3.3,5.8,4.4c0,0.8-0.6,1.4-1.4,1.4c-0.5,0-0.7-0.1-1.4-0.7c-1-1-1.9-1.7-3-2.7v12.3c0,0.8-0.6,1.3-1.5,1.3
			c-0.9,0-1.5-0.5-1.5-1.3V149.2z M90.6,153.4c0.7,0.1,1.1,0.7,1.1,1.4c0,0.8-0.5,1.4-1.3,1.4l-8.9,0.6v0.1c0,0.9-0.6,1.4-1.5,1.4
			c-0.8,0-1.4-0.5-1.5-1.4l-0.9-15.3v-0.1c-0.1-0.7,0.7-1.4,1.5-1.4c0.7,0,1.2,0.3,1.4,0.8l7.8-0.9c0.2,0,0.4,0,0.7,0
			c1.6,0,2.5,0.8,2.5,2.4c0,0.3,0,0.3,0,0.5L90.6,153.4z M88.3,143.9l0-0.2c0-0.6-0.2-0.9-0.7-0.8c0,0-0.1,0-0.3,0l-6.4,0.7
			l0.5,10.4l6.4-0.4L88.3,143.9z"/>
		<path class="st0" d="M119.8,144.6l4.4-0.3h0.7c1.8,0,2.7,0.6,2.7,1.6c0,1.8-3.1,6.1-6.7,9.2c2.5,1.6,7.6,4,11.3,5.4
			c0.9,0.4,1.3,0.6,1.3,0.9c0,0.3-0.3,0.5-0.8,0.7c-1.5,0.5-2.9,0.8-3.5,0.8c-0.6,0-0.8-0.1-1.9-0.7c-2.7-1.4-6.4-3.6-8.6-5.3
			c-2.1,1.5-4.7,2.9-7.5,4c-2.1,0.8-4.9,1.6-5.5,1.6c-0.6,0-1.1-0.5-1.1-1.2c0-0.4,0.2-0.7,0.6-0.9c0.2-0.1,0.4-0.2,1.4-0.5
			c3.4-1.1,7.1-2.9,9.8-4.8c-5-3.8-5.8-4.6-5.8-5.3c0-0.6,0.6-1.2,1.2-1.2c0.5,0,0.8,0.1,1.7,0.9c1.5,1.2,3,2.3,5.1,3.8l0.2-0.1
			l0.1-0.1c1.9-1.6,4.6-5.1,4.6-5.8c0-0.2-0.1-0.3-0.5-0.3h-0.2l-12.5,0.9H110c-0.9,0-1.4-0.5-1.4-1.3c0-0.8,0.5-1.4,1.4-1.4
			l6.7-0.5v-4.6l-9.9,0.6l-0.2,0c-0.7,0.1-1.4-0.6-1.4-1.4c0-0.8,0.5-1.3,1.3-1.4l10.1-0.7v-4.7c0-0.8,0.7-1.4,1.6-1.4
			c0.9,0,1.6,0.6,1.6,1.4v4.5l9.5-0.7h0.1c0.8,0,1.4,0.6,1.4,1.5c0,0.7-0.5,1.2-1.3,1.3l-9.7,0.7V144.6z"/>
		<path class="st0" d="M172.1,135.7c0.8-0.1,1.4,0.5,1.4,1.3c0,0.8-0.5,1.3-1.2,1.4l-20.5,1.5c0,6.4-1.2,13-3.2,17.4
			c-1.1,2.6-2.1,3.8-2.9,3.8c-0.6,0-1.2-0.6-1.2-1.2c0-0.4,0-0.5,0.5-1.3c2.1-3.8,3.5-11.5,3.6-18.6c-0.5-0.2-0.8-0.7-0.8-1.3
			c0-0.8,0.5-1.3,1.4-1.3l9.3-0.7v-3.6c0-0.8,0.6-1.4,1.5-1.4c0.9,0,1.6,0.6,1.6,1.4v3.4L172.1,135.7z M170.2,158.5
			c0.7,0.1,1.1,0.6,1.1,1.3c0,0.8-0.5,1.3-1.4,1.3l-13.3,0.6v0.1v0.1c0,0.7-0.6,1.2-1.5,1.2c-0.9,0-1.5-0.5-1.5-1.3l-0.9-9.5
			c0-0.9,0.5-1.5,1.6-1.5h0.1c0.7,0,1.2,0.3,1.4,0.9l3.9-0.3v-10.1c0-0.9,0.6-1.4,1.5-1.4s1.6,0.5,1.6,1.4v3.4l7.3-0.7h0.1
			c0.7,0,1.3,0.6,1.3,1.4c0,0.9-0.5,1.3-1.3,1.4l-7.4,0.6v3.8l5.7-0.5h0.4c1.5,0,2.3,0.7,2.3,2.1c0,0.2,0,0.6-0.1,0.8L170.2,158.5z
			 M167.7,154.3c0.1-0.5-0.2-0.8-0.6-0.8H167l-11,0.8l0.4,4.8l10.8-0.5L167.7,154.3z"/>
		<path class="st0" d="M198.2,141.9c-1.5,0.1-2.7,0.2-4.7,0.4c-0.7,0.1-1.5,0.1-1.6,0.1c-0.2,0-0.3,0-0.4,0c-0.9,0-1.5-0.6-1.5-1.4
			c0-0.8,0.4-1.3,1.1-1.5c0.3-0.1,0.4-0.1,1.6-0.1c2.7,0,10.4-0.7,14.4-1.3c0.2,0,0.4,0,0.5,0c0.9,0,1.5,0.6,1.5,1.5
			c0,0.9-0.5,1.3-1.6,1.5c-1.8,0.2-4.1,0.5-6,0.6v10.7l0.9,0c6-0.3,9.6-0.5,10.7-0.6c0.1,0,0.3,0,0.4,0c1,0,1.6,0.6,1.6,1.5
			c0,0.7-0.3,1.2-0.9,1.4c-0.3,0.1-0.3,0.1-2.4,0.1c-6.9,0.2-17.2,0.8-24.1,1.4c-0.3,0-0.4,0-0.5,0c-1.1,0-1.6-0.6-1.6-1.6
			c0-0.7,0.5-1.3,1.4-1.4c0.6-0.1,6.3-0.5,10.5-0.7l0.9-0.1V141.9z"/>
		<path class="st0" d="M231.1,147.4c0,1-0.6,1.6-1.6,1.6c-1,0-1.6-0.6-1.6-1.6v-11.3c0-1,0.6-1.6,1.6-1.6c1,0,1.6,0.6,1.6,1.6V147.4
			z M243.1,144.8c0,6.6-1.5,11.1-4.9,14.4c-1.5,1.4-2.6,2.2-3.4,2.2c-0.6,0-1-0.5-1-1c0-0.6,0.1-0.7,1.4-2.1
			c3.4-3.6,4.7-7.5,4.7-13.5v-10.3c0-0.9,0.6-1.4,1.5-1.4c1,0,1.6,0.5,1.6,1.4V144.8z"/>
		<path class="st0" d="M283.5,138.2c0,1.3-1.9,4.1-4.5,6.8c-2,2-3.6,3.2-4.4,3.2c-0.6,0-1.1-0.5-1.1-1.1c0-0.5,0.1-0.7,1.2-1.5
			c2-1.6,4.9-5.4,4.9-6.3c0-0.2-0.1-0.2-0.4-0.2c-0.3,0-0.8,0-1.3,0.1c-0.5,0-1.5,0.1-2.9,0.2c-3.4,0.2-5.3,0.4-15.9,1.3
			c-0.3,0-0.4,0-0.5,0c-0.9,0-1.6-0.6-1.6-1.5c0-0.7,0.4-1.2,1-1.4c0.3-0.1,0.6-0.1,2-0.2c4.3-0.3,10.6-0.7,19.1-1.3
			c1.3-0.1,1.6-0.1,1.8-0.1C282.4,136.1,283.5,136.9,283.5,138.2z M271.6,143.2c0.2,0.4,0.2,0.5,0.2,1.6c0,2.2-0.2,5.2-0.4,6.3
			c-0.7,4-3.2,7.6-6.7,9.7c-0.4,0.2-0.8,0.4-1.1,0.4c-0.6,0-1.1-0.5-1.1-1.1c0-0.6,0.1-0.8,1.3-1.8c2.3-1.9,4.1-5.1,4.5-8.3
			c0.1-1.2,0.2-3,0.2-5.7c0-1.2,0.5-1.9,1.6-1.9C270.8,142.5,271.3,142.8,271.6,143.2z"/>
		<path class="st1" d="M76.7,189.6l5.3-0.3c0.9,0,1.5,0.5,1.5,1.3c0,0.8-0.5,1.4-1.3,1.4l-5.4,0.3v5l9.8-0.3c0.9,0,1.5,0.5,1.5,1.4
			c0,0.9-0.5,1.4-1.4,1.5l-22.2,0.8c-0.9,0-1.5-0.5-1.5-1.4c0-0.9,0.5-1.4,1.3-1.5l9.3-0.3v-5l-5.5,0.3c-0.9,0-1.5-0.5-1.5-1.3
			c0-0.8,0.5-1.4,1.3-1.4l5.6-0.3v-4.2l-5.6,0.3c-0.9,0.1-1.5-0.5-1.5-1.3c0-0.3,0.1-0.6,0.2-0.9c-2.8,2.1-4.8,3.3-5.6,3.3
			c-0.6,0-1.1-0.5-1.1-1.1c0-0.6,0-0.6,1.6-1.5c4.3-2.7,8.9-7.8,11.6-12.6c0.5-0.8,0.9-1.1,1.6-1.1c0.9,0,1.6,0.6,1.6,1.4
			c0,0.2,0,0.5-0.2,0.8c4,4.1,9.4,8.2,14.1,10.6c0.8,0.4,1.2,0.8,1.2,1.2c0,0.2-0.2,0.4-0.6,0.6c-0.8,0.3-2.2,0.6-2.8,0.6
			c-0.9,0-1.5-0.4-4.5-2.7c0,0.2,0.1,0.3,0.1,0.5c0,0.8-0.5,1.4-1.3,1.4l-5.7,0.4V189.6z M82.3,182.3c0.1,0,0.3,0,0.4,0
			c-2.5-2-5.4-4.8-7.6-7.4c-1.9,2.8-4.9,6.1-7.8,8.4c0.1-0.1,0.3-0.1,0.5-0.1L82.3,182.3z"/>
		<path class="st1" d="M119.8,191.7c0,4.5-3.7,7.5-9.2,7.5c-3.2,0-6-1-7.8-2.9c-0.7-0.7-1.1-1.3-1.1-1.9c0-0.8,0.8-1.6,1.6-1.6
			c0.6,0,0.9,0.1,1.6,1c1.3,1.5,3.3,2.3,5.7,2.3c3.3,0,5.5-1.8,5.5-4.6c0-2.2-1.2-3.9-3.2-4.3c-0.9-0.2-2.1-0.3-4.1-0.3
			c-1.3,0-1.8-0.5-1.8-1.6c0-0.7,0.4-1.3,1-1.4c0.2-0.1,0.4-0.1,1-0.1c1.4,0,2.9-0.3,4-0.8c1.3-0.6,2-1.7,2-3.3
			c0-2.3-1.8-3.7-4.7-3.7c-2,0-3.5,0.7-4.8,2.2c-0.4,0.5-0.9,0.7-1.4,0.7c-0.8,0-1.6-0.7-1.6-1.5c0-0.5,0.2-0.9,0.8-1.5
			c1.6-1.8,4.4-2.9,7.2-2.9c4.8,0,8.1,2.8,8.1,6.7c0,2.4-1.4,4.4-3.8,5.2c-0.2,0.1-0.4,0.1-0.9,0.2
			C117.7,186,119.8,188.4,119.8,191.7z"/>
		<path class="st1" d="M137.9,182c-0.1,5.1-0.7,8.7-2.1,12.5c-0.6,1.6-1.9,4.1-2.6,5.1c-0.4,0.5-0.7,0.8-1.2,0.8
			c-0.6,0-1.2-0.6-1.2-1.2c0-0.3,0-0.4,0.6-1.4c2.9-6.1,3.6-10.3,3.5-21.4v-0.7c-0.5-0.1-0.9-0.6-0.9-1.2c0-0.6,0.5-1.2,1.2-1.2
			l20.3-1.4c1.6-0.1,2.6,0.6,2.6,1.9c0,0.2,0,0.7-0.1,0.9l-0.7,2.5c0.5,0.1,0.7,0.6,0.7,1.1c0,0.6-0.4,1.1-1,1.2l-19.1,1.3
			L137.9,182z M142.8,186.4l-2.7,0.2l-0.2,0c-0.6,0.1-1.2-0.5-1.2-1.2s0.4-1.2,1.1-1.2l2.8-0.2l-0.1-2c0-0.7,0.6-1.3,1.5-1.3
			c0.8,0,1.4,0.5,1.4,1.3l0.1,1.9l5-0.4l0.1-2c0-0.7,0.7-1.3,1.5-1.3s1.5,0.6,1.5,1.4l-0.1,1.7l3.1-0.2h0.2c0.6,0,1.2,0.5,1.2,1.2
			c0,0.7-0.5,1.2-1.1,1.2l-3.5,0.2l-0.1,3.2l5.7-0.4h0.1l0.1,0c0.8,0.2,0.8,0.2,1,0.6c0.1,0.2,0.2,0.5,0.2,0.6
			c0,0.7-0.5,1.1-1.2,1.2l-15.6,1v7c1.4-0.3,3.2-0.8,4.5-1.4c0.3-0.1,0.6-0.2,0.8-0.2c0.5,0,1,0.5,1,1.1c0,0.5-0.3,0.8-1.1,1.3
			c-2.4,1.3-5.8,2.6-6.8,2.6c-0.8,0-1.4-0.8-1.4-1.9v-8.2l-1.8,0.1h-0.1h-0.1c-0.7,0-1.2-0.6-1.2-1.2c0-0.7,0.4-1.2,1.2-1.2l4.4-0.2
			L142.8,186.4z M154.6,177.2l0.3-2.3v-0.2c0-0.4-0.2-0.5-0.6-0.5l-16.2,1.2v0.5v0.8v0.8v0.8L154.6,177.2z M150.4,189.1l0.1-3.2
			l-4.9,0.3l0.1,3.2L150.4,189.1z M160.3,199c0.9,0.3,1.4,0.7,1.4,0.9c0,0.2-0.3,0.5-0.8,0.7c-1.4,0.6-2.3,0.8-3,0.8
			c-0.6,0-0.9-0.1-2.1-0.8c-2.9-1.6-7-4.7-8.8-6.7c-0.5-0.5-0.6-0.7-0.6-1.1c0-0.5,0.5-0.9,1-0.9c0.5,0,0.6,0.1,1.9,1.2
			c0.7,0.6,1.5,1.2,2.5,1.9c1.2-0.9,2.7-2.3,3.3-3c0.3-0.4,0.8-0.6,1.2-0.6c0.8,0,1.6,0.8,1.6,1.6c0,0.5-0.2,0.8-0.7,1.1
			c-0.9,0.7-2.2,1.5-3.4,2.1C155.9,197.2,158,198.2,160.3,199z"/>
		<path class="st1" d="M189.6,198.5c0,2-0.9,3-2.6,3c-1.1,0-3.5-0.8-5.1-1.7c-0.7-0.4-1-0.7-1-1.2c0-0.6,0.4-1,1-1
			c0.2,0,0.5,0,0.8,0.1c1.1,0.3,2.4,0.6,2.8,0.6c0.7,0,0.9-0.3,0.9-1.2v-11.9l-11.8,0.8c-0.9,0.1-1.5-0.5-1.5-1.4
			c0-0.9,0.5-1.5,1.3-1.5l26.6-1.9c0.9-0.1,1.5,0.5,1.5,1.4c0,0.9-0.5,1.5-1.3,1.6l-11.6,0.8V198.5z M181.9,189.3
			c0,1.1-2.5,4.7-5,7.1c-1.3,1.2-1.9,1.6-2.5,1.6c-0.6,0-1.2-0.6-1.2-1.2c0-0.5,0.1-0.6,0.8-1.4c1.8-2,3.5-4.6,4.5-6.5
			c0.4-0.9,0.9-1.2,1.6-1.2C181.1,187.7,181.9,188.4,181.9,189.3z M179.1,177.3c-0.9,0.1-1.5-0.5-1.5-1.4c0-0.9,0.5-1.5,1.3-1.5
			l16.5-1.2c0.9-0.1,1.5,0.5,1.5,1.4c0,0.9-0.5,1.5-1.3,1.6L179.1,177.3z M195.5,187.9c2.2,1.9,4.5,4.5,5.6,6.3
			c0.5,0.7,0.6,1.2,0.6,1.7c0,0.9-0.8,1.6-1.7,1.6c-0.5,0-1-0.2-1.3-0.6c-0.1-0.1-0.1-0.1-0.5-0.8c-1.1-1.9-3-4.6-4.6-6.6
			c-0.4-0.5-0.6-0.8-0.6-1.2c0-0.6,0.5-1,1.1-1C194.6,187.2,195,187.4,195.5,187.9z"/>
		<path class="st1" d="M220.5,190.1c0.3-0.2,0.8-0.5,1.3-0.8c0.4-0.2,0.4-0.2,1.2-0.8c0.4-0.2,0.7-0.4,1.1-0.4
			c0.6,0,1.2,0.6,1.2,1.2c0,0.7-0.8,1.4-3.7,3.3c-3.4,2.2-6.4,3.8-7.2,3.8c-0.8,0-1.4-0.7-1.4-1.5c0-0.8,0.2-1,1.6-1.6
			c1.1-0.5,2-0.9,3-1.5v-8.9l-2.9,0.4c-0.1,0-0.2,0-0.2,0c-0.7,0-1.2-0.6-1.2-1.5c0-0.7,0.5-1.2,1.2-1.3l3.2-0.4v-7
			c0-0.7,0.7-1.3,1.5-1.3c0.8,0,1.5,0.6,1.5,1.3v6.5l2.3-0.3h0.2c0.7,0,1.2,0.6,1.2,1.3s-0.4,1.3-1.2,1.4l-2.6,0.4V190.1z
			 M239.5,190.8c-1.4,3.4-4.6,7.2-8,9.7c-0.9,0.7-1.3,0.8-1.6,0.8c-0.5,0-1-0.5-1-1s0-0.6,1.2-1.6c3-2.5,5.2-5.1,6.4-7.7l-2.4,0.1
			c-1.6,3.1-6.8,7.8-8.5,7.8c-0.5,0-1-0.5-1-1c0-0.5,0.1-0.7,1.3-1.5c1.4-0.9,3.6-3.1,5.1-5.1l-2.4,0.2c-2.3,2.2-3.6,3.1-4.2,3.1
			c-0.5,0-1-0.5-1-0.9c0-0.5,0.1-0.6,1.1-1.3c1.4-1.1,3.2-3.1,5-5.5l-4.1,0.2l-0.2,0c-0.6,0.1-1.2-0.5-1.2-1.1
			c0-0.7,0.5-1.2,1.2-1.2l18.5-1.3h0.1c0.7,0,1.2,0.5,1.2,1.2c0,0.7-0.5,1.2-1.2,1.3l-11.3,0.7c-0.4,0.7-0.9,1.5-1.6,2.3l-0.1,0.2
			l10.7-0.7h0.3c1.4,0,2.1,0.7,2.1,2c0,1.5-0.8,5.7-1.5,7.7c-0.9,2.6-1.9,3.6-3.4,3.6c-0.7,0-2.4-0.5-3.4-1.1
			c-0.7-0.4-1.1-0.8-1.1-1.3c0-0.5,0.4-0.9,0.9-0.9c0.2,0,0.4,0,0.7,0.1c0.8,0.3,1.4,0.4,1.8,0.4c0.8,0,1.2-0.4,1.7-1.8
			c0.5-1.3,1.3-4.7,1.3-5.6c0-0.5-0.3-0.7-0.8-0.7H240L239.5,190.8z M229.8,182.4c-0.1,0.6-0.6,0.9-1.3,0.9c-0.8,0-1.3-0.4-1.3-1.3
			l-0.6-8.7v-0.2c0-0.9,0.6-1.4,1.5-1.4c0.6,0,0.9,0.2,1.2,0.6l9.5-0.9c0.3,0,0.6,0,0.6,0c1.5,0,2.2,0.8,2.1,2.3l-0.5,7.7
			c0,0.8-0.5,1.3-1.4,1.3c-0.7,0-1.2-0.3-1.3-0.8L229.8,182.4z M238.4,174.6c0-0.5-0.2-0.8-0.7-0.8h-0.1l-8.1,0.7l0.1,1.8l8.8-0.7
			L238.4,174.6z M229.7,178.3l0.1,1.9l8.4-0.6l0-2L229.7,178.3z"/>
	</g>
</g>
</svg>
