<?xml version="1.0" encoding="utf-8"?>
<!-- Generator: Adobe Illustrator 25.3.1, SVG Export Plug-In . SVG Version: 6.00 Build 0)  -->
<svg version="1.1" id="レイヤー_1" xmlns="http://www.w3.org/2000/svg" xmlns:xlink="http://www.w3.org/1999/xlink" x="0px"
	 y="0px" viewBox="0 0 303.2 215.9" style="enable-background:new 0 0 303.2 215.9;" xml:space="preserve">
<style type="text/css">
	.st0{fill:#40220F;}
	.st1{fill:#0D335B;}
	.st2{fill:#FFFFFF;}
</style>
<g>
	<g>
		<path class="st0" d="M4.7,36.3c-0.8,1.3-1.8,2.6-2.7,3.5c-0.5,0.5-0.7,0.6-0.9,0.6c-0.3,0-0.6-0.3-0.6-0.6c0-0.2,0-0.3,0.5-0.8
			c1.1-1.2,2.6-3.5,3.3-5l-2.7,0.3c-0.5,0.1-0.9-0.3-0.9-0.8c0-0.4,0.3-0.7,0.7-0.7l3.3-0.4v-2.5c-1.4,0.4-2.4,0.6-2.7,0.6
			c-0.4,0-0.6-0.3-0.6-0.6c0-0.3,0.1-0.5,0.4-0.6c0.1,0,0.1,0,0.6-0.1c1.4-0.4,3.1-1,4.9-1.9C7.5,27.1,7.7,27,7.9,27
			c0.4,0,0.8,0.4,0.8,0.8c0,0.6-0.4,0.8-2.3,1.5v2.9l2.4-0.3c0.5-0.1,0.8,0.3,0.8,0.8c0,0.4-0.2,0.7-0.7,0.8l-2.5,0.3v1
			c2.6,1.4,3.3,1.9,3.3,2.5c0,0.5-0.4,0.8-0.8,0.8c-0.3,0-0.4-0.1-0.8-0.4c-0.6-0.6-1.1-1-1.7-1.5v7c0,0.4-0.4,0.8-0.9,0.8
			c-0.5,0-0.9-0.3-0.9-0.8V36.3z M17.3,38.7c0.4,0.1,0.6,0.4,0.6,0.8c0,0.5-0.3,0.8-0.8,0.8l-5.1,0.3v0c0,0.5-0.3,0.8-0.9,0.8
			c-0.5,0-0.8-0.3-0.8-0.8L10,32v-0.1c0-0.4,0.4-0.8,0.9-0.8c0.4,0,0.7,0.2,0.8,0.5l4.5-0.5c0.1,0,0.2,0,0.4,0
			c0.9,0,1.4,0.4,1.4,1.4c0,0.2,0,0.2,0,0.3L17.3,38.7z M16.1,33.3l0-0.1c0-0.3-0.1-0.5-0.4-0.5c0,0-0.1,0-0.2,0l-3.7,0.4l0.3,6
			l3.6-0.2L16.1,33.3z"/>
		<path class="st0" d="M30.9,42.6c0,1-0.4,1.6-1.1,1.6c-0.6,0-1.6-0.2-2.5-0.6c-0.4-0.1-0.5-0.3-0.5-0.6c0-0.3,0.2-0.6,0.5-0.6
			c0.1,0,0.1,0,0.3,0c0.6,0.1,1,0.2,1.2,0.2c0.3,0,0.5-0.2,0.5-0.6v-5.9l-6.4,0.4c-0.5,0-0.8-0.3-0.8-0.7s0.2-0.7,0.7-0.7l9.2-0.6
			c0.5,0,0.8,0.2,0.8,0.7c0,0.5-0.3,0.7-0.7,0.8l-1.2,0.1V42.6z M30.9,33.8c0,0.4-0.3,0.7-0.8,0.7c-0.5,0-0.8-0.3-0.8-0.7V29
			l-5.9,0.5c-0.5,0-0.8-0.3-0.8-0.7c0-0.5,0.3-0.7,0.7-0.8l8.1-0.6c0.5,0,0.8,0.3,0.8,0.8c0,0.4-0.2,0.7-0.7,0.7l-0.7,0.1V33.8z
			 M28.1,40c0.2,0.2,0.2,0.3,0.2,0.5c0,0.3-0.2,0.5-0.7,0.6l-2.4,0.3v0.1v0c0,0.4-0.3,0.6-0.7,0.6c-0.5,0-0.7-0.2-0.7-0.7l-0.3-3.3
			c0-0.4,0.3-0.7,0.7-0.7c0.3,0,0.5,0.1,0.6,0.3l2.5-0.3l0.2,0c0.5-0.1,0.9,0.4,0.9,0.9c0,0.1,0,0.2,0,0.3L28.1,40z M28.1,32.5
			c0.2,0.1,0.3,0.3,0.3,0.5c0,0.3-0.2,0.5-0.6,0.6l-2.3,0.2c0,0.3-0.3,0.5-0.7,0.5c-0.4,0-0.6-0.2-0.7-0.6l-0.3-2.9
			c0-0.4,0.3-0.7,0.7-0.7c0.3,0,0.4,0.1,0.6,0.3l2.1-0.2c0.1,0,0.2,0,0.2,0c0.6,0,1,0.3,1,0.9c0,0.1,0,0.2,0,0.3L28.1,32.5z
			 M26.9,39c0-0.3-0.1-0.4-0.3-0.4L25,38.9l0.1,1.3l1.7-0.2L26.9,39z M27,31.5c0-0.2,0-0.3-0.2-0.3l-1.5,0.2l0.1,1.3l1.5-0.2
			L27,31.5z M35.6,38.1c-0.4,2-1.4,3.9-2.7,5.1c-0.5,0.5-0.8,0.6-1.1,0.6c-0.3,0-0.5-0.3-0.5-0.6c0-0.3,0-0.3,0.5-0.8
			c2-2.4,2.7-4.7,2.7-9.2c0-0.6,0.3-0.9,0.8-0.9c0.6,0,0.8,0.2,0.8,1c0,0.5,0,1.2-0.1,1.8c0.8,2.7,2.2,5.1,4.4,7.4
			c0.4,0.5,0.5,0.6,0.5,0.7c0,0.2-0.9,0.5-1.5,0.5c-0.4,0-0.6-0.1-0.9-0.5c-1.4-1.9-2.2-3.4-2.9-5.5l0,0.1L35.6,38.1z M34,31.7
			c-0.3,0.7-0.7,1.4-1.1,2c-0.2,0.3-0.4,0.5-0.7,0.5c-0.3,0-0.6-0.3-0.6-0.6c0-0.2,0-0.2,0.3-0.8c0.8-1.7,1.5-3.9,1.8-5.6
			c0.1-0.5,0.4-0.7,0.8-0.7c0.5,0,0.9,0.3,0.9,0.8c0,0.4-0.4,1.8-0.8,2.9l4.3-0.4h0.2c0.7,0,1.1,0.3,1.1,0.9c0,0.7-0.7,2.1-1.6,3.4
			c-0.3,0.5-0.5,0.6-0.8,0.6c-0.3,0-0.6-0.3-0.6-0.6c0-0.1,0-0.3,0.2-0.6c0.5-0.9,0.8-1.7,0.8-2c0-0.1-0.1-0.2-0.3-0.2H38L34,31.7z"
			/>
		<path class="st0" d="M57.7,40.1l0.2-6.4c0-0.5,0.4-0.8,0.9-0.8c0.5,0,1,0.4,1,0.9v0L59.4,42c0,0.5-0.4,0.8-0.9,0.8
			c-0.6,0-0.9-0.4-0.9-0.9v-0.2l-10.5,0.8c-0.2,0-0.3,0-0.3,0c-1.1,0-1.7-0.5-1.7-1.7l-0.2-6.3v0c0-0.5,0.4-0.9,1-0.9
			c0.5,0,0.9,0.4,0.9,0.9l0.2,5.7c0,0.6,0.2,0.7,0.8,0.7l3.5-0.3V28.5c0-0.5,0.4-0.9,0.9-0.9c0.5,0,0.9,0.4,0.9,0.9v12L57.7,40.1z"
			/>
		<path class="st0" d="M70.2,39.9c0,0.4-0.2,0.8-0.9,1.4c-0.7,0.7-1.8,1.6-2.6,2.1c-0.3,0.1-0.4,0.2-0.6,0.2c-0.3,0-0.6-0.3-0.6-0.6
			c0-0.3,0.1-0.4,0.6-0.8c0.8-0.6,1.9-1.8,2.5-2.6c0.2-0.3,0.5-0.5,0.8-0.5C69.8,39,70.2,39.4,70.2,39.9z M67.4,38.7l-0.4,0
			c-1.2,0-1.6-0.4-1.6-1.6v-6c0-0.5,0.3-0.8,0.9-0.8c0.6,0,0.9,0.3,0.9,0.8v5.7c0,0.3,0.1,0.5,0.4,0.4l0.1,0l12.8-0.8
			c0.5,0,0.8,0.3,0.8,0.8s-0.3,0.8-0.8,0.8l-6.4,0.4v5.2c0,0.5-0.3,0.8-0.9,0.8c-0.6,0-0.9-0.3-0.9-0.8v-5.1L67.4,38.7z M71,35.7
			c-0.1,0.4-0.4,0.6-0.8,0.6c-0.6,0-0.8-0.3-0.8-0.8v-7.8c0-0.5,0.3-0.8,0.8-0.8c0.4,0,0.7,0.2,0.8,0.5l5.6-0.5c0.1,0,0.2,0,0.3,0
			c0.9,0,1.4,0.5,1.4,1.5v6.7c0,0.5-0.3,0.8-0.9,0.8c-0.5,0-0.7-0.2-0.8-0.5L71,35.7z M76.5,28.7c0-0.3-0.1-0.4-0.4-0.4l-5,0.4v1.1
			l5.5-0.4V28.7z M71,31v1.1l5.5-0.5v-1.1L71,31z M71,33.3v1.1l5.5-0.4v-1.2L71,33.3z M79.6,40.6c1,0.9,1.4,1.4,1.4,1.8
			c0,0.5-0.4,0.9-0.9,0.9c-0.4,0-0.6-0.1-1-0.6c-0.7-0.9-1.7-2-2.5-2.7c-0.2-0.2-0.3-0.4-0.3-0.6c0-0.3,0.3-0.6,0.6-0.6
			C77.3,38.7,78.3,39.4,79.6,40.6z"/>
		<path class="st0" d="M85.3,32.5c-0.6,0-0.9-0.4-0.9-1c0-0.4,0.2-0.6,0.5-0.8c0.2-0.1,0.2-0.1,1.1-0.2c2.1-0.2,7.6-1.1,10.3-1.6
			c0.3,0,0.4-0.1,0.5-0.1c0.6,0,1,0.5,1,1.1c0,0.4-0.2,0.6-0.7,0.8c-1,0.3-2,1.1-2.8,2c-1.2,1.3-1.9,2.9-1.9,4.5
			c0,1.9,1.2,3.3,3.3,4c0.6,0.2,0.8,0.5,0.8,0.9c0,0.5-0.4,0.9-0.9,0.9c-0.5,0-1.3-0.3-2-0.7c-1.9-1.2-3-2.9-3-5
			c0-2.3,1.3-4.7,3.3-6.2c0.1-0.1,0.1-0.1,0.2-0.2C91.4,31.6,86,32.5,85.3,32.5z M100.2,28.6c0.5,0.5,0.8,0.9,0.8,1.3
			c0,0.4-0.4,0.7-0.8,0.7c-0.3,0-0.4-0.1-0.7-0.5c-0.3-0.6-0.8-1.2-1.4-1.8c-0.2-0.2-0.3-0.4-0.3-0.5c0-0.3,0.2-0.5,0.5-0.5
			C98.7,27.3,99.4,27.8,100.2,28.6z M101.2,26.4c0.9,0.7,1.5,1.4,1.5,1.9c0,0.4-0.3,0.7-0.7,0.7c-0.3,0-0.4-0.1-0.7-0.4
			c-0.4-0.6-1-1.3-1.5-1.8c-0.2-0.2-0.3-0.3-0.3-0.5c0-0.2,0.2-0.5,0.5-0.5C100.3,25.8,100.6,26,101.2,26.4z"/>
		<path class="st0" d="M108.5,32.9c1.1,0.6,1.3,0.8,1.3,1.4c0,0.5-0.4,0.9-0.9,0.9c-0.3,0-0.5-0.1-0.9-0.4c-0.3-0.3-0.6-0.5-1.3-1.1
			c-0.7-0.6-0.8-0.7-0.8-1c0-0.3,0.3-0.6,0.6-0.6C106.9,32.1,107.6,32.3,108.5,32.9z M111,37.5c0,0.5-1,2.7-2,4.4
			c-0.7,1.2-1.1,1.5-1.5,1.5c-0.5,0-0.9-0.4-0.9-0.9c0-0.3,0-0.4,0.5-1c1.1-1.6,2-3,2.5-4c0.3-0.5,0.5-0.7,0.8-0.7
			C110.6,36.8,111,37.1,111,37.5z M109.8,28.8c0.8,0.5,1.1,0.8,1.1,1.3S110.5,31,110,31c-0.3,0-0.5-0.1-0.9-0.4
			c-0.3-0.3-0.9-0.8-1.6-1.3c-0.3-0.3-0.5-0.5-0.5-0.7c0-0.3,0.3-0.6,0.7-0.6C108,27.9,108.8,28.2,109.8,28.8z M123,41.1
			c0.5,0,0.9,0.3,0.9,0.8c0,0.5-0.3,0.8-0.8,0.9l-11.6,0.5c-0.5,0-0.8-0.3-0.8-0.8c0-0.5,0.3-0.8,0.8-0.8l4.8-0.2v-4.1l-3.2,0.2
			c-0.5,0-0.8-0.3-0.8-0.8c0-0.5,0.3-0.7,0.7-0.8l3.3-0.2v-3.3l-3.9,0.3c-0.5,0-0.9-0.3-0.9-0.8s0.3-0.8,0.7-0.8l9.5-0.7
			c0.5,0,0.9,0.3,0.9,0.8c0,0.5-0.3,0.8-0.8,0.9l-4,0.3v3.3l3.2-0.2c0.5,0,0.9,0.2,0.9,0.7c0,0.5-0.2,0.8-0.8,0.8l-3.3,0.2v4.1
			L123,41.1z M117.6,27.9c0.8,0.5,1,0.8,1,1.2c0,0.5-0.5,0.9-1,0.9c-0.3,0-0.4-0.1-0.8-0.4c-0.6-0.6-1.6-1.5-2.1-1.9
			c-0.2-0.2-0.4-0.4-0.4-0.6c0-0.3,0.3-0.6,0.6-0.6C115.3,26.5,116.5,27.1,117.6,27.9z"/>
		<path class="st0" d="M140.9,31.7c-0.6,2.2-1.8,4.7-3.3,6.4c1.7,1.5,4.2,3,6.9,4.1c0.5,0.2,0.8,0.4,0.8,0.6c0,0.1-0.2,0.3-0.5,0.4
			c-0.8,0.3-1.5,0.5-2,0.5c-0.4,0-0.6-0.1-1.3-0.5c-1.7-1-3.3-2.2-5-3.8c-2,1.8-4,3-6.5,3.8c-0.6,0.2-0.9,0.3-1.1,0.3
			c-0.4,0-0.7-0.3-0.7-0.6c0-0.2,0.1-0.4,0.3-0.5c0.1,0,0.1,0,0.6-0.3c2.2-0.9,4.5-2.4,6.1-4c-1.3-1.4-3-3.9-3.9-5.8l-2.2,0.1
			c-0.6,0-0.9-0.3-0.9-0.8c0-0.5,0.3-0.8,0.8-0.8l6.4-0.4v-2.8c0-0.5,0.4-0.8,0.9-0.8c0.5,0,0.9,0.4,0.9,0.8v2.7l6.1-0.4
			c0.5,0,0.9,0.3,0.9,0.8c0,0.5-0.3,0.8-0.7,0.8L140.9,31.7z M133,32.1c0.7,1.3,2.1,3.3,3.3,4.7c1.1-1.4,2-3.2,2.5-5L133,32.1z"/>
		<path class="st0" d="M152.5,43.1c0,0.4-0.4,0.8-0.8,0.8c-0.5,0-0.8-0.3-0.8-0.8v-9c-1.1,1.6-1.6,2.2-2.1,2.2
			c-0.3,0-0.6-0.3-0.6-0.6c0-0.3,0-0.3,0.6-1.1c1.3-2,2.6-4.5,3.5-6.9c0.2-0.6,0.5-0.8,0.9-0.8c0.5,0,0.9,0.3,0.9,0.8
			c0,0.5-0.6,2.1-1.4,3.6V43.1z M160.5,35.7l3.2-0.2c0.5,0,0.8,0.3,0.8,0.8s-0.2,0.8-0.7,0.8l-3.3,0.2v4.1l4.9-0.2
			c0.5,0,0.9,0.3,0.9,0.8c0,0.5-0.3,0.8-0.8,0.9l-11.2,0.5c-0.5,0-0.8-0.3-0.8-0.8c0-0.5,0.3-0.8,0.8-0.8l4.5-0.2v-4.1l-3.2,0.2
			c-0.5,0-0.8-0.3-0.8-0.7c0-0.5,0.3-0.8,0.7-0.8l3.3-0.2v-3.3l-3.8,0.3c-0.5,0-0.9-0.3-0.9-0.8s0.3-0.8,0.7-0.9l9.4-0.7
			c0.5,0,0.9,0.3,0.9,0.8c0,0.5-0.3,0.8-0.7,0.9l-3.9,0.3V35.7z M159.5,27.6c1.2,0.8,1.5,1.1,1.5,1.6c0,0.5-0.5,0.9-1,0.9
			c-0.3,0-0.4-0.1-0.8-0.4c-0.6-0.6-1.5-1.4-2.2-1.9c-0.2-0.2-0.3-0.3-0.3-0.5c0-0.3,0.3-0.7,0.7-0.7S158.5,26.9,159.5,27.6z"/>
		<path class="st0" d="M185.2,28.8h0.2c0.7,0,1.1,0.3,1.1,0.8c0,0.5-0.5,1.4-1.3,2.4c-0.6,0.8-0.9,1-1.2,1s-0.6-0.3-0.6-0.6
			c0-0.2,0.1-0.3,0.2-0.5c0.3-0.5,0.6-1.1,0.6-1.4c0-0.1-0.1-0.2-0.3-0.2h-0.1l-11.6,0.8c-0.1,2-0.4,2.8-1.2,2.8c-0.6,0-1-0.4-1-0.9
			c0-0.2,0-0.3,0.2-0.7c0.3-0.8,0.6-1.9,0.6-2.5c0-0.5,0.3-0.7,0.7-0.7c0.4,0,0.6,0.2,0.6,0.6l5-0.3v-2.2c0-0.5,0.4-0.8,0.9-0.8
			c0.5,0,0.9,0.4,0.9,0.8v2L185.2,28.8z M178.2,36.6l6.4-0.8l0.2,0c0.4,0,0.8,0.4,0.8,0.8c0,0.4-0.3,0.7-0.8,0.8l-6.6,0.8l0,2.7V41
			c0,0.5,0.2,0.8,0.6,1c0.2,0.1,0.9,0.1,1.9,0.1c2,0,3.3-0.1,3.8-0.4c0.4-0.2,0.4-0.4,0.4-2.1c0-0.5,0.2-0.7,0.6-0.7
			c0.3,0,0.5,0.2,0.6,0.6c0.2,0.9,0.4,1.9,0.4,2.4c0,0.9-0.3,1.3-1.2,1.5c-0.8,0.2-2.8,0.3-5,0.3c-2,0-2.7-0.1-3.2-0.5
			c-0.3-0.2-0.5-0.6-0.6-1c0-0.1,0-0.4,0-0.5v-0.1l0-3.2l-5.3,0.7c-0.5,0.1-0.9-0.3-0.9-0.8c0-0.4,0.3-0.7,0.7-0.8l5.5-0.7l0-2.1
			c-1.8,0.4-2.8,0.5-3,0.5c-0.4,0-0.7-0.3-0.7-0.7c0-0.2,0.1-0.4,0.3-0.5c0.1,0,0.2-0.1,0.7-0.2c2.9-0.7,5-1.3,6.3-1.9
			c0.3-0.1,0.5-0.2,0.7-0.2c0.4,0,0.8,0.4,0.8,0.9c0,0.7-0.6,1-3.3,1.7L178.2,36.6z"/>
		<path class="st0" d="M200,38.9c0,0.5-0.3,0.9-0.9,0.9c-0.5,0-0.8-0.3-0.8-0.9v-1.1c-1.6,1-2.3,1.7-2.3,2.5c0,0.7,0.7,1.1,2.2,1.1
			c1,0,3.2-0.1,4-0.2c0.1,0,0.1,0,0.2,0c0.5,0,0.8,0.4,0.8,0.9c0,0.5-0.3,0.8-0.9,0.8c-0.6,0.1-2.6,0.2-4.1,0.2
			c-2.7,0-4.1-0.9-4.1-2.6c0-1.6,0.9-2.6,4-4.4c-0.2-0.9-0.5-1.2-1.1-1.2c-0.8,0-1.6,0.2-2.3,0.7c-0.2,0.2-0.5,0.3-0.7,0.3
			c-0.4,0-0.8-0.4-0.8-0.9c0-0.2,0.1-0.4,0.3-0.6c0.4-0.4,1-1.3,1.9-3.1c-0.8,0.1-1.9,0.1-2.3,0.1c-0.7,0-1-0.3-1-0.8
			c0-0.4,0.2-0.7,0.6-0.8c0.1,0,0.2,0,0.6,0c0.5,0,2-0.1,3-0.2c0.4-0.9,0.6-1.4,1-2.2c0.2-0.5,0.5-0.7,0.9-0.7
			c0.5,0,0.9,0.4,0.9,0.8c0,0.2-0.1,0.6-0.8,1.9c0.9-0.1,1.8-0.2,2.6-0.4c0.2-0.1,0.3-0.1,0.4-0.1c0.4,0,0.8,0.4,0.8,0.9
			c0,0.4-0.3,0.6-0.8,0.8c-0.8,0.2-2.4,0.5-3.9,0.6c-0.7,1.2-1.1,2-1.6,2.7l0,0.1c0.6-0.3,1.3-0.4,1.8-0.4c1.1,0,1.8,0.6,2.2,1.8
			c2.1-1.1,3.7-1.7,4.2-1.7c0.5,0,0.8,0.4,0.8,0.9c0,0.4-0.1,0.5-0.8,0.8c-1.8,0.7-3,1.2-4.1,1.7V38.9z"/>
		<path class="st0" d="M214.4,33.7c0.8,0,1.2,0.3,1.2,1.1c0,0.9-0.5,2.7-1.1,4c3.7,1.9,8.1,3.1,12.7,3.6c0.7,0.1,1,0.2,1,0.4
			c0,0.2-0.1,0.3-0.6,0.6c-1,0.6-1.5,0.8-2.1,0.8c-2,0-8.1-2.2-11.7-4.2c-0.9,1.3-1.6,2.1-2.9,3c-0.2,0.2-0.4,0.2-0.6,0.2
			c-0.3,0-0.6-0.3-0.6-0.6c0-0.3,0-0.3,0.7-0.9c0.8-0.7,1.5-1.6,2.1-2.5c-0.1,0-0.2-0.1-0.2-0.1c-0.1,0-0.2-0.1-0.3-0.1
			c-0.6-0.3-1.4-0.9-1.8-1.2c-0.2-0.2-0.3-0.4-0.3-0.6c0-0.3,0.3-0.6,0.6-0.6c0.2,0,0.3,0,1,0.5c0.3,0.2,1,0.6,1.6,0.9
			c0.4-0.9,0.8-2.2,0.8-2.7c0-0.2-0.1-0.3-0.3-0.3h-0.2l-1.7,0.2l-0.1,0c-0.4,0-0.7-0.3-0.7-0.7c0-0.2,0-0.3,0.2-0.5
			c0,0,0.1-0.1,0.2-0.3c0.9-1.4,2-3.6,2-4c0-0.1-0.1-0.2-0.2-0.2c-0.1,0-0.2,0-0.3,0l-2,0.4c-0.1,0-0.1,0-0.2,0
			c-0.4,0-0.7-0.3-0.7-0.8c0-0.4,0.3-0.7,0.7-0.8l3.3-0.5c0.1,0,0.2,0,0.4,0c0.6,0,1,0.3,1,0.9c0,0.3-0.1,0.6-0.3,1.1
			c-0.8,1.7-1.4,2.9-2,3.8l1.2-0.1H214.4z M221.9,35.3l3.3-0.2c0.5,0,0.8,0.2,0.8,0.6c0,0.4-0.2,0.6-0.6,0.6l-3.5,0.2v1.1l4.5-0.2
			c0.1,0,0.4,0.1,0.5,0.1c0.1,0.1,0.2,0.3,0.2,0.5c0,0.4-0.2,0.6-0.6,0.7l-4.6,0.2v1.3c0,0.4-0.3,0.7-0.8,0.7
			c-0.5,0-0.8-0.3-0.8-0.7v-1.2l-3.6,0.2c-0.5,0-0.8-0.2-0.8-0.7c0-0.4,0.2-0.6,0.6-0.7l3.8-0.2v-1.1l-2.9,0.2
			c-0.4,0-0.7-0.2-0.7-0.7c0-0.4,0.2-0.6,0.6-0.6l3-0.2v-1.1l-2.8,0.2c-0.4,0-0.7-0.3-0.7-0.6c0-0.4,0.2-0.6,0.6-0.6l2.9-0.2v-1.2
			l-4.2,0.4c-0.4,0-0.6-0.2-0.6-0.6c0-0.4,0.2-0.6,0.6-0.7l4.3-0.4v-1.1l-2.8,0.3c-0.4,0-0.7-0.2-0.7-0.6c0-0.4,0.2-0.6,0.6-0.6
			l2.9-0.3V27c0-0.4,0.3-0.7,0.8-0.7c0.5,0,0.8,0.3,0.8,0.7v1l2.4-0.2c0.1,0,0.2,0,0.3,0c0.8,0,1.2,0.4,1.2,1.2c0,0.1,0,0.2,0,0.3
			l-0.1,0.8l1.3-0.1c0.4,0,0.7,0.2,0.7,0.6c0,0.4-0.2,0.7-0.6,0.7l-1.6,0.1l-0.1,1.3c0.3,0.1,0.5,0.3,0.5,0.6c0,0.3-0.2,0.6-0.6,0.6
			l-3.4,0.3V35.3z M224.1,30.2l0.1-0.7c0-0.3-0.1-0.4-0.3-0.4l-2,0.2v1.1L224.1,30.2z M223.9,32.7l0.1-1.2l-2.1,0.2v1.2L223.9,32.7z
			"/>
		<path class="st0" d="M242.6,30.6c-3.6,0.7-8.6,1.5-9.2,1.5c-0.6,0-0.9-0.4-0.9-1c0-0.4,0.2-0.6,0.5-0.8c0.2-0.1,0.3-0.1,1.1-0.2
			c2.2-0.2,8.6-1.2,11.3-1.7c0.2,0,0.4-0.1,0.5-0.1c0.6,0,1.1,0.5,1.1,1.1c0,0.4-0.2,0.6-0.8,0.8c-3.1,0.9-5.6,3.9-5.6,6.6
			c0,1.9,1.2,3.3,3.3,4c0.6,0.2,0.8,0.5,0.8,0.9c0,0.5-0.4,0.9-0.9,0.9c-0.5,0-1.3-0.3-2-0.7c-1.9-1.2-3-2.9-3-4.9
			c0-2.3,1.4-4.7,3.7-6.3L242.6,30.6z"/>
		<path class="st0" d="M259.7,29.4c-1.9,0.4-3.8,0.7-4.3,0.7c-0.5,0-0.9-0.3-0.9-0.8c0-0.4,0.2-0.7,0.6-0.8c0.1,0,0.2,0,0.7-0.1
			c1.2-0.1,3.6-0.4,4.8-0.7c0.2,0,0.3-0.1,0.4-0.1c0.6,0,1.2,0.5,1.2,1.1c0,0.4-0.1,0.5-0.7,1.1c-3.1,3.3-3.9,4.2-5.7,5.8l0.1,0.1
			c1.5-1,3-1.5,4.6-1.5c2.9,0,4.9,1.6,4.9,3.9c0,3-2.5,4.9-6.4,4.9c-1.9,0-3.4-1.1-3.4-2.4c0-1.2,1.3-2.1,3-2.1
			c1.5,0,2.8,0.8,3.7,2.2c0.9-0.7,1.3-1.5,1.3-2.5c0-1.5-1.3-2.5-3.1-2.5c-2.2,0-4.2,0.8-6.3,2.4c-0.3,0.3-0.6,0.4-0.8,0.4
			c-0.4,0-0.9-0.5-0.9-1c0-0.4,0.1-0.5,0.9-1.2C255.1,34.6,258.1,31.6,259.7,29.4L259.7,29.4z M258.4,40.1c-0.7,0-1.2,0.3-1.2,0.7
			c0,0.5,0.8,0.9,1.8,0.9c0.5,0,1.1-0.1,1.7-0.2C259.9,40.6,259.2,40.1,258.4,40.1z"/>
		<path class="st0" d="M275.5,27.8c0.2-0.6,0.4-0.8,0.9-0.8c0.5,0,0.9,0.3,0.9,0.8c0,0.2-0.2,0.9-0.7,2.3c0.4-0.1,1.2-0.2,1.5-0.3
			c0.2,0,0.3-0.1,0.4-0.1c0.4,0,0.7,0.3,0.7,0.8c0,0.4-0.2,0.7-0.7,0.8c-0.5,0.1-1.7,0.3-2.6,0.4c-1,2.4-1.9,4.3-2.9,5.9
			c-0.2,0.4-0.5,0.5-0.8,0.5c-0.4,0-0.9-0.4-0.9-0.8c0-0.2,0-0.3,0.4-0.9c0.7-1.1,1.6-2.7,2.3-4.5c-0.4,0.1-0.8,0.1-1.4,0.2
			c-0.3,0-0.5,0-0.6,0c-0.1,0-0.2,0-0.2,0c-0.4,0-0.7-0.3-0.7-0.8c0-0.6,0.3-0.8,1-0.9c0.4,0,1.6-0.1,2.5-0.2
			C275,29.3,275.2,28.5,275.5,27.8z M279.6,36.2c0-1.2,0.3-1.8,1-1.8c0.4,0,0.8,0.3,0.8,0.7c0,0.1,0,0.1,0,0.3
			c0,0.1-0.1,0.6-0.1,0.9v2.4c1.2,0.4,2,0.7,3,1.3c0.4,0.2,0.6,0.5,0.6,0.9c0,0.4-0.4,0.9-0.8,0.9c-0.2,0-0.3,0-0.6-0.3
			c-0.7-0.5-1.4-0.8-2.2-1.2V41c0,1.5-0.9,2.4-2.3,2.4c-1.8,0-3.6-1.5-3.6-3c0-1.3,1.2-2.1,2.9-2.1c0.5,0,0.9,0,1.4,0.1V36.2z
			 M279.6,39.9c-0.5-0.1-1-0.1-1.4-0.1c-0.8,0-1.3,0.3-1.3,0.7c0,0.7,1,1.4,1.9,1.4c0.5,0,0.8-0.3,0.8-0.9V39.9z M282.1,31.4
			c-0.2-0.2-0.3-0.3-0.3-0.5c0-0.4,0.3-0.6,0.7-0.6c0.5,0,1.7,0.7,2.8,1.6c0.7,0.6,1,1,1,1.5c0,0.5-0.3,0.7-1.1,0.8
			c-0.3,0-0.7,0.1-1.4,0.2c-0.2,0-0.3,0-0.4,0c-0.4,0-0.6-0.2-0.6-0.5c0-0.3,0.3-0.5,1.3-0.8C283.6,32.6,282.9,32,282.1,31.4z"/>
		<path class="st0" d="M294.6,37c1.7-1,3.5-1.6,5.2-1.6c2.4,0,3.9,1.3,3.9,3.3c0,1.6-0.9,2.9-2.7,3.8c-1,0.5-2.8,1-3.6,1
			c-0.4,0-0.7-0.3-0.7-0.7c0-0.3,0.2-0.5,0.4-0.6c0.1,0,0.1,0,0.7-0.2c2.4-0.6,3.9-1.8,3.9-3.3c0-1.1-0.8-1.8-2.1-1.8
			c-1.6,0-3.5,0.7-5.1,1.8c-0.3,0.2-0.6,0.3-0.9,0.3c-0.6,0-1-0.5-1-1.1s0.7-4.6,1-6c0.1-0.5,0.4-0.8,0.9-0.8c0.5,0,0.8,0.3,0.8,0.8
			c0,0.1,0,0.2-0.1,0.6c-0.3,0.8-0.7,2.9-0.8,4.2L294.6,37z M295.7,27.9c-0.2-0.1-0.4-0.3-0.4-0.5c0-0.3,0.3-0.6,0.6-0.6
			c0.5,0,1.7,0.6,2.7,1.3c0.7,0.5,1.1,1.1,1.1,1.6c0,0.5-0.4,0.7-1.1,0.7c-0.2,0-0.9,0.1-1.5,0.2c-0.1,0-0.1,0-0.2,0
			c-0.4,0-0.6-0.2-0.6-0.5c0-0.4,0.2-0.5,1.3-0.8C297.2,28.9,296.5,28.3,295.7,27.9z"/>
	</g>
	<g>
		<g>
			<path class="st1" d="M107.3,67.9c-0.5,0-1.1,0.1-1.8,0.2V66c0.7,0.1,1.3,0.2,1.8,0.2h23.8c-0.7,8-4.5,12.1-12.7,13.6
				c-0.7,4.7-4,7.9-9.9,9.8c-0.8,0.3-1.1,0.4-1.4,0.6l-0.8-1.9c1.1,0.1,2.8-0.7,4.9-2c3-2,4.6-4.8,4.6-8.3v-4.6
				c0-0.6-0.1-1.1-0.2-1.8h3.2c-0.1,0.7-0.2,1.2-0.2,1.8v4.8c5.5-1.3,8.6-4.8,9.2-10.1H107.3z"/>
			<path class="st1" d="M137.4,78.1c3.1-0.3,9.2-2.9,12.7-5.3c3.4-2.3,7.7-6.6,8.5-8.6l2.6,2.2c-0.3,0.3-0.7,0.7-1.3,1.2
				c-2.6,2.7-4.6,4.6-6.7,6v15c0,0.5,0.1,1.2,0.2,1.8h-3.2c0.2-1,0.2-1.2,0.2-1.8V75.3c-3.1,1.7-6.4,2.9-10.7,4
				c-0.7,0.2-1.1,0.3-1.6,0.5L137.4,78.1z"/>
			<path class="st1" d="M183.6,87.5h10.5c0.7,0,0.8,0,2.1-0.2v2l-0.4,0l-0.4-0.1c-0.4,0-0.8-0.1-1.3-0.1h-24.1c-0.8,0-1.1,0-2.1,0.2
				v-2c1.2,0.2,1.5,0.2,2.1,0.2h10.4V67.9h-8.5c-0.4,0-0.8,0-1.2,0.1l-0.6,0.1l-0.3,0v-2c1,0.1,1.4,0.2,2.1,0.2h20.5
				c0.8,0,1.2,0,2.1-0.2v2l-0.2,0l-0.6-0.1c-0.4-0.1-0.8-0.1-1.3-0.1h-8.8V87.5z"/>
			<path class="st1" d="M228.6,67.2c-0.9,2.5-1.9,4.2-3.5,6c1.4,0.9,3.1,1.6,5.3,2.2l1.7,0.3l-1.6,2.7l-1.3-0.6
				c-2.3-0.9-4.2-1.9-5.8-3.1c-1.8,1.3-3.8,2.3-6.4,3.3l-0.9,0.6l-0.9-1.5c-0.6,1.3-1,2-1.7,3.2l-0.5,1.2l-1.5-0.7l0.6-1.1
				c0.8-2.9,0.8-3.1,1.1-4.3h-2.4v14.2c0,1.2-0.5,1.8-1.5,1.8c-0.8,0-1.7-0.2-3.5-0.6l-1.4-0.2l-0.2-1.6c1.6,0.2,2.5,0.2,3.4,0.2
				c0.6,0,0.7-0.1,0.7-0.7v-9.3c-1.2,2.5-2.8,4.8-5,7.1l-0.8,1.1l-1.3-1.2l1-1c2.1-2.7,3.8-6.1,5-10h-2.9c-0.8,0-1.1,0-2.1,0.2v-2
				c1,0.1,1.4,0.2,2.1,0.2h5.6l-0.2-0.3c-1.8-1.9-3.3-3.3-4.6-4.3l-1-0.6l1.2-1.3l0.8,0.7c0.8,0.4,2.2,1.3,2.8,1.8
				c1.3-1.6,2.4-3.1,3-4.3h-6.9c-0.8,0-1.1,0-2.1,0.2v-2c1,0.1,1.4,0.2,2.1,0.2h7.5c2.1,0,2.4,0,3.2-0.1V65
				c-1.8,2.1-3.5,3.9-5.5,5.6l0.4,0.3l0.4,0.2l0.6,0.4l1.1,0.7l-1.5,1.6h2.1c1.7,0,2.1,0,2.8-0.1v1.2c-0.3,0.8-0.6,1.5-0.8,2.1
				l1.2-0.3c2.3-1.1,3.9-2.1,5.4-3.4c-1.3-1.4-2.4-2.9-3.2-4.7c-0.8,1-1.4,1.6-2.3,2.5l-0.9,0.9l-1.2-1.1l1-0.8
				c2-2.4,3.3-4.7,4.1-7.2l0.3-1.2l3.1,0.7l-0.7,1.2c-0.4,0.8-0.6,1.1-1.1,1.9h8.6c0.7,0,1.2,0,2.1-0.2v2l-0.4,0l-0.4-0.1
				c-0.4,0-0.8-0.1-1.3-0.1H228.6z M217,81.7c-0.7,0-1.1,0-2.1,0.2v-1.9c1,0.1,1.4,0.2,2.1,0.2h3.6v-0.3l0-0.1
				c0-0.4,0.1-1.2,0.1-1.6l-0.1-1.6l3,0.1l-0.3,1.5c0,0.5,0,0.8-0.1,1.6l-0.1,0.5h4.2c1.6,0,2,0,2.8-0.1v1.2c-0.4,5.2-0.6,7-1,8.4
				c-0.4,1.2-1,1.8-2,1.8c-1,0-2.5-0.3-4.1-0.8l-1.5-0.3l-0.2-1.6c1.6,0.2,2.8,0.3,4,0.3c0.8,0,1.1-0.2,1.3-1
				c0.4-1.5,0.8-4.2,0.8-6.4h-4.5c-1,4.5-3.2,7.3-7.9,9.4l-1.2,0.7l-1-1.5l1.4-0.5c3.4-2.1,5.3-4.7,5.9-8.1H217z M219.5,67.3
				c1,1.8,2.2,3.4,3.6,4.5c1.1-1.3,1.9-2.9,2.5-4.6L219.5,67.3L219.5,67.3z"/>
			<path class="st1" d="M250.5,64.2c0-0.4,0-0.8-0.1-1.2l-0.1-0.6l0-0.3h3.3c-0.2,1.2-0.2,1.4-0.2,2.1v2.1h9.4c0.8,0,1.1,0,2.1-0.2
				v2c-1.1-0.1-1.2-0.2-2.1-0.2h-20.6v7.4c0,6.4-1.2,10.6-4.1,14.9l-0.6,1.2l-1.5-0.9l0.8-1c1.8-4.1,2.5-8.1,2.5-14.2V69v-0.4
				c0-0.9,0-1.4-0.2-2.4c0.9,0.1,1.4,0.1,2.6,0.1h8.8V64.2z M260.5,80.3c1.2,0,1.6,0,2.6-0.1c-0.2,1-0.2,1.4-0.2,2.7v5.6v0.4V89
				c0,0.6,0.1,1.3,0.2,2.1c-1.1-0.1-1.3-0.1-2.1-0.1h-0.5h-14.3h-0.4c-0.8,0-1.3,0-2.2,0.1c0.2-1.1,0.2-1.4,0.2-2.7v-5.6v-0.4
				c0-0.8,0-1.4-0.2-2.3c1,0.1,1.5,0.1,2.7,0.1h5.1v-9.2c0-0.5,0-0.7-0.1-1.6l-0.1-0.5h3.3c-0.2,1.2-0.2,1.4-0.2,2.1v2.5h8.1
				c0.7,0,1.2,0,2.1-0.2v2l-0.4,0l-0.4-0.1c-0.4,0-0.8-0.1-1.3-0.1h-8.1v5.1H260.5z M246.6,82v7.4H260V82H246.6z"/>
		</g>
		<g>
			<rect x="39.6" y="53.2" class="st1" width="50" height="50"/>
			<path class="st2" d="M45.4,81.1h2.5L58,67.9l10.1,13.2h2.5L58,64.5L45.4,81.1z M78.4,81.1h2V65.5l-2,0V81.1z"/>
			<polygon class="st2" points="45.9,85.8 45.9,87 47.1,85.8 47.9,85.8 46.8,86.9 48,88.7 47.2,88.7 46.3,87.4 45.9,87.8 45.9,88.7 
				45.3,88.7 45.3,85.8 			"/>
			<path class="st2" d="M50.3,86.7c0.1-0.2,0.2-0.4,0.3-0.5c0.1-0.1,0.3-0.3,0.5-0.3c0.2-0.1,0.4-0.1,0.6-0.1c0.2,0,0.4,0,0.6,0.1
				c0.2,0.1,0.3,0.2,0.5,0.3c0.1,0.1,0.2,0.3,0.3,0.5c0.1,0.2,0.1,0.4,0.1,0.6c0,0.2,0,0.4-0.1,0.6c-0.1,0.2-0.2,0.3-0.3,0.5
				c-0.1,0.1-0.3,0.2-0.5,0.3c-0.2,0.1-0.4,0.1-0.6,0.1c-0.2,0-0.4,0-0.6-0.1c-0.2-0.1-0.3-0.2-0.5-0.3c-0.1-0.1-0.2-0.3-0.3-0.5
				c-0.1-0.2-0.1-0.4-0.1-0.6C50.2,87.1,50.3,86.8,50.3,86.7 M50.9,87.6c0,0.1,0.1,0.2,0.1,0.3c0.1,0.1,0.1,0.2,0.2,0.2
				c0.1,0.1,0.2,0.1,0.4,0.1c0.1,0,0.3,0,0.4-0.1c0.1-0.1,0.2-0.1,0.3-0.2c0.1-0.1,0.1-0.2,0.1-0.3c0-0.1,0-0.2,0-0.4
				c0-0.1,0-0.3,0-0.4c0-0.1-0.1-0.2-0.1-0.3c-0.1-0.1-0.1-0.2-0.3-0.2c-0.1-0.1-0.2-0.1-0.4-0.1c-0.1,0-0.3,0-0.4,0.1
				c-0.1,0.1-0.2,0.1-0.2,0.2c-0.1,0.1-0.1,0.2-0.1,0.3c0,0.1,0,0.2,0,0.4C50.9,87.4,50.9,87.5,50.9,87.6"/>
			<path class="st2" d="M57.8,88.5c-0.2,0.2-0.5,0.3-0.9,0.3c-0.4,0-0.7-0.1-0.9-0.3c-0.2-0.2-0.3-0.5-0.3-0.9v-1.8h0.6v1.8
				c0,0.1,0,0.2,0,0.2c0,0.1,0,0.1,0.1,0.2c0,0.1,0.1,0.1,0.2,0.1c0.1,0,0.2,0.1,0.3,0.1c0.2,0,0.4,0,0.5-0.2
				c0.1-0.1,0.1-0.3,0.1-0.5v-1.8h0.7v1.8C58.2,88,58.1,88.3,57.8,88.5"/>
			<polygon class="st2" points="61.7,85.8 62.4,87.8 62.4,87.8 63.1,85.8 64,85.8 64,88.7 63.4,88.7 63.4,86.6 63.4,86.6 62.7,88.7 
				62.2,88.7 61.4,86.7 61.4,86.7 61.4,88.7 60.8,88.7 60.8,85.8 			"/>
			<path class="st2" d="M68.8,88.5c-0.2,0.2-0.5,0.3-0.9,0.3c-0.4,0-0.7-0.1-0.9-0.3c-0.2-0.2-0.3-0.5-0.3-0.9l0-1.8h0.7v1.8
				c0,0.1,0,0.2,0,0.2c0,0.1,0,0.1,0.1,0.2c0,0.1,0.1,0.1,0.2,0.1c0.1,0,0.2,0.1,0.3,0.1c0.2,0,0.4,0,0.5-0.2
				c0.1-0.1,0.1-0.3,0.1-0.5v-1.8h0.7v1.8C69.2,88,69,88.3,68.8,88.5"/>
			<polygon class="st2" points="71.6,86.3 71.6,85.8 74,85.8 74,86.3 73.1,86.3 73.1,88.7 72.4,88.7 72.4,86.3 			"/>
			<polygon class="st2" points="78.6,85.8 78.6,86.3 77.1,86.3 77.1,87 78.5,87 78.5,87.5 77.1,87.5 77.1,88.2 78.6,88.2 78.6,88.7 
				76.4,88.7 76.4,85.8 			"/>
			<polygon class="st2" points="81.8,85.8 83,87.8 83.1,87.8 83.1,85.8 83.7,85.8 83.7,88.7 83,88.7 81.8,86.8 81.8,86.8 81.8,88.7 
				81.2,88.7 81.2,85.8 			"/>
		</g>
	</g>
	<g>
		<path class="st0" d="M48.8,177.8c-1.4,2.3-3.2,4.5-4.7,6.1c-0.8,0.8-1.2,1.1-1.6,1.1c-0.5,0-1-0.6-1-1.1c0-0.4,0-0.5,0.8-1.4
			c1.9-2.1,4.5-6.1,5.8-8.8l-4.8,0.6c-0.8,0.1-1.5-0.5-1.5-1.4c0-0.7,0.5-1.2,1.2-1.3l5.8-0.7v-4.4c-2.4,0.6-4.2,1.1-4.7,1.1
			c-0.7,0-1.1-0.5-1.1-1.1c0-0.5,0.2-0.8,0.7-1c0.1-0.1,0.1-0.1,1-0.2c2.5-0.6,5.5-1.8,8.6-3.3c0.5-0.2,0.8-0.3,1.2-0.3
			c0.8,0,1.4,0.6,1.4,1.4c0,1-0.7,1.4-4.1,2.6v5L56,170c0.8-0.1,1.5,0.5,1.5,1.3c0,0.7-0.4,1.2-1.2,1.3l-4.4,0.6v1.8
			c4.6,2.5,5.8,3.3,5.8,4.4c0,0.8-0.6,1.4-1.4,1.4c-0.5,0-0.7-0.1-1.4-0.7c-1-1-1.9-1.7-3-2.7v12.3c0,0.8-0.6,1.3-1.5,1.3
			c-0.9,0-1.5-0.5-1.5-1.3V177.8z M70.9,182c0.7,0.1,1.1,0.7,1.1,1.4c0,0.8-0.5,1.4-1.3,1.4l-8.9,0.6v0.1c0,0.9-0.6,1.4-1.5,1.4
			c-0.8,0-1.4-0.5-1.5-1.4L58,170.2v-0.1c-0.1-0.7,0.7-1.4,1.5-1.4c0.7,0,1.2,0.3,1.4,0.8l7.8-0.9c0.2,0,0.4,0,0.7,0
			c1.6,0,2.5,0.8,2.5,2.4c0,0.3,0,0.3,0,0.5L70.9,182z M68.7,172.5l0-0.2c0-0.6-0.2-0.9-0.7-0.8c0,0-0.1,0-0.3,0l-6.4,0.7l0.5,10.4
			l6.4-0.4L68.7,172.5z"/>
		<path class="st0" d="M98,188.8c0,1.8-0.7,2.8-2,2.8c-1,0-2.8-0.4-4.4-1.1c-0.6-0.2-0.9-0.5-0.9-1c0-0.6,0.4-1,0.9-1
			c0.1,0,0.2,0,0.5,0.1c1,0.2,1.8,0.3,2.1,0.3c0.6,0,0.9-0.3,0.9-1v-10.4l-11.2,0.7c-0.8,0.1-1.4-0.5-1.4-1.3c0-0.8,0.4-1.3,1.2-1.3
			l16.2-1.1c0.8-0.1,1.4,0.4,1.4,1.2c0,0.8-0.5,1.3-1.3,1.3l-2.2,0.1V188.8z M97.9,173.4c0,0.7-0.6,1.2-1.4,1.2
			c-0.8,0-1.4-0.5-1.4-1.2v-8.5l-10.4,0.8c-0.8,0.1-1.4-0.5-1.4-1.2c0-0.8,0.5-1.3,1.3-1.4l14.2-1.1c0.8-0.1,1.4,0.5,1.4,1.3
			c0,0.7-0.4,1.2-1.2,1.2l-1.2,0.1V173.4z M93,184.3c0.3,0.3,0.4,0.5,0.4,0.9c0,0.6-0.4,0.9-1.2,1.1l-4.2,0.5v0.1v0.1
			c0,0.7-0.5,1-1.2,1c-0.8,0-1.2-0.4-1.2-1.2L85,181c-0.1-0.7,0.5-1.3,1.2-1.3c0.5,0,0.8,0.2,1.1,0.5l4.4-0.6l0.3,0
			c0.8-0.1,1.5,0.6,1.5,1.6c0,0.1,0,0.4-0.1,0.6L93,184.3z M93,171.1c0.3,0.2,0.5,0.5,0.5,0.9c0,0.6-0.4,0.9-1.1,1l-4,0.4
			c-0.1,0.6-0.5,0.9-1.2,0.9s-1.1-0.3-1.2-1.1l-0.6-5.1c-0.1-0.7,0.5-1.2,1.2-1.2c0.5,0,0.8,0.1,1,0.5l3.7-0.4c0.2,0,0.4,0,0.4,0
			c1.1,0,1.8,0.6,1.8,1.5c0,0.2,0,0.4-0.1,0.5L93,171.1z M90.9,182.5c0-0.5-0.1-0.7-0.5-0.6l-2.8,0.4l0.2,2.3l2.9-0.3L90.9,182.5z
			 M91.1,169.4c0-0.4-0.1-0.5-0.4-0.5l-2.6,0.3l0.2,2.2l2.6-0.3L91.1,169.4z M106.1,180.9c-0.7,3.5-2.5,6.8-4.7,9
			c-0.9,0.8-1.4,1.1-1.9,1.1c-0.5,0-0.9-0.5-0.9-1c0-0.5,0.1-0.6,0.8-1.4c3.5-4.2,4.7-8.3,4.8-16.1c0-1.1,0.5-1.6,1.4-1.6
			c1.1,0,1.4,0.4,1.4,1.8c0,0.9,0,2.1-0.1,3.1c1.4,4.8,3.9,8.9,7.7,13c0.8,0.8,0.9,1.1,0.9,1.3c0,0.3-1.5,0.8-2.7,0.8
			c-0.7,0-1-0.2-1.5-0.9c-2.5-3.3-3.9-6-5.1-9.6l0,0.1L106.1,180.9z M103.4,169.8c-0.5,1.2-1.2,2.5-1.9,3.5
			c-0.3,0.6-0.7,0.8-1.2,0.8c-0.6,0-1.1-0.5-1.1-1.1c0-0.3,0-0.4,0.5-1.4c1.4-2.9,2.7-6.9,3.2-9.8c0.1-0.8,0.7-1.3,1.4-1.3
			c0.9,0,1.5,0.5,1.5,1.4c0,0.7-0.6,3.1-1.3,5l7.5-0.7h0.4c1.3,0,2,0.6,2,1.6c0,1.2-1.2,3.7-2.8,6c-0.6,0.8-0.9,1-1.3,1
			c-0.6,0-1.1-0.5-1.1-1c0-0.2,0.1-0.5,0.3-1c0.9-1.6,1.4-2.9,1.4-3.5c0-0.2-0.2-0.4-0.5-0.4h-0.2L103.4,169.8z"/>
		<path class="st0" d="M149.4,184.4l0.4-11.2c0-0.9,0.7-1.4,1.6-1.4c0.9,0,1.8,0.7,1.7,1.6v0.1l-0.6,14.4c-0.1,0.9-0.6,1.5-1.6,1.5
			c-1,0-1.6-0.6-1.6-1.6v-0.3l-18.3,1.4c-0.3,0-0.5,0-0.6,0c-2,0-2.9-0.9-3-3l-0.4-11v0c0-0.9,0.7-1.6,1.7-1.6
			c0.9,0,1.6,0.6,1.6,1.5l0.3,9.9c0,1,0.3,1.3,1.4,1.2l6.1-0.5V164c0-0.9,0.7-1.5,1.6-1.5c0.9,0,1.6,0.6,1.6,1.5V185L149.4,184.4z"
			/>
		<path class="st0" d="M178.6,170.6c-1.5,0.1-2.7,0.2-4.7,0.4c-0.7,0.1-1.5,0.1-1.6,0.1c-0.2,0-0.3,0-0.4,0c-0.9,0-1.5-0.6-1.5-1.4
			c0-0.8,0.4-1.3,1.1-1.5c0.3-0.1,0.4-0.1,1.6-0.1c2.7,0,10.4-0.7,14.4-1.3c0.2,0,0.4,0,0.5,0c0.9,0,1.5,0.6,1.5,1.5
			c0,0.9-0.5,1.3-1.6,1.5c-1.8,0.2-4.1,0.5-6,0.6v10.7l0.9,0c6-0.3,9.6-0.5,10.7-0.6c0.1,0,0.3,0,0.3,0c1,0,1.6,0.6,1.6,1.5
			c0,0.7-0.3,1.2-0.9,1.4c-0.3,0.1-0.3,0.1-2.4,0.1c-6.9,0.2-17.2,0.8-24.1,1.4c-0.3,0-0.4,0-0.5,0c-1,0-1.6-0.6-1.6-1.6
			c0-0.7,0.5-1.3,1.4-1.4c0.6-0.1,6.3-0.5,10.5-0.7l0.9-0.1V170.6z"/>
		<path class="st0" d="M211.5,176.1c0,1-0.6,1.6-1.6,1.6c-1,0-1.6-0.6-1.6-1.6v-11.3c0-1,0.6-1.6,1.6-1.6c1,0,1.6,0.6,1.6,1.6V176.1
			z M223.5,173.5c0,6.6-1.5,11.1-4.9,14.4c-1.5,1.4-2.6,2.2-3.4,2.2c-0.6,0-1-0.5-1-1c0-0.6,0.1-0.7,1.4-2.1
			c3.4-3.6,4.7-7.5,4.7-13.5v-10.3c0-0.9,0.6-1.4,1.5-1.4c1,0,1.6,0.5,1.6,1.4V173.5z"/>
		<path class="st0" d="M263.9,166.8c0,1.3-1.9,4.1-4.5,6.8c-2,2-3.6,3.2-4.4,3.2c-0.6,0-1.1-0.5-1.1-1.1c0-0.5,0.1-0.7,1.2-1.5
			c2-1.6,4.9-5.4,4.9-6.3c0-0.2-0.1-0.2-0.4-0.2s-0.8,0-1.3,0.1c-0.5,0-1.5,0.1-2.9,0.2c-3.4,0.2-5.3,0.4-15.9,1.3
			c-0.3,0-0.4,0-0.5,0c-0.9,0-1.6-0.6-1.6-1.5c0-0.7,0.4-1.2,1-1.4c0.3-0.1,0.6-0.1,2-0.2c4.3-0.3,10.6-0.7,19.1-1.3
			c1.3-0.1,1.6-0.1,1.8-0.1C262.7,164.7,263.9,165.6,263.9,166.8z M252,171.9c0.2,0.4,0.2,0.5,0.2,1.6c0,2.2-0.2,5.2-0.4,6.3
			c-0.7,4-3.2,7.6-6.7,9.7c-0.4,0.2-0.8,0.4-1.1,0.4c-0.6,0-1.1-0.5-1.1-1.1c0-0.6,0.1-0.8,1.3-1.8c2.3-1.9,4.1-5.1,4.5-8.3
			c0.1-1.2,0.2-3,0.2-5.7c0-1.2,0.5-1.9,1.6-1.9C251.1,171.2,251.7,171.5,252,171.9z"/>
	</g>
</g>
</svg>
