<?xml version="1.0" encoding="utf-8"?>
<!-- Generator: Adobe Illustrator 25.0.1, SVG Export Plug-In . SVG Version: 6.00 Build 0)  -->
<svg version="1.1" id="Layer_1" xmlns="http://www.w3.org/2000/svg" xmlns:xlink="http://www.w3.org/1999/xlink" x="0px" y="0px"
	 viewBox="0 0 98 98" style="enable-background:new 0 0 98 98;" xml:space="preserve">
<style type="text/css">
	.st0{fill:#FFFFFF;}
</style>
<path class="st0" d="M68,8c12.2,0,22,9.8,22,22v38c0,12.2-9.8,22-22,22H30C17.8,90,8,80.2,8,68V30C8,17.8,17.8,8,30,8H68 M68,0H30
	C13.5,0,0,13.5,0,30v38c0,16.5,13.5,30,30,30h38c16.5,0,30-13.5,30-30V30C98,13.5,84.5,0,68,0z"/>
<path class="st0" d="M75.1,17c-3.2,0-5.7,2.6-5.7,5.7s2.6,5.7,5.7,5.7c3.2,0,5.7-2.6,5.7-5.7C80.9,19.6,78.3,17,75.1,17L75.1,17z"/>
<path class="st0" d="M49.3,31.5C59,31.5,67,39.4,67,49.1s-7.9,17.7-17.7,17.7s-17.7-7.9-17.7-17.7c0,0,0,0,0,0
	C31.6,39.4,39.5,31.5,49.3,31.5 M49.3,23.5c-14.2,0-25.7,11.5-25.6,25.7c0,14.2,11.5,25.7,25.7,25.6C63.5,74.8,75,63.3,75,49.1
	C75,35,63.5,23.5,49.3,23.5C49.3,23.5,49.3,23.5,49.3,23.5z"/>
</svg>
