<svg xmlns="http://www.w3.org/2000/svg" xmlns:xlink="http://www.w3.org/1999/xlink" viewBox="0 0 583.42 42.95"><defs><style>.cls-1{fill:none;}.cls-2{fill:gray;}.cls-3{fill:#dcdddd;}.cls-4{fill:#003461;}.cls-5{fill:url(#新規パターンスウォッチ);}.cls-6{fill:#fff;}.cls-7{fill:url(#新規パターンスウォッチ-11);}</style><pattern id="新規パターンスウォッチ" data-name="新規パターンスウォッチ" width="86.56" height="86.56" patternTransform="translate(110.9 1.48) scale(0.86)" patternUnits="userSpaceOnUse" viewBox="0 0 86.56 86.56"><rect class="cls-1" width="86.56" height="86.56"/><rect class="cls-2" width="86.56" height="86.56"/></pattern><pattern id="新規パターンスウォッチ-11" data-name="新規パターンスウォッチ" width="86.56" height="86.56" patternTransform="translate(110.9 156.48) scale(0.86)" patternUnits="userSpaceOnUse" viewBox="0 0 86.56 86.56"><rect class="cls-1" width="86.56" height="86.56"/><rect class="cls-2" width="86.56" height="86.56"/></pattern></defs><g id="レイヤー_2" data-name="レイヤー 2"><g id="Wire_frame" data-name="Wire frame"><polygon class="cls-3" points="0 0 194.47 0 211.52 21.47 194.47 42.95 0 42.95 0 0"/><polygon class="cls-3" points="199.34 0 388.94 0 405.99 21.47 388.94 42.95 199.34 42.95 216.39 21.47 199.34 0"/><polygon class="cls-4" points="393.81 0 583.42 0 583.42 42.95 393.81 42.95 410.86 21.47 393.81 0"/><path class="cls-5" d="M53.47,23.59c0,.23.1.44.35.44A.47.47,0,0,0,54,24c.1,0,.42-.15.77-.3.56-.2,1.26-.47,1.31-.47.35,0,.43.68.43,1a.6.6,0,0,1-.45.63c-1.21.51-4.16,1.51-5.51,1.91-.48.14-.52.16-.62.45,0,.11-.08.21-.23.21s-.23-.1-.43-.56a7,7,0,0,1-.42-1.1c0-.25.31-.27.52-.31.56-.13,1.45-.38,2-.56.4-.13.5-.31.5-.73V18c0-.42-.17-.59-.58-.59-.6,0-1.2,0-1.83,0-.41,0-.41-.25-.41-.81s0-.81.41-.81c.6,0,1.21,0,1.81,0h2.78c.6,0,1.21,0,1.81,0,.43,0,.43.25.43.81s0,.81-.41.81c-.62,0-1.23-.07-1.83,0-.41,0-.58.17-.58.59Zm6.77,4.92-.12,0H60a.43.43,0,0,0-.29.13,18.49,18.49,0,0,1-3.78,2.07,2.78,2.78,0,0,1-.7.21c-.44,0-.86-.85-.86-1.08s.17-.29.34-.33A13.6,13.6,0,0,0,59,27.31c.09-.08.17-.19.29-.19s.79.62,1,.79.29.29.29.42S60.39,28.51,60.24,28.51Zm3.63-11.94,1.31,0c.67,0,.92.23.92.89,0,.46,0,.92,0,1.37v5.92c0,.46,0,.92,0,1.37,0,.69-.27.9-.94.9-.41,0-.85,0-1.29,0H59.33c-.42,0-.85,0-1.27,0-.69,0-1-.21-1-.9,0-.45,0-.91,0-1.37V18.81c0-.45,0-.91,0-1.37,0-.64.23-.89.9-.89l.83,0a.8.8,0,0,0,.81-.45c.2-.32.37-.63.56-.94a.6.6,0,0,0,0-.21c0-.21-.19-.29-.37-.29h-1c-.75,0-1.52,0-2.28,0-.42,0-.44-.2-.44-.79s0-.78.44-.78c.76,0,1.53,0,2.28,0H64.6c.75,0,1.52,0,2.29,0,.41,0,.43.18.43.78s0,.79-.43.79c-.77,0-1.54,0-2.29,0H62.73a.73.73,0,0,0-.79.46c-.16.31-.31.64-.5.95a.58.58,0,0,0,0,.19c0,.23.17.27.36.29Zm-4.56,1.48a.46.46,0,0,0-.5.49v.59a.48.48,0,0,0,.5.52H63.9a.48.48,0,0,0,.49-.52v-.59a.46.46,0,0,0-.49-.49ZM58.81,22a.47.47,0,0,0,.5.5H63.9a.46.46,0,0,0,.49-.5v-.5A.48.48,0,0,0,63.9,21H59.31a.48.48,0,0,0-.5.52Zm0,3a.47.47,0,0,0,.5.5H63.9a.46.46,0,0,0,.49-.5v-.7a.48.48,0,0,0-.49-.5H59.31a.48.48,0,0,0-.5.5Zm7.91,6c-.54,0-4.15-2.43-4.15-2.9,0-.25.58-1,.91-1,.17,0,.37.21.5.31a17.29,17.29,0,0,0,3.32,2.18c.15.07.33.15.33.32C67.63,30.3,67.09,31,66.72,31Z"/><path class="cls-5" d="M83.26,30.13c0-.33-.16-.47-.49-.47H75.08c-.33,0-.47.14-.47.47v.25c0,.58-.21.62-.94.62s-.93,0-.93-.6c0-.79,0-1.55,0-2.34V16.3c0-.62,0-1.27,0-1.89,0-.79.25-1.06,1-1.06l1.67,0h7l1.62,0c.79,0,1.06.25,1.06,1,0,.64,0,1.27,0,1.91V28.1c0,.79,0,1.56,0,2.34,0,.59-.24.61-.93.61s-.94-.05-.94-.63Zm-.53-12c.35,0,.53-.21.58-.56v-2a.6.6,0,0,0-.58-.58H75.12a.55.55,0,0,0-.56.58v2a.52.52,0,0,0,.56.56ZM74.56,22.3a.51.51,0,0,0,.56.56h7.61c.35,0,.53-.2.58-.56V20.25a.59.59,0,0,0-.58-.58H75.12a.55.55,0,0,0-.56.58Zm0,5.13a.55.55,0,0,0,.56.58h7.61a.59.59,0,0,0,.58-.58V25a.6.6,0,0,0-.58-.58H75.12a.55.55,0,0,0-.56.58Z"/><path class="cls-5" d="M105.56,17a6.89,6.89,0,0,1,2,5,7.28,7.28,0,0,1-4,6.6,7.65,7.65,0,0,1-2.14.77c-.43,0-1.16-1-1.16-1.35,0-.22.33-.25.52-.29,2.82-.6,4.94-2.66,4.94-5.65a5.31,5.31,0,0,0-3.7-5.27,4.36,4.36,0,0,0-.87-.19c-.54,0-.54.46-.56.85-.19,3.08-.93,6.92-3,9.35a3.54,3.54,0,0,1-2.59,1.51,3.16,3.16,0,0,1-2.66-1.86,6.63,6.63,0,0,1-.62-2.89,8.44,8.44,0,0,1,8.49-8.62A7.27,7.27,0,0,1,105.56,17Zm-7.76.12a6.72,6.72,0,0,0-4.26,6.4c0,.91.33,3,1.54,3s2.2-2.18,2.55-3.1a17.64,17.64,0,0,0,1.25-6.12c0-.23-.11-.42-.34-.42A3.18,3.18,0,0,0,97.8,17.07Z"/><path class="cls-5" d="M119.7,16v-.14a3.49,3.49,0,0,1,0-.42c0-.56,0-.62-.6-.62H117.4c-.5,0-1,0-1.39,0s-.48-.17-.48-.85,0-.83.45-.83,1,0,1.42,0h2.16l.91,0c.79,0,1,.41,1,1.14,0,.39,0,.79,0,1.18a15.78,15.78,0,0,0,7.87,13.65.49.49,0,0,1,.29.39c0,.46-.56,1.33-1.06,1.33a10.87,10.87,0,0,1-2.37-1.64,18.89,18.89,0,0,1-5.61-8.39.17.17,0,0,0-.16-.12c-.09,0-.13.06-.17.12A19.12,19.12,0,0,1,113,30.2a2.58,2.58,0,0,1-.89.45c-.42,0-.89-.85-.89-1.22,0-.17.1-.23.29-.34a17.42,17.42,0,0,0,8.18-12.66A2.82,2.82,0,0,0,119.7,16Z"/><path class="cls-5" d="M141.31,16.28c0,.42.17.58.59.58h3.69c.77,0,1.52,0,2.29,0,1.1,0,1.24.37,1.24,1.23,0,2.49-.12,8.64-1,10.8-.63,1.66-2.18,1.8-3.74,1.8s-1.81,0-1.81-1.31c0-.35,0-.58.42-.58s1.08.09,1.64.09c1.06,0,1.72-.11,2-1.23.5-1.6.67-6.58.67-8.43,0-.77-.27-.71-1.62-.71h-3.95c-.39,0-.56.15-.6.56a17.8,17.8,0,0,1-1,4.82A11.18,11.18,0,0,1,136.37,29a11.54,11.54,0,0,1-2.57,1.66c-.44,0-1.08-.79-1.08-1.2,0-.25.27-.36.62-.54a11.24,11.24,0,0,0,5.38-6,13.22,13.22,0,0,0,.75-3.89c0-.37-.15-.54-.54-.54h-2.79c-.81,0-1.62.06-2.43.06-.45,0-.47-.22-.47-.87s0-.85.47-.85c.81,0,1.62,0,2.43,0H139c.41,0,.58-.16.58-.58V14.91a11,11,0,0,0-.08-1.62v-.23c0-.27.16-.31.39-.31s.69,0,1,.06c.58,0,1,0,1,.34,0,.16-.13.2-.31.33s-.28.43-.28,1.12Z"/><circle class="cls-6" cx="30.36" cy="21.43" r="12.41" transform="translate(-4.38 34.62) rotate(-56.02)"/><path class="cls-4" d="M31.87,25.42c0,.7,0,1.66,0,2.48s.05,1.56.05,1.73c0,.51-.15.6-.72.6h-.77c-.58,0-.73-.09-.73-.6,0-.17,0-.87.05-1.71s0-1.8,0-2.5V16.63c0-.41-.05-.58-.27-.58a1.14,1.14,0,0,0-.41.1c-.77.29-1.52.6-2.12.89a1.16,1.16,0,0,1-.48.14c-.21,0-.31-.17-.46-.53l-.21-.57a1.3,1.3,0,0,1-.12-.46c0-.22.17-.34.55-.46,1-.36,2.36-.87,3.32-1.3a2.87,2.87,0,0,1,1.4-.31h.19c.63,0,.73.12.73.74,0,.82-.05,3-.05,4.07Z"/><path class="cls-7" d="M269.6,16v-.14a3.49,3.49,0,0,1,0-.42c0-.56,0-.62-.6-.62h-1.69c-.49,0-1,0-1.39,0s-.48-.17-.48-.85,0-.83.46-.83,1,0,1.41,0h2.16l.92,0c.79,0,1,.41,1,1.14,0,.39,0,.79,0,1.18a15.8,15.8,0,0,0,7.87,13.65.48.48,0,0,1,.3.39c0,.46-.57,1.33-1.06,1.33a10.87,10.87,0,0,1-2.37-1.64,18.89,18.89,0,0,1-5.61-8.39.17.17,0,0,0-.16-.12c-.09,0-.13.06-.17.12a19.12,19.12,0,0,1-7.25,9.33,2.67,2.67,0,0,1-.89.45c-.42,0-.89-.85-.89-1.22,0-.17.1-.23.29-.34a17.42,17.42,0,0,0,8.18-12.66A2.82,2.82,0,0,0,269.6,16Z"/><path class="cls-7" d="M291.21,16.28c0,.42.17.58.58.58h3.7c.77,0,1.52,0,2.28,0,1.11,0,1.25.37,1.25,1.23,0,2.49-.12,8.64-.95,10.8-.63,1.66-2.18,1.8-3.74,1.8s-1.81,0-1.81-1.31c0-.35,0-.58.42-.58s1.08.09,1.64.09c1.06,0,1.72-.11,2.05-1.23.5-1.6.67-6.58.67-8.43,0-.77-.27-.71-1.62-.71h-3.95c-.39,0-.56.15-.6.56a18.59,18.59,0,0,1-1,4.82A11.18,11.18,0,0,1,286.27,29a11.37,11.37,0,0,1-2.58,1.66c-.43,0-1.08-.79-1.08-1.2,0-.25.28-.36.63-.54a11.24,11.24,0,0,0,5.38-6,13.2,13.2,0,0,0,.74-3.89c0-.37-.14-.54-.53-.54H286c-.81,0-1.62.06-2.43.06-.45,0-.48-.22-.48-.87s0-.85.48-.85c.81,0,1.62,0,2.43,0h2.83c.41,0,.58-.16.58-.58V14.91a9.78,9.78,0,0,0-.09-1.62v-.23c0-.27.17-.31.4-.31s.68,0,1,.06c.58,0,1,0,1,.34,0,.16-.12.2-.31.33s-.27.43-.27,1.12Z"/><path class="cls-7" d="M317.75,17a6.88,6.88,0,0,1,2,5,7.26,7.26,0,0,1-4,6.6,7.7,7.7,0,0,1-2.13.77c-.44,0-1.17-1-1.17-1.35,0-.22.34-.25.52-.29,2.83-.6,4.94-2.66,4.94-5.65a5.31,5.31,0,0,0-3.69-5.27,4.69,4.69,0,0,0-.87-.19c-.54,0-.54.46-.56.85-.19,3.08-.94,6.92-2.95,9.35a3.58,3.58,0,0,1-2.6,1.51,3.18,3.18,0,0,1-2.66-1.86,6.77,6.77,0,0,1-.62-2.89,8.44,8.44,0,0,1,8.49-8.62A7.3,7.3,0,0,1,317.75,17Zm-7.77.12a6.72,6.72,0,0,0-4.26,6.4c0,.91.34,3,1.54,3s2.2-2.18,2.56-3.1a17.86,17.86,0,0,0,1.24-6.12c0-.23-.1-.42-.33-.42A3.26,3.26,0,0,0,310,17.07Z"/><path class="cls-7" d="M326.28,29.12c0,.47-.21.49-.73.49s-.73,0-.73-.52,0-1.1,0-1.64V23.94a.11.11,0,0,0-.1-.12.12.12,0,0,0-.1,0c-.17.27-.44.75-.69.75s-1-.67-1-1a1.28,1.28,0,0,1,.32-.56,17.26,17.26,0,0,0,1.84-3.94,20.91,20.91,0,0,0,.77-3.31.15.15,0,0,0,0-.1c0-.31-.2-.44-.49-.44s-1.08,0-1.42,0-.41-.2-.41-.81,0-.81.41-.81,1.08.05,1.67.05h2.49c.58,0,1.14-.05,1.66-.05s.41.25.41.79,0,.83-.39.83-1.1,0-1.68,0h0c-.41,0-.58.15-.66.56-.23,1.29-.29,1.62-.62,2.91a.39.39,0,0,0,0,.15c0,.29.21.37.43.39h.86l.87,0c.54,0,.68.37.68.85s0,.94,0,1.41v5c0,.54,0,1.1,0,1.64s-.16.52-.72.52-.73,0-.73-.5v-.37a.37.37,0,0,0-.42-.42h-.95c-.38,0-.56.15-.56.52S326.28,28.72,326.28,29.12Zm1.93-7.75a.55.55,0,0,0-.56-.58h-.83a.55.55,0,0,0-.56.58v3.94a.56.56,0,0,0,.56.57h.83c.35-.05.56-.21.56-.57ZM337,16.7a5.13,5.13,0,0,1,.9.25c.14,0,.68.18.68.37s-.12.17-.29.21a.41.41,0,0,0-.27.23c-.12.35-.27.68-.41,1a.64.64,0,0,0-.05.17c0,.25.19.31.4.33h.77c.79,0,1.56,0,2.34,0,.42,0,.42.17.42.75s0,.72-.42.72c-.78,0-1.55,0-2.34,0h-.56c-.36,0-.5.15-.5.5v.54c0,.35.14.5.5.5h.46c.68,0,1.35,0,2,0,.41,0,.44.19.44.75s0,.72-.44.72c-.68,0-1.35,0-2,0h-.46c-.36,0-.5.15-.5.5v.64c0,.36.14.5.5.5h.14c.77,0,1.54,0,2.33,0,.42,0,.42.21.42.75s0,.72-.42.72c-.79,0-1.56,0-2.33,0h-.08c-.39,0-.56.17-.56.56v.73c0,.42.17.58.56.58h1c.68,0,1.39,0,2.08,0,.41,0,.43.19.43.73s0,.72-.41.72c-.71,0-1.42,0-2.1,0H334c-.27,0-.41.11-.41.38,0,.74-.07.87-.83.87s-.85-.08-.85-.71c0-.79,0-1.6,0-2.39v-5.5c0-.1,0-.21-.17-.21a.16.16,0,0,0-.14.07c-.34.39-.69.85-1,.85a1.4,1.4,0,0,1-.93-.9c0-.18.2-.37.31-.49a22.72,22.72,0,0,0,3.88-5.4.33.33,0,0,0,.06-.19c0-.21-.18-.29-.37-.29h-.77c-.4,0-.56.17-.56.56v.06c0,.27,0,.52,0,.77,0,.46-.29.46-.77.46s-.79,0-.79-.48c0-.29,0-.56,0-.85V16.2c0-.29,0-.58,0-.87,0-.71.42-.84,1.19-.84.35,0,.77,0,1.26,0h1.08a.74.74,0,0,0,.79-.52,12,12,0,0,0,.42-1.19c0-.12.1-.29.27-.29s.85.23,1,.27c.41.13.7.19.7.38s-.16.2-.27.27c-.31.1-.33.27-.48.62a.47.47,0,0,0,0,.17c0,.2.17.27.36.29H339c.47,0,.91,0,1.26,0,.75,0,1.19.13,1.19.81,0,.32,0,.61,0,.9v.35c0,.29,0,.58,0,.85,0,.46-.23.48-.79.48s-.77,0-.77-.46c0-.25,0-.5,0-.77v-.14c0-.39-.16-.56-.56-.56h-2.89a.76.76,0,0,0-.81.48c-.43.81-.89,1.6-1.35,2.36a.39.39,0,0,0-.06.21c0,.19.15.25.33.27h.81a.71.71,0,0,0,.79-.5,15.31,15.31,0,0,0,.67-1.82C336.87,16.82,336.89,16.7,337,16.7Zm-3,4a.46.46,0,0,0-.49.5v.54a.46.46,0,0,0,.49.5h1.6a.47.47,0,0,0,.5-.5v-.54a.47.47,0,0,0-.5-.5Zm1.6,4.57a.47.47,0,0,0,.5-.5v-.64a.47.47,0,0,0-.5-.5H334a.46.46,0,0,0-.49.5v.64a.46.46,0,0,0,.49.5Zm-1.53,1.39c-.42,0-.56.17-.56.56v.73c0,.42.16.58.56.58h1.47c.42,0,.56-.16.56-.58v-.73c0-.39-.14-.56-.56-.56Z"/><path class="cls-7" d="M346.23,17.38c-.56,0-1.14,0-1.62,0s-.44-.29-.44-.72,0-.73.44-.73,1.06,0,1.62,0h3c.56,0,1.12,0,1.62,0s.44.29.44.73,0,.72-.44.72-1.06,0-1.62,0Zm2.82,12.9c0-.29-.12-.4-.41-.4h-1.58c-.29,0-.42.11-.42.4v.23c0,.43-.22.43-.79.43s-.76,0-.76-.43,0-.92,0-1.37V26.37c0-.35,0-.72,0-1.08,0-.64.2-.95.89-.95l.94,0h1.82l.92,0c.66,0,.89.29.89.95,0,.36,0,.71,0,1.08v2.77c0,.45,0,.91,0,1.37s-.17.43-.75.43-.75,0-.75-.41Zm-1.89-7.35-1.47,0c-.44,0-.42-.29-.42-.69s0-.68.42-.68.95,0,1.47,0h1.46c.52,0,1,0,1.47,0s.42.27.42.68,0,.69-.42.69l-1.47,0Zm-.24-8.37c-.46,0-.94,0-1.23,0s-.4-.29-.4-.71,0-.7.4-.7l1.23,0h2l1.22,0c.4,0,.4.29.4.7s0,.71-.4.71-.77,0-1.22,0Zm.24,5.58c-.49,0-1,.05-1.47.05s-.4-.34-.4-.71,0-.71.42-.71.93,0,1.45,0h1.5c.5,0,1,0,1.45,0s.42.29.42.71,0,.71-.42.71-.95-.05-1.45-.05Zm1.33,8.41a.58.58,0,0,0,.59-.58V26.31a.58.58,0,0,0-.59-.58h-1.31c-.35,0-.56.21-.56.58V28a.55.55,0,0,0,.56.58Zm4.82-2.88c-.21.1-.21.16-.25.39a27,27,0,0,1-.66,3.24c-.09.29-.19.46-.5.46-.08,0-1-.06-1-.52a.57.57,0,0,1,.06-.25,16.2,16.2,0,0,0,.69-3.16,2.18,2.18,0,0,0,0-.35c0-.31,0-.52.37-.52.17,0,1.52.19,1.52.48C353.52,25.56,353.42,25.63,353.31,25.67Zm2.06-5.84c-.86,1.23-2.68,3-3.22,3s-1-.79-1-1,.15-.27.29-.37A8,8,0,0,0,354,19a.57.57,0,0,0,.1-.31.51.51,0,0,0-.29-.44c-.29-.18-.56-.31-.77-.43-.5-.27-.77-.42-.77-.65s.44-1,.75-1a7.85,7.85,0,0,1,1.41.72.57.57,0,0,0,.25.08c.21,0,.29-.14.36-.33a6.44,6.44,0,0,0,.22-1.24c.05-.4-.14-.54-.51-.54h-.69c-.64,0-1.29,0-1.93,0-.44,0-.46-.17-.46-.79s0-.81.46-.81c.64,0,1.29.06,1.93.06h4.84c.64,0,1.27,0,1.91,0,.91,0,1.16.31,1.16,1.18a29.36,29.36,0,0,1-.72,6.19c-.46,1.48-1.48,1.64-2.87,1.64-.75,0-1.2,0-1.2-1.14,0-.29,0-.6.35-.6.14,0,.68.06,1.08.06.77,0,1.06-.17,1.24-.93a26.66,26.66,0,0,0,.42-4.3c0-.52-.23-.56-.77-.56h-2c-.4,0-.58.14-.63.54a12.57,12.57,0,0,1-.45,2.16.87.87,0,0,0,0,.25.63.63,0,0,0,.33.54l.29.2c.5.34.87.58.87.83s-.39,1-.77,1a2.81,2.81,0,0,1-.85-.54,1.08,1.08,0,0,0-.54-.25A.49.49,0,0,0,355.37,19.83Zm2.2,9.16c.66,0,.79-.08,1-1.41,0-.29.07-.52.42-.52.19,0,1.16.08,1.16.62a6.09,6.09,0,0,1-.62,2.25c-.41.62-1.08.64-1.77.64H356c-1.12,0-1.95-.17-1.95-1.5,0-.33,0-.66,0-1V25.79a10.24,10.24,0,0,0-.06-1.35c0-.06,0-.12,0-.18,0-.21.15-.25.32-.25s1.16.08,1.45.1c.14,0,.42,0,.42.23s-.13.19-.21.25c-.29.18-.29.48-.29,1.2v2.45c0,.73.22.75.83.75Zm.29-3.41c-.17,0-.29-.18-.4-.31a15.1,15.1,0,0,0-1.55-1.66.6.6,0,0,1-.25-.39c0-.29.6-.81.93-.81s1.42,1.24,1.68,1.53.52.56.52.77A1.25,1.25,0,0,1,357.86,25.58Zm3.7,3.51c-.3,0-.38-.22-.46-.43a22.93,22.93,0,0,0-1.52-3.2.85.85,0,0,1-.16-.39c0-.34.79-.71,1-.71s.3.14.4.33c.31.54.62,1.1.89,1.68a13.85,13.85,0,0,1,.85,2.06C362.59,28.76,361.83,29.09,361.56,29.09Z"/><circle class="cls-6" cx="242.54" cy="21.43" r="12.41" transform="translate(55.89 177.78) rotate(-45)"/><path class="cls-7" d="M243.6,28.31c.67,0,1.61,0,2.34,0,.55,0,1,0,1.13,0,.5,0,.6.14.6.72v.53c0,.58-.1.72-.6.72-.12,0-.53,0-1,0-.74,0-1.73,0-2.43,0h-3c-.65,0-1.54,0-2.24,0-.53,0-1,0-1.11,0-.51,0-.6-.14-.6-.72v-.17c0-.6.07-.72.58-1.13s.81-.67,1.17-1c4.19-3.76,6.94-6.36,6.94-8.91,0-1.68-1.2-2.86-3.3-2.86a5.07,5.07,0,0,0-3.56,1.51c-.22.22-.36.34-.51.34s-.29-.12-.53-.36l-.5-.56c-.2-.21-.32-.36-.32-.5s.12-.31.36-.53a7.86,7.86,0,0,1,5.25-1.95c3.42,0,5.3,2.07,5.3,4.6,0,3.44-2.89,6.28-7,9.85-.2.16-.27.26-.27.33s.15.15.44.15Z"/><path class="cls-6" d="M460.48,30.34a.27.27,0,0,1-.27.23c-.15,0-.25-.21-.48-.54-.08-.1-.15-.21-.23-.33a1.81,1.81,0,0,1-.41-.77c0-.23.51-.48.81-.63s1.61-1.1,2-1.37a.86.86,0,0,0,.39-.85V22.3c0-.41-.16-.58-.56-.58h-.83c-.31,0-.62,0-.93,0s-.44-.18-.44-.81,0-.81.44-.81.62.05.93.05h.73c.41,0,.81-.05,1.22-.05.75,0,1.13.19,1.13,1,0,.56-.05,1.12-.05,1.68v2.89a2.51,2.51,0,0,0,1.81,2.74,22.42,22.42,0,0,0,5.84.52c1.8,0,3.61-.08,5.4-.08h.35c.31,0,.35.18.35.45,0,1-.31,1.17-1.16,1.17-.27,0-.58,0-1,0h-4.48c-1.48,0-4.61,0-5.88-.49a4.31,4.31,0,0,1-1.85-1.54.47.47,0,0,0-.39-.25.45.45,0,0,0-.31.12c-.67.52-1.29,1.08-2,1.58A.56.56,0,0,0,460.48,30.34Zm2.74-15.47c.27.27,1.27,1.33,1.27,1.58s-.63.85-1,.85c-.19,0-.31-.17-.44-.31a23.85,23.85,0,0,0-2.95-2.91c-.12-.1-.31-.25-.31-.44s.67-.87,1-.87A13.87,13.87,0,0,1,463.22,14.87Zm6.73,3H468.8c-.74,0-1.49,0-2.24,0-.46,0-.46-.23-.46-.77s0-.77.46-.77c.75,0,1.5,0,2.24,0h2.89a.82.82,0,0,0,.85-.43,18.18,18.18,0,0,0,1.75-3.24c.06-.13.12-.31.27-.31s1.7.64,1.7,1-.21.19-.35.19a.38.38,0,0,0-.33.17c-.15.22-1,1.62-1.31,2.18a.29.29,0,0,0-.07.2.28.28,0,0,0,.27.27c.56,0,1.11,0,1.67,0s.45.23.45.77,0,.77-.45.77c-.75,0-1.5,0-2.25,0h-1.16c-.39,0-.56.14-.58.54s0,1-.06,1.45.16.56.54.56h2.18c.77,0,1.51,0,2.28,0,.44,0,.46.21.46.77s0,.77-.46.77c-.77,0-1.51,0-2.28,0h-2c-.18,0-.37.06-.37.29a.28.28,0,0,0,.06.18,11.34,11.34,0,0,0,4.74,4.2c.14.06.25.14.25.31,0,.42-.46,1.08-.9,1.08a4,4,0,0,1-1.3-.66,12,12,0,0,1-3.7-3.74.29.29,0,0,0-.27-.17.31.31,0,0,0-.25.19c-1.35,2.37-4.34,4.38-5.09,4.38-.37,0-.85-.83-.85-1.1s.23-.31.42-.4a9,9,0,0,0,4.32-4,1.62,1.62,0,0,0,0-.19c0-.31-.36-.33-.42-.33H468c-.77,0-1.52,0-2.29,0-.43,0-.46-.23-.46-.77s0-.77.46-.77c.77,0,1.52,0,2.29,0h1.8a.54.54,0,0,0,.63-.54c0-.48,0-1,0-1.45S470.34,17.82,470,17.82Zm-1.06-1.68c-.27,0-.33-.15-.44-.36A14.26,14.26,0,0,0,467,13.44c-.06-.11-.17-.23-.17-.36,0-.35.81-.66,1.1-.66a.41.41,0,0,1,.36.21c.27.35.66.93.89,1.3a7.16,7.16,0,0,1,.77,1.58C470,16,469,16.14,468.89,16.14Z"/><path class="cls-6" d="M482.65,20.62c0-.1,0-.21-.14-.21a.19.19,0,0,0-.17.11c-.25.33-1.29,1.85-1.66,1.85s-1-.88-1-1.15.23-.41.36-.58a20.16,20.16,0,0,0,4.15-7.85c.06-.18.12-.39.35-.39a9.24,9.24,0,0,1,1.1.35c.33.1.71.21.71.46s-.19.23-.29.27c-.31.14-.34.23-.48.62a33.49,33.49,0,0,1-1.47,3.36.41.41,0,0,0,0,.17.24.24,0,0,0,.27.25c.17,0,.46,0,.46.27s-.1.17-.27.29-.25.44-.25,1.27v7.85c0,.89.06,1.78.06,2.68,0,.62-.2.68-.87.68s-.91-.06-.91-.7c0-.9.06-1.79.06-2.66Zm5.61-3.22c-.77,0-1.54.06-2.29.06-.43,0-.45-.18-.45-.74s0-.73.45-.73c.75,0,1.52,0,2.29,0H496c.75,0,1.52,0,2.29,0,.43,0,.45.19.45.73s0,.74-.45.74c-.77,0-1.54-.06-2.29-.06ZM489.71,23c-.75,0-1.49,0-2.26,0-.44,0-.46-.18-.46-.72s0-.75.46-.75c.77,0,1.51.06,2.26.06h4.59c.75,0,1.5-.06,2.27-.06.45,0,.45.2.45.75s0,.72-.45.72c-.75,0-1.52,0-2.27,0ZM494.88,30h-5.77c-.27,0-.42.1-.42.39v.1c0,.44-.22.44-.85.44s-.85,0-.85-.46,0-.85,0-1.26V26.6c0-.35,0-.7,0-1.08,0-.72.31-.95,1-.95l1.37,0h5.21l1.37,0c.65,0,1,.18,1,.89,0,.39,0,.77,0,1.14v2.6c0,.41,0,.83,0,1.24s-.21.48-.85.48-.87,0-.87-.43a.32.32,0,0,1,0-.15C495.28,30.05,495.15,30,494.88,30Zm-5.15-9.72c-.74,0-1.51,0-2.26,0-.46,0-.46-.19-.46-.73s0-.73.46-.73c.75,0,1.52.05,2.26.05h4.59c.75,0,1.5-.05,2.27-.05.45,0,.45.21.45.73s0,.73-.45.73c-.77,0-1.52,0-2.27,0Zm-.39-5.69c-.6,0-1.23,0-1.83,0s-.46-.23-.46-.73,0-.75.46-.75,1.23.05,1.83.05h5.46c.6,0,1.22-.05,1.83-.05.45,0,.45.23.45.75s0,.73-.45.73c-.61,0-1.23,0-1.83,0Zm5.4,14a.59.59,0,0,0,.58-.58V26.56a.59.59,0,0,0-.58-.58h-5.51a.55.55,0,0,0-.56.58V28a.55.55,0,0,0,.56.58Z"/><path class="cls-6" d="M511,24.05c0-.42-.16-.58-.58-.58h-6.6c-.83,0-1.64,0-2.47,0-.44,0-.44-.23-.44-.79s0-.81.44-.81c.83,0,1.64.06,2.47.06h12.48c.83,0,1.64-.06,2.47-.06.41,0,.43.23.43.81s0,.79-.43.79c-.83,0-1.64,0-2.47,0h-3c-.4,0-.59.16-.59.58V28.1c0,.79.27.87,1,.87h2.37c.83,0,1.1,0,1.37-1.77.1-.78.12-1,.52-1s1.2.14,1.2.66a7.41,7.41,0,0,1-.83,2.93c-.49.73-1,.71-2,.71h-3.11c-1.52,0-2.29-.13-2.29-1.77,0-.35,0-.7,0-1.06Zm-2.53.77a5.4,5.4,0,0,1-.56,1.76,6.59,6.59,0,0,1-3,3.2,10.14,10.14,0,0,1-3,1.14c-.53,0-.91-1.1-.91-1.29s.29-.29.62-.37a8.25,8.25,0,0,0,3.6-1.81,5.22,5.22,0,0,0,1.49-2.57l.09-.69c0-.35,0-.56.27-.56a11.71,11.71,0,0,1,1.53.33c.21.05.44.09.44.25s-.23.25-.33.29A.41.41,0,0,0,508.44,24.82Zm3-10.06h3.7c.7,0,1.28,0,1.76,0,1,0,1.56.15,1.56.9,0,.27,0,.6,0,1v1c0,.14,0,.56,0,.73,0,.43-.23.45-.87.45s-.87,0-.87-.41c0-.23,0-.56,0-.77v-.71a.51.51,0,0,0-.59-.58H503.79c-.4,0-.56.19-.56.58v.67c0,.18,0,.58,0,.77,0,.41-.36.41-.9.41s-.87,0-.87-.46c0-.25,0-.49,0-.72v-.94c0-.29,0-.56,0-.81a1,1,0,0,1,.25-.81,1.23,1.23,0,0,1,.79-.23c.77,0,1.52,0,2.28,0h3.7c.42,0,.54-.16.58-.56a10.7,10.7,0,0,0-.08-1.39.75.75,0,0,1,0-.2c0-.23.21-.25.37-.25.31,0,1.35.08,1.66.12.15,0,.34.06.34.25s-.13.19-.27.29-.27.54-.25,1.16C510.87,14.6,511,14.76,511.45,14.76ZM507.59,20c-.79,0-1.58,0-2.37,0-.44,0-.46-.23-.46-.79s0-.79.46-.79c.79,0,1.58,0,2.37,0h4.83c.79,0,1.56,0,2.35,0,.46,0,.46.23.46.79s0,.79-.46.79c-.79,0-1.56,0-2.35,0Z"/><path class="cls-6" d="M531.77,19.71v7.54c0,.54.05,1.05.05,1.57,0,1.87-1.71,2.18-3.2,2.18-.36,0-1.44,0-1.64-.22a2.17,2.17,0,0,1-.29-1.15c0-.27.06-.54.39-.54.1,0,.35.05.46.05a8.93,8.93,0,0,0,1,.08c1.47,0,1.47-.46,1.47-1.85V20.06a10.59,10.59,0,0,0-.08-1.6.58.58,0,0,1,0-.19c0-.24.16-.29.35-.29l.37,0h.13a.92.92,0,0,0,.5-.12c.5-.29,4.13-2.39,4.13-2.7s-.27-.15-.58-.15h-9.14c-.83,0-1.64.05-2.45.05-.46,0-.48-.19-.48-.86s0-.85.46-.85c.83,0,1.64.07,2.47.07h9.6c.62,0,1.24,0,1.88,0a1.43,1.43,0,0,1,1.25,1.11c0,.51-2.22,2-2.7,2.34A33.07,33.07,0,0,1,532.25,19,.79.79,0,0,0,531.77,19.71Z"/><circle class="cls-6" cx="440.75" cy="21.43" r="12.41" transform="translate(319.16 445.61) rotate(-76.79)"/><path class="cls-7" d="M443,21.2c0,.08.12.15.34.22a3.77,3.77,0,0,1,2.86,3.81c0,2.57-1.93,5.17-6.86,5.17a9.86,9.86,0,0,1-4.07-.79c-.36-.17-.53-.29-.53-.53a1.49,1.49,0,0,1,.12-.46l.22-.6c.12-.36.21-.53.38-.53a1.24,1.24,0,0,1,.51.19,7.26,7.26,0,0,0,3.49.84c3.15,0,4.55-1.71,4.55-3.29,0-1.83-1.45-2.87-4.67-2.87l-1.71,0c-.48,0-.55-.16-.55-.72v-.48c0-.55.07-.72.55-.72l1.47,0c3.08,0,4.16-1.32,4.16-2.74s-1.25-2.39-3.2-2.39a6.12,6.12,0,0,0-3.25.92,1.09,1.09,0,0,1-.51.22c-.16,0-.26-.17-.43-.51l-.29-.58a1.39,1.39,0,0,1-.14-.48c0-.22.14-.34.48-.51a9.29,9.29,0,0,1,4.33-1c3.64,0,5.16,1.9,5.16,4A3.88,3.88,0,0,1,443.3,21C443.06,21.08,443,21.16,443,21.2Z"/></g></g></svg>