<svg xmlns="http://www.w3.org/2000/svg" viewBox="0 0 182.07 40"><defs><style>.cls-1{font-size:25.57px;font-family:UDTypos510Std-Regular-90ms-RKSJ-H, UDTypos510 Std;}.cls-1,.cls-3{fill:#0d335b;}.cls-2{letter-spacing:0.08em;}.cls-4{fill:#fff;}</style></defs><g id="レイヤー_2" data-name="レイヤー 2"><g id="head"><text class="cls-1" transform="translate(50.11 29.74)">アイ<tspan class="cls-2" x="51.15" y="0">工務</tspan><tspan x="106.39" y="0">店</tspan></text><rect class="cls-3" width="40" height="40"/><path class="cls-4" d="M4.66,22.35h2l8.07-10.6,8.07,10.6h2L14.75,9.1Zm26.46,0h1.61V9.83H31.12Z"/><polygon class="cls-4" points="5.12 26.09 5.12 27.07 6.04 26.09 6.69 26.09 5.77 27.02 6.78 28.46 6.13 28.46 5.42 27.4 5.12 27.69 5.12 28.46 4.59 28.46 4.59 26.09 5.12 26.09"/><path class="cls-4" d="M8.62,26.79a1.47,1.47,0,0,1,.24-.4,1,1,0,0,1,.36-.26,1.3,1.3,0,0,1,.49-.1,1.22,1.22,0,0,1,.49.1,1,1,0,0,1,.37.26,1.44,1.44,0,0,1,.23.4,1.57,1.57,0,0,1,.08.49,1.53,1.53,0,0,1-.08.49,1.26,1.26,0,0,1-.23.39,1.12,1.12,0,0,1-.37.26,1.22,1.22,0,0,1-.49.09,1.3,1.3,0,0,1-.49-.09,1.19,1.19,0,0,1-.36-.26,1.09,1.09,0,0,1-.23-.39,1.29,1.29,0,0,1-.08-.49,1.57,1.57,0,0,1,.07-.49m.48.78a1.56,1.56,0,0,0,.11.26.86.86,0,0,0,.2.18.73.73,0,0,0,.3.07A.66.66,0,0,0,10,28a.7.7,0,0,0,.2-.18.76.76,0,0,0,.11-.26,1.35,1.35,0,0,0,0-.29,1.54,1.54,0,0,0,0-.3.85.85,0,0,0-.11-.26.7.7,0,0,0-.2-.18.56.56,0,0,0-.3-.07.6.6,0,0,0-.3.07.72.72,0,0,0-.2.19A1.45,1.45,0,0,0,9.1,27a1.53,1.53,0,0,0,0,.3,1.36,1.36,0,0,0,0,.29"/><path class="cls-4" d="M14.63,28.28a1.31,1.31,0,0,1-1.48,0,.89.89,0,0,1-.27-.72V26.09h.52v1.47a1.11,1.11,0,0,0,0,.19.36.36,0,0,0,.07.17.45.45,0,0,0,.15.11.55.55,0,0,0,.25,0,.48.48,0,0,0,.38-.12.58.58,0,0,0,.11-.4V26.09h.52v1.47a.91.91,0,0,1-.27.72"/><polygon class="cls-4" points="17.74 26.09 18.3 27.72 18.3 27.72 18.82 26.09 19.56 26.09 19.56 28.46 19.07 28.46 19.07 26.78 19.07 26.78 18.48 28.46 18.08 28.46 17.5 26.8 17.5 26.79 17.5 28.46 17.01 28.46 17.01 26.09 17.74 26.09"/><path class="cls-4" d="M23.42,28.28a1.32,1.32,0,0,1-1.49,0,.92.92,0,0,1-.26-.72V26.09h.52v1.47a1.11,1.11,0,0,0,0,.19.35.35,0,0,0,.06.17.58.58,0,0,0,.15.11.6.6,0,0,0,.26,0,.49.49,0,0,0,.38-.12.64.64,0,0,0,.11-.4V26.09h.52v1.47a.91.91,0,0,1-.27.72"/><polygon class="cls-4" points="25.61 26.53 25.61 26.09 27.55 26.09 27.55 26.53 26.84 26.53 26.84 28.46 26.32 28.46 26.32 26.52 25.61 26.53"/><polygon class="cls-4" points="31.25 26.09 31.25 26.53 30 26.52 30 27.04 31.15 27.04 31.15 27.44 30 27.44 30 28.02 31.28 28.02 31.28 28.46 29.48 28.46 29.48 26.09 31.25 26.09"/><polygon class="cls-4" points="33.81 26.09 34.8 27.68 34.8 27.68 34.8 26.09 35.29 26.09 35.29 28.46 34.77 28.46 33.78 26.87 33.77 26.87 33.77 28.46 33.29 28.46 33.29 26.09 33.81 26.09"/></g></g></svg>