<?xml version="1.0" encoding="UTF-8"?> <svg xmlns="http://www.w3.org/2000/svg" id="レイヤー_1" data-name="レイヤー 1" viewBox="0 0 390.83 234.5"><defs><style>.cls-1{fill:none;}.cls-2{fill:#40220f;}.cls-3{fill:#0c3258;}.cls-4{fill:#fff;}</style></defs><rect class="cls-1" width="390.83" height="234.5"></rect><path class="cls-2" d="M35.39,36.84a13.06,13.06,0,0,0,2.55,5,12.6,12.6,0,0,0,5.34,3.85,6.22,6.22,0,0,0-1.15,1.78,15.38,15.38,0,0,1-4.83-3.69,14,14,0,0,1-2.69-4.66,11.55,11.55,0,0,1-3.29,5.61,13.81,13.81,0,0,1-4.24,2.75A5.3,5.3,0,0,0,26,45.85a12,12,0,0,0,5-3.36,10.16,10.16,0,0,0,2.29-5.65H28.63a13.4,13.4,0,0,0-2.22.13V35a13.68,13.68,0,0,0,2.24.13h4.78c0-.91,0-1.37,0-2.09a11.12,11.12,0,0,0-.13-2h2.08a11.25,11.25,0,0,0-.13,2.09c0,.87,0,1.33-.06,2h5.18A14,14,0,0,0,42.65,35v2a14.62,14.62,0,0,0-2.21-.13Z" transform="translate(43.82 9.3)"></path><path class="cls-2" d="M46.92,32.79c0-.6,0-1.1-.05-1.61a11.92,11.92,0,0,0,1.2.05h3a7.36,7.36,0,0,0,1.21-.07l.81,1.13a6,6,0,0,0-.35.83,26.32,26.32,0,0,1-1.74,3.76,6.46,6.46,0,0,1,1.54,3.94A2.07,2.07,0,0,1,51.4,43a4.23,4.23,0,0,1-1.5.2l-.59,0A3.34,3.34,0,0,0,49,41.58a11.22,11.22,0,0,0,1.24.09c.66,0,.85-.2.85-.91a4,4,0,0,0-.24-1.31A5.8,5.8,0,0,0,49.25,37a17.14,17.14,0,0,0,2-4.33H48.55V45.74a14.57,14.57,0,0,0,.09,1.82H46.81a14.33,14.33,0,0,0,.11-2Zm8.28,4.4a19.63,19.63,0,0,1-1,6.24,11.27,11.27,0,0,1-2.74,4.18,4.34,4.34,0,0,0-1.35-1.16,8.44,8.44,0,0,0,2.66-3.82,32.26,32.26,0,0,0,.89-8.94c0-1.09,0-1.64-.07-2.29.66.05,1.35.09,2.11.09H61a15.19,15.19,0,0,0,2-.11v1.74A13,13,0,0,0,61,33H55.25v1.42c0,.46,0,.72,0,1.26H60.1a7.71,7.71,0,0,0,1.52-.09l.83.89a21.16,21.16,0,0,0-.63,2,23,23,0,0,1-1.53,3.59c-.17.3-.32.52-.56.87a10.9,10.9,0,0,0,3.8,2.87,4.77,4.77,0,0,0-.93,1.65,14.05,14.05,0,0,1-3.89-3.2,12.68,12.68,0,0,1-4.37,3.29,4.82,4.82,0,0,0-1.13-1.37A11.38,11.38,0,0,0,57.75,43a13.74,13.74,0,0,1-2.06-5.83Zm2,0a12,12,0,0,0,1.56,4.48,14.75,14.75,0,0,0,1.78-4.48Z" transform="translate(43.82 9.3)"></path><path class="cls-2" d="M66.64,33.49l.65,0a8.14,8.14,0,0,0,1.13-.06c2.16-.15,6.57-.39,10.92-.59a13.26,13.26,0,0,0,2.15-.19l.13,2a2,2,0,0,0-.32,0,8.3,8.3,0,0,0-3.46.89c-2.52,1.26-4.07,3.25-4.07,5.25A3.33,3.33,0,0,0,76.29,44a10.76,10.76,0,0,0,2.72.52,2.33,2.33,0,0,0,.33,0l-.28,2.09c-.24,0-.31-.06-.61-.09a10.07,10.07,0,0,1-4.18-1.32,4.74,4.74,0,0,1-2.41-4.2A6.65,6.65,0,0,1,74.29,36a7,7,0,0,1,2.22-1.48c-1.3.19-2,.26-4,.39a52.35,52.35,0,0,0-5.76.58Zm13,5.5A11.88,11.88,0,0,0,78,36.49l1.18-.59a9.57,9.57,0,0,1,1.63,2.46Zm1.9-1a11.53,11.53,0,0,0-1.59-2.42L81.08,35a10.05,10.05,0,0,1,1.61,2.35Z" transform="translate(43.82 9.3)"></path><path class="cls-2" d="M87.07,35.36a16.34,16.34,0,0,1,3.31,2.41l-.94,1.42a14.77,14.77,0,0,0-3.35-2.57Zm3.46,6.16a31.15,31.15,0,0,1-2.89,6l-1.48-1.3a18.5,18.5,0,0,0,3-5.7ZM88,30.88a15.48,15.48,0,0,1,3.2,2.46l-1,1.37a13.07,13.07,0,0,0-3.22-2.65Zm5.18,5.27a15.31,15.31,0,0,0-2,.1V34.49a15.87,15.87,0,0,0,2,.11h7.37a14.32,14.32,0,0,0,2-.11v1.76a18.94,18.94,0,0,0-2-.1H97.42v3.47H100a15.42,15.42,0,0,0,2-.11v1.72a19.06,19.06,0,0,0-2-.1H97.42V45.3h3.38a17.13,17.13,0,0,0,2.15-.11V47a21.13,21.13,0,0,0-2.15-.1H92.6a21,21,0,0,0-2.13.1V45.19a17.58,17.58,0,0,0,2.11.11h3.11V41.13h-2a19.78,19.78,0,0,0-2,.1V39.51a15.19,15.19,0,0,0,2,.11h2V36.15Zm1.74-5.51A20.51,20.51,0,0,1,98.82,33L97.71,34.4a15.76,15.76,0,0,0-3.94-2.5Z" transform="translate(43.82 9.3)"></path><path class="cls-2" d="M119.87,35.21a13.84,13.84,0,0,1-1.54,3.85,16.55,16.55,0,0,1-2.16,3.06,17.09,17.09,0,0,0,7.4,3.59,5.81,5.81,0,0,0-1.09,1.77A20,20,0,0,1,115,43.32a19.53,19.53,0,0,1-3.71,2.53,22.6,22.6,0,0,1-3.94,1.63,5.33,5.33,0,0,0-1-1.63,17.66,17.66,0,0,0,7.44-3.73,17,17,0,0,1-3.9-6.91h-1.06a19.13,19.13,0,0,0-2.18.11V33.54a14.06,14.06,0,0,0,2.2.13h5.09V32.29a6.68,6.68,0,0,0-.13-1.48h2a7.21,7.21,0,0,0-.13,1.48v1.38H121a14.12,14.12,0,0,0,2.24-.13v1.78a18,18,0,0,0-2.19-.11Zm-8.26,0a13.31,13.31,0,0,0,1.45,3.31A14.28,14.28,0,0,0,114.93,41a13.94,13.94,0,0,0,1.79-2.48,13.78,13.78,0,0,0,1.34-3.28Z" transform="translate(43.82 9.3)"></path><path class="cls-2" d="M127.86,39.75c0-.56,0-1.17.06-2.19a14.83,14.83,0,0,1-1.63,2.28,7.33,7.33,0,0,0-.8-1.76A15.11,15.11,0,0,0,128.71,33a11.65,11.65,0,0,0,.74-2.43l1.78.5a36,36,0,0,1-1.7,4.08V45.35a14.85,14.85,0,0,0,.11,2.17h-1.91a14.81,14.81,0,0,0,.13-2.18Zm5-3.76c-.75,0-1.44,0-2,.09V34.32a13.13,13.13,0,0,0,2,.11h7.26a15.62,15.62,0,0,0,2.11-.11v1.76c-.59,0-1.3-.09-2.07-.09h-3v3.52h2.46a14.51,14.51,0,0,0,2-.12v1.73a19.32,19.32,0,0,0-2-.1h-2.48v4.26h3.44a18.31,18.31,0,0,0,2.15-.11v1.74c-.67-.06-1.32-.09-2.15-.09h-8.35c-.85,0-1.48,0-2.13.09V45.17a17.16,17.16,0,0,0,2.08.11h3.24V41H133.4a18.57,18.57,0,0,0-2,.1V39.39a13.85,13.85,0,0,0,2,.12h2.11V36Zm1.84-5.31A22.5,22.5,0,0,1,138.56,33l-1.24,1.3a15.64,15.64,0,0,0-3.74-2.47Z" transform="translate(43.82 9.3)"></path><path class="cls-2" d="M152.11,38c-1.87.33-2.78.48-4.74.74a5,5,0,0,0-.76-1.55A51.93,51.93,0,0,0,155,35.73a12.1,12.1,0,0,0,3.26-1.15L159.68,36a11.79,11.79,0,0,0-1.17.33c-1.54.5-3.39,1-4.7,1.3v2.26l6.5-.74a13.56,13.56,0,0,0,1.92-.34l.17,1.78h-.28c-.35,0-1.18.05-1.68.11l-6.63.76v3.37c0,.48.09.59.5.7a13,13,0,0,0,2.48.15c1.89,0,2.83-.11,3.2-.35s.46-.74.54-2.52a4.56,4.56,0,0,0,1.68.63,5.91,5.91,0,0,1-.46,2.42c-.57,1.19-1.35,1.39-5.18,1.39a9.88,9.88,0,0,1-3.76-.39c-.54-.25-.7-.64-.7-1.59V41.63l-4.15.49a13.7,13.7,0,0,0-2,.33l-.17-1.8a2.33,2.33,0,0,0,.33,0c.37,0,1.15-.05,1.63-.11l4.32-.48Zm.94-6.16a5.88,5.88,0,0,0-.11-1.11h1.94a4.6,4.6,0,0,0-.11,1.11v.7h5.28c.9,0,1.37,0,2-.07a7.73,7.73,0,0,0-.08,1.31v1.33a9.21,9.21,0,0,0,.08,1.39h-1.69V34H147.94v2.41h-1.72a8.24,8.24,0,0,0,.09-1.39V33.73a9.94,9.94,0,0,0-.07-1.31c.57,0,1.07.07,2,.07h4.83Z" transform="translate(43.82 9.3)"></path><path class="cls-2" d="M171.16,33.32a7.74,7.74,0,0,0,.8-2.39l2,.26a1.75,1.75,0,0,0-.22.43L173.2,33a2.87,2.87,0,0,0-.15.32l.15,0h.09l.92-.06a22.78,22.78,0,0,0,4.93-.63l.11,1.76-1.44.17c-1.3.16-3.69.33-5.5.37a11.19,11.19,0,0,1-2,2.89l0,0a3.5,3.5,0,0,1,.39-.29,4.6,4.6,0,0,1,2.81-1,2.77,2.77,0,0,1,1.79.6,2.21,2.21,0,0,1,.76,1.4c1.5-.55,2.5-.92,3-1.09a4.47,4.47,0,0,0,1.32-.54l.76,1.78a29.53,29.53,0,0,0-4.87,1.54c0,.66,0,.66,0,1v.87c0,.31,0,.52,0,.64a8,8,0,0,0,.05.91l-1.79,0a23.74,23.74,0,0,0,.11-2.41v-.44c-2.28,1-3.11,1.78-3.11,2.76s1,1.51,3.55,1.51a15.72,15.72,0,0,0,5.13-.75l.19,2a4.65,4.65,0,0,0-.82.1,34.13,34.13,0,0,1-4.61.33,8,8,0,0,1-4-.74,2.56,2.56,0,0,1-1.29-2.28c0-1.72,1.53-3.2,4.74-4.57A1.15,1.15,0,0,0,173.18,38a6.63,6.63,0,0,0-4,1.92,7.27,7.27,0,0,0-1.51,1.63l-1.43-1.43a15.39,15.39,0,0,0,3-3.36l1.15-1.87h-.32l-1.79,0-1.07,0h-.12a1.66,1.66,0,0,0-.27,0l0-1.76a19.82,19.82,0,0,0,3.61.22Z" transform="translate(43.82 9.3)"></path><path class="cls-2" d="M189.13,36.77a7.24,7.24,0,0,0,1.38-.06c0,.28,0,.39-.07.69A16.67,16.67,0,0,1,189,43.26c1.65,1.74,3.37,2.3,7.16,2.3,2,0,4.13-.09,5.93-.26a5.48,5.48,0,0,0-.47,1.74c-1.4,0-3.68.07-5.27.07-4.32,0-6.17-.59-8.07-2.53a12.58,12.58,0,0,1-2.46,2.94,6.11,6.11,0,0,0-1.13-1.39,11,11,0,0,0,2.51-2.87,10.12,10.12,0,0,1-.89-1.55c-.57-1.2-.57-1.2-.83-1.72l1.45-.71a10.58,10.58,0,0,0,1,2.52,11.87,11.87,0,0,0,.93-3.59h-1.69c-.53,0-1.07,0-1.57.06A30,30,0,0,0,188.42,33h-2a7.4,7.4,0,0,0-1.26.09V31.45a6.39,6.39,0,0,0,1.32.1h1.87a6.59,6.59,0,0,0,1.33-.08l.76,1a3.9,3.9,0,0,0-.44.87,30.88,30.88,0,0,1-1.86,3.43Zm5.72-3.63h-2.28a10.48,10.48,0,0,0-1.33.07V31.75a8,8,0,0,0,1.42.09h2.19a7.42,7.42,0,0,0-.1-1.29h1.69a5.54,5.54,0,0,0-.1,1.29h2.82c.59,0,1,0,1.39-.05,0,.5-.06.7-.06,1.16V34.3a5.58,5.58,0,0,0,1.39-.11v1.47a8.64,8.64,0,0,0-1.39-.08V37a7.92,7.92,0,0,0,.06,1.1c-.47,0-.85,0-1.3,0h-2.91v1.26h2.93a12.15,12.15,0,0,0,1.57-.08v1.45a11.89,11.89,0,0,0-1.59-.08h-2.91v1.26H200a11.89,11.89,0,0,0,1.69-.09v1.5a13.14,13.14,0,0,0-1.69-.07h-3.63v.14a9,9,0,0,0,.1,1.67h-1.69a9.85,9.85,0,0,0,.1-1.65v-.16H192a9,9,0,0,0-1.61.09V41.8a10.5,10.5,0,0,0,1.63.09h2.8V40.63h-2.36a11,11,0,0,0-1.48.1V39.26a10.81,10.81,0,0,0,1.48.08h2.36V38.08h-2.36a9.33,9.33,0,0,0-1.24.07V36.73a9.27,9.27,0,0,0,1.34.07h2.26V35.58h-3a11.33,11.33,0,0,0-1.63.08V34.19a7.15,7.15,0,0,0,1.68.11h2.93ZM199,34.3V33.14h-2.67V34.3Zm-2.67,2.5H199V35.58h-2.67Z" transform="translate(43.82 9.3)"></path><path class="cls-2" d="M205.62,33.54l.65,0a9.75,9.75,0,0,0,1.13-.05c2.16-.15,6.57-.41,10.92-.59a14.65,14.65,0,0,0,2.15-.19l.13,1.94h-.32a8.45,8.45,0,0,0-3.46.89c-2.52,1.26-4.07,3.26-4.07,5.26A3.32,3.32,0,0,0,215.27,44a10.76,10.76,0,0,0,2.72.52,2.33,2.33,0,0,0,.33,0L218,46.6l-.61-.12a10.1,10.1,0,0,1-4.18-1.29,4.77,4.77,0,0,1-2.41-4.2,6.69,6.69,0,0,1,2.43-4.91,7.3,7.3,0,0,1,2.22-1.48,38.81,38.81,0,0,1-4,.41,50.75,50.75,0,0,0-5.76.57Z" transform="translate(43.82 9.3)"></path><path class="cls-2" d="M226,32a11.2,11.2,0,0,0,2,.11c1.69,0,3.87-.09,5.69-.24a2.15,2.15,0,0,0,1-.22l1,1.38a4,4,0,0,0-.94.76,39.06,39.06,0,0,1-5.87,4.87l0,.06a8.94,8.94,0,0,1,4.16-1c3.11,0,5.13,1.59,5.13,4a4.42,4.42,0,0,1-2.48,4,8.88,8.88,0,0,1-4.35,1A6.21,6.21,0,0,1,228,46,2.51,2.51,0,0,1,226.88,44c0-1.41,1.27-2.45,3-2.45A3.87,3.87,0,0,1,233,43a5.08,5.08,0,0,1,.85,1.7,4.5,4.5,0,0,0,1.39-.66,2.72,2.72,0,0,0,1.13-2.21c0-1.62-1.44-2.61-3.79-2.61a11.68,11.68,0,0,0-7.7,3.13l-1.08-1.64a52.51,52.51,0,0,0,8.42-6.93l.32-.31,0,0c-.67.09-2.65.22-5.46.33a6.62,6.62,0,0,0-.93.1Zm3.82,11c-.76,0-1.24.37-1.24,1,0,.81.94,1.31,2.49,1.31a6.51,6.51,0,0,0,1.06-.07C231.8,43.73,231,43,229.86,43Z" transform="translate(43.82 9.3)"></path><path class="cls-2" d="M249.1,31.16a6.54,6.54,0,0,0-.29,1.2c-.13.59-.23,1-.43,1.8a14.37,14.37,0,0,0,3.09-.56l.08,1.8a2.72,2.72,0,0,0-.63.09,29.79,29.79,0,0,1-3,.35,37.71,37.71,0,0,1-2,5.39c-.43.9-.59,1.22-1.31,2.5-.15.26-.28.48-.36.64l-1.77-1a15.18,15.18,0,0,0,1.79-3,28.2,28.2,0,0,0,1.8-4.49h-3V34.12a13.48,13.48,0,0,0,2.35.15c.54,0,.87,0,1.11,0a16.09,16.09,0,0,0,.61-3.32Zm8.55,14.73a10.44,10.44,0,0,0-3-2.37,2.82,2.82,0,0,1,0,.39,3.35,3.35,0,0,1-.66,1.94,4,4,0,0,1-3,1.1c-2.37,0-3.87-1.11-3.87-2.87S248.73,41,251,41a9.27,9.27,0,0,1,1.87.21c-.07-1-.11-1.65-.11-2.37a9,9,0,0,1,.15-1.76l1.79.13a6,6,0,0,0-.24,1.78,23,23,0,0,0,.19,2.68,12.78,12.78,0,0,1,3.05,1.78c.41.31.41.33.57.46a1.38,1.38,0,0,0,.28.24Zm-6.55-3.31c-1.33,0-2.18.55-2.18,1.41s.74,1.31,2,1.31,2-.57,2-1.7c0-.21,0-.69,0-.71A5.54,5.54,0,0,0,251.1,42.58Zm6.61-5.13a21.81,21.81,0,0,0-5.16-2.57l.92-1.46a26.27,26.27,0,0,1,5.09,2.44Z" transform="translate(43.82 9.3)"></path><path class="cls-2" d="M265.76,34.75a47.12,47.12,0,0,0-.85,4.76,5.08,5.08,0,0,1-.13.64,8.79,8.79,0,0,1,5.81-1.92c3.09,0,5.09,1.48,5.09,3.76a4.2,4.2,0,0,1-1.83,3.42,8.16,8.16,0,0,1-4.76,1.22,17.39,17.39,0,0,1-4.7-.66,7.23,7.23,0,0,0-.21-2,14.28,14.28,0,0,0,4.87.92c2.74,0,4.65-1.16,4.65-2.87,0-1.33-1.24-2.14-3.31-2.14-2.3,0-4.65.92-5.63,2.22l-2-.06c.05-.31.05-.41.15-1.09.18-1.35.42-3,.77-5.28a7.84,7.84,0,0,0,.13-1Zm.48-3.44a27.87,27.87,0,0,0,6.64,2.05l-.64,1.76a31.48,31.48,0,0,1-6.91-2.28Z" transform="translate(43.82 9.3)"></path><path class="cls-3" d="M108.82,73.24a6.92,6.92,0,0,0-1.66.21v-2a8.81,8.81,0,0,0,1.66.17h22c-.62,7.37-4.17,11.16-11.75,12.55-.68,4.35-3.67,7.28-9.2,9.08a4.63,4.63,0,0,0-1.33.59l-.71-1.77c1,.06,2.63-.62,4.56-1.83a8.85,8.85,0,0,0,4.23-7.73V78.21a8.89,8.89,0,0,0-.18-1.65h3a8.63,8.63,0,0,0-.18,1.65v4.41c5.06-1.24,7.93-4.41,8.55-9.38Z" transform="translate(43.82 9.3)"></path><path class="cls-3" d="M136.72,82.62c2.84-.24,8.55-2.66,11.71-4.94s7.11-6.07,7.9-7.93l2.37,2c-.26.24-.65.62-1.18,1.16a37.79,37.79,0,0,1-6.19,5.56V92.36a8.63,8.63,0,0,0,.18,1.65h-3a6.75,6.75,0,0,0,.21-1.65V80.08a41.32,41.32,0,0,1-9.94,3.72,5.45,5.45,0,0,0-1.45.51Z" transform="translate(43.82 9.3)"></path><path class="cls-3" d="M179.47,91.38h9.74a12.45,12.45,0,0,0,1.95-.18V93l-.33,0-.41-.06c-.32,0-.71-.06-1.21-.06H166.93a12.51,12.51,0,0,0-2,.15V91.2a12.47,12.47,0,0,0,2,.18h9.58V73.21h-7.87c-.41,0-.77,0-1.12.06l-.56.09-.27,0V71.56a13.38,13.38,0,0,0,1.95.14h19a13.49,13.49,0,0,0,2-.14v1.83l-.15,0-.59-.06a7.5,7.5,0,0,0-1.24-.09h-8.14Z" transform="translate(43.82 9.3)"></path><path class="cls-3" d="M221.07,72.59a14.16,14.16,0,0,1-3.25,5.53,19.86,19.86,0,0,0,4.88,2.07l1.54.3L222.79,83l-1.18-.57a21,21,0,0,1-5.33-2.9,20.57,20.57,0,0,1-5.95,3l-.85.54-.86-1.4a24.92,24.92,0,0,1-1.57,3l-.44,1.1-1.39-.65.56-1a33.46,33.46,0,0,0,1-3.93h-2.19v13.1c0,1.13-.47,1.69-1.42,1.69A14.82,14.82,0,0,1,200,94.4l-1.33-.18-.21-1.48a30.82,30.82,0,0,0,3.14.21c.53,0,.65-.12.65-.62V83.75a25.61,25.61,0,0,1-4.62,6.56l-.74,1-1.24-1.1,1-.88a30,30,0,0,0,4.64-9.23h-2.72a13.57,13.57,0,0,0-1.95.14v-1.8a12.67,12.67,0,0,0,1.95.15h5.18l-.21-.3a42.92,42.92,0,0,0-4.26-4l-1-.57,1.1-1.21.77.68c.71.42,2,1.24,2.6,1.63a22.42,22.42,0,0,0,2.75-3.94H199a12.6,12.6,0,0,0-2,.15v-1.8a13.11,13.11,0,0,0,2,.15h7a16.08,16.08,0,0,0,3-.12v1.18a46.27,46.27,0,0,1-5.09,5.18l.36.26.32.21.6.42,1,.62-1.42,1.45h1.95a13.82,13.82,0,0,0,2.64-.12v1.15c-.27.77-.54,1.42-.74,1.93l1.15-.24a19.58,19.58,0,0,0,5-3.14,14.64,14.64,0,0,1-3-4.38,30.82,30.82,0,0,1-2.13,2.31l-.83.86-1.15-1,.89-.77a19.32,19.32,0,0,0,3.79-6.62l.23-1.1,2.84.68-.65,1.13a17.59,17.59,0,0,1-1,1.77h7.95a11.88,11.88,0,0,0,2-.15v1.81l-.33,0-.41-.06c-.33,0-.71-.06-1.22-.06ZM210.42,86a12.15,12.15,0,0,0-1.92.15v-1.8a12.41,12.41,0,0,0,1.92.15h3.35v-.27l0-.12c0-.32.08-1.09.08-1.51l0-1.48,2.81.09-.24,1.39c0,.45,0,.77-.06,1.45l-.06.45h3.85a15.15,15.15,0,0,0,2.63-.12v1.12c-.35,4.85-.53,6.45-.95,7.78-.35,1.16-.94,1.69-1.89,1.69a15.11,15.11,0,0,1-3.79-.71L214.71,94l-.15-1.45a30.63,30.63,0,0,0,3.73.27c.77,0,1-.18,1.19-.92a28.08,28.08,0,0,0,.74-5.92h-4.15c-.88,4.21-3,6.72-7.3,8.73l-1.13.62-.89-1.42,1.28-.44c3.16-2,4.94-4.35,5.5-7.49Zm2.31-13.34a14.44,14.44,0,0,0,3.31,4.2,12.68,12.68,0,0,0,2.28-4.26h-5.53Z" transform="translate(43.82 9.3)"></path><path class="cls-3" d="M241.4,69.75c0-.38,0-.74-.06-1.09l-.09-.6,0-.26h3a11.91,11.91,0,0,0-.18,2v2h8.73a10.38,10.38,0,0,0,2-.17v1.83a12.36,12.36,0,0,0-2-.15h-19v6.87c0,5.88-1.1,9.85-3.79,13.78l-.53,1.1L228,94.16l.71-1c1.63-3.78,2.28-7.48,2.28-13.1V73.86a12.2,12.2,0,0,0-.18-2.25,18.71,18.71,0,0,0,2.43.12h8.13Zm9.23,14.94a15.69,15.69,0,0,0,2.43-.12,12.52,12.52,0,0,0-.18,2.46v5.68a11.44,11.44,0,0,0,.18,1.92,19.46,19.46,0,0,0-1.95-.11H237a18.92,18.92,0,0,0-2,.11,12.53,12.53,0,0,0,.18-2.45V86.7a10.93,10.93,0,0,0-.18-2.13,20.13,20.13,0,0,0,2.46.12h4.67V76.14c0-.47,0-.68-.09-1.45l-.06-.5h3a11.61,11.61,0,0,0-.17,2v2.28h7.51a11.77,11.77,0,0,0,2-.15v1.81l-.32,0L253.5,80c-.32,0-.71-.06-1.21-.06h-7.51v4.76ZM237.82,86.2V93h12.4V86.2Z" transform="translate(43.82 9.3)"></path><rect class="cls-3" x="89.95" y="68.86" width="46.28" height="46.28"></rect><path class="cls-4" d="M51.52,85.42h2.34L63.2,73.16l9.33,12.26h2.34L63.19,70.09Zm30.62,0H84V70.93H82.14Z" transform="translate(43.82 9.3)"></path><polygon class="cls-4" points="95.87 99.05 95.87 100.18 96.94 99.05 97.69 99.05 96.62 100.13 97.8 101.79 97.04 101.79 96.21 100.56 95.87 100.9 95.87 101.79 95.26 101.79 95.26 99.05 95.87 99.05"></polygon><path class="cls-4" d="M56.11,90.56a1.24,1.24,0,0,1,.27-.46,1.1,1.1,0,0,1,.42-.31,1.53,1.53,0,0,1,1.14,0,1.27,1.27,0,0,1,.42.31,1.38,1.38,0,0,1,.26.46,1.7,1.7,0,0,1,.1.57,1.74,1.74,0,0,1-.1.56,1.43,1.43,0,0,1-.26.45,1.15,1.15,0,0,1-.42.3,1.53,1.53,0,0,1-1.14,0,1.08,1.08,0,0,1-.42-.3,1.29,1.29,0,0,1-.27-.45,1.73,1.73,0,0,1-.09-.56,1.7,1.7,0,0,1,.09-.57m.55.9a1.18,1.18,0,0,0,.13.3A.93.93,0,0,0,57,92a1,1,0,0,0,.35.08.71.71,0,0,0,.34-.08.83.83,0,0,0,.24-.21.9.9,0,0,0,.12-.3,1.26,1.26,0,0,0,0-.33,1.34,1.34,0,0,0,0-.35,1,1,0,0,0-.12-.3.69.69,0,0,0-.58-.29.67.67,0,0,0-.35.08.66.66,0,0,0-.23.21,1.18,1.18,0,0,0-.13.3,2,2,0,0,0,0,.35,1.84,1.84,0,0,0,0,.33" transform="translate(43.82 9.3)"></path><path class="cls-4" d="M63.06,92.28a1.25,1.25,0,0,1-.86.27,1.27,1.27,0,0,1-.86-.27,1.07,1.07,0,0,1-.3-.83v-1.7h.6v1.7a1.5,1.5,0,0,0,0,.22.41.41,0,0,0,.25.32.6.6,0,0,0,.29.06.59.59,0,0,0,.45-.15.69.69,0,0,0,.12-.45v-1.7h.61v1.7a1,1,0,0,1-.32.83" transform="translate(43.82 9.3)"></path><polygon class="cls-4" points="110.48 99.05 111.12 100.93 111.13 100.93 111.73 99.05 112.58 99.05 112.58 101.79 112.02 101.79 112.02 99.84 112.01 99.84 111.33 101.79 110.87 101.79 110.2 99.86 110.19 99.86 110.19 101.79 109.63 101.79 109.63 99.05 110.48 99.05"></polygon><path class="cls-4" d="M73.23,92.28a1.52,1.52,0,0,1-1.73,0,1.07,1.07,0,0,1-.3-.83v-1.7h.6v1.7a1.5,1.5,0,0,0,0,.22.41.41,0,0,0,.25.32.64.64,0,0,0,.3.06.54.54,0,0,0,.44-.15.64.64,0,0,0,.13-.45v-1.7h.6v1.7a1.07,1.07,0,0,1-.31.83" transform="translate(43.82 9.3)"></path><polygon class="cls-4" points="119.58 99.55 119.58 99.05 121.82 99.05 121.82 99.55 121 99.55 121 101.79 120.4 101.79 120.4 99.55 119.58 99.55"></polygon><polygon class="cls-4" points="126.11 99.05 126.11 99.55 124.66 99.55 124.66 100.14 125.99 100.14 125.99 100.61 124.66 100.61 124.66 101.28 126.14 101.28 126.14 101.79 124.06 101.79 124.06 99.05 126.11 99.05"></polygon><polygon class="cls-4" points="129.06 99.05 130.21 100.89 130.22 100.89 130.22 99.05 130.78 99.05 130.78 101.79 130.18 101.79 129.04 99.95 129.03 99.95 129.03 101.79 128.46 101.79 128.46 99.05 129.06 99.05"></polygon><path class="cls-2" d="M80.85,121.94a14,14,0,0,0-.23-2.85h3.43a14.46,14.46,0,0,0-.22,2.85h9.68a19.87,19.87,0,0,0,3.63-.23v3.11a30.65,30.65,0,0,0-3.63-.19H83.83v2.75h8.71a22.19,22.19,0,0,0,2.92-.13,22.33,22.33,0,0,0-.13,2.82v15.26c0,2.59-.85,3.24-4.25,3.24-.81,0-2,0-3.17-.1a8.27,8.27,0,0,0-.71-2.92,24.68,24.68,0,0,0,3.62.3c1.3,0,1.59-.17,1.59-.85V130H72.88v15.45a21.67,21.67,0,0,0,.16,3.5H69.77a26,26,0,0,0,.19-3.66V130.07a23.66,23.66,0,0,0-.13-2.82,26.12,26.12,0,0,0,3,.13h8v-2.75H71.68a27.55,27.55,0,0,0-3.56.19v-3.11a22,22,0,0,0,3.56.23Zm-2.56,12.31a17.28,17.28,0,0,0-1.72-3.11L79,130.2a29.29,29.29,0,0,1,2,4.05H83.5a17.74,17.74,0,0,0,2.14-4l2.75.68a21.84,21.84,0,0,1-2,3.34h1.65a20.52,20.52,0,0,0,2.82-.13v2.69a23.56,23.56,0,0,0-2.85-.13H83.63v2.82h4.21a20.61,20.61,0,0,0,2.79-.13v2.69a22,22,0,0,0-2.82-.13H83.63v2.36a30,30,0,0,0,.16,3.79H80.68a30.32,30.32,0,0,0,.17-3.79v-2.36H77.48a24.2,24.2,0,0,0-3,.13v-2.69a25,25,0,0,0,3,.13h3.31v-2.82h-4a17.94,17.94,0,0,0-2.59.13v-2.69a21,21,0,0,0,2.85.13Z" transform="translate(43.82 9.3)"></path><path class="cls-2" d="M117.13,130.07a23,23,0,0,0,4.47,8.75,21.9,21.9,0,0,0,9.33,6.73,11.36,11.36,0,0,0-2,3.11,26.7,26.7,0,0,1-8.45-6.44,24.72,24.72,0,0,1-4.7-8.17,20.13,20.13,0,0,1-5.77,9.82,24,24,0,0,1-7.42,4.83,8.66,8.66,0,0,0-1.91-2.85,21,21,0,0,0,8.72-5.9c2.27-2.66,3.43-5.57,4-9.88h-8.09a22,22,0,0,0-3.89.23v-3.47a23.46,23.46,0,0,0,3.92.23h8.36c.06-1.59.09-2.4.09-3.66a21,21,0,0,0-.22-3.57h3.62a21.28,21.28,0,0,0-.22,3.66c0,1.53,0,2.34-.1,3.57h9.07a23.85,23.85,0,0,0,3.89-.23v3.47a23.83,23.83,0,0,0-3.86-.23Z" transform="translate(43.82 9.3)"></path><path class="cls-2" d="M135.24,123c0-1,0-1.92-.1-2.82a19.07,19.07,0,0,0,2.11.09h5.34a11.35,11.35,0,0,0,2.11-.13l1.43,2a10.14,10.14,0,0,0-.62,1.46,43.87,43.87,0,0,1-3,6.57c1.92,2.66,2.69,4.64,2.69,6.9,0,2-.71,3.28-2.07,3.79a7.07,7.07,0,0,1-2.62.36l-1,0a5.91,5.91,0,0,0-.62-2.79,18.31,18.31,0,0,0,2.17.16c1.17,0,1.49-.35,1.49-1.58a6.68,6.68,0,0,0-.42-2.3,10.14,10.14,0,0,0-2.72-4.25,30.49,30.49,0,0,0,3.44-7.58h-4.67v22.84a24.23,24.23,0,0,0,.16,3.18h-3.2a24.11,24.11,0,0,0,.19-3.44Zm14.48,7.71c-.26,5.24-.71,8-1.78,10.91a19.39,19.39,0,0,1-4.8,7.32,7.63,7.63,0,0,0-2.36-2,14.57,14.57,0,0,0,4.66-6.67c1-2.79,1.56-8.52,1.56-15.65,0-1.91,0-2.88-.13-4,1.17.09,2.36.16,3.69.16h9.27a25.34,25.34,0,0,0,3.43-.2v3a24.27,24.27,0,0,0-3.37-.16H149.82v2.49c0,.81,0,1.26,0,2.2h8.52a12.76,12.76,0,0,0,2.65-.16l1.46,1.56a33.15,33.15,0,0,0-1.1,3.56,43.15,43.15,0,0,1-2.69,6.28c-.29.52-.55.91-1,1.53a19.26,19.26,0,0,0,6.64,5,8.51,8.51,0,0,0-1.62,2.88,24.62,24.62,0,0,1-6.8-5.6,22.53,22.53,0,0,1-7.65,5.76,8.57,8.57,0,0,0-2-2.39,20.1,20.1,0,0,0,7.94-5.64c-2-3.11-2.82-5.57-3.59-10.2Zm3.5,0a20.78,20.78,0,0,0,2.72,7.83,25.37,25.37,0,0,0,3.11-7.83Z" transform="translate(43.82 9.3)"></path><path class="cls-2" d="M180,122.1a15.91,15.91,0,0,0-.19-2.82h3.47a12.25,12.25,0,0,0-.2,2.82v1.56h9.1a23.81,23.81,0,0,0,3.73-.23v3.17a28.41,28.41,0,0,0-3.73-.19h-9.1V131h4.37a14.56,14.56,0,0,0,2.79-.17l1.85,1.85a18.74,18.74,0,0,0-1.33,1.85,30.55,30.55,0,0,1-6.25,6.87,32.37,32.37,0,0,0,12,4.21A11.46,11.46,0,0,0,195,148.7a35.22,35.22,0,0,1-13-5.45,36.18,36.18,0,0,1-13.22,5.35,12,12,0,0,0-1.52-2.92,32.89,32.89,0,0,0,12.31-4.24,22.78,22.78,0,0,1-6.22-7.87,28.62,28.62,0,0,0-3.34.19v-3a27.5,27.5,0,0,0,3.73.2H180v-4.57h-8.61a28.63,28.63,0,0,0-3.7.19v-3.17a23.65,23.65,0,0,0,3.7.23H180Zm-3.4,11.47a17.51,17.51,0,0,0,5.44,6.19,21.89,21.89,0,0,0,5.74-6.19Z" transform="translate(43.82 9.3)"></path><path class="cls-2" d="M214,121.13a9.11,9.11,0,0,0-.19-2.07h3.3a9,9,0,0,0-.16,2.1v1.26h8.42a27.88,27.88,0,0,0,3.89-.19v3a36.61,36.61,0,0,0-3.85-.17H205.83c0,14-.74,18.69-3.69,23.59a10.25,10.25,0,0,0-2.43-2.27c2.53-3.89,3.21-8.1,3.21-19.79,0-2.34,0-3.31-.13-4.38,1.1.1,2.26.16,3.66.16H214Zm1.17,7.94A16.41,16.41,0,0,0,215,126h3.11a20.67,20.67,0,0,0-.13,3.08v.84h7a20.39,20.39,0,0,0,3.37-.2v3a23,23,0,0,0-3.27-.2H218v4.09h6a23.58,23.58,0,0,0,2.82-.13,28.49,28.49,0,0,0-.13,3.14v5.15a24.85,24.85,0,0,0,.2,4.08h-3.08V147.4H211v1.49H207.9a28.51,28.51,0,0,0,.2-3.95v-5.61a22.16,22.16,0,0,0-.13-2.81,23.58,23.58,0,0,0,2.82.13h4.34ZM211,144.78h12.8v-5.51H211Z" transform="translate(43.82 9.3)"></path><path class="cls-3" d="M71,170.63a27.05,27.05,0,0,0-3.31.17v-2.4a41.84,41.84,0,0,1-3.88,2.11A8.36,8.36,0,0,0,62,167.69a33.89,33.89,0,0,0,7.94-4.54,23.68,23.68,0,0,0,5.37-6h3.47a23.79,23.79,0,0,0,6,6.06,31.23,31.23,0,0,0,8,4.31,11.65,11.65,0,0,0-1.82,3.07,37.55,37.55,0,0,1-4.31-2.39v2.56a23,23,0,0,0-3.27-.17H78.51v4.18h5.54a22.34,22.34,0,0,0,3.37-.16v3a27.56,27.56,0,0,0-3.37-.17H78.51v5h9a31.82,31.82,0,0,0,3.92-.19v3.2a27.17,27.17,0,0,0-3.89-.22H66.92a25.92,25.92,0,0,0-3.83.22v-3.2a29.89,29.89,0,0,0,3.89.19H75.5v-5h-5a26.57,26.57,0,0,0-3.31.17v-3a22.83,22.83,0,0,0,3.31.16h5v-4.18Zm12.47-2.72c1,0,1.75,0,2.43-.09a40,40,0,0,1-4.11-3,25.53,25.53,0,0,1-4.7-5,28.74,28.74,0,0,1-8.55,8.1c.9.06,1.26.06,2.26.06Z" transform="translate(43.82 9.3)"></path><path class="cls-3" d="M105.05,184.08a27.37,27.37,0,0,0-4,.16A14.4,14.4,0,0,1,106.34,174a47.3,47.3,0,0,1,5.19-3.79c3.07-2.07,4-3.27,4-5.24,0-2.24-1.85-3.63-4.76-3.63a5,5,0,0,0-4.41,2,6.62,6.62,0,0,0-1,3.11l-3.86-.52a9.51,9.51,0,0,1,2.17-5c1.52-1.78,3.95-2.72,7-2.72,5.38,0,8.72,2.62,8.72,6.83,0,2.46-.94,4.18-3.28,6-1,.75-1.45,1.07-4.34,3-3.63,2.43-5.25,4.27-6.09,6.8h9.66a31.85,31.85,0,0,0,4.4-.23v3.66c-1.42-.13-2.65-.19-4.53-.19Z" transform="translate(43.82 9.3)"></path><path class="cls-3" d="M155.58,177.53a53.41,53.41,0,0,1-4.4,3.57,21,21,0,0,0,7.55,2.69,8.17,8.17,0,0,0-1.79,2.75c-4.47-1.3-7.22-2.72-10-5.18v2.52c-2.95.75-4.15,1-11.47,2.37-.52.1-.65.13-1.2.26l-.55-3.11.45,0a29.67,29.67,0,0,0,3.63-.39v-6.93H134c-.65,4.7-1.52,7.35-3.43,10.56a13,13,0,0,0-2.43-2.4,17.16,17.16,0,0,0,2.59-6.48,81.79,81.79,0,0,0,1-15.06,45.41,45.41,0,0,0-.17-5,34,34,0,0,0,4.12.17h17.33a34.55,34.55,0,0,0,3.59-.13c-.06.87-.09,1.55-.09,2.72v2.39c0,1.27,0,1.92.09,2.66-1.29-.06-2.17-.1-3.4-.1H151v2.63h2.26a21.34,21.34,0,0,0,3.11-.13v2.72a27.82,27.82,0,0,0-3.14-.13H151v3.08h3.23a31.66,31.66,0,0,0,3.6-.16v2.78c-1.1-.1-2.17-.16-3.53-.16h-1Zm-15.64-11.92v-.13h-5.32c0,3.89-.09,5.67-.32,8.17h5.64v-3.08h-1.53a23.25,23.25,0,0,0-2.85.13V168a21,21,0,0,0,2.85.13h1.53Zm13.86-2.46v-2.72H134.66v2.72Zm-13.12,13v6.48a55,55,0,0,0,6.25-1.27,13.88,13.88,0,0,1-3.66-5.21Zm7.55-8v-2.63h-5.51v2.63Zm0,5.54v-3.08h-5.51v3.08Zm-2,2.46a9.14,9.14,0,0,0,2.82,3.5,17.25,17.25,0,0,0,3.85-3.5Z" transform="translate(43.82 9.3)"></path><path class="cls-3" d="M176.71,172.29A30.84,30.84,0,0,1,170,183.72a9.6,9.6,0,0,0-2.69-2,22.21,22.21,0,0,0,6.41-10.46Zm-5.15-3.37a28.76,28.76,0,0,0-3.67.19v-3.27a23.3,23.3,0,0,0,3.73.19h20.7a29.14,29.14,0,0,0,3.73-.19v3.27a30.38,30.38,0,0,0-3.7-.19h-8.58v13.64c0,1.49-.2,2.13-.78,2.59s-1.46.68-3.56.68c-1.33,0-2.72-.07-3.92-.13a8.82,8.82,0,0,0-.75-3A30.25,30.25,0,0,0,179,183c1.53,0,1.69-.07,1.69-.81V168.92Zm21.28-7.19a31.8,31.8,0,0,0-3.73-.2H174.54a34,34,0,0,0-3.66.2v-3.28a28.43,28.43,0,0,0,3.69.2h14.58a29.43,29.43,0,0,0,3.69-.2Zm-2.62,9.49a27.19,27.19,0,0,0,3.91,6.93,21.4,21.4,0,0,0,2.86,3.17,16.87,16.87,0,0,0-2.47,2.3,35.15,35.15,0,0,1-7.06-11.33Z" transform="translate(43.82 9.3)"></path><path class="cls-3" d="M218.56,176.21a19.16,19.16,0,0,1-4.11,3.07,7.76,7.76,0,0,0-1.17-1.52c-1.07.55-4.15,1.91-5.41,2.4-.87.35-1.68.71-1.88.81l-.61-3.21a18.62,18.62,0,0,0,3.79-1.1v-9.14H208a20.35,20.35,0,0,0-2.59.17v-2.95a16,16,0,0,0,2.66.16h1.07v-4.21a25.36,25.36,0,0,0-.2-3.56h3.21a22,22,0,0,0-.19,3.59v4.18h.64a15.43,15.43,0,0,0,2.47-.13v2.88a22.51,22.51,0,0,0-2.43-.13H212v8c.94-.42,1.29-.58,2.3-1.1l0,2a12.86,12.86,0,0,0,4.51-4.31h-1.23a21.08,21.08,0,0,0-3,.16v-2.75a17.07,17.07,0,0,0,3,.16h14a20.14,20.14,0,0,0,3.31-.2v2.76a28.89,28.89,0,0,0-3.31-.13H221.7a15.41,15.41,0,0,1-1.16,1.75H231a28.34,28.34,0,0,0,3.18-.13,10.75,10.75,0,0,0-.16,1.94c-.26,4.37-.78,7.65-1.46,8.88s-1.59,1.58-4,1.58c-.87,0-1.81,0-2.85-.09a7,7,0,0,0-.9-2.89,26.54,26.54,0,0,0,3.82.33c.91,0,1.39-.2,1.59-.59a26,26,0,0,0,1-6.73h-1.59a20,20,0,0,1-3.11,5,29.72,29.72,0,0,1-4.08,3.69,26.27,26.27,0,0,1-2.75,1.72,7.1,7.1,0,0,0-2-2.08,20.92,20.92,0,0,0,5.83-3.79,14.79,14.79,0,0,0,3.34-4.56h-2.46c-2,3.07-4.8,5.44-9,7.48a7.16,7.16,0,0,0-1.78-2.07c3.6-1.49,6.26-3.34,7.78-5.41Zm.94-8.17a25.11,25.11,0,0,0-2.95.13c.07-.87.13-1.78.13-3v-4.51a23.29,23.29,0,0,0-.13-2.91,22.15,22.15,0,0,0,3.21.16h9.07a24.26,24.26,0,0,0,3.43-.16,21.54,21.54,0,0,0-.12,3.11v4.31a24.19,24.19,0,0,0,.12,3c-.71-.06-1.65-.1-2.94-.1Zm0-6.09h9.85V160.2h-9.85Zm0,3.92h9.85v-1.81h-9.85Z" transform="translate(43.82 9.3)"></path></svg> 