<?xml version="1.0" encoding="UTF-8"?> <!-- Generator: Adobe Illustrator 26.0.1, SVG Export Plug-In . SVG Version: 6.00 Build 0) --> <svg xmlns="http://www.w3.org/2000/svg" xmlns:xlink="http://www.w3.org/1999/xlink" version="1.1" id="レイヤー_1" x="0px" y="0px" viewBox="0 0 303.2 215.9" style="enable-background:new 0 0 303.2 215.9;" xml:space="preserve"> <style type="text/css"> .st0{fill:#40220F;} .st1{fill:#0C3258;} .st2{fill:#FFFFFF;} </style> <g> <g> <g> <g> <path class="st0" d="M14.2,22.5c0.6,2.1,1.6,4.2,3,5.9c1.7,2.1,3.6,3.4,6.3,4.6c-0.6,0.7-0.9,1.1-1.4,2.1 c-2.5-1.3-4.2-2.6-5.7-4.4c-1.4-1.6-2.4-3.3-3.2-5.6c-0.7,2.6-1.9,4.8-3.9,6.7c-1.4,1.4-3,2.4-5,3.3C3.9,34.3,3.7,34,3,33.3 c2.7-1.1,4.5-2.3,5.9-4c1.5-1.8,2.3-3.8,2.7-6.7H6.2c-1.3,0-2,0-2.6,0.2v-2.4c0.6,0.1,1.4,0.2,2.7,0.2h5.7 c0-1.1,0.1-1.6,0.1-2.5c0-1.1,0-1.8-0.2-2.4h2.5c-0.1,0.8-0.2,1.2-0.2,2.5c0,1,0,1.6-0.1,2.4h6.2c1.2,0,2,0,2.6-0.2v2.4 c-0.7-0.1-1.5-0.2-2.6-0.2H14.2z"></path> <path class="st0" d="M27.9,17.7c0-0.7,0-1.3-0.1-1.9c0.4,0,0.8,0.1,1.4,0.1h3.6c0.7,0,1.1,0,1.4-0.1l1,1.3 c-0.1,0.2-0.2,0.4-0.4,1c-0.5,1.4-1.1,2.7-2.1,4.5c1.3,1.8,1.8,3.2,1.8,4.7c0,1.3-0.5,2.2-1.4,2.6c-0.4,0.2-1,0.2-1.8,0.2 c-0.1,0-0.1,0-0.7,0c0-0.9-0.1-1.3-0.4-1.9c0.8,0.1,1.1,0.1,1.5,0.1c0.8,0,1-0.2,1-1.1c0-0.5-0.1-1-0.3-1.6 c-0.4-1.1-0.7-1.7-1.9-2.9c1.1-1.8,1.6-2.9,2.3-5.2h-3.2v15.5c0,0.8,0,1.5,0.1,2.2h-2.2c0.1-0.6,0.1-1.3,0.1-2.3V17.7z M37.8,23 c-0.2,3.6-0.5,5.4-1.2,7.4c-0.7,1.9-1.6,3.2-3.3,5c-0.6-0.7-0.9-1-1.6-1.4c1.7-1.5,2.5-2.7,3.2-4.5c0.7-1.9,1.1-5.8,1.1-10.6 c0-1.3,0-2-0.1-2.7c0.8,0.1,1.6,0.1,2.5,0.1h6.3c1,0,1.7,0,2.3-0.1v2.1C46.3,18,45.7,18,44.7,18h-6.9v1.7c0,0.6,0,0.9,0,1.5h5.8 c0.9,0,1.4,0,1.8-0.1l1,1.1c-0.1,0.3-0.1,0.3-0.7,2.4c-0.4,1.1-1.2,3.2-1.8,4.3c-0.2,0.4-0.4,0.6-0.7,1c1.3,1.5,2.5,2.4,4.5,3.4 c-0.5,0.6-0.7,1-1.1,2c-2.1-1.3-3.3-2.3-4.6-3.8c-1.4,1.7-2.8,2.7-5.2,3.9c-0.4-0.7-0.8-1.2-1.3-1.6c2.4-1,3.9-2.1,5.4-3.8 c-1.3-2.1-1.9-3.8-2.4-6.9H37.8z M40.2,23c0.4,2.2,0.9,3.9,1.9,5.3c1-1.6,1.5-2.9,2.1-5.3H40.2z"></path> <path class="st0" d="M51.4,18.5c0.4,0,0.4,0,0.8,0c0.5,0,0.7,0,1.3-0.1c2.6-0.2,7.8-0.5,13-0.7c1.5-0.1,2.2-0.1,2.6-0.2l0.2,2.3 c-0.2,0-0.3,0-0.4,0c-1.2,0-2.8,0.4-4.1,1.1c-3,1.5-4.8,3.9-4.8,6.3c0,1.8,1.1,3.2,3,3.8c1,0.3,2.5,0.6,3.2,0.6 c0.1,0,0.2,0,0.4,0l-0.3,2.5c-0.3,0-0.4-0.1-0.7-0.1c-2.4-0.4-3.7-0.8-5-1.6c-1.9-1.1-2.9-2.9-2.9-5c0-2.1,1-4,2.9-5.8 c0.9-0.8,1.4-1.2,2.6-1.8c-1.5,0.2-2.4,0.3-4.8,0.5c-3.8,0.3-5.7,0.5-6.9,0.7L51.4,18.5z M66.8,25.1c-0.7-1.3-1.2-2.1-1.9-3 l1.4-0.7c0.9,1,1.3,1.6,1.9,2.9L66.8,25.1z M69.1,23.9c-0.6-1.2-1.1-2-1.9-2.9l1.4-0.7c0.8,0.9,1.3,1.6,1.9,2.8L69.1,23.9z"></path> <path class="st0" d="M75.7,20.8c1.7,1,2.5,1.6,3.9,2.9l-1.1,1.7c-1.5-1.5-2.4-2.1-4-3.1L75.7,20.8z M79.8,28.1 c-1.1,3-1.8,4.4-3.4,7.2l-1.8-1.5c1.1-1.2,2.3-3.4,3.6-6.8L79.8,28.1z M76.8,15.4c1.6,1,2.5,1.7,3.8,2.9L79.3,20 c-1.3-1.4-2.1-2.1-3.8-3.2L76.8,15.4z M82.9,21.7c-1,0-1.6,0-2.4,0.1v-2.1c0.7,0.1,1.4,0.1,2.4,0.1h8.8c1.1,0,1.8,0,2.4-0.1v2.1 c-0.7-0.1-1.5-0.1-2.4-0.1H88v4.1h3c0.9,0,1.7,0,2.4-0.1v2c-0.7-0.1-1.5-0.1-2.4-0.1h-3v5h4c1,0,2,0,2.6-0.1v2.1 c-0.7-0.1-1.6-0.1-2.6-0.1h-9.8c-1,0-1.8,0-2.5,0.1v-2.1c0.7,0.1,1.5,0.1,2.5,0.1H86v-5h-2.4c-0.9,0-1.7,0-2.4,0.1v-2 c0.6,0.1,1.4,0.1,2.4,0.1H86v-4.1H82.9z M85,15.2c2.2,1.1,2.9,1.5,4.7,2.8l-1.3,1.6c-1.5-1.3-2.6-2-4.7-3L85,15.2z"></path> <path class="st0" d="M114.8,20.6c-0.6,2.1-1,3.1-1.8,4.6c-0.7,1.3-1.6,2.5-2.6,3.6c2.5,2.1,5.2,3.4,8.8,4.3 c-0.6,0.7-0.9,1.2-1.3,2.1c-3.8-1.2-6.5-2.7-9-5c-1.3,1.1-2.8,2.2-4.4,3c-1.4,0.7-2.6,1.2-4.7,1.9c-0.3-0.8-0.6-1.3-1.2-1.9 c3.9-1.1,6.4-2.3,8.9-4.5c-2.2-2.4-3.5-4.7-4.6-8.2h-1.3c-1.1,0-1.9,0-2.6,0.1v-2.1c0.8,0.1,1.5,0.2,2.6,0.2h6.1v-1.7 c0-0.7,0-1.2-0.2-1.8h2.4c-0.1,0.5-0.2,1.1-0.2,1.8v1.7h6.4c1.1,0,1.9,0,2.7-0.2v2.1c-0.7-0.1-1.5-0.1-2.6-0.1H114.8z M104.9,20.6c0.6,1.8,0.9,2.6,1.7,3.9c0.7,1.1,1.3,2,2.2,2.9c0.9-0.9,1.5-1.9,2.1-3c0.7-1.3,1-2,1.6-3.9H104.9z"></path> <path class="st0" d="M124.3,26c0-0.7,0-1.4,0.1-2.6c-0.7,1.2-1.1,1.8-1.9,2.7c-0.4-1-0.5-1.3-0.9-2.1c1.7-1.8,2.9-3.7,3.8-6.1 c0.5-1.2,0.8-2.2,0.9-2.9l2.1,0.6c-0.5,1.5-1.2,3.2-2,4.8v12.2c0,1,0,1.7,0.1,2.6h-2.3c0.1-0.8,0.2-1.5,0.2-2.6V26z M130.3,21.5 c-0.9,0-1.7,0-2.4,0.1v-2.1c0.6,0.1,1.3,0.1,2.4,0.1h8.6c1,0,1.8,0,2.5-0.1v2.1c-0.7-0.1-1.5-0.1-2.5-0.1h-3.5v4.2h2.9 c0.9,0,1.7,0,2.4-0.1v2c-0.7-0.1-1.5-0.1-2.4-0.1h-3v5.1h4.1c1,0,1.9,0,2.6-0.1v2.1c-0.8-0.1-1.6-0.1-2.6-0.1h-9.9 c-1,0-1.8,0-2.5,0.1v-2.1c0.7,0.1,1.5,0.1,2.5,0.1h3.9v-5.1h-2.5c-0.9,0-1.7,0-2.3,0.1v-2c0.7,0.1,1.4,0.1,2.3,0.1h2.5v-4.2 H130.3z M132.5,15.2c1.8,0.9,2.4,1.2,4.5,2.7l-1.5,1.5c-1.5-1.3-2.2-1.8-4.5-2.9L132.5,15.2z"></path> <path class="st0" d="M153.1,23.9c-2.2,0.4-3.3,0.6-5.6,0.9c-0.3-0.9-0.6-1.4-0.9-1.9c3.4-0.3,6.8-0.9,10-1.7 c2.1-0.5,3.1-0.9,3.9-1.4l1.7,1.7c-0.5,0.1-0.6,0.2-1.4,0.4c-1.8,0.6-4,1.2-5.6,1.5v2.7l7.7-0.9c0.9-0.1,1.7-0.2,2.3-0.4 l0.2,2.1c-0.2,0-0.3,0-0.3,0c-0.4,0-1.4,0.1-2,0.1l-7.9,0.9v4c0,0.6,0.1,0.7,0.6,0.8c0.4,0.1,1.5,0.2,3,0.2 c2.2,0,3.4-0.1,3.8-0.4c0.4-0.3,0.6-0.9,0.6-3c0.9,0.5,1,0.5,2,0.7c-0.1,1.6-0.2,2.3-0.6,2.9c-0.7,1.4-1.6,1.7-6.2,1.7 c-2.6,0-3.8-0.1-4.5-0.5c-0.6-0.3-0.8-0.8-0.8-1.9v-4.3l-4.9,0.6c-1,0.1-1.6,0.2-2.3,0.4l-0.2-2.1c0.2,0,0.3,0,0.4,0 c0.4,0,1.4-0.1,1.9-0.1l5.1-0.6V23.9z M154.2,16.5c0-0.5,0-0.8-0.1-1.3h2.3c-0.1,0.5-0.1,0.8-0.1,1.3v0.8h6.3 c1.1,0,1.6,0,2.3-0.1c-0.1,0.4-0.1,0.9-0.1,1.6v1.6c0,0.7,0,1.2,0.1,1.7h-2v-2.9h-14.7v2.9h-2c0.1-0.6,0.1-0.9,0.1-1.7v-1.6 c0-0.7,0-1.1-0.1-1.6c0.7,0.1,1.3,0.1,2.4,0.1h5.7V16.5z"></path> <path class="st0" d="M175.8,18.3c0.6-1.4,0.9-2.1,0.9-2.8l2.4,0.3c-0.1,0.2-0.2,0.3-0.3,0.5c-0.2,0.6-0.2,0.6-0.7,1.6 c-0.1,0.1-0.1,0.3-0.2,0.4c0.1,0,0.1,0,0.2,0c0,0,0.1,0,0.1,0c0.1,0,0.5,0,1.1-0.1c2.4-0.1,4.7-0.4,5.9-0.7l0.1,2.1 c-0.5,0-0.5,0-1.7,0.2c-1.5,0.2-4.4,0.4-6.5,0.4c-0.8,1.5-1.5,2.5-2.4,3.4l0,0c0.2-0.1,0.2-0.1,0.5-0.4c1-0.7,2.2-1.1,3.3-1.1 c0.8,0,1.6,0.3,2.1,0.7c0.5,0.4,0.7,0.9,0.9,1.7c1.8-0.7,3-1.1,3.6-1.3c1.1-0.4,1.2-0.4,1.6-0.6l0.9,2.1 c-1.2,0.2-2.7,0.7-5.8,1.8c0,0.8,0,0.8,0,1.2c0,0.3,0,0.7,0,1c0,0.4,0,0.6,0,0.8c0,0.4,0,0.7,0.1,1.1l-2.1,0 c0.1-0.4,0.1-1.7,0.1-2.9c0-0.1,0-0.3,0-0.5c-2.7,1.2-3.7,2.1-3.7,3.3c0,1.3,1.1,1.8,4.2,1.8c2.3,0,4.7-0.4,6.1-0.9l0.2,2.4 c-0.4,0-0.5,0-1,0.1c-1.6,0.2-3.7,0.4-5.5,0.4c-2.2,0-3.7-0.3-4.8-0.9c-1-0.6-1.5-1.5-1.5-2.7c0-2,1.8-3.8,5.6-5.4 c-0.1-0.9-0.6-1.4-1.5-1.4c-1.3,0-3,0.8-4.7,2.3c-0.9,0.7-1.4,1.3-1.8,1.9l-1.7-1.7c1-0.8,2.4-2.3,3.5-4 c0.3-0.4,0.7-1.2,1.4-2.2c-0.1,0-0.4,0-0.4,0l-2.1,0c-0.6,0-1,0-1.3,0c-0.1,0-0.1,0-0.1,0c-0.1,0-0.2,0-0.3,0l0-2.1 c1.1,0.2,2.3,0.3,4.3,0.3H175.8z"></path> <path class="st0" d="M197.2,22.4c1,0,1.3,0,1.7-0.1c0,0.3-0.1,0.5-0.1,0.8c-0.3,2.8-0.8,4.9-1.8,7c2,2.1,4,2.7,8.5,2.7 c2.4,0,4.9-0.1,7-0.3c-0.4,0.9-0.4,1.1-0.6,2.1c-1.7,0-4.4,0.1-6.3,0.1c-5.1,0-7.3-0.7-9.6-3c-0.9,1.5-1.6,2.3-2.9,3.5 c-0.4-0.6-0.7-1-1.3-1.7c1.5-1.3,2.2-2.1,3-3.4c-0.4-0.6-0.7-1.2-1.1-1.9c-0.7-1.4-0.7-1.4-1-2l1.7-0.8c0.4,1.3,0.7,2,1.2,3 c0.6-1.3,0.8-2.2,1.1-4.3h-2c-0.6,0-1.3,0-1.9,0.1c1.7-2.7,2.6-4.4,3.4-6.3H194c-0.6,0-1,0-1.5,0.1v-2c0.5,0.1,0.9,0.1,1.6,0.1 h2.2c0.8,0,1.3,0,1.6-0.1l0.9,1.2c-0.2,0.2-0.2,0.3-0.5,1c-0.6,1.2-1.5,2.9-2.2,4.1H197.2z M204,18.1h-2.7c-0.6,0-1.1,0-1.6,0.1 v-1.7c0.5,0.1,0.9,0.1,1.7,0.1h2.6c0-0.8,0-1-0.1-1.5h2c-0.1,0.5-0.1,0.8-0.1,1.5h3.3c0.7,0,1.2,0,1.7-0.1 c0,0.6-0.1,0.8-0.1,1.4v1.6c0.7,0,1.1,0,1.7-0.1v1.7c-0.5-0.1-0.9-0.1-1.7-0.1v1.7c0,0.5,0,1,0.1,1.3c-0.6,0-1,0-1.5,0h-3.5v1.5 h3.5c0.8,0,1.3,0,1.9-0.1v1.7c-0.6-0.1-1.1-0.1-1.9-0.1h-3.5v1.5h4.3c0.9,0,1.5,0,2-0.1v1.8c-0.5-0.1-1.1-0.1-2-0.1h-4.3v0.2 c0,0.9,0,1.5,0.1,2h-2c0.1-0.6,0.1-1.1,0.1-2v-0.2h-3.3c-0.9,0-1.4,0-1.9,0.1v-1.8c0.5,0.1,1.1,0.1,1.9,0.1h3.3v-1.5h-2.8 c-0.6,0-1.3,0-1.8,0.1v-1.7c0.6,0.1,1,0.1,1.8,0.1h2.8V24h-2.8c-0.6,0-1,0-1.5,0.1v-1.7c0.5,0.1,0.8,0.1,1.6,0.1h2.7V21h-3.5 c-0.9,0-1.4,0-1.9,0.1v-1.7c0.6,0.1,0.9,0.1,2,0.1h3.5V18.1z M208.9,19.5v-1.4h-3.2v1.4H208.9z M205.8,22.5h3.2V21h-3.2V22.5z"></path> <path class="st0" d="M216.8,18.6c0.4,0,0.4,0,0.8,0c0.5,0,0.7,0,1.3-0.1c2.6-0.2,7.8-0.5,13-0.7c1.5-0.1,2.2-0.1,2.6-0.2 l0.2,2.3c-0.2,0-0.3,0-0.4,0c-1.2,0-2.8,0.4-4.1,1.1c-3,1.5-4.8,3.9-4.8,6.3c0,1.8,1.1,3.2,3,3.8c1,0.3,2.5,0.6,3.2,0.6 c0.1,0,0.2,0,0.4,0l-0.3,2.5c-0.3,0-0.4-0.1-0.7-0.1c-2.4-0.4-3.7-0.7-5-1.5c-1.9-1.1-2.9-2.9-2.9-5c0-2.1,1-4.1,2.9-5.8 c0.9-0.8,1.4-1.2,2.6-1.8c-1.5,0.2-2.4,0.3-4.8,0.5c-3.8,0.3-5.7,0.4-6.9,0.7L216.8,18.6z"></path> <path class="st0" d="M241.1,16.8c0.7,0.1,1.1,0.1,2.3,0.1c2,0,4.6-0.1,6.8-0.3c0.7,0,0.9-0.1,1.2-0.3l1.2,1.7 c-0.3,0.2-0.5,0.3-1.1,0.9c-3.1,2.9-5.5,4.9-7,5.8l0,0.1c1.9-0.9,3.2-1.2,5-1.2c3.7,0,6.1,1.9,6.1,4.8c0,2-1,3.7-3,4.7 c-1.4,0.8-3.2,1.2-5.2,1.2c-1.8,0-3.2-0.3-4.1-0.9c-0.8-0.6-1.3-1.5-1.3-2.5c0-1.7,1.5-2.9,3.5-2.9c1.5,0,2.9,0.7,3.7,1.8 c0.4,0.6,0.7,1.1,1,2c0.7-0.2,1.2-0.5,1.7-0.8c0.9-0.6,1.3-1.6,1.3-2.6c0-1.9-1.7-3.1-4.5-3.1c-3.2,0-6.6,1.4-9.2,3.7l-1.3-2 c2-1.1,7.2-5.3,10-8.2c0.1-0.1,0.3-0.3,0.4-0.4l0,0c-0.8,0.1-3.2,0.3-6.5,0.4c-0.5,0-0.7,0-1.1,0.1L241.1,16.8z M245.6,29.8 c-0.9,0-1.5,0.4-1.5,1.1c0,1,1.1,1.6,3,1.6c0.4,0,0.6,0,1.3-0.1C248,30.7,247,29.8,245.6,29.8z"></path> <path class="st0" d="M268.6,15.8c-0.1,0.4-0.1,0.4-0.4,1.4c-0.2,0.7-0.3,1.2-0.5,2.1c1.6-0.2,2.8-0.4,3.7-0.7l0.1,2.1 c-0.3,0-0.3,0-0.7,0.1c-0.8,0.2-2.1,0.3-3.5,0.4c-0.7,2.2-1.5,4.4-2.4,6.4c-0.5,1.1-0.7,1.5-1.6,3c-0.2,0.3-0.3,0.6-0.4,0.8 l-2.1-1.2c0.8-1,1.4-2,2.1-3.5c0.9-1.8,1.7-3.7,2.1-5.4c-0.5,0-0.7,0-1.3,0c-0.6,0-0.6,0-1.5,0c-0.1,0-0.2,0-0.8,0v-2.1 c0.8,0.1,1.5,0.2,2.8,0.2c0.6,0,1,0,1.3,0c0.4-1.4,0.7-3,0.7-3.9L268.6,15.8z M278.7,33.3c-0.8-1-2.1-2-3.5-2.8 c0,0.2,0,0.3,0,0.5c0,0.8-0.3,1.7-0.8,2.3c-0.7,0.8-2,1.3-3.6,1.3c-2.8,0-4.6-1.3-4.6-3.4c0-2.2,1.9-3.7,4.6-3.7 c0.7,0,1.3,0.1,2.2,0.2c-0.1-1.1-0.1-2-0.1-2.8s0-1.3,0.2-2.1l2.1,0.2c-0.2,0.8-0.3,1.3-0.3,2.1c0,0.9,0.1,1.9,0.2,3.2 c1.6,0.7,2.3,1.1,3.6,2.1c0.5,0.4,0.5,0.4,0.7,0.6c0.2,0.2,0.2,0.2,0.3,0.3L278.7,33.3z M270.9,29.4c-1.6,0-2.6,0.7-2.6,1.7 c0,1,0.9,1.6,2.4,1.6c1.6,0,2.4-0.7,2.4-2c0-0.2,0-0.8,0-0.8C272.3,29.5,271.7,29.4,270.9,29.4z M278.8,23.3 c-1.9-1.3-3.7-2.2-6.1-3.1l1.1-1.7c2.6,1,4.2,1.7,6.1,2.9L278.8,23.3z"></path> <path class="st0" d="M288.4,20c-0.3,1.2-0.6,3-1,5.7c-0.1,0.4-0.1,0.5-0.2,0.8c1.4-1.4,4.2-2.3,6.9-2.3c3.7,0,6.1,1.8,6.1,4.5 c0,1.6-0.8,3.2-2.2,4.1c-1.5,1-3.3,1.5-5.7,1.5c-1.9,0-3.1-0.2-5.6-0.8c0-1.1,0-1.5-0.2-2.4c2,0.7,3.9,1.1,5.8,1.1 c3.3,0,5.5-1.4,5.5-3.4c0-1.6-1.5-2.6-3.9-2.6c-2.7,0-5.5,1.1-6.7,2.6l-2.4-0.1c0.1-0.4,0.1-0.5,0.2-1.3 c0.2-1.6,0.5-3.6,0.9-6.3c0.1-0.5,0.1-0.8,0.2-1.2L288.4,20z M289,15.9c1.4,0.8,5.5,2.1,7.9,2.4l-0.8,2.1 c-3.9-0.9-5.6-1.5-8.2-2.7L289,15.9z"></path> </g> </g> <g> <g> <path class="st1" d="M101.6,65.9c-0.6,0-1.2,0.1-2,0.2v-2.4c0.7,0.1,1.4,0.2,2,0.2h26.2c-0.7,8.8-5,13.3-14,14.9 c-0.8,5.2-4.4,8.7-11,10.8c-0.9,0.3-1.2,0.4-1.6,0.7l-0.8-2.1c1.2,0.1,3.1-0.7,5.4-2.2c3.3-2.2,5-5.3,5-9.2v-5.1 c0-0.6-0.1-1.2-0.2-2h3.5c-0.1,0.7-0.2,1.4-0.2,2V77c6-1.5,9.4-5.2,10.2-11.2H101.6z"></path> <path class="st1" d="M134.8,77c3.4-0.3,10.2-3.2,13.9-5.9c3.8-2.5,8.5-7.2,9.4-9.4l2.8,2.4c-0.3,0.3-0.8,0.7-1.4,1.4 c-2.8,3-5.1,5-7.4,6.6v16.5c0,0.6,0.1,1.3,0.2,2h-3.6c0.2-1.1,0.2-1.3,0.2-2V74c-3.4,1.8-7.1,3.2-11.8,4.4 c-0.8,0.2-1.2,0.3-1.7,0.6L134.8,77z"></path> <path class="st1" d="M185.7,87.4h11.6c0.8,0,0.9,0,2.3-0.2v2.2l-0.4,0l-0.5-0.1c-0.4,0-0.8-0.1-1.4-0.1h-26.5 c-0.9,0-1.2,0-2.4,0.2v-2.2c1.4,0.2,1.6,0.2,2.4,0.2h11.4V65.8h-9.4c-0.5,0-0.9,0-1.3,0.1l-0.7,0.1l-0.3,0v-2.2 c1.1,0.1,1.5,0.2,2.3,0.2h22.6c0.8,0,1.3,0,2.4-0.2V66l-0.2,0l-0.7-0.1c-0.5-0.1-0.9-0.1-1.5-0.1h-9.7V87.4z"></path> <path class="st1" d="M235.2,65.1c-1,2.7-2,4.6-3.9,6.6c1.5,1,3.4,1.8,5.8,2.5l1.8,0.4l-1.7,2.9l-1.4-0.7c-2.6-1-4.6-2.1-6.3-3.5 c-1.9,1.5-4.2,2.6-7.1,3.6l-1,0.6l-1-1.7c-0.6,1.4-1.1,2.3-1.9,3.6l-0.5,1.3l-1.7-0.8l0.7-1.2c0.9-3.2,0.9-3.4,1.2-4.7h-2.6 v15.6c0,1.3-0.6,2-1.7,2c-0.9,0-1.8-0.2-3.8-0.6l-1.6-0.2l-0.2-1.8c1.8,0.2,2.8,0.2,3.7,0.2c0.6,0,0.8-0.1,0.8-0.7V78.4 c-1.3,2.8-3.1,5.2-5.5,7.8l-0.9,1.2l-1.5-1.3l1.1-1.1c2.3-3,4.2-6.7,5.5-11h-3.2c-0.8,0-1.2,0-2.3,0.2v-2.1 c1.1,0.1,1.5,0.2,2.3,0.2h6.2l-0.2-0.4c-2-2-3.6-3.6-5.1-4.8l-1.1-0.7l1.3-1.4l0.9,0.8c0.8,0.5,2.4,1.5,3.1,1.9 c1.4-1.7,2.6-3.4,3.3-4.7H209c-0.9,0-1.2,0-2.4,0.2v-2.1c1.1,0.1,1.6,0.2,2.4,0.2h8.3c2.3,0,2.7,0,3.6-0.1v1.4 c-2,2.3-3.9,4.3-6.1,6.2l0.4,0.3l0.4,0.2l0.7,0.5l1.2,0.7l-1.7,1.7h2.3c1.9,0,2.3,0,3.1-0.1v1.4c-0.3,0.9-0.6,1.7-0.9,2.3 l1.4-0.3c2.5-1.2,4.3-2.3,5.9-3.7c-1.5-1.5-2.6-3.2-3.5-5.2c-0.9,1.1-1.5,1.8-2.5,2.7l-1,1l-1.4-1.2l1.1-0.9 c2.2-2.6,3.7-5.2,4.5-7.9l0.3-1.3l3.4,0.8l-0.8,1.3c-0.5,0.9-0.6,1.2-1.2,2.1h9.5c0.8,0,1.3,0,2.3-0.2v2.1l-0.4,0l-0.5-0.1 c-0.4,0-0.8-0.1-1.4-0.1H235.2z M222.5,81c-0.8,0-1.2,0-2.3,0.2v-2.1c1.1,0.1,1.5,0.2,2.3,0.2h4v-0.3l0-0.1 c0-0.4,0.1-1.3,0.1-1.8l-0.1-1.8l3.3,0.1l-0.3,1.7c0,0.5,0,0.9-0.1,1.7l-0.1,0.5h4.6c1.7,0,2.1,0,3.1-0.1v1.3 c-0.4,5.8-0.6,7.7-1.1,9.3c-0.4,1.4-1.1,2-2.3,2c-1.1,0-2.7-0.3-4.5-0.8l-1.7-0.3l-0.2-1.7c1.8,0.2,3.1,0.3,4.4,0.3 c0.9,0,1.2-0.2,1.4-1.1c0.5-1.7,0.8-4.6,0.9-7h-4.9c-1.1,5-3.6,8-8.7,10.4l-1.3,0.7l-1.1-1.7l1.5-0.5c3.8-2.3,5.9-5.2,6.5-8.9 H222.5z M225.3,65.2c1.1,2,2.4,3.7,3.9,5c1.2-1.5,2.1-3.2,2.7-5.1L225.3,65.2L225.3,65.2z"></path> <path class="st1" d="M259.4,61.7c0-0.5,0-0.9-0.1-1.3l-0.1-0.7l0-0.3h3.6c-0.2,1.3-0.2,1.6-0.2,2.3v2.4h10.4 c0.9,0,1.2,0,2.3-0.2V66c-1.2-0.1-1.4-0.2-2.3-0.2h-22.7V74c0,7-1.3,11.7-4.5,16.4l-0.6,1.3l-1.7-1l0.8-1.1 c1.9-4.5,2.7-8.9,2.7-15.6v-7v-0.4c0-1,0-1.5-0.2-2.7c1,0.1,1.5,0.1,2.9,0.1h9.7V61.7z M270.4,79.5c1.3,0,1.7,0,2.9-0.1 c-0.2,1.1-0.2,1.6-0.2,2.9v6.1v0.4V89c0,0.7,0.1,1.5,0.2,2.3c-1.2-0.1-1.5-0.1-2.3-0.1h-0.6h-15.7h-0.5c-0.9,0-1.4,0-2.4,0.1 c0.2-1.2,0.2-1.6,0.2-2.9v-6.1v-0.4c0-0.9,0-1.5-0.2-2.5c1.1,0.1,1.6,0.1,2.9,0.1h5.6V69.3c0-0.6,0-0.8-0.1-1.7L260,67h3.6 c-0.2,1.3-0.2,1.6-0.2,2.3V72h8.9c0.8,0,1.3,0,2.3-0.2V74l-0.4,0l-0.5-0.1c-0.4,0-0.8-0.1-1.4-0.1h-8.9v5.7H270.4z M255.1,81.3 v8.1h14.8v-8.1H255.1z"></path> </g> <g> <g> <rect x="27" y="49.6" class="st1" width="55.1" height="55.1"></rect> </g> <g> <path class="st2" d="M33.4,80.4h2.8l11.1-14.6l11.1,14.6h2.8L47.3,62.1L33.4,80.4z M69.8,80.4h2.2V63.1l-2.2,0V80.4z"></path> </g> <g> <polygon class="st2" points="34,85.5 34,86.9 35.3,85.5 36.2,85.5 34.9,86.8 36.3,88.8 35.4,88.8 34.4,87.3 34,87.7 34,88.8 33.3,88.8 33.3,85.5 "></polygon> </g> <path class="st2" d="M38.9,86.5c0.1-0.2,0.2-0.4,0.3-0.5c0.1-0.2,0.3-0.3,0.5-0.4c0.2-0.1,0.4-0.1,0.7-0.1c0.3,0,0.5,0,0.7,0.1 c0.2,0.1,0.4,0.2,0.5,0.4c0.1,0.2,0.2,0.3,0.3,0.5c0.1,0.2,0.1,0.4,0.1,0.7c0,0.2,0,0.5-0.1,0.7c-0.1,0.2-0.2,0.4-0.3,0.5 c-0.1,0.2-0.3,0.3-0.5,0.4c-0.2,0.1-0.4,0.1-0.7,0.1c-0.2,0-0.5,0-0.7-0.1c-0.2-0.1-0.4-0.2-0.5-0.4c-0.1-0.2-0.2-0.3-0.3-0.5 c-0.1-0.2-0.1-0.4-0.1-0.7C38.8,86.9,38.8,86.7,38.9,86.5 M39.5,87.5c0,0.1,0.1,0.2,0.2,0.3c0.1,0.1,0.2,0.2,0.3,0.2 c0.1,0.1,0.3,0.1,0.4,0.1c0.2,0,0.3,0,0.4-0.1c0.1-0.1,0.2-0.1,0.3-0.2c0.1-0.1,0.1-0.2,0.2-0.3c0-0.1,0-0.3,0.1-0.4 c0-0.1,0-0.3-0.1-0.4c0-0.1-0.1-0.3-0.2-0.4c-0.1-0.1-0.2-0.2-0.3-0.3c-0.1-0.1-0.3-0.1-0.4-0.1c-0.2,0-0.3,0-0.4,0.1 c-0.1,0.1-0.2,0.1-0.3,0.3c-0.1,0.1-0.1,0.2-0.2,0.4c0,0.1,0,0.3,0,0.4C39.5,87.3,39.5,87.4,39.5,87.5"></path> <path class="st2" d="M47.1,88.5c-0.2,0.2-0.6,0.3-1,0.3c-0.4,0-0.8-0.1-1-0.3c-0.2-0.2-0.4-0.5-0.4-1v-2h0.7v2 c0,0.1,0,0.2,0,0.3c0,0.1,0,0.2,0.1,0.2c0,0.1,0.1,0.1,0.2,0.2c0.1,0,0.2,0.1,0.4,0.1c0.3,0,0.4-0.1,0.5-0.2 c0.1-0.1,0.1-0.3,0.1-0.5v-2h0.7v2C47.5,88,47.4,88.3,47.1,88.5"></path> <g> <polygon class="st2" points="51.4,85.5 52.2,87.7 52.2,87.7 52.9,85.5 53.9,85.5 53.9,88.8 53.3,88.8 53.3,86.5 53.2,86.5 52.4,88.8 51.9,88.8 51.1,86.5 51.1,86.5 51.1,88.8 50.4,88.8 50.4,85.5 "></polygon> </g> <path class="st2" d="M59.2,88.5c-0.2,0.2-0.6,0.3-1,0.3c-0.4,0-0.8-0.1-1-0.3c-0.2-0.2-0.4-0.5-0.4-1l0-2h0.7v2 c0,0.1,0,0.2,0,0.3c0,0.1,0,0.2,0.1,0.2c0,0.1,0.1,0.1,0.2,0.2c0.1,0,0.2,0.1,0.3,0.1c0.3,0,0.4-0.1,0.5-0.2 c0.1-0.1,0.1-0.3,0.1-0.5v-2h0.7v2C59.6,88,59.5,88.3,59.2,88.5"></path> <g> <polygon class="st2" points="62.3,86.1 62.3,85.5 64.9,85.5 64.9,86.1 63.9,86.1 63.9,88.8 63.2,88.8 63.2,86.1 "></polygon> </g> <g> <polygon class="st2" points="70,85.5 70,86.1 68.3,86.1 68.3,86.8 69.9,86.8 69.9,87.4 68.3,87.4 68.3,88.2 70.1,88.2 70.1,88.8 67.6,88.8 67.6,85.5 "></polygon> </g> <g> <polygon class="st2" points="73.5,85.5 74.9,87.7 74.9,87.7 74.9,85.5 75.6,85.5 75.6,88.8 74.9,88.8 73.5,86.6 73.5,86.6 73.5,88.8 72.8,88.8 72.8,85.5 "></polygon> </g> </g> </g> <g> <path class="st0" d="M68.3,123.8c0-1.5-0.1-2.4-0.3-3.4h4.1c-0.2,1.1-0.3,1.9-0.3,3.4h11.5c2,0,3.3-0.1,4.3-0.3v3.7 c-1.4-0.2-2.6-0.2-4.3-0.2H71.9v3.3h10.4c1.7,0,2.5,0,3.5-0.2c-0.1,1-0.2,1.9-0.2,3.4v18.2c0,3.1-1,3.9-5.1,3.9 c-1,0-2.4,0-3.8-0.1c-0.1-1.3-0.3-2.2-0.8-3.5c1.5,0.2,3.1,0.3,4.3,0.3c1.5,0,1.9-0.2,1.9-1v-17.9H58.8v18.4c0,2.3,0,3.1,0.2,4.2 h-3.9c0.2-1.2,0.2-2.3,0.2-4.4v-18.1c0-1.4,0-2.3-0.2-3.4c1.1,0.1,2,0.2,3.6,0.2h9.5V127H57.4c-1.7,0-3,0.1-4.2,0.2v-3.7 c1.2,0.2,2.4,0.3,4.2,0.3H68.3z M65.3,138.5c-0.5-1.3-1.1-2.3-2-3.7l2.9-1.1c1.1,1.9,1.6,2.9,2.4,4.8h3c1.2-1.7,1.9-3,2.5-4.8 l3.3,0.8c-0.9,1.8-1.5,2.7-2.4,4h2c1.6,0,2.4,0,3.4-0.2v3.2c-1.1-0.1-1.9-0.2-3.4-0.2h-5.2v3.4h5c1.7,0,2.5,0,3.3-0.2v3.2 c-1-0.1-1.8-0.2-3.4-0.2h-5v2.8c0,2.1,0,3.2,0.2,4.5h-3.7c0.2-1.3,0.2-2.5,0.2-4.5v-2.8h-4c-1.5,0-2.5,0-3.5,0.2v-3.2 c1,0.1,1.8,0.2,3.6,0.2h3.9v-3.4h-4.8c-1.4,0-2.2,0-3.1,0.2v-3.2c0.9,0.1,1.8,0.2,3.4,0.2H65.3z"></path> <path class="st0" d="M111.5,133.5c1,3.7,2.8,7.3,5.3,10.4c3,3.7,6.2,6,11.1,8c-1.1,1.3-1.5,1.9-2.4,3.7 c-4.4-2.3-7.3-4.5-10.1-7.7c-2.4-2.8-4.2-5.9-5.6-9.7c-1.2,4.5-3.4,8.3-6.9,11.7c-2.5,2.4-5.2,4.1-8.8,5.7 c-0.7-1.6-1.1-2.1-2.3-3.4c4.7-1.9,7.8-4,10.4-7c2.7-3.2,4.1-6.6,4.8-11.8h-9.6c-2.3,0-3.4,0.1-4.6,0.3v-4.1 c1.1,0.2,2.5,0.3,4.7,0.3h9.9c0.1-1.9,0.1-2.9,0.1-4.4c0-1.9-0.1-3.2-0.3-4.2h4.3c-0.2,1.3-0.3,2.1-0.3,4.4c0,1.8,0,2.8-0.1,4.2 H122c2.1,0,3.5-0.1,4.6-0.3v4.1c-1.3-0.2-2.5-0.3-4.6-0.3H111.5z"></path> <path class="st0" d="M133,125c0-1.2,0-2.3-0.1-3.4c0.6,0.1,1.4,0.1,2.5,0.1h6.4c1.2,0,1.9,0,2.5-0.2l1.7,2.4 c-0.2,0.3-0.3,0.7-0.7,1.7c-0.8,2.4-1.9,4.7-3.6,7.8c2.3,3.2,3.2,5.5,3.2,8.2c0,2.4-0.8,3.9-2.5,4.5c-0.8,0.3-1.7,0.4-3.1,0.4 c-0.1,0-0.1,0-1.2,0c-0.1-1.6-0.2-2.4-0.7-3.3c1.4,0.2,1.9,0.2,2.6,0.2c1.4,0,1.8-0.4,1.8-1.9c0-0.9-0.2-1.8-0.5-2.7 c-0.6-1.9-1.3-3-3.2-5.1c1.9-3.1,2.8-5,4.1-9h-5.6V152c0,1.5,0,2.5,0.2,3.8h-3.8c0.2-1.1,0.2-2.3,0.2-4.1V125z M150.3,134.2 c-0.3,6.2-0.8,9.5-2.1,13c-1.2,3.3-2.7,5.6-5.7,8.7c-1.1-1.3-1.6-1.7-2.8-2.4c3-2.7,4.4-4.7,5.6-7.9c1.2-3.3,1.9-10.1,1.9-18.6 c0-2.3,0-3.4-0.2-4.8c1.4,0.1,2.8,0.2,4.4,0.2h11c1.7,0,2.9-0.1,4.1-0.2v3.6c-1.2-0.2-2.2-0.2-4-0.2h-12v3c0,1,0,1.5,0,2.6h10.1 c1.6,0,2.5,0,3.2-0.2l1.7,1.9c-0.2,0.6-0.2,0.6-1.3,4.2c-0.6,2-2.2,5.6-3.2,7.5c-0.3,0.6-0.7,1.1-1.2,1.8c2.3,2.6,4.4,4.2,7.9,6 c-0.9,1-1.3,1.8-1.9,3.4c-3.7-2.3-5.9-4-8.1-6.7c-2.5,2.9-4.9,4.7-9.1,6.9c-0.7-1.2-1.4-2-2.4-2.9c4.2-1.8,6.9-3.7,9.4-6.7 c-2.4-3.7-3.4-6.6-4.3-12.1H150.3z M154.4,134.2c0.7,3.9,1.7,6.8,3.2,9.3c1.7-2.8,2.6-5,3.7-9.3H154.4z"></path> <path class="st0" d="M186.4,124c0-1.6-0.1-2.4-0.2-3.4h4.1c-0.2,0.9-0.2,1.7-0.2,3.4v1.9h10.8c1.9,0,3.2-0.1,4.4-0.3v3.8 c-1.1-0.2-2.6-0.2-4.4-0.2H190v5.4h5.2c1.6,0,2.5,0,3.3-0.2l2.2,2.2c-0.4,0.5-0.9,1.2-1.6,2.2c-2,3-4.4,5.7-7.4,8.2 c4.1,2.5,8.5,4,14.3,5c-0.8,1.2-1.3,2.1-1.9,3.7c-6.7-1.6-10.9-3.3-15.5-6.5c-4.9,3.2-9.6,5.1-15.7,6.4c-0.5-1.3-0.9-2.2-1.8-3.5 c5.7-0.9,10.3-2.5,14.7-5.1c-3.4-2.9-5.2-5.2-7.4-9.4c-1.8,0-2.8,0.1-4,0.2v-3.5c1.1,0.2,2.5,0.2,4.4,0.2h7.5v-5.4h-10.3 c-1.9,0-3.2,0.1-4.4,0.2v-3.8c1.2,0.2,2.6,0.3,4.4,0.3h10.3V124z M182.3,137.7c1.5,2.9,3.4,5.1,6.5,7.4c3-2.3,4.7-4.2,6.8-7.4 H182.3z"></path> <path class="st0" d="M226.7,122.9c0-1.1-0.1-1.7-0.2-2.5h3.9c-0.2,0.7-0.2,1.3-0.2,2.5v1.5h10c2.2,0,3.5-0.1,4.6-0.2v3.6 c-1.1-0.1-2.6-0.2-4.6-0.2h-23.2c0,16.7-0.9,22.2-4.4,28.1c-1-1.2-1.4-1.6-2.9-2.7c3-4.6,3.8-9.6,3.8-23.6c0-2.8,0-3.9-0.2-5.2 c1.3,0.1,2.7,0.2,4.4,0.2h8.9V122.9z M228.1,132.3c0-2,0-2.8-0.2-3.7h3.7c-0.1,0.8-0.2,1.6-0.2,3.7v1h8.3c1.9,0,3.1-0.1,4-0.2 v3.6c-1.1-0.2-2.4-0.2-3.9-0.2h-8.4v4.9h7.2c1.5,0,2.4,0,3.4-0.2c-0.1,1.2-0.2,2.2-0.2,3.7v6.1c0,2.3,0,3.7,0.2,4.9h-3.7v-1.8 h-15.2v1.8h-3.7c0.2-1.1,0.2-2.5,0.2-4.7v-6.7c0-1.5,0-2.4-0.2-3.4c1,0.1,1.8,0.2,3.4,0.2h5.2V132.3z M223.2,151h15.2v-6.6h-15.2 V151z"></path> <path class="st1" d="M56.6,181.8c-1.8,0-2.9,0.1-3.9,0.2v-2.9c-2.2,1.3-2.9,1.7-4.6,2.5c-0.5-1.2-1.1-2.2-2.2-3.4 c3.4-1.3,6.9-3.4,9.4-5.4c2.7-2.2,4.7-4.4,6.4-7.1h4.1c2.1,3,4.1,5.1,7.1,7.2c3.2,2.3,6.1,3.9,9.5,5.1c-0.9,1.1-1.5,2.2-2.2,3.7 c-1.9-0.9-2.9-1.5-5.1-2.9v3c-1.2-0.2-2.2-0.2-3.9-0.2h-5.7v5h6.6c1.9,0,3,0,4-0.2v3.6c-1-0.1-2.2-0.2-4-0.2h-6.6v5.9h10.7 c1.9,0,3.5-0.1,4.7-0.2v3.8c-1.3-0.2-2.8-0.3-4.6-0.3H51.7c-1.8,0-3.3,0.1-4.5,0.3v-3.8c1.1,0.2,2.7,0.2,4.6,0.2h10.1V190h-6 c-1.8,0-3,0.1-3.9,0.2v-3.6c1.1,0.2,2.1,0.2,3.9,0.2h6v-5H56.6z M71.4,178.5c1.2,0,2.1,0,2.9-0.1c-1.6-1-3.4-2.3-4.9-3.6 c-2.3-1.9-3.6-3.3-5.6-6c-2.5,3.7-5.4,6.4-10.2,9.6c1.1,0.1,1.5,0.1,2.7,0.1H71.4z"></path> <path class="st1" d="M97.1,197.8c-2.8,0-3.4,0-4.7,0.2c0.3-2.4,0.5-3.6,1.1-5c1-2.6,2.7-5,5.2-7.2c1.3-1.2,2.5-2,6.2-4.5 c3.7-2.5,4.7-3.9,4.7-6.2c0-2.7-2.2-4.3-5.7-4.3c-2.4,0-4.2,0.8-5.2,2.4c-0.7,1-1,1.9-1.2,3.7l-4.6-0.6c0.5-2.7,1.2-4.3,2.6-5.9 c1.8-2.1,4.7-3.2,8.4-3.2c6.4,0,10.4,3.1,10.4,8.1c0,2.9-1.1,5-3.9,7.1c-1.2,0.9-1.7,1.3-5.2,3.6c-4.3,2.9-6.2,5.1-7.2,8.1h11.5 c2.2,0,3.9-0.1,5.2-0.3v4.4c-1.7-0.2-3.2-0.2-5.4-0.2H97.1z"></path> <path class="st1" d="M157.3,190c-3.7,3.1-4.1,3.5-5.2,4.2c2.7,1.6,4.9,2.4,9,3.2c-1,1.1-1.5,1.9-2.1,3.3 c-5.3-1.5-8.6-3.2-11.9-6.2v3c-3.5,0.9-4.9,1.2-13.6,2.8c-0.6,0.1-0.8,0.2-1.4,0.3l-0.7-3.7c0.5,0,0.5,0,0.5,0 c0.8,0,2.2-0.2,4.3-0.5v-8.3h-4.5c-0.8,5.6-1.8,8.8-4.1,12.6c-1.2-1.4-1.8-2-2.9-2.9c1.5-2.4,2.4-4.5,3.1-7.7 c0.8-3.9,1.2-10.1,1.2-17.9c0-3.2,0-4.2-0.2-5.9c1.3,0.2,2.7,0.2,4.9,0.2h20.6c2.1,0,3.2,0,4.3-0.2c-0.1,1-0.1,1.9-0.1,3.2v2.9 c0,1.5,0,2.3,0.1,3.2c-1.5-0.1-2.6-0.1-4-0.1h-2.7v3.1h2.7c2.1,0,2.8,0,3.7-0.2v3.2c-1-0.1-2.3-0.2-3.7-0.2h-2.7v3.7h3.9 c2.1,0,3.3-0.1,4.3-0.2v3.3c-1.3-0.1-2.6-0.2-4.2-0.2h-1.2L157.3,190z M138.6,175.8v-0.2h-6.3c0,4.6-0.1,6.7-0.4,9.7h6.7v-3.7 h-1.8c-1.5,0-2.4,0-3.4,0.2v-3.2c0.9,0.1,1.8,0.2,3.4,0.2h1.8V175.8z M155.1,172.9v-3.2h-22.8v3.2H155.1z M139.5,188.3v7.7 c2.8-0.4,2.8-0.4,7.4-1.5c-2.1-2-3.2-3.5-4.4-6.2H139.5z M148.5,178.8v-3.1h-6.6v3.1H148.5z M148.5,185.4v-3.7h-6.6v3.7H148.5z M146.1,188.3c0.8,1.7,1.7,2.7,3.4,4.2c1.9-1.3,3.2-2.5,4.6-4.2H146.1z"></path> <path class="st1" d="M182.4,183.7c-1.9,5.5-4.5,9.8-8,13.6c-1.4-1.3-1.9-1.7-3.2-2.4c3.4-2.9,6.3-7.7,7.6-12.5L182.4,183.7z M176.3,179.7c-1.9,0-3.1,0.1-4.4,0.2v-3.9c1.3,0.2,2.3,0.2,4.4,0.2H201c1.9,0,3.2-0.1,4.4-0.2v3.9c-1.4-0.2-2.5-0.2-4.4-0.2 h-10.2V196c0,1.8-0.2,2.5-0.9,3.1c-0.7,0.6-1.7,0.8-4.2,0.8c-1.6,0-3.2-0.1-4.7-0.2c-0.2-1.6-0.3-2.3-0.9-3.6 c2,0.3,3.5,0.4,5,0.4c1.8,0,2-0.1,2-1v-15.8H176.3z M201.6,171.2c-1.3-0.2-2.8-0.2-4.4-0.2h-17.3c-1.4,0-3,0.1-4.4,0.2v-3.9 c1.3,0.2,2.5,0.2,4.4,0.2h17.3c1.7,0,3.2-0.1,4.4-0.2V171.2z M198.5,182.5c1.5,3.6,2.7,5.6,4.7,8.3c1.2,1.6,1.9,2.4,3.4,3.8 c-1.1,0.8-1.9,1.6-2.9,2.7c-4-4.5-5.7-7.3-8.4-13.5L198.5,182.5z"></path> <path class="st1" d="M232.2,188.4c-1.5,1.5-2.9,2.5-4.9,3.7c-0.4-0.7-0.6-0.9-1.4-1.8c-1.3,0.7-4.9,2.3-6.4,2.9 c-1,0.4-2,0.8-2.2,1l-0.7-3.8c1.5-0.3,2-0.4,4.5-1.3v-10.9h-1.3c-1.2,0-2.1,0.1-3.1,0.2v-3.5c1,0.2,1.9,0.2,3.2,0.2h1.3v-5 c0-1.9-0.1-3.1-0.2-4.2h3.8c-0.2,1.2-0.2,2.3-0.2,4.3v5h0.8c1.4,0,2.2,0,2.9-0.2v3.4c-1.1-0.1-1.9-0.2-2.9-0.2h-0.8v9.6 c1.1-0.5,1.5-0.7,2.7-1.3l0,2.4c2.5-1.5,4.2-3.2,5.4-5.1H231c-1.6,0-2.7,0.1-3.5,0.2v-3.3c0.8,0.2,1.8,0.2,3.6,0.2h16.7 c1.9,0,3-0.1,3.9-0.2v3.3c-1-0.1-2.2-0.2-3.9-0.2h-11.8c-0.5,0.8-0.7,1.1-1.4,2.1h12.5c1.9,0,2.7,0,3.8-0.2 c-0.1,0.6-0.1,0.7-0.2,2.3c-0.3,5.2-0.9,9.1-1.7,10.6c-0.8,1.4-1.9,1.9-4.7,1.9c-1,0-2.2,0-3.4-0.1c-0.2-1.4-0.4-2.2-1.1-3.4 c1.9,0.3,3.3,0.4,4.5,0.4c1.1,0,1.7-0.2,1.9-0.7c0.5-1.1,1-4.2,1.2-8h-1.9c-1,2.3-2.2,4.3-3.7,6c-1.2,1.3-3.3,3.2-4.9,4.4 c-1,0.7-1.7,1.2-3.3,2c-0.8-1.2-1.2-1.5-2.4-2.5c3.3-1.6,4.9-2.6,6.9-4.5c1.6-1.5,3-3.3,4-5.4h-2.9c-2.3,3.7-5.7,6.5-10.6,8.9 c-0.6-1-1.1-1.6-2.1-2.5c4.3-1.8,7.4-4,9.3-6.4H232.2z M233.3,178.7c-1.5,0-2.7,0-3.5,0.2c0.1-1,0.2-2.1,0.2-3.6v-5.4 c0-1.7,0-2.3-0.2-3.5c1.2,0.2,2.1,0.2,3.8,0.2h10.8c1.9,0,3,0,4.1-0.2c-0.2,1.1-0.2,1.8-0.2,3.7v5.1c0,1.7,0,2.8,0.2,3.6 c-0.8-0.1-2-0.1-3.5-0.1H233.3z M233.3,171.4H245v-2.1h-11.7V171.4z M233.3,176.1H245v-2.2h-11.7V176.1z"></path> </g> </g> </g> </svg> 