<?xml version="1.0" encoding="UTF-8"?> <svg xmlns="http://www.w3.org/2000/svg" id="レイヤー_1" data-name="レイヤー 1" viewBox="0 0 255.42 163.17"><defs><style>.cls-1{fill:#0d335b;}.cls-2{fill:#fff;}.cls-3{font-size:18.45px;letter-spacing:0.09em;}.cls-16,.cls-3{fill:#40220f;font-family:HiraKakuStd-W5-90ms-RKSJ-H, Hiragino Kaku Gothic Std;}.cls-4{letter-spacing:0.08em;}.cls-5{letter-spacing:0.09em;}.cls-6{letter-spacing:0.11em;}.cls-7{letter-spacing:0.06em;}.cls-8{letter-spacing:0.07em;}.cls-9{letter-spacing:0.08em;}.cls-10{letter-spacing:0.06em;}.cls-11{letter-spacing:0.08em;}.cls-12{letter-spacing:-0.02em;}.cls-13{letter-spacing:0.05em;}.cls-14{letter-spacing:0.01em;}.cls-15{letter-spacing:0.1em;}.cls-16{font-size:29.43px;}.cls-17{fill:#0c3258;letter-spacing:0.02em;}.cls-18{letter-spacing:0.1em;}</style></defs><path class="cls-1" d="M105.4,70.6a14.05,14.05,0,0,0-1.8.2V68.6a14.05,14.05,0,0,0,1.8.2h23.8c-.7,8-4.5,12.1-12.7,13.6-.7,4.7-4,7.9-9.9,9.8a6.94,6.94,0,0,0-1.4.6l-.8-1.9c1.1.1,2.8-.7,4.9-2a9.58,9.58,0,0,0,4.6-8.3V76a12.37,12.37,0,0,0-.2-1.8h3.2a12.37,12.37,0,0,0-.2,1.8v4.8c5.5-1.3,8.6-4.8,9.2-10.1H105.4Z" transform="translate(-23.89 -28.17)"></path><path class="cls-1" d="M135.5,80.8c3.1-.3,9.2-2.9,12.7-5.3s7.7-6.6,8.5-8.6l2.6,2.2c-.3.3-.7.7-1.3,1.2a42.14,42.14,0,0,1-6.7,6v15a12.37,12.37,0,0,0,.2,1.8h-3.2a6.89,6.89,0,0,0,.2-1.8V78a44.31,44.31,0,0,1-10.7,4,15.6,15.6,0,0,0-1.6.5Z" transform="translate(-23.89 -28.17)"></path><path class="cls-1" d="M181.7,90.2h10.5a10,10,0,0,0,2.1-.2v2h-.4l-.4-.1c-.4,0-.8-.1-1.3-.1H168.1a8.22,8.22,0,0,0-2.1.2V90a10,10,0,0,0,2.1.2h10.4V70.6H170a4.87,4.87,0,0,0-1.2.1l-.6.1h-.3v-2a20.62,20.62,0,0,0,2.1.2h20.5a7.84,7.84,0,0,0,2.1-.2v2h-.2l-.6-.1a5.28,5.28,0,0,0-1.3-.1h-8.8Z" transform="translate(-23.89 -28.17)"></path><path class="cls-1" d="M226.7,69.9a17,17,0,0,1-3.5,6,18.79,18.79,0,0,0,5.3,2.2l1.7.3-1.6,2.7-1.3-.6a24.29,24.29,0,0,1-5.8-3.1,27.31,27.31,0,0,1-6.4,3.3l-.9.6-.9-1.5a32.39,32.39,0,0,1-1.7,3.2l-.5,1.2-1.5-.7.6-1.1c.8-2.9.8-3.1,1.1-4.3h-2.4V92.3q0,1.8-1.5,1.8a17.78,17.78,0,0,1-3.5-.6l-1.4-.2-.2-1.6a23.82,23.82,0,0,0,3.4.2c.6,0,.7-.1.7-.7V82a27.09,27.09,0,0,1-5,7.1l-.8,1.1L199.3,89l1-1a31.25,31.25,0,0,0,5-10h-2.9a8.22,8.22,0,0,0-2.1.2v-2a20.62,20.62,0,0,0,2.1.2H208l-.2-.3a41.31,41.31,0,0,0-4.6-4.3l-1-.6,1.2-1.3.8.7a19.23,19.23,0,0,1,2.8,1.8,26.32,26.32,0,0,0,3-4.3h-6.9a8.22,8.22,0,0,0-2.1.2v-2a20.62,20.62,0,0,0,2.1.2h7.5a22.1,22.1,0,0,0,3.2-.1v1.3a48.62,48.62,0,0,1-5.5,5.6l.4.3.4.2.6.4,1.1.7-1.5,1.6h2.1a18,18,0,0,0,2.8-.1v1.2c-.3.8-.6,1.5-.8,2.1l1.2-.3A22.8,22.8,0,0,0,220,76a17,17,0,0,1-3.2-4.7,27.25,27.25,0,0,1-2.3,2.5l-.9.9-1.2-1.1,1-.8a21.11,21.11,0,0,0,4.1-7.2l.3-1.2,3.1.7-.7,1.2a18.58,18.58,0,0,1-1.1,1.9h8.6a8.22,8.22,0,0,0,2.1-.2v2h-.4l-.4-.1c-.4,0-.8-.1-1.3-.1h-1ZM215.2,84.4a8.61,8.61,0,0,0-2.1.2V82.7a20.62,20.62,0,0,0,2.1.2h3.6v-.4c0-.4.1-1.2.1-1.6l-.1-1.6,3,.1-.3,1.5a10.36,10.36,0,0,1-.1,1.6l-.1.5h4.2a19.47,19.47,0,0,0,2.8-.1v1.2c-.4,5.2-.6,7-1,8.4-.4,1.2-1,1.8-2,1.8a15.32,15.32,0,0,1-4.1-.8l-1.5-.3-.2-1.6a31.48,31.48,0,0,0,4,.3c.8,0,1.1-.2,1.3-1a28.6,28.6,0,0,0,.8-6.4h-4.5c-1,4.5-3.2,7.3-7.9,9.4l-1.2.7-1-1.5,1.4-.5c3.4-2.1,5.3-4.7,5.9-8.1h-3.1ZM217.6,70a14.89,14.89,0,0,0,3.6,4.5,14.61,14.61,0,0,0,2.5-4.6l-6.1.1Z" transform="translate(-23.89 -28.17)"></path><path class="cls-1" d="M248.6,66.9a4.87,4.87,0,0,0-.1-1.2l-.1-.6v-.3h3.3a9.48,9.48,0,0,0-.2,2.1V69h9.4a8.22,8.22,0,0,0,2.1-.2v2a18.32,18.32,0,0,0-2.1-.2H240.3V78c0,6.4-1.2,10.6-4.1,14.9l-.6,1.2-1.5-.9.8-1c1.8-4.1,2.5-8.1,2.5-14.2V71.2a10.14,10.14,0,0,0-.2-2.4,20.12,20.12,0,0,0,2.6.1h8.8v-2Zm10,16.1a20.92,20.92,0,0,0,2.6-.1,11,11,0,0,0-.2,2.7v6.2a18.32,18.32,0,0,0,.2,2.1,17,17,0,0,0-2.1-.1H243.9a17,17,0,0,0-2.2.1,11.42,11.42,0,0,0,.2-2.7v-6a9.34,9.34,0,0,0-.2-2.3,22.62,22.62,0,0,0,2.7.1h5.1V73.8a11,11,0,0,0-.1-1.6l-.1-.5h3.3a9.48,9.48,0,0,0-.2,2.1v2.5h8.1a8.22,8.22,0,0,0,2.1-.2v2h-.4l-.4-.1c-.4,0-.8-.1-1.3-.1h-8.1V83Zm-13.8,1.6V92h13.4V84.6Z" transform="translate(-23.89 -28.17)"></path><rect class="cls-1" x="13.81" y="27.73" width="50" height="50"></rect><path class="cls-2" d="M43.5,83.8H46L56.1,70.6,66.2,83.8h2.5L56.1,67.2Zm33.1,0h2V68.2h-2Z" transform="translate(-23.89 -28.17)"></path><polygon class="cls-2" points="20.21 60.33 20.21 61.53 21.31 60.33 22.11 60.33 21.01 61.43 22.21 63.23 21.41 63.23 20.51 61.93 20.21 62.33 20.21 63.23 19.51 63.23 19.51 60.33 20.21 60.33"></polygon><path class="cls-2" d="M48.4,89.4a2.19,2.19,0,0,1,.3-.5.85.85,0,0,1,.5-.3,1.85,1.85,0,0,1,1.2,0c.2.1.3.2.5.3a2.19,2.19,0,0,1,.3.5,1.85,1.85,0,0,1,0,1.2c-.1.2-.2.3-.3.5a2.19,2.19,0,0,1-.5.3,1.85,1.85,0,0,1-1.2,0c-.2-.1-.3-.2-.5-.3a2.19,2.19,0,0,1-.3-.5,1.27,1.27,0,0,1-.1-.6,3.54,3.54,0,0,1,.1-.6m.6.9c0,.1.1.2.1.3s.1.2.2.2.2.1.4.1a.6.6,0,0,0,.4-.1c.1-.1.2-.1.3-.2a.37.37,0,0,0,.1-.3v-.8c0-.1-.1-.2-.1-.3s-.1-.2-.3-.2h-.3a.6.6,0,0,0-.4.1c-.1.1-.2.1-.2.2a.37.37,0,0,0-.1.3V90a.37.37,0,0,0-.1.3" transform="translate(-23.89 -28.17)"></path><path class="cls-2" d="M55.9,91.2a1.2,1.2,0,0,1-2.1-.9V88.5h.6v2c0,.1,0,.1.1.2s.1.1.2.1.2.1.3.1.4,0,.5-.2a.75.75,0,0,0,.1-.5V88.4h.7v1.8a1.05,1.05,0,0,1-.4,1" transform="translate(-23.89 -28.17)"></path><polygon class="cls-2" points="35.91 60.33 36.61 62.33 36.61 62.33 37.31 60.33 38.21 60.33 38.21 63.23 37.61 63.23 37.61 61.13 37.61 61.13 36.91 63.23 36.41 63.23 35.61 61.23 35.61 61.23 35.61 63.23 35.01 63.23 35.01 60.33 35.91 60.33"></polygon><path class="cls-2" d="M66.9,91.2a1.2,1.2,0,0,1-2.1-.9V88.5h.7v2c0,.1,0,.1.1.2s.1.1.2.1.2.1.3.1.4,0,.5-.2a.75.75,0,0,0,.1-.5V88.4h.7v1.8c-.1.5-.2.8-.5,1" transform="translate(-23.89 -28.17)"></path><polygon class="cls-2" points="45.81 60.83 45.81 60.33 48.21 60.33 48.21 60.83 47.31 60.83 47.31 63.23 46.71 63.23 46.71 60.83 45.81 60.83"></polygon><polygon class="cls-2" points="52.81 60.33 52.81 60.83 51.31 60.83 51.31 61.53 52.71 61.53 52.71 62.03 51.31 62.03 51.31 62.73 52.91 62.73 52.91 63.23 50.61 63.23 50.61 60.33 52.81 60.33"></polygon><polygon class="cls-2" points="56.01 60.33 57.31 62.33 57.31 62.33 57.31 60.33 57.91 60.33 57.91 63.23 57.21 63.23 56.01 61.33 56.01 61.33 56.01 63.23 55.41 63.23 55.41 60.33 56.01 60.33"></polygon><text class="cls-3" transform="translate(0 16.23)">大<tspan class="cls-4" x="20.1" y="0">阪</tspan><tspan class="cls-5" x="39.96" y="0">で</tspan><tspan class="cls-6" x="60.09" y="0">注</tspan><tspan class="cls-7" x="80.51" y="0">文</tspan><tspan class="cls-8" x="100.02" y="0">住</tspan><tspan class="cls-9" x="119.81" y="0">宅</tspan><tspan class="cls-10" x="139.65" y="0">を</tspan><tspan class="cls-11" x="159.14" y="0">建</tspan><tspan class="cls-12" x="179.11" y="0">て</tspan><tspan class="cls-13" x="197.19" y="0">る</tspan><tspan class="cls-14" x="216.52" y="0">な</tspan><tspan class="cls-15" x="235.13" y="0">ら</tspan></text><text class="cls-16" transform="translate(52.66 112.86)">南大阪支店<tspan class="cls-17"><tspan x="-3.5" y="38.29">全２</tspan><tspan class="cls-18" x="56.48" y="38.29">展示場</tspan></tspan></text></svg> 