<?xml version="1.0" encoding="UTF-8"?> <svg xmlns="http://www.w3.org/2000/svg" id="レイヤー_1" data-name="レイヤー 1" viewBox="0 0 448.57 272.79"><defs><style>.cls-1{fill:none;}.cls-2{fill:#40220f;}.cls-3{fill:#0c3258;}.cls-4{fill:#fff;}</style></defs><rect class="cls-1" width="448.57" height="272.79"></rect><path class="cls-2" d="M18.22,25.23A15.28,15.28,0,0,0,21.15,31a14.37,14.37,0,0,0,6.12,4.48A7.68,7.68,0,0,0,26,37.59a17.55,17.55,0,0,1-5.54-4.29,16.32,16.32,0,0,1-3.08-5.42,13.46,13.46,0,0,1-3.78,6.52,15.63,15.63,0,0,1-4.87,3.21,5.88,5.88,0,0,0-1.25-1.89,13.79,13.79,0,0,0,5.71-3.92,11.86,11.86,0,0,0,2.64-6.57H10.47a14.57,14.57,0,0,0-2.55.15v-2.3a15.93,15.93,0,0,0,2.57.15H16c0-1.06.06-1.6.06-2.44a13.38,13.38,0,0,0-.15-2.36h2.38a14.87,14.87,0,0,0-.14,2.43c0,1,0,1.55-.07,2.37H24a16.24,16.24,0,0,0,2.55-.15v2.3A15.77,15.77,0,0,0,24,25.23Z" transform="translate(72.69 28.44)"></path><path class="cls-2" d="M31.46,20.51c0-.69,0-1.27-.07-1.87a11.89,11.89,0,0,0,1.38.07h3.51a7.84,7.84,0,0,0,1.38-.09l.93,1.31a9.59,9.59,0,0,0-.4,1,29.33,29.33,0,0,1-2,4.37A7.58,7.58,0,0,1,38,29.86a2.42,2.42,0,0,1-1.36,2.52,4.66,4.66,0,0,1-1.72.24l-.68,0a4,4,0,0,0-.41-1.85,11.47,11.47,0,0,0,1.43.11c.76,0,1-.24,1-1.06a4.44,4.44,0,0,0-.27-1.52,6.64,6.64,0,0,0-1.79-2.82,20.74,20.74,0,0,0,2.26-5H33.33V35.59a17.26,17.26,0,0,0,.1,2.11h-2.1a16.89,16.89,0,0,0,.13-2.28ZM41,25.64a22.77,22.77,0,0,1-1.17,7.26,12.86,12.86,0,0,1-3.14,4.86,4.82,4.82,0,0,0-1.55-1.35A9.77,9.77,0,0,0,38.15,32c.64-1.85,1-5.66,1-10.4a26.64,26.64,0,0,0-.09-2.67c.77.06,1.55.11,2.43.11h6.07a17.39,17.39,0,0,0,2.25-.13v2a16.56,16.56,0,0,0-2.21-.11H41v1.66c0,.54,0,.84,0,1.47h5.58a8.83,8.83,0,0,0,1.75-.11l1,1c-.13.33-.13.33-.72,2.37a29.19,29.19,0,0,1-1.76,4.18c-.2.34-.37.6-.64,1a12.68,12.68,0,0,0,4.35,3.34,5.9,5.9,0,0,0-1.06,1.91A16.12,16.12,0,0,1,45,33.93a14.8,14.8,0,0,1-5,3.83,5.78,5.78,0,0,0-1.3-1.59,13.14,13.14,0,0,0,5.21-3.75,16.06,16.06,0,0,1-2.36-6.78Zm2.3,0A14,14,0,0,0,45,30.85a16.79,16.79,0,0,0,2-5.21Z" transform="translate(72.69 28.44)"></path><path class="cls-2" d="M54.09,21.33l.74,0a10.74,10.74,0,0,0,1.3-.06c2.49-.17,7.54-.45,12.54-.69a14.18,14.18,0,0,0,2.46-.22l.15,2.29a2.64,2.64,0,0,0-.36,0,9.45,9.45,0,0,0-4,1c-2.89,1.46-4.67,3.79-4.67,6.11a3.87,3.87,0,0,0,2.89,3.71,12.5,12.5,0,0,0,3.12.6,3.13,3.13,0,0,0,.39,0l-.32,2.43-.7-.1a11.71,11.71,0,0,1-4.81-1.53A5.57,5.57,0,0,1,60.08,30a7.77,7.77,0,0,1,2.79-5.69,7.94,7.94,0,0,1,2.54-1.72c-1.48.22-2.33.3-4.58.45a63.38,63.38,0,0,0-6.61.67ZM69,27.73a13,13,0,0,0-1.87-2.91l1.36-.69A11.3,11.3,0,0,1,70.34,27Zm2.19-1.12a13.84,13.84,0,0,0-1.82-2.82l1.31-.67a11.69,11.69,0,0,1,1.85,2.73Z" transform="translate(72.69 28.44)"></path><path class="cls-2" d="M77.53,23.51a19.11,19.11,0,0,1,3.81,2.8L80.25,28a16.87,16.87,0,0,0-3.84-3Zm4,7.17a37.06,37.06,0,0,1-3.32,7l-1.7-1.51c1.09-1.21,2.19-3.3,3.44-6.63Zm-3-12.38a17.72,17.72,0,0,1,3.68,2.86L81,22.75a15,15,0,0,0-3.7-3.08Zm6,6.13a17.7,17.7,0,0,0-2.31.11v-2a18.31,18.31,0,0,0,2.31.12H93a16.74,16.74,0,0,0,2.31-.12v2c-.63-.06-1.42-.11-2.31-.11H89.41v4h2.93a16.13,16.13,0,0,0,2.28-.13v2c-.64-.06-1.45-.1-2.28-.1H89.41v4.84H93.3a17.69,17.69,0,0,0,2.46-.13V37a24.22,24.22,0,0,0-2.46-.11H83.89a23.86,23.86,0,0,0-2.45.11V34.94a18.3,18.3,0,0,0,2.43.13h3.56V30.23H85.1c-.83,0-1.64,0-2.3.1v-2a15.94,15.94,0,0,0,2.28.13h2.35v-4Zm2-6.41A24.16,24.16,0,0,1,91,20.79l-1.28,1.6a18.33,18.33,0,0,0-4.52-2.91Z" transform="translate(72.69 28.44)"></path><path class="cls-2" d="M115.18,23.33a16.34,16.34,0,0,1-1.76,4.48,18.61,18.61,0,0,1-2.49,3.56,19.45,19.45,0,0,0,8.5,4.17,7,7,0,0,0-1.25,2.07,23,23,0,0,1-8.65-4.84,22.41,22.41,0,0,1-4.25,2.95,26.56,26.56,0,0,1-4.52,1.89,5.94,5.94,0,0,0-1.17-1.89,20.38,20.38,0,0,0,8.54-4.35,19.78,19.78,0,0,1-4.48-8h-1.21a21.92,21.92,0,0,0-2.51.13V21.4a18.09,18.09,0,0,0,2.53.15h5.84V19.93a8.22,8.22,0,0,0-.15-1.72h2.29a8.86,8.86,0,0,0-.14,1.72v1.62h6.2a18.12,18.12,0,0,0,2.57-.15v2.06a20.54,20.54,0,0,0-2.51-.13Zm-9.47,0a15.63,15.63,0,0,0,1.65,3.86A16.55,16.55,0,0,0,109.51,30a16.24,16.24,0,0,0,2.06-2.88,15.82,15.82,0,0,0,1.53-3.82Z" transform="translate(72.69 28.44)"></path><path class="cls-2" d="M124.35,28.61c0-.65,0-1.36.07-2.54a16.75,16.75,0,0,1-1.87,2.65,8.59,8.59,0,0,0-.92-2,17.61,17.61,0,0,0,3.7-5.92,14.15,14.15,0,0,0,.85-2.82l2,.58a41.46,41.46,0,0,1-2,4.74V35.14a19.93,19.93,0,0,0,.12,2.51H124.2a16.57,16.57,0,0,0,.15-2.54Zm5.8-4.37a22.92,22.92,0,0,0-2.33.11V22.3a15.14,15.14,0,0,0,2.33.13h8.33a18.14,18.14,0,0,0,2.42-.13v2.05a23.53,23.53,0,0,0-2.38-.11H135.1v4.09h2.83a17,17,0,0,0,2.32-.13v2c-.64-.06-1.45-.1-2.3-.1H135.1v4.95h4a18.9,18.9,0,0,0,2.46-.13v2c-.76-.06-1.51-.1-2.46-.1h-9.59c-1,0-1.7,0-2.44.1v-2a17.69,17.69,0,0,0,2.38.13h3.72V30.1h-2.42c-.85,0-1.62,0-2.26.1v-2a16.21,16.21,0,0,0,2.26.13h2.42V24.24Zm2.11-6.18a25.33,25.33,0,0,1,4.37,2.67l-1.42,1.51a17.85,17.85,0,0,0-4.29-2.87Z" transform="translate(72.69 28.44)"></path><path class="cls-2" d="M152.18,26.52c-2.15.39-3.19.56-5.44.86a6.1,6.1,0,0,0-.87-1.81,59.22,59.22,0,0,0,9.6-1.63,13.47,13.47,0,0,0,3.74-1.34l1.66,1.64a13.57,13.57,0,0,0-1.34.39c-1.76.58-3.89,1.18-5.4,1.5v2.63l7.46-.86a15,15,0,0,0,2.21-.39l.19,2.07h-.32c-.4,0-1.36.06-1.93.13l-7.61.88v3.92c0,.56.11.69.58.82a14.48,14.48,0,0,0,2.85.17c2.16,0,3.25-.13,3.67-.41s.53-.86.62-2.93a5.1,5.1,0,0,0,1.93.74,7.06,7.06,0,0,1-.53,2.82c-.66,1.37-1.55,1.61-5.95,1.61-2.49,0-3.63-.13-4.31-.45s-.81-.75-.81-1.85V30.81l-4.76.56a15.37,15.37,0,0,0-2.25.38L145,29.67a3.07,3.07,0,0,0,.38,0c.42,0,1.32-.07,1.87-.13l5-.56Zm1.08-7.17a7,7,0,0,0-.12-1.29h2.23a5.14,5.14,0,0,0-.13,1.29v.82h6a19.86,19.86,0,0,0,2.26-.09,9.07,9.07,0,0,0-.09,1.53v1.55a10.76,10.76,0,0,0,.09,1.62h-1.94V22H147.4v2.8h-2a8.77,8.77,0,0,0,.11-1.62V21.61a10,10,0,0,0-.09-1.53,20.14,20.14,0,0,0,2.28.09h5.54Z" transform="translate(72.69 28.44)"></path><path class="cls-2" d="M174.05,21.14a9.14,9.14,0,0,0,.91-2.78l2.34.3a2.38,2.38,0,0,0-.26.5l-.65,1.57c-.07.13-.13.28-.17.37a.45.45,0,0,0,.17,0h.1l1.06-.06a27,27,0,0,0,5.66-.73l.12,2-1.65.2c-1.49.19-4.23.38-6.31.43a13.34,13.34,0,0,1-2.3,3.36l0,0a4.88,4.88,0,0,1,.45-.35,5.25,5.25,0,0,1,3.23-1.11,3.17,3.17,0,0,1,2.06.68,2.62,2.62,0,0,1,.87,1.64c1.72-.65,2.87-1.08,3.44-1.27a5.74,5.74,0,0,0,1.51-.62l.87,2.06a34.6,34.6,0,0,0-5.59,1.79c0,.78,0,.78,0,1.16v1c0,.36,0,.6,0,.75a8,8,0,0,0,.07,1l-2.06.05a27.64,27.64,0,0,0,.12-2.8v-.52c-2.61,1.21-3.56,2.07-3.56,3.21s1.1,1.77,4.07,1.77a17.64,17.64,0,0,0,5.89-.89l.21,2.33a5.13,5.13,0,0,0-.93.11,39.07,39.07,0,0,1-5.29.38,9.08,9.08,0,0,1-4.59-.86,3,3,0,0,1-1.49-2.65c0-2,1.76-3.72,5.44-5.32a1.33,1.33,0,0,0-1.45-1.37c-1.27,0-2.84.77-4.52,2.24a8.52,8.52,0,0,0-1.74,1.89l-1.64-1.66a18,18,0,0,0,3.42-3.92c.26-.41.7-1.14,1.32-2.17h-.36l-2.06,0c-.53,0-.94-.05-1.23-.05h-.13a1.48,1.48,0,0,0-.32,0l0-2.05a23,23,0,0,0,4.14.26Z" transform="translate(72.69 28.44)"></path><path class="cls-2" d="M194.67,25.14a9.57,9.57,0,0,0,1.59-.06c0,.32-.06.45-.08.8a19.77,19.77,0,0,1-1.7,6.82c1.89,2,3.86,2.67,8.22,2.67,2.27,0,4.74-.11,6.8-.3a6.7,6.7,0,0,0-.53,2c-1.62,0-4.23.09-6.06.09-4.95,0-7.07-.69-9.26-3a14.26,14.26,0,0,1-2.83,3.42A6.86,6.86,0,0,0,189.53,36a12.93,12.93,0,0,0,2.89-3.34,11.26,11.26,0,0,1-1-1.81c-.66-1.4-.66-1.4-1-2l1.66-.82A12.33,12.33,0,0,0,193.27,31a14.47,14.47,0,0,0,1.06-4.18H192.4c-.62,0-1.24,0-1.81.07a34.39,34.39,0,0,0,3.27-6.12h-2.29a7.61,7.61,0,0,0-1.45.11V19a7.45,7.45,0,0,0,1.51.11h2.15a8.72,8.72,0,0,0,1.53-.08l.87,1.16a4.63,4.63,0,0,0-.51,1,32.48,32.48,0,0,1-2.13,4Zm6.56-4.22h-2.61a10.16,10.16,0,0,0-1.53.09v-1.7a9.3,9.3,0,0,0,1.64.11h2.5a10.16,10.16,0,0,0-.1-1.51h1.93a7.58,7.58,0,0,0-.1,1.51h3.22c.68,0,1.17,0,1.6-.07,0,.58-.07.82-.07,1.36v1.57a6.6,6.6,0,0,0,1.6-.13v1.7a11.39,11.39,0,0,0-1.6-.08v1.68a10.33,10.33,0,0,0,.07,1.27c-.53,0-1,0-1.49,0H203v1.47h3.35a13.92,13.92,0,0,0,1.81-.09v1.68a15.47,15.47,0,0,0-1.83-.09H203v1.47h4.16a13.15,13.15,0,0,0,1.93-.11v1.74a16.75,16.75,0,0,0-1.93-.08H203v.17a12.17,12.17,0,0,0,.1,1.94h-1.93a13.24,13.24,0,0,0,.1-1.92v-.19H198a10.37,10.37,0,0,0-1.85.11V31a10.75,10.75,0,0,0,1.87.11h3.2V29.64h-2.69a14.14,14.14,0,0,0-1.7.11v-1.7a12.19,12.19,0,0,0,1.7.09h2.69V26.67h-2.69a8.9,8.9,0,0,0-1.43.09V25.1a8.85,8.85,0,0,0,1.53.09h2.59V23.77h-3.42a15,15,0,0,0-1.87.08v-1.7a8.62,8.62,0,0,0,1.94.13h3.35ZM206,22.28V20.92h-3v1.36Zm-3,2.91h3V23.77h-3Z" transform="translate(72.69 28.44)"></path><path class="cls-2" d="M213.6,21.4l.75,0a9.09,9.09,0,0,0,1.29-.07c2.49-.17,7.54-.47,12.54-.69a14.67,14.67,0,0,0,2.46-.21l.15,2.26h-.36a9.52,9.52,0,0,0-4,1c-2.89,1.47-4.68,3.79-4.68,6.12a3.86,3.86,0,0,0,2.89,3.7,12.12,12.12,0,0,0,3.12.61,2.1,2.1,0,0,0,.39,0l-.32,2.44-.7-.13a11.48,11.48,0,0,1-4.8-1.51,5.55,5.55,0,0,1-2.77-4.89,7.79,7.79,0,0,1,2.79-5.7,8.47,8.47,0,0,1,2.55-1.73,41.53,41.53,0,0,1-4.59.48,55.59,55.59,0,0,0-6.61.67Z" transform="translate(72.69 28.44)"></path><path class="cls-2" d="M237,19.63a12.1,12.1,0,0,0,2.25.13c1.94,0,4.44-.11,6.52-.28a2.28,2.28,0,0,0,1.19-.26l1.15,1.62a4.38,4.38,0,0,0-1.08.88,45.69,45.69,0,0,1-6.74,5.66l0,.07a10.27,10.27,0,0,1,4.78-1.14c3.56,0,5.88,1.85,5.88,4.71a5.14,5.14,0,0,1-2.85,4.63,10.09,10.09,0,0,1-5,1.19,7.1,7.1,0,0,1-3.93-.91A2.93,2.93,0,0,1,238,33.5c0-1.64,1.46-2.84,3.42-2.84A4.42,4.42,0,0,1,245,32.44a6.29,6.29,0,0,1,1,2,5.23,5.23,0,0,0,1.59-.77,3.15,3.15,0,0,0,1.29-2.56c0-1.9-1.65-3-4.35-3a13.35,13.35,0,0,0-8.84,3.64l-1.23-1.92c1.91-1,6.9-5.19,9.67-8l.36-.37,0,0c-.77.11-3,.26-6.27.39a6.9,6.9,0,0,0-1.06.11Zm4.38,12.75c-.87,0-1.43.43-1.43,1.12,0,1,1.09,1.53,2.87,1.53a6.62,6.62,0,0,0,1.21-.09C243.65,33.24,242.75,32.38,241.42,32.38Z" transform="translate(72.69 28.44)"></path><path class="cls-2" d="M263.51,18.62a7.84,7.84,0,0,0-.34,1.4c-.15.69-.26,1.14-.49,2.09a16.43,16.43,0,0,0,3.55-.65l.08,2.09a4.19,4.19,0,0,0-.72.11c-.79.15-2,.3-3.42.41a42.9,42.9,0,0,1-2.34,6.26c-.49,1.06-.68,1.42-1.51,2.91-.17.3-.32.56-.4.75l-2-1.18a17.24,17.24,0,0,0,2.06-3.45A33.55,33.55,0,0,0,260,24.13c-.45,0-.64,0-1.25,0l-1.45,0h-.76V22.06a14.87,14.87,0,0,0,2.7.18c.61,0,1,0,1.27,0a20,20,0,0,0,.7-3.86Zm9.81,17.14A12.1,12.1,0,0,0,269.9,33a3.86,3.86,0,0,1,0,.46,4,4,0,0,1-.76,2.26A4.55,4.55,0,0,1,265.69,37c-2.72,0-4.44-1.29-4.44-3.34s1.83-3.58,4.42-3.58a10.9,10.9,0,0,1,2.15.24c-.09-1.1-.13-1.91-.13-2.75a10.31,10.31,0,0,1,.17-2l2.06.15a6.93,6.93,0,0,0-.27,2.07,26.71,26.71,0,0,0,.21,3.12,14.18,14.18,0,0,1,3.5,2.07c.47.36.47.38.66.54a1.87,1.87,0,0,0,.32.28Zm-7.52-3.85c-1.53,0-2.51.64-2.51,1.63s.85,1.53,2.32,1.53,2.34-.67,2.34-2c0-.24-.05-.8-.05-.82A6.19,6.19,0,0,0,265.8,31.91Zm7.59-6a24.75,24.75,0,0,0-5.93-3l1.06-1.7a29.71,29.71,0,0,1,5.84,2.84Z" transform="translate(72.69 28.44)"></path><path class="cls-2" d="M282.62,22.8c-.3,1.18-.61,3-1,5.53a6.15,6.15,0,0,1-.15.75c1.31-1.33,4-2.24,6.67-2.24,3.55,0,5.84,1.73,5.84,4.38a4.92,4.92,0,0,1-2.1,4,9.26,9.26,0,0,1-5.46,1.42,19.45,19.45,0,0,1-5.4-.77,8.76,8.76,0,0,0-.23-2.33,16.12,16.12,0,0,0,5.58,1.08c3.15,0,5.34-1.36,5.34-3.34,0-1.55-1.43-2.5-3.81-2.5-2.63,0-5.33,1.08-6.45,2.59l-2.28-.07c.07-.37.07-.47.17-1.27.21-1.57.49-3.49.89-6.14a10.92,10.92,0,0,0,.15-1.2Zm.55-4a30.92,30.92,0,0,0,7.63,2.39l-.74,2.05a36.18,36.18,0,0,1-7.93-2.65Z" transform="translate(72.69 28.44)"></path><path class="cls-3" d="M102.5,67.58a7.67,7.67,0,0,0-1.91.24V65.48a11,11,0,0,0,1.91.2h25.26c-.71,8.57-4.79,13-13.48,14.6-.78,5.06-4.21,8.46-10.56,10.56a4.84,4.84,0,0,0-1.53.69l-.82-2.06c1.13.06,3-.73,5.23-2.14a10.31,10.31,0,0,0,4.86-9v-5a11.19,11.19,0,0,0-.2-1.93h3.39a10.82,10.82,0,0,0-.2,1.93v5.13c5.81-1.45,9.1-5.13,9.81-10.91Z" transform="translate(72.69 28.44)"></path><path class="cls-3" d="M134.52,78.49c3.26-.28,9.81-3.1,13.45-5.75,3.63-2.48,8.15-7.06,9.06-9.23l2.72,2.38c-.31.27-.75.72-1.36,1.34a43.27,43.27,0,0,1-7.1,6.47V89.81a10.12,10.12,0,0,0,.21,1.93h-3.43a8.38,8.38,0,0,0,.24-1.93V75.53a47.39,47.39,0,0,1-11.41,4.33,6.15,6.15,0,0,0-1.67.59Z" transform="translate(72.69 28.44)"></path><path class="cls-3" d="M183.59,88.67h11.17a14.31,14.31,0,0,0,2.24-.2V90.6l-.37,0-.47-.07a13,13,0,0,0-1.4-.07H169.19a14,14,0,0,0-2.27.17V88.47a14.34,14.34,0,0,0,2.27.2h11V67.54h-9c-.47,0-.88,0-1.29.07l-.64.1-.31,0V65.61a13.91,13.91,0,0,0,2.24.18h21.77a13.92,13.92,0,0,0,2.27-.18v2.14l-.17,0-.67-.07a9.91,9.91,0,0,0-1.43-.1h-9.34Z" transform="translate(72.69 28.44)"></path><path class="cls-3" d="M231.34,66.82a16.71,16.71,0,0,1-3.74,6.43,22.58,22.58,0,0,0,5.61,2.41L235,76l-1.66,2.85L232,78.21a24.35,24.35,0,0,1-6.11-3.37A23.87,23.87,0,0,1,219,78.35L218,79l-1-1.62a30.08,30.08,0,0,1-1.8,3.48l-.51,1.27-1.59-.76.64-1.17a42,42,0,0,0,1.12-4.58h-2.51V90.84c0,1.31-.54,2-1.63,2a16.37,16.37,0,0,1-3.67-.62l-1.53-.2-.23-1.72a35.73,35.73,0,0,0,3.59.24c.62,0,.75-.14.75-.72v-10a29.24,29.24,0,0,1-5.3,7.64l-.84,1.21-1.43-1.27,1.09-1a35.26,35.26,0,0,0,5.33-10.74h-3.13a14.26,14.26,0,0,0-2.24.18v-2.1a15.79,15.79,0,0,0,2.24.17h6l-.24-.34a49.91,49.91,0,0,0-4.89-4.65l-1.09-.66,1.26-1.41.88.8c.82.48,2.34,1.44,3,1.89a26.46,26.46,0,0,0,3.16-4.58H206a14.24,14.24,0,0,0-2.28.17V63a15,15,0,0,0,2.28.18h8a18.2,18.2,0,0,0,3.43-.14v1.37a54,54,0,0,1-5.84,6l.41.31.37.24.68.48,1.19.72-1.63,1.69h2.24a15.47,15.47,0,0,0,3-.14V75c-.3.9-.61,1.66-.84,2.24L218.4,77a22.69,22.69,0,0,0,5.7-3.65,17.08,17.08,0,0,1-3.39-5.1c-.85,1-1.5,1.72-2.45,2.69l-.95,1L216,70.78l1-.9a22.41,22.41,0,0,0,4.34-7.71l.28-1.27,3.26.79L224.14,63A19.45,19.45,0,0,1,223,65.06h9.14a13.25,13.25,0,0,0,2.24-.17V67L234,67l-.48-.07a12.63,12.63,0,0,0-1.39-.07ZM219.11,82.41a13.56,13.56,0,0,0-2.2.17v-2.1a13.8,13.8,0,0,0,2.2.17H223v-.31l0-.13c0-.38.11-1.28.11-1.76L223,76.73l3.22.1L226,78.45c0,.52,0,.9-.07,1.69l-.06.51h4.41a18.44,18.44,0,0,0,3-.13v1.3c-.4,5.65-.61,7.51-1.08,9.06-.41,1.34-1.09,2-2.18,2a16.71,16.71,0,0,1-4.34-.83L224,91.74l-.17-1.69a34.24,34.24,0,0,0,4.28.31c.88,0,1.12-.21,1.35-1.07a31.89,31.89,0,0,0,.85-6.88H225.6c-1,4.89-3.43,7.81-8.39,10.15l-1.29.73-1-1.66,1.46-.51c3.64-2.27,5.67-5.06,6.32-8.71Zm2.65-15.52a16.64,16.64,0,0,0,3.8,4.88,14.88,14.88,0,0,0,2.62-5h-6.35Z" transform="translate(72.69 28.44)"></path><path class="cls-3" d="M254.67,63.51c0-.44,0-.86-.07-1.27l-.1-.69,0-.31h3.47a14.5,14.5,0,0,0-.21,2.27v2.31h10a10.49,10.49,0,0,0,2.24-.21v2.14a13.7,13.7,0,0,0-2.24-.17H245.87v8c0,6.85-1.25,11.46-4.34,16l-.61,1.27-1.6-1,.81-1.1c1.87-4.41,2.62-8.71,2.62-15.25V68.3a14.49,14.49,0,0,0-.2-2.62,20.2,20.2,0,0,0,2.78.14h9.34Zm10.59,17.38a19.07,19.07,0,0,0,2.79-.13,14.77,14.77,0,0,0-.21,2.85v6.61a13.25,13.25,0,0,0,.21,2.24,20.65,20.65,0,0,0-2.24-.14h-16.2a19.88,19.88,0,0,0-2.34.14,15.11,15.11,0,0,0,.2-2.86V83.24a13,13,0,0,0-.2-2.48,23.69,23.69,0,0,0,2.81.13h5.37V71c0-.55,0-.79-.1-1.69l-.07-.58h3.46a14.08,14.08,0,0,0-.2,2.27V73.6h8.63a14.38,14.38,0,0,0,2.24-.17v2.1l-.38,0-.47-.07c-.38,0-.82-.07-1.39-.07h-8.63v5.54Zm-14.7,1.76v7.92h14.23V82.65Z" transform="translate(72.69 28.44)"></path><rect class="cls-3" x="103.24" y="80.1" width="53.12" height="53.84"></rect><path class="cls-4" d="M36.74,81.74h2.69L50.14,67.48,60.85,81.74h2.68L50.13,63.9Zm35.14,0H74V64.89H71.88Z" transform="translate(72.69 28.44)"></path><polygon class="cls-4" points="110.03 115.22 110.03 116.54 111.26 115.22 112.12 115.22 110.9 116.47 112.24 118.41 111.38 118.41 110.43 116.97 110.03 117.37 110.03 118.41 109.34 118.41 109.34 115.22 110.03 115.22"></polygon><path class="cls-4" d="M42,87.72a1.91,1.91,0,0,1,.31-.54,1.26,1.26,0,0,1,.49-.35,1.69,1.69,0,0,1,1.3,0,1.3,1.3,0,0,1,.48.35,1.53,1.53,0,0,1,.31.54,2.2,2.2,0,0,1,0,1.31,1.48,1.48,0,0,1-.31.53,1.42,1.42,0,0,1-.48.35,1.82,1.82,0,0,1-1.3,0,1.37,1.37,0,0,1-.49-.35A1.62,1.62,0,0,1,42,89a2,2,0,0,1-.11-.65,2.28,2.28,0,0,1,.1-.66m.64,1a1,1,0,0,0,.15.34.78.78,0,0,0,.26.25.82.82,0,0,0,.4.09.78.78,0,0,0,.39-.09.81.81,0,0,0,.27-.25,1,1,0,0,0,.15-.34,1.67,1.67,0,0,0,.05-.39,1.75,1.75,0,0,0-.05-.4.93.93,0,0,0-.15-.35.72.72,0,0,0-.27-.25.78.78,0,0,0-.39-.09.82.82,0,0,0-.4.09.69.69,0,0,0-.26.25.93.93,0,0,0-.15.35,1.75,1.75,0,0,0,0,.4,1.67,1.67,0,0,0,0,.39" transform="translate(72.69 28.44)"></path><path class="cls-4" d="M50,89.72a1.72,1.72,0,0,1-2,0,1.24,1.24,0,0,1-.35-1v-2h.69v2a2.11,2.11,0,0,0,0,.25.54.54,0,0,0,.09.22.53.53,0,0,0,.2.16.77.77,0,0,0,.34.06.63.63,0,0,0,.51-.17.81.81,0,0,0,.14-.52v-2h.69v2a1.21,1.21,0,0,1-.36,1" transform="translate(72.69 28.44)"></path><polygon class="cls-4" points="126.8 115.22 127.53 117.41 127.54 117.41 128.24 115.22 129.21 115.22 129.21 118.41 128.56 118.41 128.56 116.15 128.56 116.15 127.78 118.41 127.25 118.41 126.48 116.17 126.47 116.17 126.47 118.41 125.82 118.41 125.82 115.22 126.8 115.22"></polygon><path class="cls-4" d="M61.65,89.72a1.45,1.45,0,0,1-1,.31,1.43,1.43,0,0,1-1-.31,1.24,1.24,0,0,1-.35-1v-2H60v2A1.06,1.06,0,0,0,60,89a.43.43,0,0,0,.09.22.46.46,0,0,0,.2.16.75.75,0,0,0,.33.06.6.6,0,0,0,.51-.17.75.75,0,0,0,.14-.52v-2H62v2a1.21,1.21,0,0,1-.36,1" transform="translate(72.69 28.44)"></path><polygon class="cls-4" points="137.25 115.8 137.25 115.22 139.82 115.22 139.82 115.8 138.88 115.8 138.88 118.41 138.18 118.41 138.18 115.8 137.25 115.8"></polygon><polygon class="cls-4" points="144.74 115.22 144.74 115.8 143.07 115.8 143.07 116.49 144.6 116.49 144.6 117.04 143.07 117.03 143.07 117.82 144.77 117.82 144.77 118.41 142.39 118.41 142.39 115.22 144.74 115.22"></polygon><polygon class="cls-4" points="148.13 115.22 149.44 117.36 149.45 117.36 149.45 115.22 150.1 115.22 150.1 118.41 149.41 118.41 148.1 116.27 148.09 116.27 148.09 118.41 147.44 118.41 147.44 115.22 148.13 115.22"></polygon><path class="cls-2" d="M70.39,124.22a16,16,0,0,0-.26-3.31h3.94a17.27,17.27,0,0,0-.26,3.31H84.93A22.43,22.43,0,0,0,89.1,124v3.62a34.9,34.9,0,0,0-4.17-.23H73.81v3.2h10a24.42,24.42,0,0,0,3.34-.15,27.29,27.29,0,0,0-.15,3.28v17.75c0,3-1,3.77-4.87,3.77-.93,0-2.27,0-3.64-.11a9.61,9.61,0,0,0-.82-3.4,28.43,28.43,0,0,0,4.17.34c1.48,0,1.82-.19,1.82-1V133.57H61.25v18a25.61,25.61,0,0,0,.18,4.07H57.68a30.48,30.48,0,0,0,.22-4.26V133.68a29,29,0,0,0-.15-3.28,28.75,28.75,0,0,0,3.5.15h9.14v-3.2H59.87a31.45,31.45,0,0,0-4.09.23V124a24.66,24.66,0,0,0,4.09.26Zm-2.93,14.32a19.94,19.94,0,0,0-2-3.62l2.78-1.09a33.53,33.53,0,0,1,2.31,4.71h2.86a20.74,20.74,0,0,0,2.46-4.67l3.16.79a25.9,25.9,0,0,1-2.27,3.88h1.9a24.16,24.16,0,0,0,3.23-.15v3.13a28,28,0,0,0-3.27-.15H73.59v3.28h4.83a22.63,22.63,0,0,0,3.2-.15v3.12a26.08,26.08,0,0,0-3.23-.15h-4.8v2.75a35,35,0,0,0,.19,4.41H70.21a36.12,36.12,0,0,0,.18-4.41v-2.75H66.53a29,29,0,0,0-3.39.15V144.5a27.48,27.48,0,0,0,3.46.15h3.79v-3.28H65.78a21.32,21.32,0,0,0-3,.15v-3.13a24.85,24.85,0,0,0,3.27.15Z" transform="translate(72.69 28.44)"></path><path class="cls-2" d="M112,133.68a26.78,26.78,0,0,0,5.13,10.18,25.24,25.24,0,0,0,10.71,7.83,13.26,13.26,0,0,0-2.31,3.62,30.65,30.65,0,0,1-9.7-7.5,28.49,28.49,0,0,1-5.39-9.49,23.6,23.6,0,0,1-6.62,11.41,27.47,27.47,0,0,1-8.52,5.62A10.32,10.32,0,0,0,93.15,152c4.5-1.84,7.55-3.92,10-6.86s3.94-6.48,4.61-11.49H98.47a26.84,26.84,0,0,0-4.46.26v-4a25.94,25.94,0,0,0,4.49.27h9.6c.07-1.85.11-2.79.11-4.26a25,25,0,0,0-.26-4.15h4.16a25.31,25.31,0,0,0-.26,4.26c0,1.77,0,2.71-.11,4.15h10.41a26.4,26.4,0,0,0,4.46-.27v4a29.15,29.15,0,0,0-4.42-.26Z" transform="translate(72.69 28.44)"></path><path class="cls-2" d="M132.82,125.43c0-1.21,0-2.22-.11-3.28a19.24,19.24,0,0,0,2.42.11h6.13a12.54,12.54,0,0,0,2.42-.15l1.64,2.3a13,13,0,0,0-.71,1.7,53,53,0,0,1-3.5,7.65c2.2,3.09,3.09,5.39,3.09,8,0,2.3-.82,3.81-2.38,4.41a8,8,0,0,1-3,.42l-1.19,0a6.71,6.71,0,0,0-.71-3.24,21.32,21.32,0,0,0,2.49.19c1.34,0,1.71-.42,1.71-1.85a7.76,7.76,0,0,0-.48-2.68,11.73,11.73,0,0,0-3.12-4.93,35.5,35.5,0,0,0,3.94-8.82H136.1v26.57a28.32,28.32,0,0,0,.18,3.69H132.6a28.11,28.11,0,0,0,.22-4Zm16.62,9c-.29,6.1-.81,9.3-2,12.7a22.63,22.63,0,0,1-5.5,8.51,9,9,0,0,0-2.72-2.37,17.14,17.14,0,0,0,5.36-7.76c1.11-3.24,1.78-9.91,1.78-18.21,0-2.22,0-3.35-.15-4.67,1.34.12,2.72.19,4.24.19H161a27.38,27.38,0,0,0,3.94-.23v3.55a27.43,27.43,0,0,0-3.86-.19H149.55v2.9c0,.94,0,1.47,0,2.56h9.78a14.41,14.41,0,0,0,3-.19L164,133a42,42,0,0,0-1.27,4.15,50,50,0,0,1-3.08,7.31c-.34.6-.63,1-1.12,1.77a22.17,22.17,0,0,0,7.62,5.84,10.33,10.33,0,0,0-1.86,3.35,28.3,28.3,0,0,1-7.8-6.51,26,26,0,0,1-8.78,6.7,10.08,10.08,0,0,0-2.27-2.79,22.9,22.9,0,0,0,9.11-6.55c-2.26-3.62-3.23-6.48-4.12-11.87Zm4,0a24.5,24.5,0,0,0,3.12,9.12,29.88,29.88,0,0,0,3.57-9.12Z" transform="translate(72.69 28.44)"></path><path class="cls-2" d="M184.25,124.41a18.51,18.51,0,0,0-.23-3.28h4a14.86,14.86,0,0,0-.22,3.28v1.81h10.45a27.7,27.7,0,0,0,4.27-.26v3.69a32.08,32.08,0,0,0-4.27-.23H187.78v5.32h5a16.57,16.57,0,0,0,3.19-.19l2.12,2.15a25.09,25.09,0,0,0-1.52,2.14,35,35,0,0,1-7.18,8,36.74,36.74,0,0,0,13.83,4.9,14,14,0,0,0-1.78,3.62c-6.47-1.55-10.48-3.24-15-6.33a41.3,41.3,0,0,1-15.17,6.22,14.23,14.23,0,0,0-1.74-3.4,37.44,37.44,0,0,0,14.12-4.93,26.47,26.47,0,0,1-7.13-9.16,33.24,33.24,0,0,0-3.83.23v-3.47a31.25,31.25,0,0,0,4.27.23h7.22v-5.32h-9.89a32.22,32.22,0,0,0-4.24.23V126a27.54,27.54,0,0,0,4.24.26h9.89Zm-3.91,13.34a20.06,20.06,0,0,0,6.25,7.2,25.19,25.19,0,0,0,6.58-7.2Z" transform="translate(72.69 28.44)"></path><path class="cls-2" d="M223.18,123.28a10.68,10.68,0,0,0-.23-2.41h3.79a11.25,11.25,0,0,0-.18,2.45v1.47h9.67a31.46,31.46,0,0,0,4.46-.23v3.54a44.33,44.33,0,0,0-4.43-.18H213.84c0,16.27-.85,21.74-4.24,27.43a11.76,11.76,0,0,0-2.78-2.64c2.9-4.52,3.68-9.42,3.68-23,0-2.72,0-3.85-.15-5.09,1.26.11,2.6.19,4.2.19h8.63Zm1.33,9.23a19.43,19.43,0,0,0-.18-3.58h3.57a25.09,25.09,0,0,0-.15,3.58v1h8a23.73,23.73,0,0,0,3.87-.22v3.54a26.62,26.62,0,0,0-3.76-.23h-8.14v4.75h6.91a25.84,25.84,0,0,0,3.24-.15,35,35,0,0,0-.15,3.66v6a31.59,31.59,0,0,0,.22,4.75h-3.53v-1.74H219.75v1.74h-3.53a33.59,33.59,0,0,0,.23-4.6v-6.52a27.29,27.29,0,0,0-.15-3.28,25.56,25.56,0,0,0,3.23.15h5Zm-4.76,18.28h14.69v-6.41H219.75Z" transform="translate(72.69 28.44)"></path><path class="cls-3" d="M59.09,180.87a30,30,0,0,0-3.79.19v-2.79a47.39,47.39,0,0,1-4.46,2.45,9.9,9.9,0,0,0-2.12-3.28,38.68,38.68,0,0,0,9.11-5.28A27.7,27.7,0,0,0,64,165.23h4a27.29,27.29,0,0,0,6.88,7.05,35.51,35.51,0,0,0,9.18,5A13.53,13.53,0,0,0,82,180.87,43.85,43.85,0,0,1,77,178.08v3a26.44,26.44,0,0,0-3.75-.19H67.72v4.86h6.35a25.4,25.4,0,0,0,3.87-.19v3.54a33.5,33.5,0,0,0-3.87-.18H67.72v5.76H78a36.14,36.14,0,0,0,4.49-.22v3.73a29.84,29.84,0,0,0-4.46-.27H54.41a28.58,28.58,0,0,0-4.39.27v-3.73a33.91,33.91,0,0,0,4.46.22h9.78V188.9h-5.8a31.94,31.94,0,0,0-3.79.18v-3.54a25.68,25.68,0,0,0,3.79.19h5.8v-4.86Zm14.32-3.17a26.53,26.53,0,0,0,2.78-.11,46.45,46.45,0,0,1-4.72-3.54,30.18,30.18,0,0,1-5.39-5.84c-2.38,3.58-5.2,6.29-9.81,9.42,1,.07,1.45.07,2.6.07Z" transform="translate(72.69 28.44)"></path><path class="cls-3" d="M98.17,196.51a31,31,0,0,0-4.54.19,16.76,16.76,0,0,1,6-11.91,51.76,51.76,0,0,1,6-4.41c3.53-2.41,4.57-3.81,4.57-6.11,0-2.6-2.12-4.22-5.47-4.22a5.7,5.7,0,0,0-5,2.34A7.79,7.79,0,0,0,98.47,176l-4.43-.6a11.21,11.21,0,0,1,2.49-5.81c1.75-2.07,4.54-3.16,8.07-3.16,6.17,0,10,3.05,10,7.95,0,2.86-1.07,4.86-3.75,6.93-1.15.87-1.68,1.24-5,3.51-4.17,2.82-6,5-7,7.91H110a37.19,37.19,0,0,0,5.05-.26v4.25c-1.63-.15-3.05-.22-5.2-.22Z" transform="translate(72.69 28.44)"></path><path class="cls-3" d="M156.17,188.9a62.29,62.29,0,0,1-5,4.14,23.87,23.87,0,0,0,8.66,3.13,9.59,9.59,0,0,0-2.05,3.2c-5.13-1.51-8.29-3.16-11.45-6v2.94c-3.38.87-4.76,1.17-13.16,2.75-.59.12-.74.15-1.38.3l-.63-3.61.52,0a34.29,34.29,0,0,0,4.17-.45v-8.06h-4.35c-.75,5.46-1.75,8.55-3.94,12.28a15.57,15.57,0,0,0-2.79-2.79,20,20,0,0,0,3-7.53c.78-3.85,1.19-9.84,1.19-17.53a57.06,57.06,0,0,0-.18-5.76,38.8,38.8,0,0,0,4.72.19h19.89a38.17,38.17,0,0,0,4.13-.15c-.08,1-.12,1.81-.12,3.16v2.79a30.25,30.25,0,0,0,.12,3.09c-1.49-.07-2.49-.11-3.91-.11h-2.6v3.05h2.6a25.29,25.29,0,0,0,3.57-.15v3.16a33.1,33.1,0,0,0-3.61-.15h-2.56v3.58h3.72a34.75,34.75,0,0,0,4.12-.18v3.24c-1.26-.12-2.49-.19-4.05-.19h-1.19Zm-18-13.87v-.15h-6.09c0,4.52-.12,6.59-.38,9.49h6.47v-3.58h-1.74a27.73,27.73,0,0,0-3.28.15v-3.16a25,25,0,0,0,3.28.15h1.74Zm15.92-2.87V169h-22v3.16Zm-15.06,15.08v7.53a60.41,60.41,0,0,0,7.17-1.47,16.2,16.2,0,0,1-4.2-6.06Zm8.66-9.31v-3.05h-6.32v3.05Zm0,6.44v-3.58h-6.32v3.58Zm-2.3,2.87a10.78,10.78,0,0,0,3.23,4.07,20.06,20.06,0,0,0,4.43-4.07Z" transform="translate(72.69 28.44)"></path><path class="cls-3" d="M180.42,182.79a36.11,36.11,0,0,1-7.74,13.3,11,11,0,0,0-3.08-2.37A26,26,0,0,0,177,181.55Zm-5.92-3.92a32.52,32.52,0,0,0-4.2.23v-3.81a25.72,25.72,0,0,0,4.28.23h23.76a32.83,32.83,0,0,0,4.27-.23v3.81a34.33,34.33,0,0,0-4.24-.23h-9.85v15.87c0,1.73-.22,2.48-.89,3s-1.67.79-4.09.79c-1.53,0-3.12-.07-4.5-.15a10.34,10.34,0,0,0-.86-3.54,35.43,35.43,0,0,0,4.84.41c1.75,0,1.93-.07,1.93-.94V178.87Zm24.43-8.36a36.3,36.3,0,0,0-4.27-.23H177.92a39,39,0,0,0-4.2.23V166.7a32.76,32.76,0,0,0,4.24.23h16.73a33.42,33.42,0,0,0,4.24-.23Zm-3,11a31.76,31.76,0,0,0,4.5,8.06,24.82,24.82,0,0,0,3.27,3.69,19.48,19.48,0,0,0-2.83,2.68c-3.9-4.45-5.54-7.16-8.1-13.19Z" transform="translate(72.69 28.44)"></path><path class="cls-3" d="M228.45,187.35a22,22,0,0,1-4.72,3.58,8.59,8.59,0,0,0-1.34-1.77c-1.22.64-4.76,2.22-6.2,2.79-1,.41-1.94.83-2.16.94l-.71-3.73a21.28,21.28,0,0,0,4.35-1.28V177.25h-1.3a24.32,24.32,0,0,0-3,.19V174a18.08,18.08,0,0,0,3,.19h1.23v-4.9a30,30,0,0,0-.22-4.14h3.68a25.29,25.29,0,0,0-.22,4.18v4.86h.74a18.22,18.22,0,0,0,2.83-.15v3.35a24.18,24.18,0,0,0-2.79-.15h-.78v9.35c1.07-.49,1.48-.68,2.64-1.28l0,2.33a14.91,14.91,0,0,0,5.17-5h-1.42a24.84,24.84,0,0,0-3.42.19v-3.2a19.71,19.71,0,0,0,3.46.18h16.1a23.1,23.1,0,0,0,3.79-.22v3.2a34.1,34.1,0,0,0-3.79-.15H232.06a20.57,20.57,0,0,1-1.34,2h12.05a28.41,28.41,0,0,0,3.64-.16,13.73,13.73,0,0,0-.18,2.27c-.3,5.08-.9,8.89-1.68,10.32S242.73,199,240,199c-1,0-2.08,0-3.27-.12a8.3,8.3,0,0,0-1-3.35,31.15,31.15,0,0,0,4.38.38c1,0,1.6-.23,1.83-.68a30.88,30.88,0,0,0,1.15-7.84h-1.82a23.5,23.5,0,0,1-3.57,5.84,34.07,34.07,0,0,1-4.69,4.3,27.39,27.39,0,0,1-3.16,2,8.35,8.35,0,0,0-2.3-2.41,24,24,0,0,0,6.69-4.41,17.38,17.38,0,0,0,3.83-5.31h-2.83c-2.23,3.58-5.5,6.33-10.26,8.71a8.66,8.66,0,0,0-2-2.42c4.12-1.73,7.17-3.88,8.92-6.29Zm1.08-9.5a25,25,0,0,0-3.38.16c.07-1,.15-2.08.15-3.55v-5.23a28.61,28.61,0,0,0-.15-3.4,25,25,0,0,0,3.68.19h10.41a27.72,27.72,0,0,0,3.94-.19,23.37,23.37,0,0,0-.15,3.62v5a26.76,26.76,0,0,0,.15,3.51c-.82-.08-1.89-.12-3.38-.12Zm0-7.08h11.3v-2H229.5Zm0,4.56h11.3v-2.11H229.5Z" transform="translate(72.69 28.44)"></path></svg> 