<?xml version="1.0" encoding="UTF-8"?> <!-- Generator: Adobe Illustrator 25.2.3, SVG Export Plug-In . SVG Version: 6.00 Build 0) --> <svg xmlns="http://www.w3.org/2000/svg" xmlns:xlink="http://www.w3.org/1999/xlink" version="1.1" id="レイヤー_1" x="0px" y="0px" viewBox="0 0 303.2 215.9" style="enable-background:new 0 0 303.2 215.9;" xml:space="preserve"> <style type="text/css"> .st0{fill:#40220F;} .st1{fill:#0D335B;} .st2{fill:#FFFFFF;} </style> <g> <g> <g> <path class="st0" d="M28.3,37.7c-0.6,2.3-1.6,4.1-3.3,5.7c-1.4,1.4-3.7,2.9-4.4,2.9c-0.3,0-0.6-0.3-0.6-0.7 c0-0.3,0.1-0.4,0.9-0.9c3.3-2.1,5.4-5.1,5.9-8.5L21,36.6c-0.5,0-0.8-0.3-0.8-0.9c0-0.5,0.3-0.8,0.7-0.8l6-0.4 c0-0.4,0.1-1.5,0.1-2.3v-1.8c0-0.5,0.4-0.8,0.9-0.8c0.5,0,0.9,0.4,0.9,0.8v1.8c0,0.9,0,1.6-0.1,2.2l6.5-0.5 c0.5,0,0.8,0.3,0.8,0.8c0,0.5-0.3,0.8-0.7,0.9L29,36c1.7,3.6,4.7,7.2,7.5,9c0.5,0.3,0.7,0.5,0.7,0.7c0,0.1-0.1,0.2-0.4,0.3 c-0.5,0.1-1.6,0.3-2,0.3c-0.7,0-1-0.3-2.1-1.6c-1.8-2.1-3.1-4.3-4.3-6.8L28.3,37.7z"></path> <path class="st0" d="M43.4,45.8c0,0.4-0.4,0.7-0.8,0.7c-0.5,0-0.8-0.3-0.8-0.7V32c-0.3-0.1-0.5-0.3-0.5-0.7 c0-0.4,0.3-0.7,0.7-0.7l4.1-0.4c0.1,0,0.2,0,0.2,0c0.7,0,1.1,0.4,1.1,0.9c0,0.6-0.8,2.3-1.8,3.9c1.1,1.1,1.8,2.6,1.8,3.9 c0,1-0.6,1.7-1.4,1.7c-1,0-2.3-0.7-2.3-1.2c0-0.4,0.2-0.6,0.5-0.6c0.1,0,0.2,0,0.4,0.1c0.2,0.1,0.3,0.1,0.5,0.1 c0.4,0,0.6-0.2,0.6-0.7c0-0.9-0.6-2-1.5-2.9c-0.1-0.1-0.2-0.2-0.2-0.4c0-0.3,0.2-0.5,0.4-0.6c0.6-1.2,1-2.2,1-2.4 c0-0.2-0.2-0.3-0.4-0.2l-1.6,0.2V45.8z M50.1,37c-0.1,1.6-0.2,2.5-0.5,3.4c-0.5,1.9-1.3,3.8-2.3,5c-0.2,0.3-0.4,0.4-0.6,0.4 c-0.4,0-0.7-0.3-0.7-0.6c0-0.2,0-0.3,0.4-0.9c1.7-3,2.1-4.9,2.3-11.2l0-0.7c-0.4-0.1-0.6-0.4-0.6-0.8c0-0.5,0.3-0.8,0.7-0.8 l8.3-0.8h0.1c0.4,0,0.7,0.3,0.7,0.8s-0.2,0.8-0.7,0.8l-6.9,0.7l0,0.2c0,0.8,0,1.3-0.1,2.7v0.1l5.4-0.5h0.3c0.8,0,1.3,0.4,1.3,1.1 c0,0.3,0,0.5-0.2,0.9c-0.5,1.7-1.1,3.1-2.3,4.9c1.1,1.2,2.8,2.7,3.9,3.4c0.3,0.2,0.5,0.4,0.5,0.5c0,0.2-1.1,0.6-1.8,0.6 c-0.3,0-0.5-0.1-0.9-0.4c-1.1-1-1.9-1.9-2.7-2.9l-0.1,0.1c-1.2,1.5-3.4,3.3-4,3.3c-0.3,0-0.6-0.3-0.6-0.6c0-0.3,0.1-0.4,0.7-0.9 c0.9-0.7,2.2-2,3-3.1l0.1-0.1l-0.1-0.2c-1.3-1.7-2.1-3.2-2.1-3.7c0-0.3,0.3-0.6,0.7-0.6c0.3,0,0.4,0.1,0.8,0.7 c0.4,0.7,1.2,1.9,1.7,2.5c0.8-1.3,1.6-3.2,1.6-3.8c0-0.2-0.1-0.3-0.4-0.3h-0.1L50.1,37z"></path> <path class="st0" d="M63,35.2c-0.6,0-0.9-0.4-0.9-1c0-0.4,0.2-0.6,0.5-0.8c0.2-0.1,0.2-0.1,1.1-0.2c2.1-0.2,7.6-1.1,10.3-1.6 c0.3,0,0.4-0.1,0.5-0.1c0.6,0,1,0.5,1,1.1c0,0.4-0.2,0.6-0.7,0.8c-1,0.3-2,1.1-2.8,2c-1.2,1.3-1.9,2.9-1.9,4.5 c0,1.9,1.2,3.3,3.3,4c0.6,0.2,0.8,0.5,0.8,0.9c0,0.5-0.4,0.9-0.9,0.9c-0.5,0-1.3-0.3-2-0.7c-1.9-1.2-3-2.9-3-5 c0-2.3,1.3-4.7,3.3-6.2c0.1-0.1,0.1-0.1,0.2-0.2C69,34.3,63.7,35.2,63,35.2z M77.9,31.3c0.5,0.5,0.8,0.9,0.8,1.3 c0,0.4-0.4,0.7-0.8,0.7c-0.3,0-0.4-0.1-0.7-0.5c-0.3-0.6-0.8-1.2-1.4-1.8c-0.2-0.2-0.3-0.4-0.3-0.5c0-0.3,0.2-0.5,0.5-0.5 C76.3,30,77.1,30.5,77.9,31.3z M78.9,29.1c0.9,0.7,1.5,1.4,1.5,1.9c0,0.4-0.3,0.7-0.7,0.7c-0.3,0-0.4-0.1-0.7-0.4 c-0.4-0.6-1-1.3-1.5-1.8c-0.2-0.2-0.3-0.3-0.3-0.5c0-0.2,0.2-0.5,0.5-0.5C78,28.5,78.3,28.7,78.9,29.1z"></path> <path class="st0" d="M86.2,35.6c1.1,0.6,1.3,0.8,1.3,1.4c0,0.5-0.4,0.9-0.9,0.9c-0.3,0-0.5-0.1-0.9-0.4c-0.3-0.3-0.6-0.5-1.3-1.1 c-0.7-0.6-0.8-0.7-0.8-1c0-0.3,0.3-0.6,0.6-0.6C84.6,34.8,85.3,35,86.2,35.6z M88.6,40.2c0,0.5-1,2.7-2,4.4 c-0.7,1.2-1.1,1.5-1.5,1.5c-0.5,0-0.9-0.4-0.9-0.9c0-0.3,0-0.4,0.5-1c1.1-1.6,2-3,2.5-4c0.3-0.5,0.5-0.7,0.8-0.7 C88.3,39.5,88.6,39.8,88.6,40.2z M87.5,31.5c0.8,0.5,1.1,0.8,1.1,1.3s-0.4,0.9-0.9,0.9c-0.3,0-0.5-0.1-0.9-0.4 c-0.3-0.3-0.9-0.8-1.6-1.3c-0.3-0.3-0.5-0.5-0.5-0.7c0-0.3,0.3-0.6,0.7-0.6C85.7,30.6,86.5,30.9,87.5,31.5z M100.7,43.7 c0.5,0,0.9,0.3,0.9,0.8c0,0.5-0.3,0.8-0.8,0.9l-11.6,0.5c-0.5,0-0.8-0.3-0.8-0.8c0-0.5,0.3-0.8,0.8-0.8l4.8-0.2V40l-3.2,0.2 c-0.5,0-0.8-0.3-0.8-0.8c0-0.5,0.3-0.7,0.7-0.8l3.3-0.2v-3.3L90,35.5c-0.5,0-0.9-0.3-0.9-0.8s0.3-0.8,0.7-0.8l9.5-0.7 c0.5,0,0.9,0.3,0.9,0.8c0,0.5-0.3,0.8-0.8,0.9l-4,0.3v3.3l3.2-0.2c0.5,0,0.9,0.2,0.9,0.7c0,0.5-0.2,0.8-0.8,0.8l-3.3,0.2V44 L100.7,43.7z M95.3,30.6c0.8,0.5,1,0.8,1,1.2c0,0.5-0.5,0.9-1,0.9c-0.3,0-0.4-0.1-0.8-0.4c-0.6-0.6-1.6-1.5-2.1-1.9 c-0.2-0.2-0.4-0.4-0.4-0.6c0-0.3,0.3-0.6,0.6-0.6C92.9,29.2,94.2,29.8,95.3,30.6z"></path> <path class="st0" d="M118.6,34.4c-0.6,2.2-1.8,4.7-3.3,6.4c1.7,1.5,4.2,3,6.9,4.1c0.5,0.2,0.8,0.4,0.8,0.6c0,0.1-0.2,0.3-0.5,0.4 c-0.8,0.3-1.5,0.5-2,0.5c-0.4,0-0.6-0.1-1.3-0.5c-1.7-1-3.3-2.2-5-3.8c-2,1.8-4,3-6.5,3.8c-0.6,0.2-0.9,0.3-1.1,0.3 c-0.4,0-0.7-0.3-0.7-0.6c0-0.2,0.1-0.4,0.3-0.5c0.1,0,0.1,0,0.6-0.3c2.2-0.9,4.5-2.4,6.1-4c-1.3-1.4-3-3.9-3.9-5.8l-2.2,0.1 c-0.6,0-0.9-0.3-0.9-0.8c0-0.5,0.3-0.8,0.8-0.8l6.4-0.4v-2.8c0-0.5,0.4-0.8,0.9-0.8c0.5,0,0.9,0.4,0.9,0.8v2.7l6.1-0.4 c0.5,0,0.9,0.3,0.9,0.8c0,0.5-0.3,0.8-0.7,0.8L118.6,34.4z M110.7,34.8c0.7,1.3,2.1,3.3,3.3,4.7c1.1-1.4,2-3.2,2.5-5L110.7,34.8z "></path> <path class="st0" d="M130.2,45.8c0,0.4-0.4,0.8-0.8,0.8c-0.5,0-0.8-0.3-0.8-0.8v-9c-1.1,1.6-1.6,2.2-2.1,2.2 c-0.3,0-0.6-0.3-0.6-0.6c0-0.3,0-0.3,0.6-1.1c1.3-2,2.6-4.5,3.5-6.9c0.2-0.6,0.5-0.8,0.9-0.8c0.5,0,0.9,0.3,0.9,0.8 c0,0.5-0.6,2.1-1.4,3.6V45.8z M138.2,38.4l3.2-0.2c0.5,0,0.8,0.3,0.8,0.8s-0.2,0.8-0.7,0.8l-3.3,0.2v4.1l4.9-0.2 c0.5,0,0.9,0.3,0.9,0.8c0,0.5-0.3,0.8-0.8,0.9L131.9,46c-0.5,0-0.8-0.3-0.8-0.8c0-0.5,0.3-0.8,0.8-0.8l4.5-0.2v-4.1l-3.2,0.2 c-0.5,0-0.8-0.3-0.8-0.7c0-0.5,0.3-0.8,0.7-0.8l3.3-0.2v-3.3l-3.8,0.3c-0.5,0-0.9-0.3-0.9-0.8s0.3-0.8,0.7-0.9l9.4-0.7 c0.5,0,0.9,0.3,0.9,0.8c0,0.5-0.3,0.8-0.7,0.9l-3.9,0.3V38.4z M137.2,30.3c1.2,0.8,1.5,1.1,1.5,1.6c0,0.5-0.5,0.9-1,0.9 c-0.3,0-0.4-0.1-0.8-0.4c-0.6-0.6-1.5-1.4-2.2-1.9c-0.2-0.2-0.3-0.3-0.3-0.5c0-0.3,0.3-0.7,0.7-0.7 C135.4,29.3,136.2,29.6,137.2,30.3z"></path> <path class="st0" d="M162.9,31.5h0.2c0.7,0,1.1,0.3,1.1,0.8c0,0.5-0.5,1.4-1.3,2.4c-0.6,0.8-0.9,1-1.2,1s-0.6-0.3-0.6-0.6 c0-0.2,0.1-0.3,0.2-0.5c0.3-0.5,0.6-1.1,0.6-1.4c0-0.1-0.1-0.2-0.3-0.2h-0.1l-11.6,0.8c-0.1,2-0.4,2.8-1.2,2.8 c-0.6,0-1-0.4-1-0.9c0-0.2,0-0.3,0.2-0.7c0.3-0.8,0.6-1.9,0.6-2.5c0-0.5,0.3-0.7,0.7-0.7c0.4,0,0.6,0.2,0.6,0.6l5-0.3v-2.2 c0-0.5,0.4-0.8,0.9-0.8c0.5,0,0.9,0.4,0.9,0.8v2L162.9,31.5z M155.9,39.3l6.4-0.8l0.2,0c0.4,0,0.8,0.4,0.8,0.8 c0,0.4-0.3,0.7-0.8,0.8l-6.6,0.8l0,2.7v0.1c0,0.5,0.2,0.8,0.6,1c0.2,0.1,0.9,0.1,1.9,0.1c2,0,3.3-0.1,3.8-0.4 c0.4-0.2,0.4-0.4,0.4-2.1c0-0.5,0.2-0.7,0.6-0.7c0.3,0,0.5,0.2,0.6,0.6c0.2,0.9,0.4,1.9,0.4,2.4c0,0.9-0.3,1.3-1.2,1.5 c-0.8,0.2-2.8,0.3-5,0.3c-2,0-2.7-0.1-3.2-0.5c-0.3-0.2-0.5-0.6-0.6-1c0-0.1,0-0.4,0-0.5v-0.1l0-3.2l-5.3,0.7 c-0.5,0.1-0.9-0.3-0.9-0.8c0-0.4,0.3-0.7,0.7-0.8l5.5-0.7l0-2.1c-1.8,0.4-2.8,0.5-3,0.5c-0.4,0-0.7-0.3-0.7-0.7 c0-0.2,0.1-0.4,0.3-0.5c0.1,0,0.2-0.1,0.7-0.2c2.9-0.7,5-1.3,6.3-1.9c0.3-0.1,0.5-0.2,0.7-0.2c0.4,0,0.8,0.4,0.8,0.9 c0,0.7-0.6,1-3.3,1.7L155.9,39.3z"></path> <path class="st0" d="M177.7,41.6c0,0.5-0.3,0.9-0.9,0.9c-0.5,0-0.8-0.3-0.8-0.9v-1.1c-1.6,1-2.3,1.7-2.3,2.5 c0,0.7,0.7,1.1,2.2,1.1c1,0,3.2-0.1,4-0.2c0.1,0,0.1,0,0.2,0c0.5,0,0.8,0.4,0.8,0.9c0,0.5-0.3,0.8-0.9,0.8 c-0.6,0.1-2.6,0.2-4.1,0.2c-2.7,0-4.1-0.9-4.1-2.6c0-1.6,0.9-2.6,4-4.4c-0.2-0.9-0.5-1.2-1.1-1.2c-0.8,0-1.6,0.2-2.3,0.7 c-0.2,0.2-0.5,0.3-0.7,0.3c-0.4,0-0.8-0.4-0.8-0.9c0-0.2,0.1-0.4,0.3-0.6c0.4-0.4,1-1.3,1.9-3.1c-0.8,0.1-1.9,0.1-2.3,0.1 c-0.7,0-1-0.3-1-0.8c0-0.4,0.2-0.7,0.6-0.8c0.1,0,0.2,0,0.6,0c0.5,0,2-0.1,3-0.2c0.4-0.9,0.6-1.4,1-2.2c0.2-0.5,0.5-0.7,0.9-0.7 c0.5,0,0.9,0.4,0.9,0.8c0,0.2-0.1,0.6-0.8,1.9c0.9-0.1,1.8-0.2,2.6-0.4c0.2-0.1,0.3-0.1,0.4-0.1c0.4,0,0.8,0.4,0.8,0.9 c0,0.4-0.3,0.6-0.8,0.8c-0.8,0.2-2.4,0.5-3.9,0.6c-0.7,1.2-1.1,2-1.6,2.7l0,0.1c0.6-0.3,1.3-0.4,1.8-0.4c1.1,0,1.8,0.6,2.2,1.8 c2.1-1.1,3.7-1.7,4.2-1.7c0.5,0,0.8,0.4,0.8,0.9c0,0.4-0.1,0.5-0.8,0.8c-1.8,0.7-3,1.2-4.1,1.7V41.6z"></path> <path class="st0" d="M192.1,36.4c0.8,0,1.2,0.3,1.2,1.1c0,0.9-0.5,2.7-1.1,4c3.7,1.9,8.1,3.1,12.7,3.6c0.7,0.1,1,0.2,1,0.4 c0,0.2-0.1,0.3-0.6,0.6c-1,0.6-1.5,0.8-2.1,0.8c-2,0-8.1-2.2-11.7-4.2c-0.9,1.3-1.6,2.1-2.9,3c-0.2,0.2-0.4,0.2-0.6,0.2 c-0.3,0-0.6-0.3-0.6-0.6c0-0.3,0-0.3,0.7-0.9c0.8-0.7,1.5-1.6,2.1-2.5c-0.1,0-0.2-0.1-0.2-0.1c-0.1,0-0.2-0.1-0.3-0.1 c-0.6-0.3-1.4-0.9-1.8-1.2c-0.2-0.2-0.3-0.4-0.3-0.6c0-0.3,0.3-0.6,0.6-0.6c0.2,0,0.3,0,1,0.5c0.3,0.2,1,0.6,1.6,0.9 c0.4-0.9,0.8-2.2,0.8-2.7c0-0.2-0.1-0.3-0.3-0.3h-0.2l-1.7,0.2l-0.1,0c-0.4,0-0.7-0.3-0.7-0.7c0-0.2,0-0.3,0.2-0.5 c0,0,0.1-0.1,0.2-0.3c0.9-1.4,2-3.6,2-4c0-0.1-0.1-0.2-0.2-0.2c-0.1,0-0.2,0-0.3,0l-2,0.4c-0.1,0-0.1,0-0.2,0 c-0.4,0-0.7-0.3-0.7-0.8c0-0.4,0.3-0.7,0.7-0.8l3.3-0.5c0.1,0,0.2,0,0.4,0c0.6,0,1,0.3,1,0.9c0,0.3-0.1,0.6-0.3,1.1 c-0.8,1.7-1.4,2.9-2,3.8l1.2-0.1H192.1z M199.5,38l3.3-0.2c0.5,0,0.8,0.2,0.8,0.6c0,0.4-0.2,0.6-0.6,0.6l-3.5,0.2v1.1l4.5-0.2 c0.1,0,0.4,0.1,0.5,0.1c0.1,0.1,0.2,0.3,0.2,0.5c0,0.4-0.2,0.6-0.6,0.7l-4.6,0.2v1.3c0,0.4-0.3,0.7-0.8,0.7 c-0.5,0-0.8-0.3-0.8-0.7v-1.2l-3.6,0.2c-0.5,0-0.8-0.2-0.8-0.7c0-0.4,0.2-0.6,0.6-0.7l3.8-0.2v-1.1l-2.9,0.2 c-0.4,0-0.7-0.2-0.7-0.7c0-0.4,0.2-0.6,0.6-0.6l3-0.2V37l-2.8,0.2c-0.4,0-0.7-0.3-0.7-0.6c0-0.4,0.2-0.6,0.6-0.6l2.9-0.2v-1.2 l-4.2,0.4c-0.4,0-0.6-0.2-0.6-0.6c0-0.4,0.2-0.6,0.6-0.7l4.3-0.4v-1.1l-2.8,0.3c-0.4,0-0.7-0.2-0.7-0.6c0-0.4,0.2-0.6,0.6-0.6 l2.9-0.3v-1.2c0-0.4,0.3-0.7,0.8-0.7c0.5,0,0.8,0.3,0.8,0.7v1l2.4-0.2c0.1,0,0.2,0,0.3,0c0.8,0,1.2,0.4,1.2,1.2 c0,0.1,0,0.2,0,0.3l-0.1,0.8l1.3-0.1c0.4,0,0.7,0.2,0.7,0.6c0,0.4-0.2,0.7-0.6,0.7l-1.6,0.1l-0.1,1.3c0.3,0.1,0.5,0.3,0.5,0.6 c0,0.3-0.2,0.6-0.6,0.6l-3.4,0.3V38z M201.8,32.9l0.1-0.7c0-0.3-0.1-0.4-0.3-0.4l-2,0.2v1.1L201.8,32.9z M201.5,35.4l0.1-1.2 l-2.1,0.2v1.2L201.5,35.4z"></path> <path class="st0" d="M220.3,33.3c-3.6,0.7-8.6,1.5-9.2,1.5c-0.6,0-0.9-0.4-0.9-1c0-0.4,0.2-0.6,0.5-0.8c0.2-0.1,0.3-0.1,1.1-0.2 c2.2-0.2,8.6-1.2,11.3-1.7c0.2,0,0.4-0.1,0.5-0.1c0.6,0,1.1,0.5,1.1,1.1c0,0.4-0.2,0.6-0.8,0.8c-3.1,0.9-5.6,3.9-5.6,6.6 c0,1.9,1.2,3.3,3.3,4c0.6,0.2,0.8,0.5,0.8,0.9c0,0.5-0.4,0.9-0.9,0.9c-0.5,0-1.3-0.3-2-0.7c-1.9-1.2-3-2.9-3-4.9 c0-2.3,1.4-4.7,3.7-6.3L220.3,33.3z"></path> <path class="st0" d="M237.4,32.1c-1.9,0.4-3.8,0.7-4.3,0.7c-0.5,0-0.9-0.3-0.9-0.8c0-0.4,0.2-0.7,0.6-0.8c0.1,0,0.2,0,0.7-0.1 c1.2-0.1,3.6-0.4,4.8-0.7c0.2,0,0.3-0.1,0.4-0.1c0.6,0,1.2,0.5,1.2,1.1c0,0.4-0.1,0.5-0.7,1.1c-3.1,3.3-3.9,4.2-5.7,5.8l0.1,0.1 c1.5-1,3-1.5,4.6-1.5c2.9,0,4.9,1.6,4.9,3.9c0,3-2.5,4.9-6.4,4.9c-1.9,0-3.4-1.1-3.4-2.4c0-1.2,1.3-2.1,3-2.1 c1.5,0,2.8,0.8,3.7,2.2c0.9-0.7,1.3-1.5,1.3-2.5c0-1.5-1.3-2.5-3.1-2.5c-2.2,0-4.2,0.8-6.3,2.4c-0.3,0.3-0.6,0.4-0.8,0.4 c-0.4,0-0.9-0.5-0.9-1c0-0.4,0.1-0.5,0.9-1.2C232.8,37.3,235.8,34.3,237.4,32.1L237.4,32.1z M236,42.8c-0.7,0-1.2,0.3-1.2,0.7 c0,0.5,0.8,0.9,1.8,0.9c0.5,0,1.1-0.1,1.7-0.2C237.6,43.3,236.8,42.8,236,42.8z"></path> <path class="st0" d="M253.1,30.5c0.2-0.6,0.4-0.8,0.9-0.8c0.5,0,0.9,0.3,0.9,0.8c0,0.2-0.2,0.9-0.7,2.3c0.4-0.1,1.2-0.2,1.5-0.3 c0.2,0,0.3-0.1,0.4-0.1c0.4,0,0.7,0.3,0.7,0.8c0,0.4-0.2,0.7-0.7,0.8c-0.5,0.1-1.7,0.3-2.6,0.4c-1,2.4-1.9,4.3-2.9,5.9 c-0.2,0.4-0.5,0.5-0.8,0.5c-0.4,0-0.9-0.4-0.9-0.8c0-0.2,0-0.3,0.4-0.9c0.7-1.1,1.6-2.7,2.3-4.5c-0.4,0.1-0.8,0.1-1.4,0.2 c-0.3,0-0.5,0-0.6,0c-0.1,0-0.2,0-0.2,0c-0.4,0-0.7-0.3-0.7-0.8c0-0.6,0.3-0.8,1-0.9c0.4,0,1.6-0.1,2.5-0.2 C252.6,32,252.9,31.2,253.1,30.5z M257.3,38.9c0-1.2,0.3-1.8,1-1.8c0.4,0,0.8,0.3,0.8,0.7c0,0.1,0,0.1,0,0.3 c0,0.1-0.1,0.6-0.1,0.9v2.4c1.2,0.4,2,0.7,3,1.3c0.4,0.2,0.6,0.5,0.6,0.9c0,0.4-0.4,0.9-0.8,0.9c-0.2,0-0.3,0-0.6-0.3 c-0.7-0.5-1.4-0.8-2.2-1.2v0.6c0,1.5-0.9,2.4-2.3,2.4c-1.8,0-3.6-1.5-3.6-3c0-1.3,1.2-2.1,2.9-2.1c0.5,0,0.9,0,1.4,0.1V38.9z M257.3,42.5c-0.5-0.1-1-0.1-1.4-0.1c-0.8,0-1.3,0.3-1.3,0.7c0,0.7,1,1.4,1.9,1.4c0.5,0,0.8-0.3,0.8-0.9V42.5z M259.8,34.1 c-0.2-0.2-0.3-0.3-0.3-0.5c0-0.4,0.3-0.6,0.7-0.6c0.5,0,1.7,0.7,2.8,1.6c0.7,0.6,1,1,1,1.5c0,0.5-0.3,0.7-1.1,0.8 c-0.3,0-0.7,0.1-1.4,0.2c-0.2,0-0.3,0-0.4,0c-0.4,0-0.6-0.2-0.6-0.5c0-0.3,0.3-0.5,1.3-0.8C261.3,35.3,260.6,34.7,259.8,34.1z"></path> <path class="st0" d="M272.3,39.7c1.7-1,3.5-1.6,5.2-1.6c2.4,0,3.9,1.3,3.9,3.3c0,1.6-0.9,2.9-2.7,3.8c-1,0.5-2.8,1-3.6,1 c-0.4,0-0.7-0.3-0.7-0.7c0-0.3,0.2-0.5,0.4-0.6c0.1,0,0.1,0,0.7-0.2c2.4-0.6,3.9-1.8,3.9-3.3c0-1.1-0.8-1.8-2.1-1.8 c-1.6,0-3.5,0.7-5.1,1.8c-0.3,0.2-0.6,0.3-0.9,0.3c-0.6,0-1-0.5-1-1.1s0.7-4.6,1-6c0.1-0.5,0.4-0.8,0.9-0.8 c0.5,0,0.8,0.3,0.8,0.8c0,0.1,0,0.2-0.1,0.6c-0.3,0.8-0.7,2.9-0.8,4.2L272.3,39.7z M273.4,30.6c-0.2-0.1-0.4-0.3-0.4-0.5 c0-0.3,0.3-0.6,0.6-0.6c0.5,0,1.7,0.6,2.7,1.3c0.7,0.5,1.1,1.1,1.1,1.6c0,0.5-0.4,0.7-1.1,0.7c-0.2,0-0.9,0.1-1.5,0.2 c-0.1,0-0.1,0-0.2,0c-0.4,0-0.6-0.2-0.6-0.5c0-0.4,0.2-0.5,1.3-0.8C274.9,31.6,274.2,31,273.4,30.6z"></path> </g> </g> <g> <g> <path class="st1" d="M105.4,70.6c-0.5,0-1.1,0.1-1.8,0.2v-2.2c0.7,0.1,1.3,0.2,1.8,0.2h23.8c-0.7,8-4.5,12.1-12.7,13.6 c-0.7,4.7-4,7.9-9.9,9.8c-0.8,0.3-1.1,0.4-1.4,0.6l-0.8-1.9c1.1,0.1,2.8-0.7,4.9-2c3-2,4.6-4.8,4.6-8.3V76c0-0.6-0.1-1.1-0.2-1.8 h3.2c-0.1,0.7-0.2,1.2-0.2,1.8v4.8c5.5-1.3,8.6-4.8,9.2-10.1H105.4z"></path> <path class="st1" d="M135.5,80.8c3.1-0.3,9.2-2.9,12.7-5.3c3.4-2.3,7.7-6.6,8.5-8.6l2.6,2.2c-0.3,0.3-0.7,0.7-1.3,1.2 c-2.6,2.7-4.6,4.6-6.7,6v15c0,0.5,0.1,1.2,0.2,1.8h-3.2c0.2-1,0.2-1.2,0.2-1.8V78c-3.1,1.7-6.4,2.9-10.7,4 c-0.7,0.2-1.1,0.3-1.6,0.5L135.5,80.8z"></path> <path class="st1" d="M181.7,90.2h10.5c0.7,0,0.8,0,2.1-0.2v2l-0.4,0l-0.4-0.1c-0.4,0-0.8-0.1-1.3-0.1h-24.1c-0.8,0-1.1,0-2.1,0.2 v-2c1.2,0.2,1.5,0.2,2.1,0.2h10.4V70.6H170c-0.4,0-0.8,0-1.2,0.1l-0.6,0.1l-0.3,0v-2c1,0.1,1.4,0.2,2.1,0.2h20.5 c0.8,0,1.2,0,2.1-0.2v2l-0.2,0l-0.6-0.1c-0.4-0.1-0.8-0.1-1.3-0.1h-8.8V90.2z"></path> <path class="st1" d="M226.7,69.9c-0.9,2.5-1.9,4.2-3.5,6c1.4,0.9,3.1,1.6,5.3,2.2l1.7,0.3l-1.6,2.7l-1.3-0.6 c-2.3-0.9-4.2-1.9-5.8-3.1c-1.8,1.3-3.8,2.3-6.4,3.3l-0.9,0.6l-0.9-1.5c-0.6,1.3-1,2-1.7,3.2l-0.5,1.2l-1.5-0.7l0.6-1.1 c0.8-2.9,0.8-3.1,1.1-4.3h-2.4v14.2c0,1.2-0.5,1.8-1.5,1.8c-0.8,0-1.7-0.2-3.5-0.6l-1.4-0.2l-0.2-1.6c1.6,0.2,2.5,0.2,3.4,0.2 c0.6,0,0.7-0.1,0.7-0.7V82c-1.2,2.5-2.8,4.8-5,7.1l-0.8,1.1l-1.3-1.2l1-1c2.1-2.7,3.8-6.1,5-10h-2.9c-0.8,0-1.1,0-2.1,0.2v-2 c1,0.1,1.4,0.2,2.1,0.2h5.6l-0.2-0.3c-1.8-1.9-3.3-3.3-4.6-4.3l-1-0.6l1.2-1.3l0.8,0.7c0.8,0.4,2.2,1.3,2.8,1.8 c1.3-1.6,2.4-3.1,3-4.3h-6.9c-0.8,0-1.1,0-2.1,0.2v-2c1,0.1,1.4,0.2,2.1,0.2h7.5c2.1,0,2.4,0,3.2-0.1v1.3 c-1.8,2.1-3.5,3.9-5.5,5.6l0.4,0.3l0.4,0.2l0.6,0.4l1.1,0.7l-1.5,1.6h2.1c1.7,0,2.1,0,2.8-0.1v1.2c-0.3,0.8-0.6,1.5-0.8,2.1 l1.2-0.3c2.3-1.1,3.9-2.1,5.4-3.4c-1.3-1.4-2.4-2.9-3.2-4.7c-0.8,1-1.4,1.6-2.3,2.5l-0.9,0.9l-1.2-1.1l1-0.8 c2-2.4,3.3-4.7,4.1-7.2l0.3-1.2l3.1,0.7l-0.7,1.2c-0.4,0.8-0.6,1.1-1.1,1.9h8.6c0.7,0,1.2,0,2.1-0.2v2l-0.4,0l-0.4-0.1 c-0.4,0-0.8-0.1-1.3-0.1H226.7z M215.2,84.4c-0.7,0-1.1,0-2.1,0.2v-1.9c1,0.1,1.4,0.2,2.1,0.2h3.6v-0.3l0-0.1 c0-0.4,0.1-1.2,0.1-1.6l-0.1-1.6l3,0.1l-0.3,1.5c0,0.5,0,0.8-0.1,1.6l-0.1,0.5h4.2c1.6,0,2,0,2.8-0.1v1.2c-0.4,5.2-0.6,7-1,8.4 c-0.4,1.2-1,1.8-2,1.8c-1,0-2.5-0.3-4.1-0.8l-1.5-0.3l-0.2-1.6c1.6,0.2,2.8,0.3,4,0.3c0.8,0,1.1-0.2,1.3-1 c0.4-1.5,0.8-4.2,0.8-6.4h-4.5c-1,4.5-3.2,7.3-7.9,9.4l-1.2,0.7l-1-1.5l1.4-0.5c3.4-2.1,5.3-4.7,5.9-8.1H215.2z M217.6,70 c1,1.8,2.2,3.4,3.6,4.5c1.1-1.3,1.9-2.9,2.5-4.6L217.6,70L217.6,70z"></path> <path class="st1" d="M248.6,66.9c0-0.4,0-0.8-0.1-1.2l-0.1-0.6l0-0.3h3.3c-0.2,1.2-0.2,1.4-0.2,2.1V69h9.4c0.8,0,1.1,0,2.1-0.2v2 c-1.1-0.1-1.2-0.2-2.1-0.2h-20.6v7.4c0,6.4-1.2,10.6-4.1,14.9l-0.6,1.2l-1.5-0.9l0.8-1c1.8-4.1,2.5-8.1,2.5-14.2v-6.4v-0.4 c0-0.9,0-1.4-0.2-2.4c0.9,0.1,1.4,0.1,2.6,0.1h8.8V66.9z M258.6,83c1.2,0,1.6,0,2.6-0.1c-0.2,1-0.2,1.4-0.2,2.7v5.6v0.4v0.2 c0,0.6,0.1,1.3,0.2,2.1c-1.1-0.1-1.3-0.1-2.1-0.1h-0.5h-14.3h-0.4c-0.8,0-1.3,0-2.2,0.1c0.2-1.1,0.2-1.4,0.2-2.7v-5.6v-0.4 c0-0.8,0-1.4-0.2-2.3c1,0.1,1.5,0.1,2.7,0.1h5.1v-9.2c0-0.5,0-0.7-0.1-1.6l-0.1-0.5h3.3c-0.2,1.2-0.2,1.4-0.2,2.1v2.5h8.1 c0.7,0,1.2,0,2.1-0.2v2l-0.4,0l-0.4-0.1c-0.4,0-0.8-0.1-1.3-0.1h-8.1V83H258.6z M244.8,84.6V92h13.4v-7.4H244.8z"></path> </g> <g> <g> <rect x="37.7" y="55.9" class="st1" width="50" height="50"></rect> </g> <g> <path class="st2" d="M43.5,83.8H46l10.1-13.2l10.1,13.2h2.5L56.1,67.2L43.5,83.8z M76.6,83.8h2V68.2l-2,0V83.8z"></path> </g> <g> <polygon class="st2" points="44.1,88.5 44.1,89.7 45.2,88.5 46,88.5 44.9,89.6 46.1,91.4 45.3,91.4 44.4,90.1 44.1,90.5 44.1,91.4 43.4,91.4 43.4,88.5 "></polygon> </g> <path class="st2" d="M48.4,89.4c0.1-0.2,0.2-0.4,0.3-0.5c0.1-0.1,0.3-0.3,0.5-0.3c0.2-0.1,0.4-0.1,0.6-0.1c0.2,0,0.4,0,0.6,0.1 c0.2,0.1,0.3,0.2,0.5,0.3c0.1,0.1,0.2,0.3,0.3,0.5c0.1,0.2,0.1,0.4,0.1,0.6c0,0.2,0,0.4-0.1,0.6c-0.1,0.2-0.2,0.3-0.3,0.5 c-0.1,0.1-0.3,0.2-0.5,0.3c-0.2,0.1-0.4,0.1-0.6,0.1c-0.2,0-0.4,0-0.6-0.1c-0.2-0.1-0.3-0.2-0.5-0.3c-0.1-0.1-0.2-0.3-0.3-0.5 c-0.1-0.2-0.1-0.4-0.1-0.6C48.3,89.7,48.4,89.5,48.4,89.4 M49,90.3c0,0.1,0.1,0.2,0.1,0.3c0.1,0.1,0.1,0.2,0.2,0.2 c0.1,0.1,0.2,0.1,0.4,0.1c0.1,0,0.3,0,0.4-0.1c0.1-0.1,0.2-0.1,0.3-0.2c0.1-0.1,0.1-0.2,0.1-0.3c0-0.1,0-0.2,0-0.4 c0-0.1,0-0.3,0-0.4c0-0.1-0.1-0.2-0.1-0.3c-0.1-0.1-0.1-0.2-0.3-0.2C50.1,89,49.9,89,49.8,89c-0.1,0-0.3,0-0.4,0.1 c-0.1,0.1-0.2,0.1-0.2,0.2c-0.1,0.1-0.1,0.2-0.1,0.3c0,0.1,0,0.2,0,0.4C49,90.1,49,90.2,49,90.3"></path> <path class="st2" d="M55.9,91.2c-0.2,0.2-0.5,0.3-0.9,0.3c-0.4,0-0.7-0.1-0.9-0.3c-0.2-0.2-0.3-0.5-0.3-0.9v-1.8h0.6v1.8 c0,0.1,0,0.2,0,0.2c0,0.1,0,0.1,0.1,0.2c0,0.1,0.1,0.1,0.2,0.1c0.1,0,0.2,0.1,0.3,0.1c0.2,0,0.4,0,0.5-0.2 c0.1-0.1,0.1-0.3,0.1-0.5v-1.8h0.7v1.8C56.3,90.7,56.2,91,55.9,91.2"></path> <g> <polygon class="st2" points="59.8,88.5 60.5,90.5 60.5,90.5 61.2,88.5 62.1,88.5 62.1,91.4 61.5,91.4 61.5,89.3 61.5,89.3 60.8,91.4 60.3,91.4 59.5,89.4 59.5,89.4 59.5,91.4 58.9,91.4 58.9,88.5 "></polygon> </g> <path class="st2" d="M66.9,91.2c-0.2,0.2-0.5,0.3-0.9,0.3c-0.4,0-0.7-0.1-0.9-0.3c-0.2-0.2-0.3-0.5-0.3-0.9l0-1.8h0.7v1.8 c0,0.1,0,0.2,0,0.2c0,0.1,0,0.1,0.1,0.2c0,0.1,0.1,0.1,0.2,0.1c0.1,0,0.2,0.1,0.3,0.1c0.2,0,0.4,0,0.5-0.2 c0.1-0.1,0.1-0.3,0.1-0.5v-1.8h0.7v1.8C67.3,90.7,67.2,91,66.9,91.2"></path> <g> <polygon class="st2" points="69.7,89 69.7,88.5 72.1,88.5 72.1,89 71.2,89 71.2,91.4 70.6,91.4 70.6,89 "></polygon> </g> <g> <polygon class="st2" points="76.7,88.5 76.7,89 75.2,89 75.2,89.7 76.6,89.7 76.6,90.2 75.2,90.2 75.2,90.9 76.8,90.9 76.8,91.4 74.5,91.4 74.5,88.5 "></polygon> </g> <g> <polygon class="st2" points="79.9,88.5 81.2,90.5 81.2,90.5 81.2,88.5 81.8,88.5 81.8,91.4 81.1,91.4 79.9,89.5 79.9,89.5 79.9,91.4 79.3,91.4 79.3,88.5 "></polygon> </g> </g> </g> <g> <path class="st0" d="M8.5,146.1c0,0.7-0.6,1.2-1.4,1.2s-1.4-0.5-1.4-1.2v-24.2c-0.6-0.1-0.9-0.6-0.9-1.2c0-0.7,0.5-1.2,1.2-1.3 l7.1-0.8c0.2,0,0.4,0,0.4,0c1.2,0,1.9,0.6,1.9,1.6c0,1.1-1.4,4.1-3.2,6.8c1.9,1.9,3.1,4.5,3.1,6.8c0,1.8-1,2.9-2.5,2.9 c-1.7,0-4-1.2-4-2.1c0-0.6,0.3-1,0.9-1c0.2,0,0.4,0,0.7,0.1c0.3,0.1,0.6,0.1,0.9,0.1c0.7,0,1-0.3,1-1.2c0-1.5-1-3.4-2.7-5.1 c-0.2-0.2-0.3-0.4-0.3-0.6c0-0.5,0.3-0.9,0.7-1c1-2,1.8-3.9,1.8-4.3c0-0.3-0.3-0.5-0.7-0.4l-2.7,0.3V146.1z M20.4,130.7 c-0.2,2.8-0.4,4.3-0.8,6c-0.8,3.4-2.3,6.6-4,8.8c-0.4,0.5-0.7,0.7-1.1,0.7c-0.6,0-1.2-0.5-1.2-1.1c0-0.4,0-0.5,0.7-1.5 c3-5.3,3.7-8.5,4-19.5l0-1.2c-0.7-0.1-1.1-0.6-1.1-1.4c0-0.8,0.5-1.3,1.3-1.4l14.5-1.4h0.2c0.8,0,1.3,0.6,1.3,1.4 s-0.4,1.4-1.2,1.4l-12.1,1.2l0,0.4c0,1.4-0.1,2.3-0.2,4.7v0.2l9.5-0.9h0.5c1.5,0,2.2,0.6,2.2,1.9c0,0.5-0.1,0.8-0.3,1.6 c-0.8,3-2,5.5-4.1,8.6c1.9,2.2,4.9,4.8,6.9,6c0.6,0.4,0.9,0.7,0.9,0.9c0,0.4-1.9,1.1-3.2,1.1c-0.6,0-0.9-0.2-1.6-0.8 c-1.9-1.8-3.4-3.4-4.7-5.1l-0.1,0.2c-2.1,2.6-6,5.8-7,5.8c-0.5,0-1.1-0.5-1.1-1c0-0.5,0.1-0.7,1.2-1.5c1.5-1.2,3.8-3.5,5.3-5.5 l0.1-0.1l-0.2-0.3c-2.2-3-3.7-5.6-3.7-6.4c0-0.6,0.6-1.1,1.2-1.1c0.5,0,0.7,0.2,1.4,1.3c0.7,1.3,2.1,3.3,2.9,4.3 c1.4-2.3,2.7-5.6,2.7-6.7c0-0.3-0.2-0.5-0.7-0.5h-0.1L20.4,130.7z"></path> <path class="st0" d="M44.7,134.3c-1.4,2.3-3.2,4.5-4.7,6.1c-0.8,0.8-1.2,1-1.6,1c-0.5,0-1-0.6-1-1.1c0-0.4,0-0.5,0.8-1.4 c1.9-2.1,4.5-6.1,5.8-8.8l-4.8,0.6c-0.8,0.1-1.5-0.5-1.5-1.4c0-0.7,0.5-1.2,1.2-1.3l5.8-0.7v-4.4c-2.4,0.6-4.2,1-4.7,1 c-0.7,0-1.1-0.5-1.1-1.1c0-0.5,0.2-0.8,0.7-1c0.1-0.1,0.1-0.1,1-0.2c2.5-0.6,5.5-1.8,8.6-3.3c0.5-0.2,0.8-0.3,1.2-0.3 c0.8,0,1.4,0.6,1.4,1.4c0,1-0.7,1.4-4.1,2.6v5l4.1-0.5c0.8-0.1,1.5,0.5,1.5,1.3c0,0.7-0.4,1.2-1.2,1.3l-4.4,0.6v1.8 c4.6,2.4,5.8,3.3,5.8,4.4c0,0.8-0.6,1.4-1.4,1.4c-0.5,0-0.7-0.1-1.4-0.7c-1-1-1.9-1.7-3-2.7v12.3c0,0.8-0.6,1.3-1.5,1.3 c-0.9,0-1.5-0.5-1.5-1.3V134.3z M66.9,138.5c0.7,0.1,1.1,0.7,1.1,1.4c0,0.8-0.5,1.4-1.3,1.4l-8.9,0.6v0.1c0,0.9-0.6,1.4-1.5,1.4 c-0.8,0-1.4-0.5-1.5-1.4L54,126.7v-0.1c-0.1-0.7,0.7-1.4,1.5-1.4c0.7,0,1.2,0.3,1.4,0.8l7.8-0.9c0.2,0,0.4,0,0.7,0 c1.6,0,2.5,0.8,2.5,2.4c0,0.3,0,0.3,0,0.5L66.9,138.5z M64.6,129l0-0.2c0-0.6-0.2-0.9-0.7-0.8c0,0-0.1,0-0.3,0l-6.4,0.7l0.5,10.4 l6.4-0.4L64.6,129z"></path> <path class="st0" d="M88.4,129.7l4.4-0.3h0.7c1.8,0,2.7,0.6,2.7,1.6c0,1.8-3.1,6.1-6.7,9.2c2.5,1.6,7.6,4,11.3,5.4 c0.9,0.3,1.3,0.6,1.3,0.9c0,0.3-0.3,0.5-0.8,0.7c-1.5,0.5-2.9,0.8-3.5,0.8c-0.6,0-0.8-0.1-1.9-0.7c-2.7-1.4-6.4-3.6-8.6-5.2 c-2.1,1.5-4.7,2.9-7.5,4c-2.1,0.8-4.9,1.6-5.5,1.6c-0.6,0-1.1-0.5-1.1-1.2c0-0.3,0.2-0.7,0.6-0.9c0.2-0.1,0.4-0.2,1.4-0.5 c3.4-1.1,7.1-2.9,9.8-4.8c-5-3.8-5.8-4.6-5.8-5.3c0-0.6,0.6-1.2,1.2-1.2c0.5,0,0.8,0.1,1.7,0.9c1.5,1.2,3,2.3,5.1,3.8l0.2-0.1 l0.1-0.1c1.9-1.6,4.6-5.1,4.6-5.8c0-0.2-0.1-0.3-0.5-0.3h-0.2l-12.5,0.9h-0.2c-0.9,0-1.4-0.5-1.4-1.3c0-0.8,0.5-1.4,1.4-1.4 l6.7-0.5v-4.6l-9.9,0.6l-0.2,0c-0.7,0.1-1.4-0.6-1.4-1.4c0-0.8,0.5-1.3,1.3-1.4l10.1-0.7v-4.7c0-0.8,0.7-1.4,1.6-1.4 c0.9,0,1.6,0.6,1.6,1.4v4.5l9.5-0.7H98c0.8,0,1.4,0.6,1.4,1.5c0,0.7-0.5,1.2-1.3,1.3l-9.7,0.7V129.7z"></path> <path class="st0" d="M132.9,120.8c0.8-0.1,1.4,0.5,1.4,1.3c0,0.8-0.5,1.3-1.2,1.4l-20.5,1.5c0,6.4-1.2,13-3.2,17.4 c-1.1,2.6-2.1,3.8-2.9,3.8c-0.6,0-1.2-0.6-1.2-1.2c0-0.4,0-0.5,0.5-1.3c2.1-3.8,3.5-11.5,3.6-18.6c-0.5-0.2-0.8-0.7-0.8-1.3 c0-0.8,0.5-1.3,1.4-1.3l9.3-0.7v-3.6c0-0.8,0.6-1.4,1.5-1.4c0.9,0,1.6,0.6,1.6,1.4v3.4L132.9,120.8z M131.1,143.6 c0.7,0.1,1.1,0.6,1.1,1.3c0,0.8-0.5,1.3-1.4,1.3l-13.3,0.6v0.1v0.1c0,0.7-0.6,1.2-1.5,1.2c-0.9,0-1.5-0.5-1.5-1.3l-0.9-9.5 c0-0.9,0.5-1.5,1.6-1.5h0.1c0.7,0,1.2,0.3,1.4,0.9l3.9-0.3v-10.1c0-0.9,0.6-1.4,1.5-1.4s1.6,0.5,1.6,1.4v3.4l7.3-0.7h0.1 c0.7,0,1.3,0.6,1.3,1.4c0,0.9-0.5,1.3-1.3,1.4l-7.4,0.6v3.8l5.7-0.5h0.4c1.5,0,2.3,0.7,2.3,2.1c0,0.2,0,0.6-0.1,0.8L131.1,143.6z M128.6,139.4c0.1-0.5-0.2-0.8-0.6-0.8h-0.1l-11,0.8l0.4,4.8l10.8-0.5L128.6,139.4z"></path> <path class="st0" d="M151.4,138.2c-0.9,0.1-1.5-0.5-1.5-1.3c0-0.7,0.4-1.2,1.3-1.2l7.4-0.6l0.4,0c1.1-0.1,1.9,0.6,1.9,1.5 c0,1.3-1.6,3.9-3.8,5.9c-2.2,2-6.3,4.6-7.4,4.6c-0.5,0-1-0.5-1-1c0-0.5,0.1-0.6,1.4-1.4c2.6-1.5,5.1-3.7,6.5-5.8 c0.2-0.4,0.3-0.5,0.3-0.7c0-0.2-0.2-0.3-0.6-0.3L151.4,138.2z M165.1,136.7c2.3-1.1,5.4-2.9,7-4.1c0.4-0.3,0.8-0.5,1.3-0.5 c0.9,0,1.6,0.8,1.6,1.7c0,0.5-0.3,0.9-0.8,1.2c-1.4,0.8-4.8,2.2-7.4,3.1c3.9,2.5,7.8,4.4,11.3,5.6c0.8,0.3,1.3,0.6,1.3,0.9 c0,0.5-2.3,1.3-3.9,1.3c-0.9,0-0.9,0-2.2-0.7c-2.8-1.6-5.8-3.7-8.2-5.7v5.9c0,1.9-0.7,2.7-2.1,2.7c-0.9,0-3.1-0.6-4.5-1.3 c-0.8-0.4-1.1-0.7-1.1-1.2c0-0.6,0.4-1,1-1c0.2,0,0.5,0,0.9,0.1c0.8,0.2,1.8,0.4,2.1,0.4c0.4,0,0.6-0.3,0.6-0.9v-12.4l-5.5,0.3 c-0.2,0.6-0.7,0.9-1.4,0.9c-0.9,0-1.4-0.5-1.5-1.2l-0.9-9.7c-0.1-0.8,0.6-1.5,1.5-1.5c0.5,0,0.9,0.1,1.2,0.5l2.3-0.1 c0.8-0.7,2.9-2.8,3.8-3.8c0.5-0.6,0.9-0.8,1.4-0.8c0.9,0,1.6,0.7,1.6,1.5c0,0.8-0.4,1.1-3.2,2.9l9.7-0.7l0.4,0 c1.5-0.1,2.5,0.8,2.5,2.2c0,0.2,0,0.4,0,0.6l-0.9,8.2c-0.1,0.9-0.6,1.4-1.5,1.4c-0.7,0-1.1-0.2-1.3-0.8l-5.2,0.2V136.7z M171,123 c0-0.6-0.2-0.8-0.8-0.8l-14.2,0.9l0.2,2.3l14.7-0.9L171,123z M156.3,127.6l0.2,2.3l13.9-0.7l0.2-2.5L156.3,127.6z"></path> <path class="st0" d="M186.1,128c0,1.3-0.6,4.4-1.2,6.1c-0.3,1-0.8,1.5-1.6,1.5c-0.8,0-1.5-0.6-1.5-1.3c0-0.3,0-0.4,0.4-1.1 c0.8-1.8,1.6-4.2,1.8-5.4c0.1-0.6,0.5-0.9,1-0.9C185.7,126.7,186.1,127.2,186.1,128z M190.6,119.3c0,0.2,0.1,0.3,0.1,0.5 c0,0.8,0.1,7.3,0.1,8.8c0,7.1-0.6,10.8-2.5,14.5c-1.2,2.4-2.5,4-3.4,4c-0.6,0-1.2-0.7-1.2-1.2c0-0.4,0-0.5,0.7-1.4 c2.2-3.3,3.3-8.8,3.3-16.8c0-2.4-0.1-6.4-0.3-7.6c0-0.1,0-0.2,0-0.3c0-0.7,0.8-1.3,1.7-1.3C189.9,118.5,190.4,118.8,190.6,119.3z M194.5,128.7c0.8,1.9,1.4,4,1.4,4.8c0,0.8-0.5,1.3-1.4,1.3c-0.6,0-1-0.3-1.2-0.8c0-0.1,0-0.1-0.1-0.6c-0.3-1.8-0.8-4-1.2-5.3 c-0.1-0.5-0.1-0.5-0.1-0.7c0-0.5,0.4-0.9,0.9-0.9C193.5,126.4,193.7,126.7,194.5,128.7z M200.1,144c0,0.8-0.7,1.4-1.6,1.4 s-1.6-0.6-1.6-1.4v-24.2c0-0.8,0.7-1.4,1.6-1.4s1.6,0.6,1.6,1.4V144z M203.9,128c1,1.8,2,4.2,2,4.9c0,0.8-0.6,1.4-1.5,1.4 c-0.5,0-0.9-0.3-1.2-0.8c-0.1-0.1-0.1-0.1-0.2-0.7c-0.5-1.9-1.1-3.3-1.8-5.3c-0.2-0.5-0.2-0.6-0.2-0.9c0-0.5,0.4-0.8,0.9-0.8 C202.6,125.9,203,126.4,203.9,128z M209.8,146.3c0,0.9-0.7,1.5-1.7,1.5c-1,0-1.6-0.6-1.6-1.5v-27.1c0-0.8,0.7-1.5,1.6-1.5 s1.7,0.6,1.7,1.5V146.3z"></path> <path class="st0" d="M227.9,127.1c-1.5,0.1-2.7,0.2-4.7,0.4c-0.7,0.1-1.5,0.1-1.6,0.1c-0.2,0-0.3,0-0.4,0c-0.9,0-1.5-0.6-1.5-1.4 c0-0.8,0.4-1.3,1.1-1.5c0.3-0.1,0.4-0.1,1.6-0.1c2.7,0,10.4-0.7,14.4-1.3c0.2,0,0.4,0,0.5,0c0.9,0,1.5,0.6,1.5,1.5 c0,0.9-0.5,1.3-1.6,1.5c-1.8,0.2-4.1,0.5-6,0.6v10.7l0.9,0c6-0.3,9.6-0.5,10.7-0.6c0.1,0,0.3,0,0.3,0c1,0,1.6,0.6,1.6,1.5 c0,0.7-0.3,1.2-0.9,1.4c-0.3,0.1-0.3,0.1-2.4,0.1c-6.9,0.2-17.2,0.8-24.1,1.4c-0.3,0-0.4,0-0.5,0c-1,0-1.6-0.6-1.6-1.6 c0-0.7,0.5-1.3,1.4-1.4c0.6-0.1,6.3-0.5,10.5-0.7l0.9-0.1V127.1z"></path> <path class="st0" d="M253.1,132.6c0,1-0.6,1.6-1.6,1.6c-1,0-1.6-0.6-1.6-1.6v-11.3c0-1,0.6-1.6,1.6-1.6s1.6,0.6,1.6,1.6V132.6z M265,129.9c0,6.6-1.5,11.1-4.9,14.4c-1.5,1.4-2.6,2.2-3.4,2.2c-0.6,0-1-0.5-1-1c0-0.6,0.1-0.7,1.4-2.1c3.4-3.6,4.7-7.5,4.7-13.5 v-10.3c0-0.9,0.6-1.4,1.5-1.4c1,0,1.6,0.5,1.6,1.4V129.9z"></path> <path class="st0" d="M297.7,123.3c0,1.3-1.9,4.1-4.5,6.8c-2,2-3.6,3.2-4.4,3.2c-0.6,0-1.1-0.5-1.1-1.1c0-0.5,0.1-0.7,1.2-1.5 c2-1.6,4.9-5.4,4.9-6.3c0-0.2-0.1-0.2-0.4-0.2s-0.8,0-1.3,0.1c-0.5,0-1.5,0.1-2.9,0.2c-3.4,0.2-5.3,0.4-15.9,1.3 c-0.4,0-0.4,0-0.5,0c-0.9,0-1.6-0.6-1.6-1.5c0-0.7,0.4-1.2,1-1.4c0.3-0.1,0.6-0.1,2-0.2c4.3-0.3,10.6-0.7,19.1-1.3 c1.3-0.1,1.6-0.1,1.8-0.1C296.6,121.2,297.7,122.1,297.7,123.3z M285.8,128.4c0.2,0.4,0.2,0.5,0.2,1.6c0,2.2-0.2,5.2-0.4,6.3 c-0.7,4-3.2,7.6-6.7,9.7c-0.4,0.2-0.8,0.4-1.1,0.4c-0.6,0-1.1-0.5-1.1-1.1c0-0.6,0.1-0.8,1.3-1.8c2.3-1.9,4.1-5.1,4.5-8.3 c0.1-1.2,0.2-3,0.2-5.7c0-1.2,0.5-1.9,1.6-1.9C285,127.6,285.5,127.9,285.8,128.4z"></path> <path class="st1" d="M80,174.7l5.3-0.3c0.9,0,1.5,0.5,1.5,1.3s-0.5,1.4-1.3,1.4l-5.4,0.3v5l9.8-0.3c0.9,0,1.5,0.5,1.5,1.4 c0,0.9-0.5,1.4-1.4,1.5l-22.2,0.8c-0.9,0-1.5-0.5-1.5-1.4c0-0.9,0.5-1.4,1.3-1.5l9.3-0.3v-5l-5.5,0.3c-0.9,0-1.5-0.5-1.5-1.3 s0.5-1.4,1.3-1.4l5.6-0.3v-4.2l-5.6,0.3c-0.9,0.1-1.5-0.5-1.5-1.3c0-0.3,0.1-0.6,0.2-0.9c-2.8,2.1-4.8,3.3-5.6,3.3 c-0.6,0-1.1-0.5-1.1-1.1c0-0.6,0-0.6,1.6-1.5c4.3-2.7,8.9-7.8,11.6-12.6c0.5-0.8,0.9-1.1,1.6-1.1c0.9,0,1.6,0.6,1.6,1.4 c0,0.2,0,0.5-0.2,0.8c4,4.1,9.4,8.2,14.1,10.6c0.8,0.4,1.2,0.8,1.2,1.2c0,0.2-0.2,0.4-0.6,0.6c-0.8,0.3-2.2,0.6-2.8,0.6 c-0.9,0-1.5-0.4-4.5-2.7c0,0.2,0.1,0.3,0.1,0.5c0,0.8-0.5,1.4-1.3,1.4l-5.7,0.4V174.7z M85.6,167.4c0.1,0,0.3,0,0.4,0 c-2.5-2-5.4-4.8-7.6-7.4c-1.9,2.8-4.9,6.1-7.8,8.4c0.1-0.1,0.3-0.1,0.5-0.1L85.6,167.4z"></path> <path class="st1" d="M121,176.8c0,4.5-3.7,7.5-9.2,7.5c-3.2,0-6-1-7.8-2.9c-0.7-0.7-1.1-1.3-1.1-1.9c0-0.8,0.8-1.6,1.6-1.6 c0.6,0,0.9,0.1,1.6,1c1.3,1.5,3.3,2.3,5.7,2.3c3.3,0,5.5-1.8,5.5-4.6c0-2.2-1.2-3.9-3.2-4.3c-0.9-0.2-2.1-0.3-4.1-0.3 c-1.3,0-1.8-0.5-1.8-1.6c0-0.7,0.4-1.3,1-1.4c0.2-0.1,0.4-0.1,1-0.1c1.4,0,2.9-0.3,4-0.8c1.3-0.6,2-1.7,2-3.3 c0-2.3-1.8-3.7-4.7-3.7c-2,0-3.5,0.7-4.8,2.2c-0.4,0.5-0.9,0.7-1.4,0.7c-0.8,0-1.6-0.7-1.6-1.5c0-0.5,0.2-0.9,0.8-1.5 c1.6-1.8,4.4-2.9,7.2-2.9c4.8,0,8.1,2.8,8.1,6.7c0,2.4-1.4,4.4-3.8,5.2c-0.2,0.1-0.4,0.1-0.9,0.2C118.9,171.2,121,173.5,121,176.8 z"></path> <path class="st1" d="M137,167.1c-0.1,5.1-0.7,8.7-2.1,12.5c-0.6,1.6-1.9,4.1-2.6,5.1c-0.4,0.5-0.7,0.8-1.2,0.8 c-0.6,0-1.2-0.6-1.2-1.2c0-0.3,0-0.4,0.6-1.4c2.9-6.1,3.6-10.3,3.5-21.4v-0.7c-0.5-0.1-0.9-0.6-0.9-1.2c0-0.6,0.5-1.2,1.2-1.2 l20.3-1.4c1.6-0.1,2.6,0.6,2.6,1.9c0,0.2,0,0.7-0.1,0.9l-0.7,2.5c0.5,0.1,0.7,0.6,0.7,1.1c0,0.6-0.4,1.1-1,1.2l-19.1,1.3 L137,167.1z M141.9,171.5l-2.7,0.2l-0.2,0c-0.6,0.1-1.2-0.5-1.2-1.2s0.4-1.2,1.1-1.2l2.8-0.2l-0.1-2c0-0.7,0.6-1.3,1.5-1.3 c0.8,0,1.4,0.5,1.4,1.3l0.1,1.9l5-0.3l0.1-2c0-0.7,0.7-1.3,1.5-1.3s1.5,0.6,1.5,1.4l-0.1,1.7l3.1-0.2h0.2c0.6,0,1.2,0.5,1.2,1.2 c0,0.7-0.5,1.2-1.1,1.2l-3.5,0.2l-0.1,3.2l5.7-0.4h0.1l0.1,0c0.8,0.2,0.8,0.2,1,0.6c0.1,0.2,0.2,0.5,0.2,0.6 c0,0.7-0.5,1.1-1.2,1.2l-15.6,1v7c1.4-0.3,3.2-0.8,4.5-1.4c0.3-0.1,0.6-0.2,0.8-0.2c0.5,0,1,0.5,1,1c0,0.5-0.3,0.8-1.1,1.3 c-2.4,1.3-5.8,2.6-6.8,2.6c-0.8,0-1.4-0.8-1.4-1.9v-8.2l-1.8,0.1h-0.1h-0.1c-0.7,0-1.2-0.6-1.2-1.2c0-0.7,0.4-1.2,1.2-1.2l4.4-0.2 L141.9,171.5z M153.7,162.3l0.3-2.3v-0.2c0-0.4-0.2-0.5-0.6-0.5l-16.2,1.2v0.5v0.8v0.8v0.8L153.7,162.3z M149.5,174.2l0.1-3.2 l-4.9,0.3l0.1,3.2L149.5,174.2z M159.4,184.1c0.9,0.3,1.4,0.7,1.4,0.9c0,0.2-0.3,0.5-0.8,0.7c-1.4,0.6-2.3,0.8-3,0.8 c-0.6,0-0.9-0.1-2.1-0.8c-2.9-1.6-7-4.7-8.8-6.7c-0.5-0.5-0.6-0.7-0.6-1.1c0-0.5,0.5-0.9,1-0.9c0.5,0,0.6,0.1,1.9,1.2 c0.7,0.6,1.5,1.2,2.5,1.9c1.2-0.9,2.7-2.3,3.3-3c0.3-0.4,0.8-0.6,1.2-0.6c0.8,0,1.6,0.8,1.6,1.6c0,0.5-0.2,0.8-0.7,1.1 c-0.9,0.7-2.2,1.5-3.4,2.1C155,182.4,157.1,183.3,159.4,184.1z"></path> <path class="st1" d="M186.6,183.7c0,2-0.9,3-2.6,3c-1.1,0-3.5-0.8-5.1-1.7c-0.7-0.4-1-0.7-1-1.2c0-0.6,0.4-1,1-1 c0.2,0,0.5,0,0.8,0.1c1.1,0.3,2.4,0.6,2.8,0.6c0.7,0,0.9-0.3,0.9-1.2v-11.9l-11.8,0.8c-0.9,0.1-1.5-0.5-1.5-1.4 c0-0.9,0.5-1.5,1.3-1.5l26.6-1.9c0.9-0.1,1.5,0.5,1.5,1.4c0,0.9-0.5,1.5-1.3,1.6l-11.6,0.8V183.7z M178.9,174.4 c0,1.1-2.5,4.7-5,7.1c-1.3,1.2-1.9,1.6-2.5,1.6c-0.6,0-1.2-0.6-1.2-1.2c0-0.5,0.1-0.6,0.8-1.4c1.8-2,3.5-4.6,4.5-6.5 c0.4-0.9,0.9-1.2,1.6-1.2C178.1,172.8,178.9,173.5,178.9,174.4z M176.1,162.4c-0.9,0.1-1.5-0.5-1.5-1.4s0.5-1.5,1.3-1.5l16.5-1.2 c0.9-0.1,1.5,0.5,1.5,1.4c0,0.9-0.5,1.5-1.3,1.6L176.1,162.4z M192.6,173c2.2,1.9,4.5,4.5,5.6,6.3c0.5,0.7,0.6,1.2,0.6,1.7 c0,0.9-0.8,1.6-1.7,1.6c-0.5,0-1-0.2-1.3-0.6c-0.1-0.1-0.1-0.1-0.5-0.8c-1.1-1.9-3-4.6-4.6-6.6c-0.4-0.5-0.6-0.8-0.6-1.2 c0-0.6,0.5-1,1.1-1C191.6,172.4,192,172.6,192.6,173z"></path> <path class="st1" d="M215.4,175.2c0.3-0.2,0.8-0.5,1.3-0.8c0.4-0.2,0.4-0.2,1.2-0.8c0.4-0.2,0.7-0.4,1-0.4c0.6,0,1.2,0.6,1.2,1.2 c0,0.7-0.8,1.4-3.7,3.3c-3.4,2.2-6.4,3.8-7.2,3.8c-0.8,0-1.4-0.7-1.4-1.5c0-0.8,0.2-1,1.6-1.6c1.1-0.5,2-0.9,3-1.5v-8.9l-2.9,0.4 c-0.1,0-0.2,0-0.2,0c-0.7,0-1.2-0.6-1.2-1.5c0-0.7,0.5-1.2,1.2-1.3l3.2-0.4v-7c0-0.7,0.7-1.3,1.5-1.3c0.8,0,1.5,0.6,1.5,1.3v6.5 l2.3-0.3h0.2c0.7,0,1.2,0.6,1.2,1.3c0,0.8-0.4,1.3-1.2,1.4l-2.6,0.4V175.2z M234.4,175.9c-1.4,3.4-4.6,7.2-8,9.7 c-0.9,0.7-1.3,0.8-1.6,0.8c-0.5,0-1-0.5-1-1s0-0.6,1.2-1.6c3-2.5,5.2-5.1,6.4-7.7l-2.4,0.1c-1.6,3.1-6.8,7.8-8.5,7.8 c-0.5,0-1-0.5-1-1c0-0.5,0.1-0.7,1.3-1.5c1.4-0.9,3.6-3.1,5.1-5.1l-2.4,0.2c-2.3,2.2-3.6,3.1-4.2,3.1c-0.5,0-1-0.5-1-0.9 s0.1-0.6,1.1-1.3c1.4-1.1,3.2-3.1,5-5.5l-4.1,0.2l-0.2,0c-0.6,0.1-1.2-0.5-1.2-1.1c0-0.7,0.5-1.2,1.2-1.2l18.5-1.3h0.1 c0.7,0,1.2,0.5,1.2,1.2c0,0.7-0.5,1.2-1.2,1.3l-11.3,0.7c-0.4,0.7-0.9,1.5-1.6,2.3l-0.1,0.2l10.7-0.7h0.3c1.4,0,2.1,0.7,2.1,2 c0,1.5-0.8,5.7-1.5,7.7c-0.9,2.6-1.9,3.6-3.4,3.6c-0.7,0-2.4-0.5-3.4-1.1c-0.7-0.4-1.1-0.8-1.1-1.3c0-0.5,0.4-0.9,0.9-0.9 c0.2,0,0.4,0,0.7,0.1c0.8,0.3,1.4,0.4,1.8,0.4c0.8,0,1.2-0.4,1.7-1.8c0.5-1.3,1.3-4.7,1.3-5.6c0-0.5-0.3-0.7-0.8-0.7h-0.1 L234.4,175.9z M224.8,167.5c-0.1,0.6-0.6,0.9-1.3,0.9c-0.8,0-1.3-0.4-1.3-1.3l-0.6-8.7v-0.2c0-0.9,0.6-1.4,1.5-1.4 c0.6,0,0.9,0.2,1.2,0.6l9.5-0.9c0.3,0,0.6,0,0.6,0c1.5,0,2.2,0.8,2.1,2.3l-0.5,7.7c0,0.8-0.5,1.3-1.4,1.3c-0.7,0-1.2-0.3-1.3-0.8 L224.8,167.5z M233.3,159.7c0-0.5-0.2-0.8-0.7-0.8h-0.1l-8.1,0.7l0.1,1.8l8.8-0.7L233.3,159.7z M224.6,163.4l0.1,1.9l8.4-0.6l0-2 L224.6,163.4z"></path> </g> </g> </svg> 