<?xml version="1.0" encoding="UTF-8"?> <svg xmlns="http://www.w3.org/2000/svg" id="レイヤー_1" data-name="レイヤー 1" viewBox="0 0 364.18 218.51"><defs><style>.cls-1{fill:none;}.cls-2{fill:#40220f;}.cls-3{fill:#0c3258;}.cls-4{fill:#fff;}</style></defs><rect class="cls-1" width="364.18" height="218.51"></rect><path class="cls-2" d="M43.31,43a12.3,12.3,0,0,0,2.38,4.66,11.75,11.75,0,0,0,5,3.59,6,6,0,0,0-1.07,1.65,14.26,14.26,0,0,1-4.5-3.43,13,13,0,0,1-2.5-4.34,10.79,10.79,0,0,1-3.07,5.22,12.8,12.8,0,0,1-4,2.57,4.78,4.78,0,0,0-1-1.52,11.09,11.09,0,0,0,4.64-3.14A9.38,9.38,0,0,0,41.33,43H37a12.86,12.86,0,0,0-2.07.12V41.27a12,12,0,0,0,2.08.12h4.46c0-.85,0-1.28,0-2a11.74,11.74,0,0,0-.12-1.9h1.93a10.82,10.82,0,0,0-.12,2c0,.81,0,1.24,0,1.9H48a12.29,12.29,0,0,0,2.07-.12v1.84A14.15,14.15,0,0,0,48,43Z" transform="translate(30.49)"></path><path class="cls-2" d="M54.06,39.22c0-.56,0-1-.05-1.5a10.45,10.45,0,0,0,1.12.05H58a6.45,6.45,0,0,0,1.13-.07l.75,1a8.2,8.2,0,0,0-.32.78A25,25,0,0,1,57.91,43a6.05,6.05,0,0,1,1.43,3.67,1.93,1.93,0,0,1-1.11,2,3.68,3.68,0,0,1-1.39.19l-.56,0A3.1,3.1,0,0,0,56,47.41a9.75,9.75,0,0,0,1.15.09c.62,0,.8-.19.8-.85a3.41,3.41,0,0,0-.23-1.22,5.43,5.43,0,0,0-1.45-2.26,16.19,16.19,0,0,0,1.83-4H55.58V51.29A12.69,12.69,0,0,0,55.66,53H54a14.24,14.24,0,0,0,.1-1.83Zm7.71,4.1a18.17,18.17,0,0,1-1,5.81A10.26,10.26,0,0,1,58.27,53,4.13,4.13,0,0,0,57,52a7.81,7.81,0,0,0,2.48-3.56,30.13,30.13,0,0,0,.83-8.33c0-1,0-1.53-.07-2.14.62,0,1.26.09,2,.09h4.93a15.46,15.46,0,0,0,1.83-.1v1.62a12.68,12.68,0,0,0-1.79-.09H61.82v1.33c0,.43,0,.67,0,1.17h4.54a7.57,7.57,0,0,0,1.41-.08l.78.82c-.1.26-.1.26-.59,1.9a21.76,21.76,0,0,1-1.43,3.35,8.81,8.81,0,0,1-.52.81,10.24,10.24,0,0,0,3.54,2.67A4.47,4.47,0,0,0,68.67,53a13.22,13.22,0,0,1-3.62-3A12,12,0,0,1,61,53a4.63,4.63,0,0,0-1.06-1.27,10.68,10.68,0,0,0,4.23-3,12.84,12.84,0,0,1-1.92-5.43Zm1.86,0a11.22,11.22,0,0,0,1.45,4.18,13.67,13.67,0,0,0,1.66-4.18Z" transform="translate(30.49)"></path><path class="cls-2" d="M72.43,39.87l.61,0a8.43,8.43,0,0,0,1,0c2-.14,6.12-.37,10.18-.55a13.19,13.19,0,0,0,2-.18l.12,1.83a1.74,1.74,0,0,0-.29,0,7.74,7.74,0,0,0-3.23.83c-2.35,1.17-3.79,3-3.79,4.9a3.11,3.11,0,0,0,2.34,3A10,10,0,0,0,84,50.1a2,2,0,0,0,.31,0L84,52,83.44,52a9.51,9.51,0,0,1-3.9-1.23,4.43,4.43,0,0,1-2.24-3.91,6.2,6.2,0,0,1,2.26-4.56,6.69,6.69,0,0,1,2.07-1.38c-1.21.17-1.9.24-3.73.36a51.89,51.89,0,0,0-5.36.54ZM84.53,45A11.09,11.09,0,0,0,83,42.67l1.1-.56a9.47,9.47,0,0,1,1.52,2.3Zm1.77-.89a10.91,10.91,0,0,0-1.48-2.26l1.07-.54a9.63,9.63,0,0,1,1.5,2.19Z" transform="translate(30.49)"></path><path class="cls-2" d="M91.47,41.61a15.9,15.9,0,0,1,3.09,2.25l-.88,1.32a13.86,13.86,0,0,0-3.13-2.39Zm3.22,5.75A28.56,28.56,0,0,1,92,53l-1.38-1.2a17.36,17.36,0,0,0,2.8-5.32ZM92.3,37.44a14.58,14.58,0,0,1,3,2.29l-1,1.28a11.93,11.93,0,0,0-3-2.47Zm4.83,4.92a15.06,15.06,0,0,0-1.88.08V40.8a13.66,13.66,0,0,0,1.88.11H104a12.57,12.57,0,0,0,1.88-.11v1.64c-.52,0-1.16-.08-1.88-.08h-2.88v3.22h2.38a13.7,13.7,0,0,0,1.85-.1v1.6c-.52,0-1.18-.08-1.85-.08h-2.38v3.88h3.16a14.88,14.88,0,0,0,2-.11v1.66c-.54,0-1.23-.09-2-.09H96.63c-.8,0-1.44,0-2,.09V50.77a15.25,15.25,0,0,0,2,.11h2.9V47h-1.9c-.67,0-1.33,0-1.86.08v-1.6a13.34,13.34,0,0,0,1.84.1h1.92V42.36Zm1.62-5.14a19.63,19.63,0,0,1,3.67,2.22l-1,1.28a15,15,0,0,0-3.68-2.33Z" transform="translate(30.49)"></path><path class="cls-2" d="M122,41.48a13,13,0,0,1-1.43,3.58,14.4,14.4,0,0,1-2,2.85,15.82,15.82,0,0,0,6.9,3.35,5.53,5.53,0,0,0-1,1.65,18.64,18.64,0,0,1-7-3.88A17.93,17.93,0,0,1,114,51.39a21.26,21.26,0,0,1-3.68,1.52,4.81,4.81,0,0,0-.95-1.52,16.49,16.49,0,0,0,6.94-3.48,15.76,15.76,0,0,1-3.64-6.43h-1a16.85,16.85,0,0,0-2,.1V39.92a13.45,13.45,0,0,0,2,.12h4.75V38.75a6.47,6.47,0,0,0-.13-1.38h1.87a6.39,6.39,0,0,0-.12,1.38V40h5a13.6,13.6,0,0,0,2.09-.12v1.66a15.87,15.87,0,0,0-2-.1Zm-7.69,0a12.33,12.33,0,0,0,1.35,3.08,13.2,13.2,0,0,0,1.74,2.28,13.06,13.06,0,0,0,1.67-2.31,12.79,12.79,0,0,0,1.24-3.05Z" transform="translate(30.49)"></path><path class="cls-2" d="M129.48,45.7c0-.52,0-1.08.05-2A12.67,12.67,0,0,1,128,45.79a6.52,6.52,0,0,0-.74-1.64,14.23,14.23,0,0,0,3-4.74,11.08,11.08,0,0,0,.69-2.26l1.66.46a33,33,0,0,1-1.59,3.8v9.52a14.4,14.4,0,0,0,.11,2h-1.78a14.52,14.52,0,0,0,.12-2Zm4.71-3.5a17.81,17.81,0,0,0-1.9.09V40.65a13,13,0,0,0,1.9.1H141a15.58,15.58,0,0,0,2-.1v1.64A18.48,18.48,0,0,0,141,42.2h-2.77v3.28h2.29a14.2,14.2,0,0,0,1.88-.11V47c-.52,0-1.17-.09-1.86-.09h-2.31v4h3.21a18.32,18.32,0,0,0,2-.1v1.62c-.62-.05-1.23-.09-2-.09h-7.78c-.8,0-1.38,0-2,.09V50.76a17.21,17.21,0,0,0,1.93.1h3v-4h-2c-.69,0-1.31,0-1.83.09V45.37a13.5,13.5,0,0,0,1.83.11h2V42.2Zm1.71-5a21.37,21.37,0,0,1,3.55,2.14l-1.16,1.21a14.58,14.58,0,0,0-3.48-2.3Z" transform="translate(30.49)"></path><path class="cls-2" d="M152.07,44c-1.74.31-2.59.45-4.41.69a5,5,0,0,0-.71-1.45A47.28,47.28,0,0,0,154.74,42a11.38,11.38,0,0,0,3-1.07l1.35,1.31c-.4.09-.47.12-1.09.31-1.43.47-3.16,1-4.38,1.21v2.1l6.05-.69a12.26,12.26,0,0,0,1.8-.31l.15,1.66h-.26c-.33,0-1.1.05-1.57.1l-6.17.71v3.14c0,.45.08.55.46.65a11.73,11.73,0,0,0,2.31.14,7,7,0,0,0,3-.33c.33-.22.43-.69.5-2.34a4.13,4.13,0,0,0,1.57.58,5.64,5.64,0,0,1-.43,2.26c-.54,1.11-1.26,1.3-4.83,1.3a9.46,9.46,0,0,1-3.5-.36c-.5-.25-.66-.61-.66-1.49V47.46l-3.86.45a13.54,13.54,0,0,0-1.83.31l-.16-1.67h.31c.35,0,1.07-.05,1.52-.1l4-.45Zm.88-5.75a5.21,5.21,0,0,0-.1-1h1.81a4.06,4.06,0,0,0-.11,1v.66h4.92a17.94,17.94,0,0,0,1.83-.07,8.06,8.06,0,0,0-.07,1.23v1.24a9.43,9.43,0,0,0,.07,1.29h-1.57V40.39H148.19v2.24h-1.6a8.25,8.25,0,0,0,.08-1.29V40.1a8.88,8.88,0,0,0-.07-1.23,18.24,18.24,0,0,0,1.85.07H153Z" transform="translate(30.49)"></path><path class="cls-2" d="M169.83,39.72a7.28,7.28,0,0,0,.74-2.23l1.9.24a1.71,1.71,0,0,0-.21.4l-.54,1.26c-.05.1-.1.22-.13.29l.13,0h.09c.09,0,.4,0,.86,0a22.13,22.13,0,0,0,4.59-.58l.1,1.64c-.38,0-.38,0-1.34.15-1.21.16-3.43.31-5.12.35A10.6,10.6,0,0,1,169,43.86l0,0,.36-.28a4.34,4.34,0,0,1,2.62-.89,2.59,2.59,0,0,1,1.68.55,2.07,2.07,0,0,1,.7,1.31c1.4-.52,2.33-.86,2.8-1a4,4,0,0,0,1.22-.5l.71,1.66a27.18,27.18,0,0,0-4.54,1.43c0,.62,0,.62,0,.93v.81c0,.3,0,.49,0,.61a5.35,5.35,0,0,0,.06.84l-1.68,0a20.83,20.83,0,0,0,.11-2.25v-.41c-2.13,1-2.9,1.66-2.9,2.57s.9,1.41,3.31,1.41a14.64,14.64,0,0,0,4.78-.7l.17,1.86a5,5,0,0,0-.76.09,31.15,31.15,0,0,1-4.29.31,7.48,7.48,0,0,1-3.73-.69,2.38,2.38,0,0,1-1.21-2.13c0-1.6,1.43-3,4.42-4.26a1.08,1.08,0,0,0-1.17-1.1A6.17,6.17,0,0,0,168,45.87a7,7,0,0,0-1.41,1.52l-1.33-1.33a14.28,14.28,0,0,0,2.78-3.14c.2-.32.57-.91,1.07-1.74h-2l-1,0h-.1a1.43,1.43,0,0,0-.26,0l0-1.64a19.17,19.17,0,0,0,3.37.21Z" transform="translate(30.49)"></path><path class="cls-2" d="M186.57,42.92a7.63,7.63,0,0,0,1.29-.05c0,.26-.05.37-.07.64A15.56,15.56,0,0,1,186.41,49c1.54,1.62,3.14,2.14,6.68,2.14,1.84,0,3.84-.09,5.52-.24a5,5,0,0,0-.43,1.62c-1.32,0-3.44.07-4.92.07-4,0-5.74-.56-7.52-2.37a11.85,11.85,0,0,1-2.3,2.75,5.5,5.5,0,0,0-1.05-1.3A10.42,10.42,0,0,0,184.74,49a8.85,8.85,0,0,1-.83-1.45c-.53-1.12-.53-1.12-.78-1.6l1.35-.66a10.08,10.08,0,0,0,1,2.35,11.2,11.2,0,0,0,.86-3.35h-1.57c-.5,0-1,0-1.46,0a27.73,27.73,0,0,0,2.65-4.9h-1.86a6.31,6.31,0,0,0-1.17.09V38a6.2,6.2,0,0,0,1.22.09h1.74a6.63,6.63,0,0,0,1.24-.07l.71.93a4.13,4.13,0,0,0-.41.81,26,26,0,0,1-1.73,3.19Zm5.33-3.38h-2.12a9.29,9.29,0,0,0-1.25.07V38.25a7.17,7.17,0,0,0,1.33.09h2a7.68,7.68,0,0,0-.09-1.21h1.57a5.56,5.56,0,0,0-.09,1.21h2.63a11.15,11.15,0,0,0,1.29-.06c0,.47-.05.66-.05,1.09v1.26a5.92,5.92,0,0,0,1.29-.1v1.36a8.86,8.86,0,0,0-1.29-.07v1.35a8.75,8.75,0,0,0,.05,1c-.43,0-.79,0-1.21,0h-2.71v1.17H196a12.82,12.82,0,0,0,1.47-.07V46.6a12.5,12.5,0,0,0-1.49-.07h-2.71V47.7h3.38a12,12,0,0,0,1.57-.08V49a13.08,13.08,0,0,0-1.57-.07h-3.38v.14a8.82,8.82,0,0,0,.09,1.55h-1.57a9.6,9.6,0,0,0,.09-1.53v-.16h-2.63a8.75,8.75,0,0,0-1.5.09V47.62a9.32,9.32,0,0,0,1.52.08h2.61V46.53h-2.19a9.49,9.49,0,0,0-1.38.09V45.25a11.11,11.11,0,0,0,1.38.07h2.19V44.15h-2.19a8.12,8.12,0,0,0-1.16.07V42.89a8,8,0,0,0,1.24.07h2.11V41.82h-2.78a11.86,11.86,0,0,0-1.52.07V40.53a7.64,7.64,0,0,0,1.57.1h2.73Zm3.88,1.09V39.54h-2.49v1.09ZM193.29,43h2.49V41.82h-2.49Z" transform="translate(30.49)"></path><path class="cls-2" d="M201.94,39.92l.6,0a8.43,8.43,0,0,0,1.05,0c2-.14,6.13-.38,10.18-.55a11.89,11.89,0,0,0,2-.18l.12,1.82h-.29a7.91,7.91,0,0,0-3.23.82c-2.34,1.18-3.79,3-3.79,4.9a3.11,3.11,0,0,0,2.34,3,10.19,10.19,0,0,0,2.54.48,2,2,0,0,0,.31,0l-.26,1.95-.57-.1a9.53,9.53,0,0,1-3.9-1.21,4.45,4.45,0,0,1-2.24-3.91,6.2,6.2,0,0,1,2.26-4.57,6.69,6.69,0,0,1,2.07-1.38,34.92,34.92,0,0,1-3.72.38,45,45,0,0,0-5.37.53Z" transform="translate(30.49)"></path><path class="cls-2" d="M221,38.51a9.85,9.85,0,0,0,1.82.1c1.57,0,3.61-.08,5.3-.22a2,2,0,0,0,1-.21l.93,1.29a3.69,3.69,0,0,0-.88.71,37.17,37.17,0,0,1-5.47,4.54l0,.05a8.51,8.51,0,0,1,3.88-.91c2.9,0,4.78,1.48,4.78,3.77A4.11,4.11,0,0,1,230,51.34a8.33,8.33,0,0,1-4.05.95,5.85,5.85,0,0,1-3.19-.72,2.36,2.36,0,0,1-1-2c0-1.31,1.19-2.28,2.78-2.28a3.61,3.61,0,0,1,2.93,1.43,4.62,4.62,0,0,1,.79,1.59,4.26,4.26,0,0,0,1.3-.62,2.52,2.52,0,0,0,1.05-2.05c0-1.52-1.34-2.44-3.54-2.44a10.86,10.86,0,0,0-7.17,2.92l-1-1.54a48.76,48.76,0,0,0,7.85-6.45l.29-.29,0,0c-.62.09-2.46.21-5.09.31a7.81,7.81,0,0,0-.86.09Zm3.55,10.21c-.71,0-1.16.35-1.16.9,0,.76.88,1.22,2.33,1.22a5.7,5.7,0,0,0,1-.07C226.33,49.41,225.61,48.72,224.52,48.72Z" transform="translate(30.49)"></path><path class="cls-2" d="M242.45,37.7a6.64,6.64,0,0,0-.27,1.12c-.12.55-.21.91-.4,1.67a13.48,13.48,0,0,0,2.88-.51l.07,1.67-.59.08a23.72,23.72,0,0,1-2.77.33,34.21,34.21,0,0,1-1.9,5,25.66,25.66,0,0,1-1.23,2.33c-.13.24-.25.45-.32.6l-1.66-.94a13.75,13.75,0,0,0,1.67-2.76,26.41,26.41,0,0,0,1.68-4.2c-.36,0-.52,0-1,0l-1.17,0h-.62V40.46a12.68,12.68,0,0,0,2.19.14c.5,0,.81,0,1,0a15.56,15.56,0,0,0,.57-3.09Zm8,13.73a9.69,9.69,0,0,0-2.77-2.21c0,.19,0,.21,0,.36a3.08,3.08,0,0,1-.62,1.81,3.68,3.68,0,0,1-2.81,1c-2.21,0-3.6-1-3.6-2.67s1.48-2.87,3.58-2.87a9.45,9.45,0,0,1,1.75.19c-.07-.88-.11-1.53-.11-2.2a8.5,8.5,0,0,1,.14-1.64l1.67.12a5.47,5.47,0,0,0-.22,1.65,21.59,21.59,0,0,0,.17,2.51,11.61,11.61,0,0,1,2.85,1.65c.38.29.38.31.53.43a1.65,1.65,0,0,0,.26.23Zm-6.1-3.09c-1.25,0-2,.52-2,1.31s.69,1.23,1.88,1.23,1.9-.54,1.9-1.59c0-.19,0-.64,0-.66A5.28,5.28,0,0,0,244.32,48.34Zm6.15-4.78a20,20,0,0,0-4.81-2.39l.86-1.37a25.36,25.36,0,0,1,4.75,2.28Z" transform="translate(30.49)"></path><path class="cls-2" d="M258,41c-.24,1-.5,2.38-.79,4.44a3.32,3.32,0,0,1-.12.6,8.19,8.19,0,0,1,5.42-1.79c2.88,0,4.74,1.38,4.74,3.5A3.92,3.92,0,0,1,265.51,51a7.55,7.55,0,0,1-4.43,1.14,16,16,0,0,1-4.38-.62,7.13,7.13,0,0,0-.19-1.87,13.2,13.2,0,0,0,4.53.87c2.56,0,4.33-1.09,4.33-2.68,0-1.24-1.15-2-3.08-2-2.14,0-4.33.86-5.25,2.07l-1.84,0c.05-.29.05-.38.13-1,.18-1.26.4-2.79.73-4.91.07-.4.08-.61.12-1Zm.45-3.2a25.73,25.73,0,0,0,6.19,1.91l-.6,1.64a28.9,28.9,0,0,1-6.43-2.12Z" transform="translate(30.49)"></path><path class="cls-3" d="M111.73,76.91a6.45,6.45,0,0,0-1.54.2V75.23a8.49,8.49,0,0,0,1.54.17h20.52c-.58,6.86-3.89,10.39-11,11.69-.63,4-3.42,6.78-8.57,8.46a4.34,4.34,0,0,0-1.25.55l-.66-1.65a8.9,8.9,0,0,0,4.25-1.71,8.23,8.23,0,0,0,3.94-7.2v-4a8.49,8.49,0,0,0-.16-1.55h2.75a8.24,8.24,0,0,0-.16,1.55v4.1c4.71-1.15,7.39-4.1,8-8.74Z" transform="translate(30.49)"></path><path class="cls-3" d="M137.73,85.65c2.65-.22,8-2.48,10.92-4.6s6.62-5.65,7.36-7.39l2.21,1.9c-.25.22-.61.58-1.11,1.08a35.07,35.07,0,0,1-5.76,5.18v12.9a8.32,8.32,0,0,0,.17,1.55h-2.79a6.29,6.29,0,0,0,.2-1.55V83.28a38.72,38.72,0,0,1-9.27,3.48,5,5,0,0,0-1.35.46Z" transform="translate(30.49)"></path><path class="cls-3" d="M177.57,93.81h9.07a11.3,11.3,0,0,0,1.82-.16v1.71l-.3,0-.39,0a10.82,10.82,0,0,0-1.13-.06H165.88a11.86,11.86,0,0,0-1.84.14V93.65a11.26,11.26,0,0,0,1.84.16h8.94V76.89h-7.34c-.38,0-.72,0-1,0l-.52.08-.25,0V75.34a11.71,11.71,0,0,0,1.82.14h17.67a11.72,11.72,0,0,0,1.85-.14v1.71l-.14,0-.55,0a6.67,6.67,0,0,0-1.16-.08h-7.58Z" transform="translate(30.49)"></path><path class="cls-3" d="M216.34,76.31a13.35,13.35,0,0,1-3,5.15,18.56,18.56,0,0,0,4.55,1.93l1.44.28L217.94,86l-1.11-.53a19.89,19.89,0,0,1-5-2.7,19.27,19.27,0,0,1-5.54,2.81l-.8.5-.8-1.3a25.38,25.38,0,0,1-1.46,2.79l-.42,1-1.29-.61.52-.94a32.36,32.36,0,0,0,.91-3.66h-2V95.55c0,1-.44,1.57-1.32,1.57a14.07,14.07,0,0,1-3-.49l-1.24-.17-.19-1.38a29,29,0,0,0,2.92.2c.5,0,.61-.12.61-.58v-8a23.63,23.63,0,0,1-4.3,6.12l-.69,1-1.16-1,.88-.83a28.09,28.09,0,0,0,4.33-8.6h-2.54a10.8,10.8,0,0,0-1.82.14V81.79a12.24,12.24,0,0,0,1.82.14h4.83l-.2-.27a41.41,41.41,0,0,0-4-3.73l-.89-.52,1-1.13.72.63c.66.39,1.9,1.16,2.43,1.52a20.9,20.9,0,0,0,2.56-3.67h-6a12,12,0,0,0-1.85.14V73.22a12.42,12.42,0,0,0,1.85.14h6.5a15.33,15.33,0,0,0,2.79-.11v1.1a44.19,44.19,0,0,1-4.74,4.82l.33.25.3.2.55.38,1,.58-1.33,1.35H203a13.16,13.16,0,0,0,2.46-.11V82.9c-.25.71-.5,1.32-.69,1.79l1.07-.22a18.35,18.35,0,0,0,4.63-2.92,13.74,13.74,0,0,1-2.75-4.09c-.69.83-1.22,1.38-2,2.16l-.77.79-1.08-.93.83-.72a17.8,17.8,0,0,0,3.53-6.18l.22-1,2.65.64-.61,1a16.42,16.42,0,0,1-.94,1.65H217a11.2,11.2,0,0,0,1.82-.14v1.68l-.3,0-.39-.06a11.24,11.24,0,0,0-1.13,0ZM206.41,88.8a11.36,11.36,0,0,0-1.79.13V87.25a11.8,11.8,0,0,0,1.79.14h3.12v-.25l0-.11c0-.3.09-1,.09-1.4l-.06-1.38,2.62.08-.22,1.3c0,.41,0,.71,0,1.35l-.06.41h3.58a14.39,14.39,0,0,0,2.46-.11v1c-.33,4.52-.5,6-.88,7.25-.33,1.07-.89,1.57-1.77,1.57a14.06,14.06,0,0,1-3.53-.66l-1.32-.22-.14-1.35a29.91,29.91,0,0,0,3.48.24c.71,0,.9-.16,1.1-.85a25.92,25.92,0,0,0,.69-5.51h-3.86c-.83,3.91-2.79,6.25-6.81,8.13l-1.05.58L203,96.18l1.19-.41c2.95-1.82,4.6-4,5.13-7Zm2.15-12.44a13.67,13.67,0,0,0,3.09,3.92,12,12,0,0,0,2.12-4h-5.15Z" transform="translate(30.49)"></path><path class="cls-3" d="M235.28,73.66c0-.36,0-.69-.06-1l-.08-.55,0-.25h2.82a11.21,11.21,0,0,0-.17,1.82v1.85h8.13a8.92,8.92,0,0,0,1.82-.17v1.71a11.53,11.53,0,0,0-1.82-.14H228.14v6.4c0,5.49-1,9.18-3.53,12.85l-.5,1-1.29-.77.66-.89c1.51-3.53,2.12-7,2.12-12.21V77.49a12.08,12.08,0,0,0-.16-2.09,18.11,18.11,0,0,0,2.26.11h7.58Zm8.6,13.92a14.82,14.82,0,0,0,2.26-.11,11.65,11.65,0,0,0-.16,2.29v5.29a10.9,10.9,0,0,0,.16,1.8,14.68,14.68,0,0,0-1.82-.11H231.17a14.45,14.45,0,0,0-1.9.11,11.76,11.76,0,0,0,.16-2.29v-5.1a10.17,10.17,0,0,0-.16-2,17.65,17.65,0,0,0,2.29.11h4.35v-8c0-.45,0-.64-.08-1.36l-.06-.46h2.82a11.12,11.12,0,0,0-.17,1.82v2.12h7a11.12,11.12,0,0,0,1.82-.14v1.68l-.3,0-.39,0a10.82,10.82,0,0,0-1.13-.06h-7v4.44ZM231.94,89v6.34h11.55V89Z" transform="translate(30.49)"></path><rect class="cls-3" x="83.81" y="64.16" width="43.12" height="43.12"></rect><path class="cls-4" d="M58.35,88.26h2.18l8.69-11.42,8.7,11.42H80.1L69.22,74Zm28.52,0h1.74V74.76H86.87Z" transform="translate(30.49)"></path><polygon class="cls-4" points="89.33 92.29 89.33 93.35 90.33 92.29 91.03 92.29 90.03 93.3 91.13 94.84 90.42 94.84 89.65 93.7 89.33 94.02 89.33 94.84 88.77 94.84 88.77 92.29 89.33 92.29"></polygon><path class="cls-4" d="M62.62,93.05a1.39,1.39,0,0,1,.25-.43,1.18,1.18,0,0,1,.4-.29,1.43,1.43,0,0,1,1,0,1.18,1.18,0,0,1,.4.29,1.2,1.2,0,0,1,.24.43,1.51,1.51,0,0,1,.09.53,1.46,1.46,0,0,1-.09.52,1.24,1.24,0,0,1-.24.42,1.15,1.15,0,0,1-.4.28,1.24,1.24,0,0,1-.52.1,1.25,1.25,0,0,1-.53-.1,1.15,1.15,0,0,1-.4-.28,1.46,1.46,0,0,1-.25-.42,1.76,1.76,0,0,1,0-1m.52.84a.79.79,0,0,0,.12.28.55.55,0,0,0,.21.19.67.67,0,0,0,.33.07.66.66,0,0,0,.32-.07.55.55,0,0,0,.21-.19.65.65,0,0,0,.12-.28,1.06,1.06,0,0,0,0-.31,1.12,1.12,0,0,0,0-.32.65.65,0,0,0-.12-.28.51.51,0,0,0-.21-.2.66.66,0,0,0-.32-.08.67.67,0,0,0-.33.08.51.51,0,0,0-.21.2.72.72,0,0,0-.12.28,1.12,1.12,0,0,0,0,.32,1.55,1.55,0,0,0,0,.31" transform="translate(30.49)"></path><path class="cls-4" d="M69.1,94.65a1.16,1.16,0,0,1-.8.25,1.15,1.15,0,0,1-.8-.25,1,1,0,0,1-.29-.77V92.29h.56v1.59a1.23,1.23,0,0,0,0,.2.48.48,0,0,0,.07.18.7.7,0,0,0,.16.13.57.57,0,0,0,.28,0,.5.5,0,0,0,.41-.13.62.62,0,0,0,.12-.42V92.29h.56v1.59a1,1,0,0,1-.29.77" transform="translate(30.49)"></path><polygon class="cls-4" points="102.94 92.29 103.54 94.05 103.55 94.05 104.11 92.29 104.9 92.29 104.9 94.84 104.38 94.84 104.38 93.04 104.37 93.04 103.74 94.84 103.31 94.84 102.69 93.05 102.68 93.05 102.68 94.84 102.15 94.84 102.15 92.29 102.94 92.29"></polygon><path class="cls-4" d="M78.57,94.65a1.16,1.16,0,0,1-.8.25,1.15,1.15,0,0,1-.8-.25,1,1,0,0,1-.29-.77V92.29h.57v1.59a1.27,1.27,0,0,0,0,.2.37.37,0,0,0,.08.18.53.53,0,0,0,.16.13.87.87,0,0,0,.27,0,.58.58,0,0,0,.42-.14.68.68,0,0,0,.11-.42V92.29h.56v1.59a1,1,0,0,1-.29.77" transform="translate(30.49)"></path><polygon class="cls-4" points="111.43 92.76 111.43 92.29 113.52 92.29 113.52 92.76 112.75 92.76 112.75 94.84 112.19 94.84 112.19 92.76 111.43 92.76"></polygon><polygon class="cls-4" points="117.51 92.29 117.51 92.76 116.16 92.76 116.16 93.31 117.4 93.31 117.4 93.75 116.16 93.75 116.16 94.38 117.54 94.38 117.54 94.84 115.6 94.84 115.6 92.29 117.51 92.29"></polygon><polygon class="cls-4" points="120.26 92.29 121.33 94.01 121.34 94.01 121.34 92.29 121.86 92.29 121.86 94.84 121.3 94.84 120.24 93.14 120.23 93.14 120.23 94.84 119.7 94.84 119.7 92.29 120.26 92.29"></polygon><path class="cls-2" d="M85.67,122.29a13.05,13.05,0,0,0-.21-2.66h3.2a13.45,13.45,0,0,0-.21,2.66h9a18.49,18.49,0,0,0,3.38-.21V125a28.63,28.63,0,0,0-3.38-.18h-9v2.56h8.12a21,21,0,0,0,2.71-.12,21.42,21.42,0,0,0-.12,2.63v14.21c0,2.42-.78,3-4,3-.75,0-1.84,0-3-.09a7.58,7.58,0,0,0-.66-2.72,22.47,22.47,0,0,0,3.38.28c1.21,0,1.48-.15,1.48-.79v-14H78.25v14.39a20.25,20.25,0,0,0,.15,3.26H75.35a24.26,24.26,0,0,0,.18-3.41V129.87a22.83,22.83,0,0,0-.12-2.63,25,25,0,0,0,2.84.12h7.42V124.8H77.13a25.87,25.87,0,0,0-3.32.18v-2.9a20.46,20.46,0,0,0,3.32.21Zm-2.38,11.47a16.44,16.44,0,0,0-1.6-2.9L84,130a26.39,26.39,0,0,1,1.87,3.77h2.33a16.68,16.68,0,0,0,2-3.74l2.56.63a19.5,19.5,0,0,1-1.84,3.11H92.4a19.73,19.73,0,0,0,2.63-.12v2.5a22.71,22.71,0,0,0-2.66-.12h-4.1v2.63h3.92a18.39,18.39,0,0,0,2.6-.12V141a21.22,21.22,0,0,0-2.63-.12H88.27v2.21a28.2,28.2,0,0,0,.15,3.53h-2.9a28.79,28.79,0,0,0,.15-3.53v-2.21H82.53a23.38,23.38,0,0,0-2.75.12v-2.5a22.27,22.27,0,0,0,2.81.12h3.08V136H81.93a17.41,17.41,0,0,0-2.42.12v-2.5a20.24,20.24,0,0,0,2.66.12Z" transform="translate(30.49)"></path><path class="cls-2" d="M119.48,129.87a21.3,21.3,0,0,0,4.17,8.15,20.39,20.39,0,0,0,8.69,6.27,10.29,10.29,0,0,0-1.87,2.9,25,25,0,0,1-7.88-6,23.12,23.12,0,0,1-4.38-7.61,18.77,18.77,0,0,1-5.37,9.15,22.39,22.39,0,0,1-6.91,4.49,8.58,8.58,0,0,0-1.78-2.65,19.61,19.61,0,0,0,8.12-5.5c2.11-2.47,3.2-5.19,3.74-9.2h-7.55a21.48,21.48,0,0,0-3.62.21v-3.23a21.89,21.89,0,0,0,3.65.21h7.79c.06-1.48.09-2.23.09-3.41a19.28,19.28,0,0,0-.21-3.32h3.38a19.53,19.53,0,0,0-.21,3.41c0,1.42,0,2.17-.09,3.32h8.45a22.11,22.11,0,0,0,3.62-.21v3.23a23.18,23.18,0,0,0-3.59-.21Z" transform="translate(30.49)"></path><path class="cls-2" d="M136.36,123.26c0-1,0-1.79-.09-2.63a16.37,16.37,0,0,0,2,.09h5a10.87,10.87,0,0,0,2-.12l1.33,1.84a11.87,11.87,0,0,0-.58,1.36,41.34,41.34,0,0,1-2.83,6.13c1.78,2.47,2.5,4.31,2.5,6.43,0,1.84-.66,3-1.93,3.53a6.62,6.62,0,0,1-2.44.33l-1,0a5.48,5.48,0,0,0-.57-2.6,17.27,17.27,0,0,0,2,.15c1.09,0,1.39-.33,1.39-1.47a6.07,6.07,0,0,0-.4-2.15,9.37,9.37,0,0,0-2.53-4,28.47,28.47,0,0,0,3.2-7.07H139v21.29a22.53,22.53,0,0,0,.15,3h-3a20.79,20.79,0,0,0,.19-3.2Zm13.49,7.18c-.24,4.89-.67,7.46-1.66,10.17a18,18,0,0,1-4.47,6.82,7.24,7.24,0,0,0-2.2-1.9,13.6,13.6,0,0,0,4.34-6.22c.91-2.59,1.45-7.93,1.45-14.58,0-1.78,0-2.68-.12-3.74,1.09.09,2.21.15,3.44.15h8.64a24,24,0,0,0,3.2-.18v2.84a22.81,22.81,0,0,0-3.14-.15h-9.39V126c0,.76,0,1.18,0,2.05h7.94a11.88,11.88,0,0,0,2.47-.15l1.36,1.45c-.18.46-.18.46-1,3.32a41.16,41.16,0,0,1-2.51,5.86c-.27.48-.51.84-.91,1.42a18.05,18.05,0,0,0,6.19,4.68,8.24,8.24,0,0,0-1.51,2.68,23.14,23.14,0,0,1-6.34-5.22,20.84,20.84,0,0,1-7.12,5.37,8,8,0,0,0-1.84-2.23A18.67,18.67,0,0,0,154,140c-1.84-2.9-2.62-5.19-3.35-9.51Zm3.26,0a19.45,19.45,0,0,0,2.53,7.3,23.5,23.5,0,0,0,2.9-7.3Z" transform="translate(30.49)"></path><path class="cls-2" d="M178.1,122.44a15,15,0,0,0-.18-2.63h3.23a12,12,0,0,0-.18,2.63v1.45h8.48a22,22,0,0,0,3.47-.21v3a26.47,26.47,0,0,0-3.47-.18H181v4.25h4.08a13.73,13.73,0,0,0,2.59-.15l1.72,1.72a19.75,19.75,0,0,0-1.23,1.72,28.28,28.28,0,0,1-5.83,6.4,30.23,30.23,0,0,0,11.23,3.93,10.57,10.57,0,0,0-1.45,2.89A32.56,32.56,0,0,1,180,142.15a33.59,33.59,0,0,1-12.32,5,10.86,10.86,0,0,0-1.42-2.71,30.87,30.87,0,0,0,11.47-4,21,21,0,0,1-5.79-7.33,27,27,0,0,0-3.11.18v-2.78a25.84,25.84,0,0,0,3.47.18h5.85v-4.25h-8a26.81,26.81,0,0,0-3.44.18v-3a22,22,0,0,0,3.44.21h8Zm-3.17,10.69a16.21,16.21,0,0,0,5.08,5.76,20.4,20.4,0,0,0,5.34-5.76Z" transform="translate(30.49)"></path><path class="cls-2" d="M209.71,121.53a8.67,8.67,0,0,0-.18-1.93h3.08a8.57,8.57,0,0,0-.15,2v1.17h7.84a26.1,26.1,0,0,0,3.63-.18v2.84a35.67,35.67,0,0,0-3.59-.15H202.13c0,13-.69,17.41-3.44,22a9.61,9.61,0,0,0-2.26-2.11c2.35-3.62,3-7.55,3-18.44,0-2.18,0-3.08-.12-4.08,1,.09,2.11.15,3.41.15h7Zm1.09,7.4a15.44,15.44,0,0,0-.15-2.87h2.89a19.86,19.86,0,0,0-.12,2.87v.79h6.52a19,19,0,0,0,3.14-.19v2.84a21.83,21.83,0,0,0-3.05-.18h-6.61V136H219a20.74,20.74,0,0,0,2.62-.12,27.54,27.54,0,0,0-.12,2.93v4.8a24.26,24.26,0,0,0,.18,3.8h-2.86V146H206.93v1.38h-2.86a26.94,26.94,0,0,0,.18-3.68V138.5a21.53,21.53,0,0,0-.12-2.63,20.64,20.64,0,0,0,2.62.12h4.05Zm-3.87,14.64h11.93v-5.13H206.93Z" transform="translate(30.49)"></path><path class="cls-3" d="M76.49,167.67a25.89,25.89,0,0,0-3.07.15v-2.24a36,36,0,0,1-3.63,2,7.74,7.74,0,0,0-1.72-2.62,31.52,31.52,0,0,0,7.4-4.23,22.32,22.32,0,0,0,5-5.55h3.23a22.16,22.16,0,0,0,5.58,5.64,29.16,29.16,0,0,0,7.46,4,10.71,10.71,0,0,0-1.69,2.87,35.61,35.61,0,0,1-4-2.24v2.39a21.77,21.77,0,0,0-3-.15H83.5v3.89h5.16a21,21,0,0,0,3.14-.15v2.84a26.45,26.45,0,0,0-3.14-.16H83.5v4.62h8.36a29.61,29.61,0,0,0,3.65-.18v3a24.94,24.94,0,0,0-3.62-.21H72.69a23.88,23.88,0,0,0-3.56.21v-3a27.77,27.77,0,0,0,3.62.18h7.94v-4.62H76a25.3,25.3,0,0,0-3.08.16v-2.84a21.35,21.35,0,0,0,3.08.15h4.71v-3.89Zm11.63-2.54c1,0,1.63,0,2.26-.09a36.06,36.06,0,0,1-3.83-2.84,24.1,24.1,0,0,1-4.38-4.68,26.82,26.82,0,0,1-8,7.55c.85.06,1.18.06,2.11.06Z" transform="translate(30.49)"></path><path class="cls-3" d="M108.22,180.19a25.42,25.42,0,0,0-3.68.15,14.34,14.34,0,0,1,.84-3.92,14.57,14.57,0,0,1,4.05-5.62,43.77,43.77,0,0,1,4.83-3.53c2.87-1.93,3.71-3.05,3.71-4.89,0-2.08-1.72-3.38-4.44-3.38a4.65,4.65,0,0,0-4.1,1.87,6.3,6.3,0,0,0-1,2.9l-3.59-.48a8.88,8.88,0,0,1,2-4.65c1.42-1.66,3.69-2.54,6.55-2.54,5,0,8.12,2.45,8.12,6.37,0,2.3-.87,3.9-3,5.56-.93.69-1.35,1-4,2.8-3.38,2.27-4.89,4-5.68,6.34h9a29.79,29.79,0,0,0,4.11-.21v3.41c-1.33-.12-2.48-.18-4.23-.18Z" transform="translate(30.49)"></path><path class="cls-3" d="M155.31,174.09c-2.9,2.45-3.23,2.72-4.1,3.33a19.62,19.62,0,0,0,7,2.5,7.58,7.58,0,0,0-1.66,2.57,21.81,21.81,0,0,1-9.3-4.83V180c-2.74.7-3.86.94-10.68,2.2l-1.12.25-.51-2.9.42,0a28.16,28.16,0,0,0,3.38-.36v-6.46h-3.53a23.36,23.36,0,0,1-3.2,9.84,12.15,12.15,0,0,0-2.27-2.24,15.86,15.86,0,0,0,2.42-6,76.64,76.64,0,0,0,1-14,39.91,39.91,0,0,0-.16-4.62,32.33,32.33,0,0,0,3.84.15H153a30.84,30.84,0,0,0,3.35-.12c-.06.82-.09,1.45-.09,2.54v2.23c0,1.18,0,1.78.09,2.48-1.21-.06-2-.09-3.17-.09h-2.11v2.44h2.11a20.65,20.65,0,0,0,2.9-.12v2.54a26.51,26.51,0,0,0-2.93-.13h-2.08v2.87h3a27.91,27.91,0,0,0,3.35-.15v2.6c-1-.09-2-.15-3.29-.15h-1ZM140.73,163v-.12h-4.95c0,3.62-.09,5.28-.3,7.6h5.25V167.6h-1.42a22,22,0,0,0-2.65.13v-2.54a20.07,20.07,0,0,0,2.65.12h1.42Zm12.92-2.3v-2.53H135.81v2.53Zm-12.22,12.08v6a51.51,51.51,0,0,0,5.82-1.17,13,13,0,0,1-3.41-4.86Zm7-7.46v-2.44h-5.13v2.44Zm0,5.16V167.6h-5.13v2.87Zm-1.87,2.3a8.59,8.59,0,0,0,2.62,3.26,16.58,16.58,0,0,0,3.6-3.26Z" transform="translate(30.49)"></path><path class="cls-3" d="M175,169.2a28.72,28.72,0,0,1-6.27,10.66,8.74,8.74,0,0,0-2.51-1.9,20.74,20.74,0,0,0,6-9.75Zm-4.79-3.13a27,27,0,0,0-3.42.18V163.2a21.61,21.61,0,0,0,3.48.18h19.28a27.39,27.39,0,0,0,3.48-.18v3.05a28.56,28.56,0,0,0-3.45-.18h-8v12.7c0,1.39-.18,2-.72,2.42s-1.36.63-3.32.63c-1.24,0-2.54-.06-3.65-.12a8.18,8.18,0,0,0-.7-2.84,27.46,27.46,0,0,0,3.93.34c1.42,0,1.57-.06,1.57-.76V166.07ZM190,159.36a30.12,30.12,0,0,0-3.47-.18H173a32.17,32.17,0,0,0-3.41.18v-3a27,27,0,0,0,3.44.18h13.59a27.81,27.81,0,0,0,3.44-.18Zm-2.45,8.85a25.28,25.28,0,0,0,3.65,6.46,20.63,20.63,0,0,0,2.66,3,14.57,14.57,0,0,0-2.29,2.14A32.64,32.64,0,0,1,185,169.2Z" transform="translate(30.49)"></path><path class="cls-3" d="M214,172.86a18,18,0,0,1-3.84,2.86,6.78,6.78,0,0,0-1.08-1.41c-1,.51-3.87,1.78-5.05,2.23-.81.33-1.56.66-1.75.75l-.57-3a18.18,18.18,0,0,0,3.53-1v-8.51h-1.05a19.75,19.75,0,0,0-2.42.15v-2.75a15.05,15.05,0,0,0,2.48.15h1V158.4a24,24,0,0,0-.18-3.32h3a20.44,20.44,0,0,0-.18,3.35v3.89h.6a14.8,14.8,0,0,0,2.3-.12v2.69a19.52,19.52,0,0,0-2.27-.12h-.63v7.48c.87-.39,1.21-.54,2.14-1l0,1.87a12.07,12.07,0,0,0,4.2-4H213a20.3,20.3,0,0,0-2.78.15v-2.56a16.11,16.11,0,0,0,2.81.15h13.07a19.06,19.06,0,0,0,3.08-.18v2.56a27.73,27.73,0,0,0-3.08-.12h-9.21a14.21,14.21,0,0,1-1.08,1.63h9.78a25,25,0,0,0,3-.12,9.54,9.54,0,0,0-.16,1.81c-.24,4.08-.72,7.13-1.35,8.28s-1.48,1.47-3.72,1.47c-.81,0-1.69,0-2.65-.09a6.39,6.39,0,0,0-.85-2.68,25.4,25.4,0,0,0,3.56.3c.85,0,1.3-.18,1.48-.54a24,24,0,0,0,.94-6.28h-1.48a18.7,18.7,0,0,1-2.9,4.68,28.13,28.13,0,0,1-3.8,3.44,25.56,25.56,0,0,1-2.57,1.6,6.63,6.63,0,0,0-1.87-1.94,19.39,19.39,0,0,0,5.43-3.53,13.63,13.63,0,0,0,3.11-4.25h-2.29a19.47,19.47,0,0,1-8.33,7,7,7,0,0,0-1.66-1.93c3.35-1.39,5.82-3.11,7.24-5Zm.87-7.61a22.12,22.12,0,0,0-2.75.12c.06-.81.13-1.66.13-2.84v-4.19a20.36,20.36,0,0,0-.13-2.72,20.75,20.75,0,0,0,3,.15h8.45a22.88,22.88,0,0,0,3.2-.15,18.77,18.77,0,0,0-.12,2.9v4a21,21,0,0,0,.12,2.81c-.66-.06-1.53-.09-2.74-.09Zm0-5.67H224V158h-9.18Zm0,3.65H224v-1.69h-9.18Z" transform="translate(30.49)"></path></svg> 