<svg xmlns="http://www.w3.org/2000/svg" viewBox="0 0 350.65 25.5"><defs><style>.cls-1{fill:#42210b;}.cls-2{fill:#fff;}.cls-3{fill:none;stroke:#42210b;stroke-miterlimit:10;}</style></defs><g id="レイヤー_2" data-name="レイヤー 2"><g id="和歌山エリア"><path class="cls-1" d="M5,0H91.5a5,5,0,0,1,5,5V25a0,0,0,0,1,0,0H0a0,0,0,0,1,0,0V5A5,5,0,0,1,5,0Z"/><path class="cls-2" d="M12.6,12c0,.09,0,.13-.13.13l-1.77,0h-.35a13.3,13.3,0,0,0,2.21,3,2.22,2.22,0,0,0-.38.6c-.06.12-.11.18-.14.18s-.08-.05-.16-.15a15.24,15.24,0,0,1-1.8-3.05c0,1.71,0,3.52.07,5.42,0,.45,0,1,0,1.6,0,.29,0,.45,0,.48a.11.11,0,0,1-.12.12H9.33a.11.11,0,0,1-.12-.12l0-1.17c.06-2.27.1-4.37.1-6.31a20.15,20.15,0,0,1-2.55,4.89c-.07.1-.12.15-.16.15s-.09,0-.15-.17A2.31,2.31,0,0,0,6.07,17,19.34,19.34,0,0,0,9,12.05H8.38l-1.79,0c-.06,0-.1,0-.1-.13v-.58c0-.08,0-.12.1-.12l1.79,0h.89V9c-.55.16-1.2.32-1.94.46l-.19,0c-.08,0-.16-.08-.25-.24a2.25,2.25,0,0,0-.35-.45,17.87,17.87,0,0,0,2.71-.63A12.06,12.06,0,0,0,11,7.48,3.1,3.1,0,0,0,11.67,7a5.8,5.8,0,0,1,.64.53.4.4,0,0,1,.14.25c0,.08-.08.12-.25.14a2.7,2.7,0,0,0-.64.19c-.23.11-.7.28-1.41.53v2.61h.55l1.77,0c.09,0,.13,0,.13.12Zm6.25,7.45c0,.08,0,.13-.11.13H18c-.08,0-.12-.05-.12-.13v-1H14.17v1.16a.1.1,0,0,1-.11.11h-.68c-.08,0-.12,0-.12-.11l0-4.78V12l0-3.57a.11.11,0,0,1,.12-.12l1.67,0h2l1.67,0c.08,0,.11,0,.11.12l0,3.2v3.1Zm-.93-1.87V9.16H14.17v8.38Z"/><path class="cls-2" d="M28.71,14.18a.11.11,0,0,1-.12.12h-.16l-1,0v2.48l0,1.75a1.51,1.51,0,0,1-.39,1.22,1.18,1.18,0,0,1-.48.23,4.56,4.56,0,0,1-.84.05h-.22c-.16,0-.24,0-.27-.05a.78.78,0,0,1-.07-.26,1.81,1.81,0,0,0-.22-.53,9.33,9.33,0,0,0,1.05.08c.39,0,.58-.22.58-.65V14.27h-3.3l-1.93,0a.11.11,0,0,1-.12-.12v-.57a.11.11,0,0,1,.12-.12l1.93,0h3.3l2,0a.11.11,0,0,1,.12.12Zm-.1-5.79a.11.11,0,0,1-.12.12h-.3l-.67,0v3.13q0,.95-.36,1.2A1.92,1.92,0,0,1,26,13.1h-.19c-.15,0-.23,0-.26,0s-.05-.09-.07-.2a1.8,1.8,0,0,0-.25-.59,7.13,7.13,0,0,0,1,.07.48.48,0,0,0,.4-.14.92.92,0,0,0,.13-.57V8.48H23.44l-1.9,0c-.09,0-.13,0-.13-.12V7.82c0-.08,0-.12.13-.12l1.9,0h3.15l1.9,0a.11.11,0,0,1,.12.12Zm-3,10a.11.11,0,0,1-.12.12H25c-.13,0-.2,0-.2-.12V18H22.91v.7a.11.11,0,0,1-.12.12h-.54c-.08,0-.11,0-.11-.12l0-1.77v-.66l0-.95c0-.08,0-.11.11-.11l1.11,0h1l1.13,0c.08,0,.12,0,.12.11l0,.76v.7Zm0-6.46c0,.09,0,.13-.12.13l-1.11,0h-.95l-1.09,0c-.08,0-.12,0-.12-.13l0-.87v-.73l0-.87a.11.11,0,0,1,.12-.12l1.09,0h.95l1.11,0a.11.11,0,0,1,.12.12l0,.87V11Zm-.8,5.46V15.84H22.91v1.51Zm0-6V10H23v1.4Zm10.32,8a1.69,1.69,0,0,0-.49.56c-.08.13-.13.19-.17.19a.72.72,0,0,1-.22-.14,9.81,9.81,0,0,1-3-5.61,8.79,8.79,0,0,1-2.89,5.7c-.11.08-.18.13-.22.13s-.12-.07-.22-.2a1.51,1.51,0,0,0-.49-.4A6.9,6.9,0,0,0,30,16.19a9.73,9.73,0,0,0,.65-3.46,7.9,7.9,0,0,0-.11-1.56q.51,0,.93.09c.13,0,.19.06.19.15a1,1,0,0,1-.08.28,2.94,2.94,0,0,0-.1.8Q32.21,17.29,35.12,19.39ZM34.84,10a.27.27,0,0,1-.11.19,1,1,0,0,0-.19.36,16.61,16.61,0,0,1-1.15,2.73c-.08.14-.14.21-.17.21a.68.68,0,0,1-.22-.12,1.72,1.72,0,0,0-.54-.28,12.68,12.68,0,0,0,1.27-2.85H30.08A13.76,13.76,0,0,1,29,12.52q-.12.18-.18.18s-.11,0-.21-.13a1.94,1.94,0,0,0-.52-.34,11,11,0,0,0,1.86-4.41,8.29,8.29,0,0,0,.1-1,8.17,8.17,0,0,1,.91.16c.12,0,.18.09.18.16a.43.43,0,0,1-.12.22,1.67,1.67,0,0,0-.21.61c-.15.62-.28,1.11-.4,1.46h3.35a.89.89,0,0,0,.32,0,.27.27,0,0,1,.14,0c.07,0,.2.09.38.27S34.84,9.89,34.84,10Z"/><path class="cls-2" d="M48.55,11.18a.82.82,0,0,1-.08.3,6.69,6.69,0,0,0-.08,1.43v4.38l0,2.44c0,.08,0,.12-.11.12h-.74a.11.11,0,0,1-.12-.12V18.68h-8.9v1.11a.11.11,0,0,1-.12.12h-.74c-.07,0-.11,0-.11-.12l0-2.4V13A15,15,0,0,0,37.51,11a9,9,0,0,1,1,.1c.12,0,.18.06.18.13a1,1,0,0,1-.07.27,5.36,5.36,0,0,0-.11,1.4v4.87h3.85V9.19a14,14,0,0,0-.12-2c.34,0,.69,0,1,.08.12,0,.17.06.17.13a.88.88,0,0,1-.07.3,8.16,8.16,0,0,0-.07,1.51v8.65h4.09V12.89a13,13,0,0,0-.1-1.94q.58,0,1,.09C48.49,11.06,48.55,11.11,48.55,11.18Z"/><path class="cls-2" d="M58.17,10.79v5.64h2.61c.56,0,1.48,0,2.76-.07h.05c.11,0,.16.07.16.19v.69c0,.13-.07.19-.21.19l-2.75,0H54.45c-.51,0-1.32,0-2.43.07a.22.22,0,0,1-.24-.22,6.48,6.48,0,0,1-.08-.88c.65.05,1.57.07,2.75.07h2.62V10.79H55.6c-.74,0-1.5,0-2.28.08h0c-.07,0-.12-.07-.15-.23a5.8,5.8,0,0,1-.06-.88c.68.05,1.5.07,2.48.07h3.89c.82,0,1.69,0,2.62-.05h0c.07,0,.1.05.1.15v.73c0,.13-.06.19-.17.19-.84,0-1.7-.06-2.59-.06Z"/><path class="cls-2" d="M67.65,7.94a9.09,9.09,0,0,1,1.22.24A.22.22,0,0,1,69,8.4a.39.39,0,0,1,0,.14,4.65,4.65,0,0,0-.15,1.58v2.53c0,.67,0,1.33,0,2,0,.15-.07.23-.22.23H68c-.13,0-.19-.06-.19-.18v0c0-.89,0-1.58,0-2.06V10.12A11.74,11.74,0,0,0,67.65,7.94Zm.69,11a7.07,7.07,0,0,0,3.5-2.06,6.18,6.18,0,0,0,1.2-4V10.33a14,14,0,0,0-.17-2.63,6.25,6.25,0,0,1,1.27.24.2.2,0,0,1,.16.2.49.49,0,0,1,0,.18,6.8,6.8,0,0,0-.15,2v2.53a7.26,7.26,0,0,1-1.3,4.59,7.45,7.45,0,0,1-3.29,2.21l-.18,0a.33.33,0,0,1-.24-.11A2.7,2.7,0,0,0,68.34,19Z"/><path class="cls-2" d="M78.22,8.75c.71.07,1.74.1,3.09.1h6.24a4.39,4.39,0,0,0,1.12-.09.65.65,0,0,1,.23-.06.38.38,0,0,1,.22.11,3.26,3.26,0,0,1,.55.58.29.29,0,0,1,.08.2.27.27,0,0,1-.15.23,1.44,1.44,0,0,0-.33.39,12.4,12.4,0,0,1-2.86,2.95.33.33,0,0,1-.19.06.26.26,0,0,1-.2-.08,2.16,2.16,0,0,0-.79-.38,9.59,9.59,0,0,0,3-2.95H81.43a27.17,27.17,0,0,0-2.8.14h0a.19.19,0,0,1-.2-.17A6.33,6.33,0,0,1,78.22,8.75Zm1.1,10.36a6.69,6.69,0,0,0,3.1-2.94,8.44,8.44,0,0,0,.75-3.69A5.61,5.61,0,0,0,83,11.24a4.55,4.55,0,0,1,1.19.2c.13.06.2.14.2.24a.45.45,0,0,1-.06.2,1.6,1.6,0,0,0-.12.73,8.89,8.89,0,0,1-.85,4,7.61,7.61,0,0,1-2.81,3,.48.48,0,0,1-.25.08.28.28,0,0,1-.21-.08A2.44,2.44,0,0,0,79.32,19.11Z"/><line class="cls-3" y1="25" x2="350.65" y2="25"/></g></g></svg>