<?xml version="1.0" encoding="UTF-8"?> <!-- Generator: Adobe Illustrator 25.2.3, SVG Export Plug-In . SVG Version: 6.00 Build 0) --> <svg xmlns="http://www.w3.org/2000/svg" xmlns:xlink="http://www.w3.org/1999/xlink" version="1.1" id="レイヤー_1" x="0px" y="0px" viewBox="0 0 303.2 215.9" style="enable-background:new 0 0 303.2 215.9;" xml:space="preserve"> <style type="text/css"> .st0{fill:#40220F;} .st1{fill:#0D335B;} .st2{fill:#FFFFFF;} </style> <g> <g> <g> <path class="st0" d="M14.2,44.5c-0.8,1.3-1.8,2.6-2.7,3.5c-0.5,0.5-0.7,0.6-0.9,0.6c-0.3,0-0.6-0.3-0.6-0.6c0-0.2,0-0.3,0.5-0.8 c1.1-1.2,2.6-3.5,3.3-5l-2.7,0.3c-0.5,0.1-0.9-0.3-0.9-0.8c0-0.4,0.3-0.7,0.7-0.7l3.3-0.4v-2.5c-1.4,0.4-2.4,0.6-2.7,0.6 c-0.4,0-0.6-0.3-0.6-0.6c0-0.3,0.1-0.5,0.4-0.6c0.1,0,0.1,0,0.6-0.1c1.4-0.4,3.1-1,4.9-1.9c0.3-0.1,0.4-0.2,0.7-0.2 c0.4,0,0.8,0.4,0.8,0.8c0,0.6-0.4,0.8-2.3,1.5v2.9l2.4-0.3c0.5-0.1,0.8,0.3,0.8,0.8c0,0.4-0.2,0.7-0.7,0.8l-2.5,0.3v1 c2.6,1.4,3.3,1.9,3.3,2.5c0,0.5-0.4,0.8-0.8,0.8c-0.3,0-0.4-0.1-0.8-0.4c-0.6-0.6-1.1-1-1.7-1.5v7c0,0.4-0.4,0.8-0.9,0.8 c-0.5,0-0.9-0.3-0.9-0.8V44.5z M26.9,46.9c0.4,0.1,0.6,0.4,0.6,0.8c0,0.5-0.3,0.8-0.8,0.8l-5.1,0.3v0c0,0.5-0.3,0.8-0.9,0.8 c-0.5,0-0.8-0.3-0.8-0.8l-0.5-8.8V40c0-0.4,0.4-0.8,0.9-0.8c0.4,0,0.7,0.2,0.8,0.5l4.5-0.5c0.1,0,0.2,0,0.4,0 c0.9,0,1.4,0.4,1.4,1.4c0,0.2,0,0.2,0,0.3L26.9,46.9z M25.6,41.4l0-0.1c0-0.3-0.1-0.5-0.4-0.5c0,0-0.1,0-0.2,0l-3.7,0.4l0.3,6 l3.6-0.2L25.6,41.4z"></path> <path class="st0" d="M40.4,50.8c0,1-0.4,1.6-1.1,1.6c-0.6,0-1.6-0.2-2.5-0.6c-0.4-0.1-0.5-0.3-0.5-0.6c0-0.3,0.2-0.6,0.5-0.6 c0.1,0,0.1,0,0.3,0c0.6,0.1,1,0.2,1.2,0.2c0.3,0,0.5-0.2,0.5-0.6v-5.9l-6.4,0.4c-0.5,0-0.8-0.3-0.8-0.7s0.2-0.7,0.7-0.7l9.2-0.6 c0.5,0,0.8,0.2,0.8,0.7c0,0.5-0.3,0.7-0.7,0.8l-1.2,0.1V50.8z M40.4,41.9c0,0.4-0.3,0.7-0.8,0.7s-0.8-0.3-0.8-0.7v-4.8l-5.9,0.5 c-0.5,0-0.8-0.3-0.8-0.7c0-0.5,0.3-0.7,0.7-0.8l8.1-0.6c0.5,0,0.8,0.3,0.8,0.8c0,0.4-0.2,0.7-0.7,0.7L40.4,37V41.9z M37.6,48.2 c0.2,0.2,0.2,0.3,0.2,0.5c0,0.3-0.2,0.5-0.7,0.6l-2.4,0.3v0.1v0c0,0.4-0.3,0.6-0.7,0.6c-0.5,0-0.7-0.2-0.7-0.7L33,46.3 c0-0.4,0.3-0.7,0.7-0.7c0.3,0,0.5,0.1,0.6,0.3l2.5-0.3l0.2,0c0.5-0.1,0.9,0.4,0.9,0.9c0,0.1,0,0.2,0,0.3L37.6,48.2z M37.6,40.6 c0.2,0.1,0.3,0.3,0.3,0.5c0,0.3-0.2,0.5-0.6,0.6l-2.3,0.2c0,0.3-0.3,0.5-0.7,0.5s-0.6-0.2-0.7-0.6l-0.3-2.9 c0-0.4,0.3-0.7,0.7-0.7c0.3,0,0.4,0.1,0.6,0.3l2.1-0.2c0.1,0,0.2,0,0.2,0c0.6,0,1,0.3,1,0.9c0,0.1,0,0.2,0,0.3L37.6,40.6z M36.4,47.1c0-0.3-0.1-0.4-0.3-0.4L34.5,47l0.1,1.3l1.7-0.2L36.4,47.1z M36.5,39.6c0-0.2,0-0.3-0.2-0.3l-1.5,0.2l0.1,1.3l1.5-0.2 L36.5,39.6z M45.1,46.2c-0.4,2-1.4,3.9-2.7,5.1c-0.5,0.5-0.8,0.6-1.1,0.6c-0.3,0-0.5-0.3-0.5-0.6c0-0.3,0-0.3,0.5-0.8 c2-2.4,2.7-4.7,2.7-9.2c0-0.6,0.3-0.9,0.8-0.9c0.6,0,0.8,0.2,0.8,1c0,0.5,0,1.2-0.1,1.8c0.8,2.7,2.2,5.1,4.4,7.4 c0.4,0.5,0.5,0.6,0.5,0.7c0,0.2-0.9,0.5-1.5,0.5c-0.4,0-0.6-0.1-0.9-0.5c-1.4-1.9-2.2-3.4-2.9-5.5l0,0.1L45.1,46.2z M43.5,39.8 c-0.3,0.7-0.7,1.4-1.1,2c-0.2,0.3-0.4,0.5-0.7,0.5c-0.3,0-0.6-0.3-0.6-0.6c0-0.2,0-0.2,0.3-0.8c0.8-1.7,1.5-3.9,1.8-5.6 c0.1-0.5,0.4-0.7,0.8-0.7c0.5,0,0.9,0.3,0.9,0.8c0,0.4-0.4,1.8-0.8,2.9l4.3-0.4h0.2c0.7,0,1.1,0.3,1.1,0.9c0,0.7-0.7,2.1-1.6,3.4 c-0.3,0.5-0.5,0.6-0.8,0.6c-0.3,0-0.6-0.3-0.6-0.6c0-0.1,0-0.3,0.2-0.6c0.5-0.9,0.8-1.7,0.8-2c0-0.1-0.1-0.2-0.3-0.2h-0.1 L43.5,39.8z"></path> <path class="st0" d="M67.2,48.2l0.2-6.4c0-0.5,0.4-0.8,0.9-0.8c0.5,0,1,0.4,1,0.9v0l-0.3,8.2c0,0.5-0.4,0.8-0.9,0.8 c-0.6,0-0.9-0.4-0.9-0.9v-0.2l-10.5,0.8c-0.2,0-0.3,0-0.3,0c-1.1,0-1.7-0.5-1.7-1.7l-0.2-6.3v0c0-0.5,0.4-0.9,1-0.9 c0.5,0,0.9,0.4,0.9,0.9l0.2,5.7c0,0.6,0.2,0.7,0.8,0.7l3.5-0.3V36.6c0-0.5,0.4-0.9,0.9-0.9c0.5,0,0.9,0.4,0.9,0.9v12L67.2,48.2z"></path> <path class="st0" d="M74.8,40.6c-0.6,0-0.9-0.4-0.9-1c0-0.4,0.2-0.6,0.5-0.8c0.2-0.1,0.2-0.1,1.1-0.2c2.1-0.2,7.6-1.1,10.3-1.6 c0.3,0,0.4-0.1,0.5-0.1c0.6,0,1,0.5,1,1.1c0,0.4-0.2,0.6-0.7,0.8c-1,0.3-2,1.1-2.8,2c-1.2,1.3-1.9,2.9-1.9,4.5 c0,1.9,1.2,3.3,3.3,4c0.6,0.2,0.8,0.5,0.8,0.9c0,0.5-0.4,0.9-0.9,0.9c-0.5,0-1.3-0.3-2-0.7c-1.9-1.2-3-2.9-3-5 c0-2.3,1.3-4.7,3.3-6.2c0.1-0.1,0.1-0.1,0.2-0.2C80.8,39.7,75.5,40.6,74.8,40.6z M89.6,36.7c0.5,0.5,0.8,0.9,0.8,1.3 c0,0.4-0.4,0.7-0.8,0.7c-0.3,0-0.4-0.1-0.7-0.5c-0.3-0.6-0.8-1.2-1.4-1.8c-0.2-0.2-0.3-0.4-0.3-0.5c0-0.3,0.2-0.5,0.5-0.5 C88.1,35.4,88.9,35.9,89.6,36.7z M90.7,34.5c0.9,0.7,1.5,1.4,1.5,1.9c0,0.4-0.3,0.7-0.7,0.7c-0.3,0-0.4-0.1-0.7-0.4 c-0.4-0.6-1-1.3-1.5-1.8c-0.2-0.2-0.3-0.3-0.3-0.5c0-0.2,0.2-0.5,0.5-0.5C89.8,33.9,90.1,34.1,90.7,34.5z"></path> <path class="st0" d="M98,41c1.1,0.6,1.3,0.8,1.3,1.4c0,0.5-0.4,0.9-0.9,0.9c-0.3,0-0.5-0.1-0.9-0.4c-0.3-0.3-0.6-0.5-1.3-1.1 c-0.7-0.6-0.8-0.7-0.8-1c0-0.3,0.3-0.6,0.6-0.6C96.4,40.2,97,40.5,98,41z M100.4,45.6c0,0.5-1,2.7-2,4.4 c-0.7,1.2-1.1,1.5-1.5,1.5c-0.5,0-0.9-0.4-0.9-0.9c0-0.3,0-0.4,0.5-1c1.1-1.6,2-3,2.5-4c0.3-0.5,0.5-0.7,0.8-0.7 C100.1,44.9,100.4,45.2,100.4,45.6z M99.3,36.9c0.8,0.5,1.1,0.8,1.1,1.3s-0.4,0.9-0.9,0.9c-0.3,0-0.5-0.1-0.9-0.4 c-0.3-0.3-0.9-0.8-1.6-1.3c-0.3-0.3-0.5-0.5-0.5-0.7c0-0.3,0.3-0.6,0.7-0.6C97.5,36,98.3,36.3,99.3,36.9z M112.5,49.2 c0.5,0,0.9,0.3,0.9,0.8c0,0.5-0.3,0.8-0.8,0.9L101,51.4c-0.5,0-0.8-0.3-0.8-0.8c0-0.5,0.3-0.8,0.8-0.8l4.8-0.2v-4.1l-3.2,0.2 c-0.5,0-0.8-0.3-0.8-0.8c0-0.5,0.3-0.7,0.7-0.8l3.3-0.2v-3.3l-3.9,0.3c-0.5,0-0.9-0.3-0.9-0.8s0.3-0.8,0.7-0.8l9.5-0.7 c0.5,0,0.9,0.3,0.9,0.8c0,0.5-0.3,0.8-0.8,0.9l-4,0.3v3.3l3.2-0.2c0.5,0,0.9,0.2,0.9,0.7c0,0.5-0.2,0.8-0.8,0.8l-3.3,0.2v4.1 L112.5,49.2z M107,36c0.8,0.5,1,0.8,1,1.2c0,0.5-0.5,0.9-1,0.9c-0.3,0-0.4-0.1-0.8-0.4c-0.6-0.6-1.6-1.5-2.1-1.9 c-0.2-0.2-0.4-0.4-0.4-0.6c0-0.3,0.3-0.6,0.6-0.6C104.7,34.6,105.9,35.3,107,36z"></path> <path class="st0" d="M130.4,39.8c-0.6,2.2-1.8,4.7-3.3,6.4c1.7,1.5,4.2,3,6.9,4.1c0.5,0.2,0.8,0.4,0.8,0.6c0,0.1-0.2,0.3-0.5,0.4 c-0.8,0.3-1.5,0.5-2,0.5c-0.4,0-0.6-0.1-1.3-0.5c-1.7-1-3.3-2.2-5-3.8c-2,1.8-4,3-6.5,3.8c-0.6,0.2-0.9,0.3-1.1,0.3 c-0.4,0-0.7-0.3-0.7-0.6c0-0.2,0.1-0.4,0.3-0.5c0.1,0,0.1,0,0.6-0.3c2.2-0.9,4.5-2.4,6.1-4c-1.3-1.4-3-3.9-3.9-5.8l-2.2,0.1 c-0.6,0-0.9-0.3-0.9-0.8c0-0.5,0.3-0.8,0.8-0.8l6.4-0.4v-2.8c0-0.5,0.4-0.8,0.9-0.8c0.5,0,0.9,0.4,0.9,0.8v2.7l6.1-0.4 c0.5,0,0.9,0.3,0.9,0.8c0,0.5-0.3,0.8-0.7,0.8L130.4,39.8z M122.5,40.2c0.7,1.3,2.1,3.3,3.3,4.7c1.1-1.4,2-3.2,2.5-5L122.5,40.2z "></path> <path class="st0" d="M142,51.3c0,0.4-0.4,0.8-0.8,0.8c-0.5,0-0.8-0.3-0.8-0.8v-9c-1.1,1.6-1.6,2.2-2.1,2.2 c-0.3,0-0.6-0.3-0.6-0.6c0-0.3,0-0.3,0.6-1.1c1.3-2,2.6-4.5,3.5-6.9c0.2-0.6,0.5-0.8,0.9-0.8c0.5,0,0.9,0.3,0.9,0.8 c0,0.5-0.6,2.1-1.4,3.6V51.3z M150,43.8l3.2-0.2c0.5,0,0.8,0.3,0.8,0.8s-0.2,0.8-0.7,0.8l-3.3,0.2v4.1l4.9-0.2 c0.5,0,0.9,0.3,0.9,0.8c0,0.5-0.3,0.8-0.8,0.9l-11.2,0.5c-0.5,0-0.8-0.3-0.8-0.8c0-0.5,0.3-0.8,0.8-0.8l4.5-0.2v-4.1l-3.2,0.2 c-0.5,0-0.8-0.3-0.8-0.7c0-0.5,0.3-0.8,0.7-0.8l3.3-0.2v-3.3l-3.8,0.3c-0.5,0-0.9-0.3-0.9-0.8s0.3-0.8,0.7-0.9l9.4-0.7 c0.5,0,0.9,0.3,0.9,0.8c0,0.5-0.3,0.8-0.7,0.9l-3.9,0.3V43.8z M149,35.7c1.2,0.8,1.5,1.1,1.5,1.6c0,0.5-0.5,0.9-1,0.9 c-0.3,0-0.4-0.1-0.8-0.4c-0.6-0.6-1.5-1.4-2.2-1.9c-0.2-0.2-0.3-0.3-0.3-0.5c0-0.3,0.3-0.7,0.7-0.7S148,35,149,35.7z"></path> <path class="st0" d="M174.7,36.9h0.2c0.7,0,1.1,0.3,1.1,0.8c0,0.5-0.5,1.4-1.3,2.4c-0.6,0.8-0.9,1-1.2,1s-0.6-0.3-0.6-0.6 c0-0.2,0.1-0.3,0.2-0.5c0.3-0.5,0.6-1.1,0.6-1.4c0-0.1-0.1-0.2-0.3-0.2h-0.1l-11.6,0.8c-0.1,2-0.4,2.8-1.2,2.8 c-0.6,0-1-0.4-1-0.9c0-0.2,0-0.3,0.2-0.7c0.3-0.8,0.6-1.9,0.6-2.5c0-0.5,0.3-0.7,0.7-0.7c0.4,0,0.6,0.2,0.6,0.6l5-0.3v-2.2 c0-0.5,0.4-0.8,0.9-0.8c0.5,0,0.9,0.4,0.9,0.8v2L174.7,36.9z M167.7,44.7l6.4-0.8l0.2,0c0.4,0,0.8,0.4,0.8,0.8 c0,0.4-0.3,0.7-0.8,0.8l-6.6,0.8l0,2.7v0.1c0,0.5,0.2,0.8,0.6,1c0.2,0.1,0.9,0.1,1.9,0.1c2,0,3.3-0.1,3.8-0.4 c0.4-0.2,0.4-0.4,0.4-2.1c0-0.5,0.2-0.7,0.6-0.7c0.3,0,0.5,0.2,0.6,0.6c0.2,0.9,0.4,1.9,0.4,2.4c0,0.9-0.3,1.3-1.2,1.5 c-0.8,0.2-2.8,0.3-5,0.3c-2,0-2.7-0.1-3.2-0.5c-0.3-0.2-0.5-0.6-0.6-1c0-0.1,0-0.4,0-0.5v-0.1l0-3.2l-5.3,0.7 c-0.5,0.1-0.9-0.3-0.9-0.8c0-0.4,0.3-0.7,0.7-0.8l5.5-0.7l0-2.1c-1.8,0.4-2.8,0.5-3,0.5c-0.4,0-0.7-0.3-0.7-0.7 c0-0.2,0.1-0.4,0.3-0.5c0.1,0,0.2-0.1,0.7-0.2c2.9-0.7,5-1.3,6.3-1.9c0.3-0.1,0.5-0.2,0.7-0.2c0.4,0,0.8,0.4,0.8,0.9 c0,0.7-0.6,1-3.3,1.7L167.7,44.7z"></path> <path class="st0" d="M189.5,47c0,0.5-0.3,0.9-0.9,0.9c-0.5,0-0.8-0.3-0.8-0.9V46c-1.6,1-2.3,1.7-2.3,2.5c0,0.7,0.7,1.1,2.2,1.1 c1,0,3.2-0.1,4-0.2c0.1,0,0.1,0,0.2,0c0.5,0,0.8,0.4,0.8,0.9c0,0.5-0.3,0.8-0.9,0.8c-0.6,0.1-2.6,0.2-4.1,0.2 c-2.7,0-4.1-0.9-4.1-2.6c0-1.6,0.9-2.6,4-4.4c-0.2-0.9-0.5-1.2-1.1-1.2c-0.8,0-1.6,0.2-2.3,0.7c-0.2,0.2-0.5,0.3-0.7,0.3 c-0.4,0-0.8-0.4-0.8-0.9c0-0.2,0.1-0.4,0.3-0.6c0.4-0.4,1-1.3,1.9-3.1c-0.8,0.1-1.9,0.1-2.3,0.1c-0.7,0-1-0.3-1-0.8 c0-0.4,0.2-0.7,0.6-0.8c0.1,0,0.2,0,0.6,0c0.5,0,2-0.1,3-0.2c0.4-0.9,0.6-1.4,1-2.2c0.2-0.5,0.5-0.7,0.9-0.7 c0.5,0,0.9,0.4,0.9,0.8c0,0.2-0.1,0.6-0.8,1.9c0.9-0.1,1.8-0.2,2.6-0.4c0.2-0.1,0.3-0.1,0.4-0.1c0.4,0,0.8,0.4,0.8,0.9 c0,0.4-0.3,0.6-0.8,0.8c-0.8,0.2-2.4,0.5-3.9,0.6c-0.7,1.2-1.1,2-1.6,2.7l0,0.1c0.6-0.3,1.3-0.4,1.8-0.4c1.1,0,1.8,0.6,2.2,1.8 c2.1-1.1,3.7-1.7,4.2-1.7c0.5,0,0.8,0.4,0.8,0.9c0,0.4-0.1,0.5-0.8,0.8c-1.8,0.7-3,1.2-4.1,1.7V47z"></path> <path class="st0" d="M203.9,41.9c0.8,0,1.2,0.3,1.2,1.1c0,0.9-0.5,2.7-1.1,4c3.7,1.9,8.1,3.1,12.7,3.6c0.7,0.1,1,0.2,1,0.4 c0,0.2-0.1,0.3-0.6,0.6c-1,0.6-1.5,0.8-2.1,0.8c-2,0-8.1-2.2-11.7-4.2c-0.9,1.3-1.6,2.1-2.9,3c-0.2,0.2-0.4,0.2-0.6,0.2 c-0.3,0-0.6-0.3-0.6-0.6c0-0.3,0-0.3,0.7-0.9c0.8-0.7,1.5-1.6,2.1-2.5c-0.1,0-0.2-0.1-0.2-0.1c-0.1,0-0.2-0.1-0.3-0.1 c-0.6-0.3-1.4-0.9-1.8-1.2c-0.2-0.2-0.3-0.4-0.3-0.6c0-0.3,0.3-0.6,0.6-0.6c0.2,0,0.3,0,1,0.5c0.3,0.2,1,0.6,1.6,0.9 c0.4-0.9,0.8-2.2,0.8-2.7c0-0.2-0.1-0.3-0.3-0.3h-0.2l-1.7,0.2l-0.1,0c-0.4,0-0.7-0.3-0.7-0.7c0-0.2,0-0.3,0.2-0.5 c0,0,0.1-0.1,0.2-0.3c0.9-1.4,2-3.6,2-4c0-0.1-0.1-0.2-0.2-0.2c-0.1,0-0.2,0-0.3,0l-2,0.4c-0.1,0-0.1,0-0.2,0 c-0.4,0-0.7-0.3-0.7-0.8c0-0.4,0.3-0.7,0.7-0.8l3.3-0.5c0.1,0,0.2,0,0.4,0c0.6,0,1,0.3,1,0.9c0,0.3-0.1,0.6-0.3,1.1 c-0.8,1.7-1.4,2.9-2,3.8l1.2-0.1H203.9z M211.3,43.4l3.3-0.2c0.5,0,0.8,0.2,0.8,0.6c0,0.4-0.2,0.6-0.6,0.6l-3.5,0.2v1.1l4.5-0.2 c0.1,0,0.4,0.1,0.5,0.1c0.1,0.1,0.2,0.3,0.2,0.5c0,0.4-0.2,0.6-0.6,0.7l-4.6,0.2v1.3c0,0.4-0.3,0.7-0.8,0.7 c-0.5,0-0.8-0.3-0.8-0.7v-1.2l-3.6,0.2c-0.5,0-0.8-0.2-0.8-0.7c0-0.4,0.2-0.6,0.6-0.7l3.8-0.2v-1.1l-2.9,0.2 c-0.4,0-0.7-0.2-0.7-0.7c0-0.4,0.2-0.6,0.6-0.6l3-0.2v-1.1l-2.8,0.2c-0.4,0-0.7-0.3-0.7-0.6c0-0.4,0.2-0.6,0.6-0.6l2.9-0.2v-1.2 l-4.2,0.4c-0.4,0-0.6-0.2-0.6-0.6c0-0.4,0.2-0.6,0.6-0.7l4.3-0.4v-1.1l-2.8,0.3c-0.4,0-0.7-0.2-0.7-0.6c0-0.4,0.2-0.6,0.6-0.6 l2.9-0.3v-1.2c0-0.4,0.3-0.7,0.8-0.7c0.5,0,0.8,0.3,0.8,0.7v1l2.4-0.2c0.1,0,0.2,0,0.3,0c0.8,0,1.2,0.4,1.2,1.2 c0,0.1,0,0.2,0,0.3l-0.1,0.8l1.3-0.1c0.4,0,0.7,0.2,0.7,0.6c0,0.4-0.2,0.7-0.6,0.7l-1.6,0.1l-0.1,1.3c0.3,0.1,0.5,0.3,0.5,0.6 c0,0.3-0.2,0.6-0.6,0.6l-3.4,0.3V43.4z M213.5,38.3l0.1-0.7c0-0.3-0.1-0.4-0.3-0.4l-2,0.2v1.1L213.5,38.3z M213.3,40.8l0.1-1.2 l-2.1,0.2V41L213.3,40.8z"></path> <path class="st0" d="M232.1,38.7c-3.6,0.7-8.6,1.5-9.2,1.5c-0.6,0-0.9-0.4-0.9-1c0-0.4,0.2-0.6,0.5-0.8c0.2-0.1,0.3-0.1,1.1-0.2 c2.2-0.2,8.6-1.2,11.3-1.7c0.2,0,0.4-0.1,0.5-0.1c0.6,0,1.1,0.5,1.1,1.1c0,0.4-0.2,0.6-0.8,0.8c-3.1,0.9-5.6,3.9-5.6,6.6 c0,1.9,1.2,3.3,3.3,4c0.6,0.2,0.8,0.5,0.8,0.9c0,0.5-0.4,0.9-0.9,0.9c-0.5,0-1.3-0.3-2-0.7c-1.9-1.2-3-2.9-3-4.9 c0-2.3,1.4-4.7,3.7-6.3L232.1,38.7z"></path> <path class="st0" d="M249.2,37.6c-1.9,0.4-3.8,0.7-4.3,0.7c-0.5,0-0.9-0.3-0.9-0.8c0-0.4,0.2-0.7,0.6-0.8c0.1,0,0.2,0,0.7-0.1 c1.2-0.1,3.6-0.4,4.8-0.7c0.2,0,0.3-0.1,0.4-0.1c0.6,0,1.2,0.5,1.2,1.1c0,0.4-0.1,0.5-0.7,1.1c-3.1,3.3-3.9,4.2-5.7,5.8l0.1,0.1 c1.5-1,3-1.5,4.6-1.5c2.9,0,4.9,1.6,4.9,3.9c0,3-2.5,4.9-6.4,4.9c-1.9,0-3.4-1.1-3.4-2.4c0-1.2,1.3-2.1,3-2.1 c1.5,0,2.8,0.8,3.7,2.2c0.9-0.7,1.3-1.5,1.3-2.5c0-1.5-1.3-2.5-3.1-2.5c-2.2,0-4.2,0.8-6.3,2.4c-0.3,0.3-0.6,0.4-0.8,0.4 c-0.4,0-0.9-0.5-0.9-1c0-0.4,0.1-0.5,0.9-1.2C244.6,42.8,247.5,39.7,249.2,37.6L249.2,37.6z M247.8,48.2c-0.7,0-1.2,0.3-1.2,0.7 c0,0.5,0.8,0.9,1.8,0.9c0.5,0,1.1-0.1,1.7-0.2C249.4,48.7,248.6,48.2,247.8,48.2z"></path> <path class="st0" d="M264.9,35.9c0.2-0.6,0.4-0.8,0.9-0.8c0.5,0,0.9,0.3,0.9,0.8c0,0.2-0.2,0.9-0.7,2.3c0.4-0.1,1.2-0.2,1.5-0.3 c0.2,0,0.3-0.1,0.4-0.1c0.4,0,0.7,0.3,0.7,0.8c0,0.4-0.2,0.7-0.7,0.8c-0.5,0.1-1.7,0.3-2.6,0.4c-1,2.4-1.9,4.3-2.9,5.9 c-0.2,0.4-0.5,0.5-0.8,0.5c-0.4,0-0.9-0.4-0.9-0.8c0-0.2,0-0.3,0.4-0.9c0.7-1.1,1.6-2.7,2.3-4.5c-0.4,0.1-0.8,0.1-1.4,0.2 c-0.3,0-0.5,0-0.6,0c-0.1,0-0.2,0-0.2,0c-0.4,0-0.7-0.3-0.7-0.8c0-0.6,0.3-0.8,1-0.9c0.4,0,1.6-0.1,2.5-0.2 C264.4,37.4,264.7,36.6,264.9,35.9z M269.1,44.4c0-1.2,0.3-1.8,1-1.8c0.4,0,0.8,0.3,0.8,0.7c0,0.1,0,0.1,0,0.3 c0,0.1-0.1,0.6-0.1,0.9v2.4c1.2,0.4,2,0.7,3,1.3c0.4,0.2,0.6,0.5,0.6,0.9c0,0.4-0.4,0.9-0.8,0.9c-0.2,0-0.3,0-0.6-0.3 c-0.7-0.5-1.4-0.8-2.2-1.2v0.6c0,1.5-0.9,2.4-2.3,2.4c-1.8,0-3.6-1.5-3.6-3c0-1.3,1.2-2.1,2.9-2.1c0.5,0,0.9,0,1.4,0.1V44.4z M269.1,48c-0.5-0.1-1-0.1-1.4-0.1c-0.8,0-1.3,0.3-1.3,0.7c0,0.7,1,1.4,1.9,1.4c0.5,0,0.8-0.3,0.8-0.9V48z M271.5,39.6 c-0.2-0.2-0.3-0.3-0.3-0.5c0-0.4,0.3-0.6,0.7-0.6c0.5,0,1.7,0.7,2.8,1.6c0.7,0.6,1,1,1,1.5c0,0.5-0.3,0.7-1.1,0.8 c-0.3,0-0.7,0.1-1.4,0.2c-0.2,0-0.3,0-0.4,0c-0.4,0-0.6-0.2-0.6-0.5c0-0.3,0.3-0.5,1.3-0.8C273.1,40.7,272.4,40.1,271.5,39.6z"></path> <path class="st0" d="M284,45.2c1.7-1,3.5-1.6,5.2-1.6c2.4,0,3.9,1.3,3.9,3.3c0,1.6-0.9,2.9-2.7,3.8c-1,0.5-2.8,1-3.6,1 c-0.4,0-0.7-0.3-0.7-0.7c0-0.3,0.2-0.5,0.4-0.6c0.1,0,0.1,0,0.7-0.2c2.4-0.6,3.9-1.8,3.9-3.3c0-1.1-0.8-1.8-2.1-1.8 c-1.6,0-3.5,0.7-5.1,1.8c-0.3,0.2-0.6,0.3-0.9,0.3c-0.6,0-1-0.5-1-1.1s0.7-4.6,1-6c0.1-0.5,0.4-0.8,0.9-0.8 c0.5,0,0.8,0.3,0.8,0.8c0,0.1,0,0.2-0.1,0.6c-0.3,0.8-0.7,2.9-0.8,4.2L284,45.2z M285.2,36c-0.2-0.1-0.4-0.3-0.4-0.5 c0-0.3,0.3-0.6,0.6-0.6c0.5,0,1.7,0.6,2.7,1.3c0.7,0.5,1.1,1.1,1.1,1.6c0,0.5-0.4,0.7-1.1,0.7c-0.2,0-0.9,0.1-1.5,0.2 c-0.1,0-0.1,0-0.2,0c-0.4,0-0.6-0.2-0.6-0.5c0-0.4,0.2-0.5,1.3-0.8C286.7,37,286,36.4,285.2,36z"></path> </g> </g> <g> <g> <path class="st0" d="M49.2,140.2c0,0.4-0.4,0.7-0.8,0.7s-0.8-0.3-0.8-0.7v-13.8c-0.3-0.1-0.5-0.3-0.5-0.7c0-0.4,0.3-0.7,0.7-0.7 l4.1-0.4c0.1,0,0.2,0,0.2,0c0.7,0,1.1,0.4,1.1,0.9c0,0.6-0.8,2.3-1.8,3.9c1.1,1.1,1.8,2.6,1.8,3.9c0,1-0.6,1.7-1.4,1.7 c-1,0-2.3-0.7-2.3-1.2c0-0.4,0.2-0.6,0.5-0.6c0.1,0,0.2,0,0.4,0.1c0.2,0.1,0.3,0.1,0.5,0.1c0.4,0,0.6-0.2,0.6-0.7 c0-0.9-0.6-2-1.5-2.9c-0.1-0.1-0.2-0.2-0.2-0.4c0-0.3,0.2-0.5,0.4-0.6c0.6-1.2,1-2.2,1-2.4c0-0.2-0.2-0.3-0.4-0.2l-1.6,0.2V140.2 z M56,131.4c-0.1,1.6-0.2,2.5-0.5,3.4c-0.5,1.9-1.3,3.8-2.3,5c-0.2,0.3-0.4,0.4-0.6,0.4c-0.4,0-0.7-0.3-0.7-0.6 c0-0.2,0-0.3,0.4-0.9c1.7-3,2.1-4.9,2.3-11.2l0-0.7c-0.4-0.1-0.6-0.4-0.6-0.8c0-0.5,0.3-0.8,0.7-0.8l8.3-0.8h0.1 c0.4,0,0.7,0.3,0.7,0.8s-0.2,0.8-0.7,0.8l-6.9,0.7l0,0.2c0,0.8,0,1.3-0.1,2.7v0.1l5.4-0.5h0.3c0.8,0,1.3,0.4,1.3,1.1 c0,0.3,0,0.5-0.2,0.9c-0.5,1.7-1.1,3.1-2.3,4.9c1.1,1.2,2.8,2.7,3.9,3.4c0.3,0.2,0.5,0.4,0.5,0.5c0,0.2-1.1,0.6-1.8,0.6 c-0.3,0-0.5-0.1-0.9-0.4c-1.1-1-1.9-1.9-2.7-2.9l-0.1,0.1c-1.2,1.5-3.4,3.3-4,3.3c-0.3,0-0.6-0.3-0.6-0.6c0-0.3,0.1-0.4,0.7-0.9 c0.9-0.7,2.2-2,3-3.1l0.1-0.1l-0.1-0.2c-1.3-1.7-2.1-3.2-2.1-3.7c0-0.3,0.3-0.6,0.7-0.6c0.3,0,0.4,0.1,0.8,0.7 c0.4,0.7,1.2,1.9,1.7,2.5c0.8-1.3,1.6-3.2,1.6-3.8c0-0.2-0.1-0.3-0.4-0.3h-0.1L56,131.4z"></path> <path class="st0" d="M72,133.5c-0.8,1.3-1.8,2.6-2.7,3.5c-0.5,0.5-0.7,0.6-0.9,0.6c-0.3,0-0.6-0.3-0.6-0.6c0-0.2,0-0.3,0.5-0.8 c1.1-1.2,2.6-3.5,3.3-5l-2.7,0.3c-0.5,0.1-0.9-0.3-0.9-0.8c0-0.4,0.3-0.7,0.7-0.7l3.3-0.4v-2.5c-1.4,0.4-2.4,0.6-2.7,0.6 c-0.4,0-0.6-0.3-0.6-0.6c0-0.3,0.1-0.5,0.4-0.6c0.1,0,0.1,0,0.6-0.1c1.4-0.4,3.1-1,4.9-1.9c0.3-0.1,0.4-0.2,0.7-0.2 c0.4,0,0.8,0.4,0.8,0.8c0,0.6-0.4,0.8-2.3,1.5v2.9l2.4-0.3c0.5-0.1,0.8,0.3,0.8,0.8c0,0.4-0.2,0.7-0.7,0.8l-2.5,0.3v1 c2.6,1.4,3.3,1.9,3.3,2.5c0,0.5-0.4,0.8-0.8,0.8c-0.3,0-0.4-0.1-0.8-0.4c-0.6-0.6-1.1-1-1.7-1.5v7c0,0.4-0.4,0.8-0.9,0.8 c-0.5,0-0.9-0.3-0.9-0.8V133.5z M84.6,135.9c0.4,0.1,0.6,0.4,0.6,0.8c0,0.5-0.3,0.8-0.8,0.8l-5.1,0.3v0c0,0.5-0.3,0.8-0.9,0.8 c-0.5,0-0.8-0.3-0.8-0.8l-0.5-8.8V129c0-0.4,0.4-0.8,0.9-0.8c0.4,0,0.7,0.2,0.8,0.5l4.5-0.5c0.1,0,0.2,0,0.4,0 c0.9,0,1.4,0.4,1.4,1.4c0,0.2,0,0.2,0,0.3L84.6,135.9z M83.4,130.4l0-0.1c0-0.3-0.1-0.5-0.4-0.5c0,0-0.1,0-0.2,0l-3.7,0.4l0.3,6 L83,136L83.4,130.4z"></path> <path class="st0" d="M98.6,130.9l2.5-0.2h0.4c1,0,1.6,0.3,1.6,0.9c0,1-1.8,3.5-3.8,5.3c1.4,0.9,4.3,2.3,6.5,3.1 c0.5,0.2,0.7,0.3,0.7,0.5c0,0.2-0.2,0.3-0.5,0.4c-0.9,0.3-1.7,0.4-2,0.4c-0.4,0-0.5,0-1.1-0.4c-1.5-0.8-3.7-2.1-4.9-3 c-1.2,0.9-2.7,1.7-4.3,2.3c-1.2,0.5-2.8,0.9-3.2,0.9c-0.3,0-0.6-0.3-0.6-0.7c0-0.2,0.1-0.4,0.3-0.5c0.1-0.1,0.2-0.1,0.8-0.3 c2-0.6,4.1-1.6,5.6-2.7c-2.9-2.2-3.3-2.6-3.3-3c0-0.3,0.3-0.7,0.7-0.7c0.3,0,0.4,0.1,1,0.5c0.8,0.7,1.7,1.3,2.9,2.2l0.1-0.1 l0.1-0.1c1.1-0.9,2.6-2.9,2.6-3.3c0-0.1-0.1-0.2-0.3-0.2h-0.1l-7.1,0.5H93c-0.5,0-0.8-0.3-0.8-0.8c0-0.5,0.3-0.8,0.8-0.8l3.8-0.3 v-2.6l-5.6,0.4l-0.1,0c-0.4,0-0.8-0.3-0.8-0.8c0-0.5,0.3-0.8,0.7-0.8l5.8-0.4v-2.7c0-0.4,0.4-0.8,0.9-0.8c0.5,0,0.9,0.4,0.9,0.8 v2.6l5.4-0.4h0.1c0.5,0,0.8,0.4,0.8,0.9c0,0.4-0.3,0.7-0.8,0.7l-5.6,0.4V130.9z"></path> <path class="st0" d="M126.6,125.8c0.4,0,0.8,0.3,0.8,0.8c0,0.4-0.3,0.7-0.7,0.8l-11.7,0.9c0,3.7-0.7,7.4-1.8,9.9 c-0.6,1.5-1.2,2.2-1.7,2.2c-0.4,0-0.7-0.3-0.7-0.7c0-0.2,0-0.3,0.3-0.8c1.2-2.2,2-6.6,2.1-10.6c-0.3-0.1-0.5-0.4-0.5-0.8 c0-0.5,0.3-0.7,0.8-0.8l5.3-0.4v-2.1c0-0.5,0.4-0.8,0.9-0.8c0.5,0,0.9,0.3,0.9,0.8v1.9L126.6,125.8z M125.5,138.8 c0.4,0.1,0.6,0.4,0.6,0.8c0,0.5-0.3,0.7-0.8,0.8l-7.6,0.3v0.1v0.1c0,0.4-0.3,0.7-0.9,0.7s-0.8-0.3-0.9-0.8l-0.5-5.4 c0-0.5,0.3-0.8,0.9-0.9h0.1c0.4,0,0.7,0.2,0.8,0.5l2.2-0.2V129c0-0.5,0.3-0.8,0.9-0.8c0.6,0,0.9,0.3,0.9,0.8v1.9l4.2-0.4h0.1 c0.4,0,0.8,0.3,0.8,0.8c0,0.5-0.3,0.8-0.8,0.8l-4.2,0.3v2.2l3.3-0.3h0.2c0.8,0,1.3,0.4,1.3,1.2c0,0.1,0,0.3,0,0.4L125.5,138.8z M124.1,136.4c0-0.3-0.1-0.5-0.3-0.4h-0.1l-6.3,0.5l0.2,2.7l6.2-0.3L124.1,136.4z"></path> <path class="st0" d="M144.6,133.5c-0.8,1.3-1.8,2.6-2.7,3.5c-0.5,0.5-0.7,0.6-0.9,0.6c-0.3,0-0.6-0.3-0.6-0.6 c0-0.2,0-0.3,0.5-0.8c1.1-1.2,2.6-3.5,3.3-5l-2.7,0.3c-0.5,0.1-0.9-0.3-0.9-0.8c0-0.4,0.3-0.7,0.7-0.7l3.3-0.4v-2.5 c-1.4,0.4-2.4,0.6-2.7,0.6c-0.4,0-0.6-0.3-0.6-0.6c0-0.3,0.1-0.5,0.4-0.6c0.1,0,0.1,0,0.6-0.1c1.4-0.4,3.1-1,4.9-1.9 c0.3-0.1,0.4-0.2,0.7-0.2c0.4,0,0.8,0.4,0.8,0.8c0,0.6-0.4,0.8-2.3,1.5v2.9l2.4-0.3c0.5-0.1,0.8,0.3,0.8,0.8 c0,0.4-0.2,0.7-0.7,0.8l-2.5,0.3v1c2.6,1.4,3.3,1.9,3.3,2.5c0,0.5-0.4,0.8-0.8,0.8c-0.3,0-0.4-0.1-0.8-0.4 c-0.6-0.6-1.1-1-1.7-1.5v7c0,0.4-0.4,0.8-0.9,0.8c-0.5,0-0.9-0.3-0.9-0.8V133.5z M157.3,135.9c0.4,0.1,0.6,0.4,0.6,0.8 c0,0.5-0.3,0.8-0.8,0.8l-5.1,0.3v0c0,0.5-0.3,0.8-0.9,0.8c-0.5,0-0.8-0.3-0.8-0.8l-0.5-8.8V129c0-0.4,0.4-0.8,0.9-0.8 c0.4,0,0.7,0.2,0.8,0.5l4.5-0.5c0.1,0,0.2,0,0.4,0c0.9,0,1.4,0.4,1.4,1.4c0,0.2,0,0.2,0,0.3L157.3,135.9z M156,130.4l0-0.1 c0-0.3-0.1-0.5-0.4-0.5c0,0-0.1,0-0.2,0l-3.7,0.4l0.3,6l3.6-0.2L156,130.4z"></path> <path class="st0" d="M170.9,139.8c0,1-0.4,1.6-1.1,1.6c-0.6,0-1.6-0.2-2.5-0.6c-0.4-0.1-0.5-0.3-0.5-0.6c0-0.3,0.2-0.6,0.5-0.6 c0.1,0,0.1,0,0.3,0c0.6,0.1,1,0.2,1.2,0.2c0.3,0,0.5-0.2,0.5-0.6v-5.9l-6.4,0.4c-0.5,0-0.8-0.3-0.8-0.7c0-0.5,0.2-0.7,0.7-0.7 l9.2-0.6c0.5,0,0.8,0.2,0.8,0.7c0,0.5-0.3,0.7-0.7,0.8l-1.2,0.1V139.8z M170.8,130.9c0,0.4-0.3,0.7-0.8,0.7s-0.8-0.3-0.8-0.7 v-4.8l-5.9,0.5c-0.5,0-0.8-0.3-0.8-0.7c0-0.5,0.3-0.7,0.7-0.8l8.1-0.6c0.5,0,0.8,0.3,0.8,0.8c0,0.4-0.2,0.7-0.7,0.7l-0.7,0.1 V130.9z M168,137.2c0.2,0.2,0.2,0.3,0.2,0.5c0,0.3-0.2,0.5-0.7,0.6l-2.4,0.3v0.1v0c0,0.4-0.3,0.6-0.7,0.6c-0.5,0-0.7-0.2-0.7-0.7 l-0.3-3.3c0-0.4,0.3-0.7,0.7-0.7c0.3,0,0.5,0.1,0.6,0.3l2.5-0.3l0.2,0c0.5-0.1,0.9,0.4,0.9,0.9c0,0.1,0,0.2,0,0.3L168,137.2z M168,129.6c0.2,0.1,0.3,0.3,0.3,0.5c0,0.3-0.2,0.5-0.6,0.6l-2.3,0.2c0,0.3-0.3,0.5-0.7,0.5s-0.6-0.2-0.7-0.6l-0.3-2.9 c0-0.4,0.3-0.7,0.7-0.7c0.3,0,0.4,0.1,0.6,0.3l2.1-0.2c0.1,0,0.2,0,0.2,0c0.6,0,1,0.3,1,0.9c0,0.1,0,0.2,0,0.3L168,129.6z M166.8,136.1c0-0.3-0.1-0.4-0.3-0.4L165,136l0.1,1.3l1.7-0.2L166.8,136.1z M166.9,128.6c0-0.2,0-0.3-0.2-0.3l-1.5,0.2l0.1,1.3 l1.5-0.2L166.9,128.6z M175.5,135.2c-0.4,2-1.4,3.9-2.7,5.1c-0.5,0.5-0.8,0.6-1.1,0.6c-0.3,0-0.5-0.3-0.5-0.6 c0-0.3,0-0.3,0.5-0.8c2-2.4,2.7-4.7,2.7-9.2c0-0.6,0.3-0.9,0.8-0.9c0.6,0,0.8,0.2,0.8,1c0,0.5,0,1.2-0.1,1.8 c0.8,2.7,2.2,5.1,4.4,7.4c0.4,0.5,0.5,0.6,0.5,0.7c0,0.2-0.9,0.5-1.5,0.5c-0.4,0-0.6-0.1-0.9-0.5c-1.4-1.9-2.2-3.4-2.9-5.5l0,0.1 L175.5,135.2z M174,128.8c-0.3,0.7-0.7,1.4-1.1,2c-0.2,0.3-0.4,0.5-0.7,0.5c-0.3,0-0.6-0.3-0.6-0.6c0-0.2,0-0.2,0.3-0.8 c0.8-1.7,1.5-3.9,1.8-5.6c0.1-0.5,0.4-0.7,0.8-0.7c0.5,0,0.9,0.3,0.9,0.8c0,0.4-0.4,1.8-0.8,2.9l4.3-0.4h0.2 c0.7,0,1.1,0.3,1.1,0.9c0,0.7-0.7,2.1-1.6,3.4c-0.3,0.5-0.5,0.6-0.8,0.6c-0.3,0-0.6-0.3-0.6-0.6c0-0.1,0-0.3,0.2-0.6 c0.5-0.9,0.8-1.7,0.8-2c0-0.1-0.1-0.2-0.3-0.2h-0.1L174,128.8z"></path> <path class="st0" d="M197.6,137.2l0.2-6.4c0-0.5,0.4-0.8,0.9-0.8c0.5,0,1,0.4,1,0.9v0l-0.3,8.2c0,0.5-0.4,0.8-0.9,0.8 c-0.6,0-0.9-0.4-0.9-0.9v-0.2l-10.5,0.8c-0.2,0-0.3,0-0.3,0c-1.1,0-1.7-0.5-1.7-1.7l-0.2-6.3v0c0-0.5,0.4-0.9,1-0.9 c0.5,0,0.9,0.4,0.9,0.9l0.2,5.7c0,0.6,0.2,0.7,0.8,0.7l3.5-0.3v-12.1c0-0.5,0.4-0.9,0.9-0.9c0.5,0,0.9,0.4,0.9,0.9v12 L197.6,137.2z"></path> <path class="st0" d="M212.1,129.3c-0.9,0.1-1.5,0.1-2.7,0.2c-0.4,0-0.9,0.1-0.9,0.1c-0.1,0-0.2,0-0.2,0c-0.5,0-0.9-0.3-0.9-0.8 c0-0.5,0.2-0.7,0.6-0.8c0.2,0,0.2,0,0.9-0.1c1.5,0,5.9-0.4,8.2-0.8c0.1,0,0.2,0,0.3,0c0.5,0,0.9,0.3,0.9,0.9 c0,0.5-0.3,0.8-0.9,0.8c-1,0.1-2.3,0.3-3.4,0.4v6.1l0.5,0c3.4-0.2,5.5-0.3,6.1-0.3c0.1,0,0.2,0,0.2,0c0.6,0,0.9,0.3,0.9,0.9 c0,0.4-0.2,0.7-0.5,0.8c-0.2,0-0.2,0-1.4,0.1c-3.9,0.1-9.8,0.5-13.8,0.8c-0.2,0-0.2,0-0.3,0c-0.6,0-0.9-0.3-0.9-0.9 c0-0.4,0.3-0.7,0.8-0.8c0.4-0.1,3.6-0.3,6-0.4l0.5,0V129.3z"></path> <path class="st0" d="M229.1,132.5c0,0.6-0.3,0.9-0.9,0.9c-0.6,0-0.9-0.3-0.9-0.9V126c0-0.6,0.3-0.9,0.9-0.9 c0.6,0,0.9,0.4,0.9,0.9V132.5z M235.9,131c0,3.8-0.9,6.4-2.8,8.2c-0.8,0.8-1.5,1.3-1.9,1.3c-0.3,0-0.6-0.3-0.6-0.6 c0-0.3,0-0.4,0.8-1.2c1.9-2.1,2.7-4.3,2.7-7.7v-5.9c0-0.5,0.3-0.8,0.9-0.8c0.6,0,0.9,0.3,0.9,0.8V131z"></path> <path class="st0" d="M258.2,127.2c0,0.8-1.1,2.3-2.6,3.9c-1.1,1.1-2.1,1.8-2.5,1.8c-0.3,0-0.6-0.3-0.6-0.6c0-0.3,0.1-0.4,0.7-0.9 c1.1-0.9,2.8-3.1,2.8-3.6c0-0.1-0.1-0.1-0.2-0.1s-0.4,0-0.7,0c-0.3,0-0.8,0.1-1.7,0.1c-2,0.1-3,0.2-9.1,0.7c-0.2,0-0.2,0-0.3,0 c-0.5,0-0.9-0.4-0.9-0.9c0-0.4,0.2-0.7,0.6-0.8c0.2-0.1,0.3-0.1,1.1-0.1c2.4-0.2,6.1-0.4,10.9-0.8c0.7-0.1,0.9-0.1,1-0.1 C257.6,126,258.2,126.5,258.2,127.2z M251.4,130.1c0.1,0.2,0.1,0.3,0.1,0.9c0,1.3-0.1,3-0.2,3.6c-0.4,2.3-1.8,4.3-3.8,5.5 c-0.2,0.1-0.4,0.2-0.6,0.2c-0.4,0-0.6-0.3-0.6-0.6c0-0.3,0.1-0.4,0.8-1c1.3-1.1,2.3-2.9,2.6-4.7c0.1-0.7,0.1-1.7,0.1-3.2 c0-0.7,0.3-1.1,0.9-1.1C250.9,129.6,251.3,129.8,251.4,130.1z"></path> </g> </g> <g> <g> <path class="st1" d="M106.8,76.1c-0.5,0-1.1,0.1-1.8,0.2v-2.2c0.7,0.1,1.3,0.2,1.8,0.2h23.8c-0.7,8-4.5,12.1-12.7,13.6 c-0.7,4.7-4,7.9-9.9,9.8c-0.8,0.3-1.1,0.4-1.4,0.6l-0.8-1.9c1.1,0.1,2.8-0.7,4.9-2c3-2,4.6-4.8,4.6-8.3v-4.6 c0-0.6-0.1-1.1-0.2-1.8h3.2c-0.1,0.7-0.2,1.2-0.2,1.8v4.8c5.5-1.3,8.6-4.8,9.2-10.1H106.8z"></path> <path class="st1" d="M136.9,86.2c3.1-0.3,9.2-2.9,12.7-5.3c3.4-2.3,7.7-6.6,8.5-8.6l2.6,2.2c-0.3,0.3-0.7,0.7-1.3,1.2 c-2.6,2.7-4.6,4.6-6.7,6v15c0,0.5,0.1,1.2,0.2,1.8h-3.2c0.2-1,0.2-1.2,0.2-1.8V83.5c-3.1,1.7-6.4,2.9-10.7,4 c-0.7,0.2-1.1,0.3-1.6,0.5L136.9,86.2z"></path> <path class="st1" d="M183.1,95.7h10.5c0.7,0,0.8,0,2.1-0.2v2l-0.4,0l-0.4-0.1c-0.4,0-0.8-0.1-1.3-0.1h-24.1c-0.8,0-1.1,0-2.1,0.2 v-2c1.2,0.2,1.5,0.2,2.1,0.2h10.4V76h-8.5c-0.4,0-0.8,0-1.2,0.1l-0.6,0.1l-0.3,0v-2c1,0.1,1.4,0.2,2.1,0.2h20.5 c0.8,0,1.2,0,2.1-0.2v2l-0.2,0l-0.6-0.1c-0.4-0.1-0.8-0.1-1.3-0.1h-8.8V95.7z"></path> <path class="st1" d="M228,75.4c-0.9,2.5-1.9,4.2-3.5,6c1.4,0.9,3.1,1.6,5.3,2.2l1.7,0.3l-1.6,2.7l-1.3-0.6 c-2.3-0.9-4.2-1.9-5.8-3.1c-1.8,1.3-3.8,2.3-6.4,3.3l-0.9,0.6l-0.9-1.5c-0.6,1.3-1,2-1.7,3.2l-0.5,1.2l-1.5-0.7l0.6-1.1 c0.8-2.9,0.8-3.1,1.1-4.3h-2.4v14.2c0,1.2-0.5,1.8-1.5,1.8c-0.8,0-1.7-0.2-3.5-0.6l-1.4-0.2l-0.2-1.6c1.6,0.2,2.5,0.2,3.4,0.2 c0.6,0,0.7-0.1,0.7-0.7v-9.3c-1.2,2.5-2.8,4.8-5,7.1l-0.8,1.1l-1.3-1.2l1-1c2.1-2.7,3.8-6.1,5-10h-2.9c-0.8,0-1.1,0-2.1,0.2v-2 c1,0.1,1.4,0.2,2.1,0.2h5.6l-0.2-0.3c-1.8-1.9-3.3-3.3-4.6-4.3l-1-0.6l1.2-1.3l0.8,0.7c0.8,0.4,2.2,1.3,2.8,1.8 c1.3-1.6,2.4-3.1,3-4.3h-6.9c-0.8,0-1.1,0-2.1,0.2v-2c1,0.1,1.4,0.2,2.1,0.2h7.5c2.1,0,2.4,0,3.2-0.1v1.3 c-1.8,2.1-3.5,3.9-5.5,5.6l0.4,0.3l0.4,0.2l0.6,0.4l1.1,0.7l-1.5,1.6h2.1c1.7,0,2.1,0,2.8-0.1V83c-0.3,0.8-0.6,1.5-0.8,2.1 l1.2-0.3c2.3-1.1,3.9-2.1,5.4-3.4c-1.3-1.4-2.4-2.9-3.2-4.7c-0.8,1-1.4,1.6-2.3,2.5l-0.9,0.9l-1.2-1.1l1-0.8 c2-2.4,3.3-4.7,4.1-7.2l0.3-1.2l3.1,0.7l-0.7,1.2c-0.4,0.8-0.6,1.1-1.1,1.9h8.6c0.7,0,1.2,0,2.1-0.2v2l-0.4,0l-0.4-0.1 c-0.4,0-0.8-0.1-1.3-0.1H228z M216.5,89.9c-0.7,0-1.1,0-2.1,0.2v-1.9c1,0.1,1.4,0.2,2.1,0.2h3.6v-0.3l0-0.1 c0-0.4,0.1-1.2,0.1-1.6l-0.1-1.6l3,0.1l-0.3,1.5c0,0.5,0,0.8-0.1,1.6l-0.1,0.5h4.2c1.6,0,2,0,2.8-0.1v1.2c-0.4,5.2-0.6,7-1,8.4 c-0.4,1.2-1,1.8-2,1.8c-1,0-2.5-0.3-4.1-0.8l-1.5-0.3L221,97c1.6,0.2,2.8,0.3,4,0.3c0.8,0,1.1-0.2,1.3-1c0.4-1.5,0.8-4.2,0.8-6.4 h-4.5c-1,4.5-3.2,7.3-7.9,9.4l-1.2,0.7l-1-1.5l1.4-0.5c3.4-2.1,5.3-4.7,5.9-8.1H216.5z M219,75.4c1,1.8,2.2,3.4,3.6,4.5 c1.1-1.3,1.9-2.9,2.5-4.6L219,75.4L219,75.4z"></path> <path class="st1" d="M250,72.3c0-0.4,0-0.8-0.1-1.2l-0.1-0.6l0-0.3h3.3c-0.2,1.2-0.2,1.4-0.2,2.1v2.1h9.4c0.8,0,1.1,0,2.1-0.2v2 c-1.1-0.1-1.2-0.2-2.1-0.2h-20.6v7.4c0,6.4-1.2,10.6-4.1,14.9l-0.6,1.2l-1.5-0.9l0.8-1c1.8-4.1,2.5-8.1,2.5-14.2v-6.4v-0.4 c0-0.9,0-1.4-0.2-2.4c0.9,0.1,1.4,0.1,2.6,0.1h8.8V72.3z M260,88.4c1.2,0,1.6,0,2.6-0.1c-0.2,1-0.2,1.4-0.2,2.7v5.6v0.4v0.2 c0,0.6,0.1,1.3,0.2,2.1c-1.1-0.1-1.3-0.1-2.1-0.1H260h-14.3h-0.4c-0.8,0-1.3,0-2.2,0.1c0.2-1.1,0.2-1.4,0.2-2.7V91v-0.4 c0-0.8,0-1.4-0.2-2.3c1,0.1,1.5,0.1,2.7,0.1h5.1v-9.2c0-0.5,0-0.7-0.1-1.6l-0.1-0.5h3.3c-0.2,1.2-0.2,1.4-0.2,2.1v2.5h8.1 c0.7,0,1.2,0,2.1-0.2v2l-0.4,0l-0.4-0.1c-0.4,0-0.8-0.1-1.3-0.1h-8.1v5.1H260z M246.1,90.1v7.4h13.4v-7.4H246.1z"></path> </g> <g> <g> <rect x="39" y="61.3" class="st1" width="50" height="50"></rect> </g> <g> <path class="st2" d="M44.9,89.2h2.5L57.5,76l10.1,13.2h2.5L57.5,72.7L44.9,89.2z M77.9,89.2h2V73.6l-2,0V89.2z"></path> </g> <g> <polygon class="st2" points="45.4,93.9 45.4,95.1 46.6,93.9 47.4,93.9 46.2,95.1 47.5,96.9 46.7,96.9 45.8,95.5 45.4,95.9 45.4,96.9 44.8,96.9 44.8,93.9 "></polygon> </g> <path class="st2" d="M49.8,94.8c0.1-0.2,0.2-0.4,0.3-0.5c0.1-0.1,0.3-0.3,0.5-0.3c0.2-0.1,0.4-0.1,0.6-0.1c0.2,0,0.4,0,0.6,0.1 c0.2,0.1,0.3,0.2,0.5,0.3c0.1,0.1,0.2,0.3,0.3,0.5c0.1,0.2,0.1,0.4,0.1,0.6c0,0.2,0,0.4-0.1,0.6c-0.1,0.2-0.2,0.3-0.3,0.5 c-0.1,0.1-0.3,0.2-0.5,0.3c-0.2,0.1-0.4,0.1-0.6,0.1c-0.2,0-0.4,0-0.6-0.1c-0.2-0.1-0.3-0.2-0.5-0.3c-0.1-0.1-0.2-0.3-0.3-0.5 c-0.1-0.2-0.1-0.4-0.1-0.6C49.7,95.2,49.7,95,49.8,94.8 M50.4,95.8c0,0.1,0.1,0.2,0.1,0.3c0.1,0.1,0.1,0.2,0.2,0.2 c0.1,0.1,0.2,0.1,0.4,0.1c0.1,0,0.3,0,0.4-0.1c0.1-0.1,0.2-0.1,0.3-0.2c0.1-0.1,0.1-0.2,0.1-0.3c0-0.1,0-0.2,0-0.4 c0-0.1,0-0.3,0-0.4c0-0.1-0.1-0.2-0.1-0.3c-0.1-0.1-0.1-0.2-0.3-0.2c-0.1-0.1-0.2-0.1-0.4-0.1c-0.1,0-0.3,0-0.4,0.1 c-0.1,0.1-0.2,0.1-0.2,0.2c-0.1,0.1-0.1,0.2-0.1,0.3c0,0.1,0,0.2,0,0.4C50.4,95.5,50.4,95.6,50.4,95.8"></path> <path class="st2" d="M57.3,96.6c-0.2,0.2-0.5,0.3-0.9,0.3c-0.4,0-0.7-0.1-0.9-0.3c-0.2-0.2-0.3-0.5-0.3-0.9v-1.8h0.6v1.8 c0,0.1,0,0.2,0,0.2c0,0.1,0,0.1,0.1,0.2c0,0.1,0.1,0.1,0.2,0.1c0.1,0,0.2,0.1,0.3,0.1c0.2,0,0.4,0,0.5-0.2C57,96.1,57,96,57,95.7 v-1.8h0.7v1.8C57.7,96.1,57.5,96.4,57.3,96.6"></path> <g> <polygon class="st2" points="61.2,93.9 61.9,95.9 61.9,95.9 62.6,93.9 63.5,93.9 63.5,96.9 62.9,96.9 62.9,94.8 62.9,94.8 62.1,96.9 61.6,96.9 60.9,94.8 60.9,94.8 60.9,96.9 60.3,96.9 60.3,93.9 "></polygon> </g> <path class="st2" d="M68.3,96.6c-0.2,0.2-0.5,0.3-0.9,0.3c-0.4,0-0.7-0.1-0.9-0.3c-0.2-0.2-0.3-0.5-0.3-0.9l0-1.8h0.7v1.8 c0,0.1,0,0.2,0,0.2c0,0.1,0,0.1,0.1,0.2c0,0.1,0.1,0.1,0.2,0.1c0.1,0,0.2,0.1,0.3,0.1c0.2,0,0.4,0,0.5-0.2 c0.1-0.1,0.1-0.3,0.1-0.5v-1.8h0.7v1.8C68.6,96.1,68.5,96.4,68.3,96.6"></path> <g> <polygon class="st2" points="71,94.5 71,93.9 73.5,93.9 73.5,94.5 72.6,94.5 72.6,96.9 71.9,96.9 71.9,94.4 "></polygon> </g> <g> <polygon class="st2" points="78.1,93.9 78.1,94.5 76.5,94.4 76.5,95.1 78,95.1 78,95.6 76.5,95.6 76.5,96.3 78.1,96.3 78.1,96.9 75.9,96.9 75.9,93.9 "></polygon> </g> <g> <polygon class="st2" points="81.3,93.9 82.5,95.9 82.5,95.9 82.5,93.9 83.1,93.9 83.1,96.9 82.5,96.9 81.3,94.9 81.2,94.9 81.2,96.9 80.6,96.9 80.6,93.9 "></polygon> </g> </g> </g> <g> <path class="st0" d="M40.7,167.9c-1.4,2.3-3.2,4.5-4.7,6.1c-0.8,0.8-1.2,1.1-1.6,1.1c-0.5,0-1-0.6-1-1.1c0-0.4,0-0.5,0.8-1.4 c1.9-2.1,4.5-6.1,5.8-8.8l-4.8,0.6c-0.8,0.1-1.5-0.5-1.5-1.4c0-0.7,0.5-1.2,1.2-1.3l5.8-0.7v-4.4c-2.4,0.6-4.2,1.1-4.7,1.1 c-0.7,0-1.1-0.5-1.1-1.1c0-0.5,0.2-0.8,0.7-1c0.1-0.1,0.1-0.1,1-0.2c2.5-0.6,5.5-1.8,8.6-3.3c0.5-0.2,0.8-0.3,1.2-0.3 c0.8,0,1.4,0.6,1.4,1.4c0,1-0.7,1.4-4.1,2.6v5l4.1-0.5c0.8-0.1,1.5,0.5,1.5,1.3c0,0.7-0.4,1.2-1.2,1.3l-4.4,0.6v1.8 c4.6,2.5,5.8,3.3,5.8,4.4c0,0.8-0.6,1.4-1.4,1.4c-0.5,0-0.7-0.1-1.4-0.7c-1-1-1.9-1.7-3-2.7v12.3c0,0.8-0.6,1.3-1.5,1.3 c-0.9,0-1.5-0.5-1.5-1.3V167.9z M62.9,172.1c0.7,0.1,1.1,0.7,1.1,1.4c0,0.8-0.5,1.4-1.3,1.4l-8.9,0.6v0.1c0,0.9-0.6,1.4-1.5,1.4 c-0.8,0-1.4-0.5-1.5-1.4l-0.9-15.3v-0.1c-0.1-0.7,0.7-1.4,1.5-1.4c0.7,0,1.2,0.3,1.4,0.8l7.8-0.9c0.2,0,0.4,0,0.7,0 c1.6,0,2.5,0.8,2.5,2.4c0,0.3,0,0.3,0,0.5L62.9,172.1z M60.6,162.6l0-0.2c0-0.6-0.2-0.9-0.7-0.8c0,0-0.1,0-0.3,0l-6.4,0.7 l0.5,10.4l6.4-0.4L60.6,162.6z"></path> <path class="st0" d="M89.9,178.9c0,1.8-0.7,2.8-2,2.8c-1,0-2.8-0.4-4.4-1.1c-0.6-0.2-0.9-0.5-0.9-1c0-0.6,0.4-1,0.9-1 c0.1,0,0.2,0,0.5,0.1c1.1,0.2,1.8,0.3,2.1,0.3c0.6,0,0.9-0.3,0.9-1v-10.4l-11.2,0.7c-0.8,0.1-1.4-0.5-1.4-1.3 c0-0.8,0.4-1.3,1.2-1.3l16.2-1c0.8-0.1,1.4,0.4,1.4,1.2c0,0.8-0.5,1.3-1.3,1.3l-2.2,0.1V178.9z M89.8,163.4c0,0.7-0.6,1.2-1.4,1.2 s-1.4-0.5-1.4-1.2V155l-10.4,0.8c-0.8,0.1-1.4-0.5-1.4-1.2c0-0.8,0.5-1.3,1.3-1.4l14.2-1.1c0.8-0.1,1.4,0.5,1.4,1.3 c0,0.7-0.4,1.2-1.2,1.2l-1.2,0.1V163.4z M84.9,174.3c0.3,0.3,0.4,0.5,0.4,0.9c0,0.6-0.4,0.9-1.2,1l-4.2,0.5v0.1v0.1 c0,0.7-0.5,1-1.2,1c-0.8,0-1.2-0.3-1.2-1.2L77,171c-0.1-0.7,0.5-1.3,1.2-1.3c0.5,0,0.8,0.2,1.1,0.5l4.4-0.6l0.3,0 c0.8-0.1,1.5,0.6,1.5,1.6c0,0.1,0,0.4-0.1,0.6L84.9,174.3z M84.9,161.2c0.4,0.2,0.5,0.5,0.5,0.9c0,0.6-0.4,0.9-1.1,1l-4,0.4 c-0.1,0.6-0.5,0.9-1.2,0.9S78,164,78,163.2l-0.6-5.1c-0.1-0.7,0.5-1.2,1.2-1.2c0.5,0,0.8,0.1,1,0.5l3.7-0.4c0.2,0,0.4,0,0.4,0 c1.1,0,1.8,0.6,1.8,1.5c0,0.2,0,0.3-0.1,0.5L84.9,161.2z M82.8,172.5c0-0.5-0.1-0.7-0.5-0.6l-2.8,0.4l0.2,2.3l2.9-0.3L82.8,172.5z M83,159.4c0-0.4-0.1-0.5-0.4-0.5l-2.6,0.3l0.2,2.2l2.6-0.3L83,159.4z M98.1,171c-0.7,3.5-2.5,6.8-4.7,9c-0.9,0.8-1.4,1.1-1.9,1.1 c-0.5,0-0.9-0.5-0.9-1c0-0.5,0.1-0.6,0.8-1.4c3.5-4.2,4.7-8.3,4.8-16.1c0-1.1,0.5-1.6,1.4-1.6c1.1,0,1.4,0.4,1.4,1.8 c0,0.9,0,2.1-0.1,3.1c1.4,4.8,3.9,8.9,7.7,13c0.8,0.8,0.9,1.1,0.9,1.3c0,0.3-1.5,0.8-2.7,0.8c-0.7,0-1-0.2-1.5-0.9 c-2.5-3.3-3.9-6-5.1-9.6l0,0.1L98.1,171z M95.4,159.8c-0.5,1.2-1.2,2.5-1.9,3.5c-0.3,0.6-0.7,0.8-1.2,0.8c-0.6,0-1.1-0.5-1.1-1 c0-0.3,0-0.4,0.5-1.4c1.4-2.9,2.7-6.9,3.2-9.8c0.1-0.8,0.7-1.3,1.4-1.3c0.9,0,1.5,0.5,1.5,1.4c0,0.7-0.6,3.1-1.3,5l7.5-0.7h0.4 c1.3,0,2,0.6,2,1.6c0,1.2-1.2,3.7-2.8,6c-0.6,0.8-0.9,1-1.3,1c-0.6,0-1.1-0.5-1.1-1c0-0.2,0.1-0.5,0.3-1c0.9-1.6,1.4-2.9,1.4-3.5 c0-0.2-0.2-0.4-0.5-0.4h-0.2L95.4,159.8z"></path> <path class="st0" d="M141.3,174.4l0.4-11.2c0-0.9,0.7-1.4,1.6-1.4c0.9,0,1.8,0.7,1.7,1.6v0.1l-0.6,14.4c-0.1,0.9-0.6,1.5-1.6,1.5 c-1,0-1.6-0.6-1.6-1.6v-0.3l-18.3,1.4c-0.3,0-0.5,0-0.6,0c-2,0-2.9-0.9-3-3l-0.4-11v0c0-0.9,0.7-1.6,1.7-1.6 c0.9,0,1.6,0.6,1.6,1.5l0.3,9.9c0,1,0.4,1.3,1.4,1.2l6.1-0.5v-21.2c0-0.9,0.7-1.5,1.6-1.5c0.9,0,1.6,0.6,1.6,1.5V175L141.3,174.4z "></path> <path class="st0" d="M164.7,161.7c-0.1,5.1-0.7,8.7-2.1,12.5c-0.6,1.6-1.9,4.1-2.6,5.1c-0.4,0.5-0.7,0.8-1.2,0.8 c-0.6,0-1.2-0.6-1.2-1.2c0-0.3,0-0.4,0.6-1.4c2.9-6.1,3.6-10.3,3.5-21.4v-0.7c-0.5-0.1-0.9-0.6-0.9-1.2c0-0.6,0.5-1.2,1.2-1.2 l20.3-1.4c1.6-0.1,2.6,0.6,2.6,1.9c0,0.2,0,0.7-0.1,0.9l-0.7,2.5c0.5,0.1,0.7,0.6,0.7,1.1c0,0.6-0.4,1.1-1,1.2l-19.1,1.3 L164.7,161.7z M169.6,166.1l-2.7,0.2l-0.2,0c-0.6,0.1-1.2-0.5-1.2-1.2s0.4-1.2,1.1-1.2l2.8-0.2l-0.1-2c0-0.7,0.6-1.3,1.5-1.3 c0.8,0,1.4,0.5,1.4,1.3l0.1,1.9l5-0.4l0.1-2c0-0.7,0.7-1.3,1.5-1.3s1.5,0.6,1.5,1.4l-0.1,1.7l3.1-0.2h0.2c0.6,0,1.2,0.5,1.2,1.2 c0,0.7-0.5,1.2-1.1,1.2l-3.5,0.2l-0.1,3.2l5.7-0.3h0.1l0.1,0c0.8,0.2,0.8,0.2,1,0.6c0.1,0.2,0.2,0.5,0.2,0.6 c0,0.7-0.5,1.1-1.2,1.2l-15.6,1v7c1.4-0.3,3.2-0.8,4.5-1.4c0.3-0.1,0.6-0.2,0.8-0.2c0.5,0,1,0.5,1,1.1c0,0.5-0.3,0.8-1.1,1.3 c-2.4,1.3-5.8,2.6-6.8,2.6c-0.8,0-1.4-0.8-1.4-1.9v-8.2l-1.8,0.1h-0.1h-0.1c-0.7,0-1.2-0.6-1.2-1.2c0-0.7,0.4-1.2,1.2-1.2l4.4-0.2 L169.6,166.1z M181.4,156.9l0.3-2.3v-0.2c0-0.3-0.2-0.5-0.6-0.5l-16.2,1.2v0.5v0.8v0.8v0.8L181.4,156.9z M177.2,168.8l0.1-3.2 l-4.9,0.3l0.1,3.2L177.2,168.8z M187.1,178.7c0.9,0.3,1.4,0.7,1.4,0.9c0,0.2-0.3,0.5-0.8,0.7c-1.4,0.6-2.3,0.8-3,0.8 c-0.6,0-0.9-0.1-2.1-0.8c-2.9-1.6-7-4.7-8.8-6.7c-0.5-0.5-0.6-0.7-0.6-1.1c0-0.5,0.5-0.9,1-0.9c0.5,0,0.6,0.1,1.9,1.2 c0.7,0.6,1.5,1.2,2.5,1.9c1.2-0.9,2.7-2.3,3.3-3c0.3-0.4,0.8-0.6,1.2-0.6c0.8,0,1.6,0.8,1.6,1.6c0,0.5-0.2,0.8-0.7,1.1 c-0.9,0.7-2.2,1.5-3.4,2.1C182.7,176.9,184.8,177.9,187.1,178.7z"></path> <path class="st0" d="M216.4,178.2c0,2-0.9,3-2.6,3c-1.1,0-3.5-0.8-5.1-1.7c-0.7-0.4-1-0.7-1-1.2c0-0.6,0.4-1,1-1 c0.2,0,0.5,0,0.8,0.1c1.1,0.3,2.4,0.6,2.8,0.6c0.7,0,0.9-0.3,0.9-1.2V165l-11.8,0.8c-0.9,0.1-1.5-0.5-1.5-1.4 c0-0.9,0.5-1.5,1.3-1.5l26.6-1.9c0.9-0.1,1.5,0.5,1.5,1.4c0,0.9-0.5,1.5-1.3,1.6l-11.6,0.8V178.2z M208.7,169c0,1.1-2.5,4.7-5,7.1 c-1.3,1.2-1.9,1.6-2.5,1.6c-0.6,0-1.2-0.6-1.2-1.2c0-0.5,0.1-0.6,0.8-1.4c1.8-2,3.5-4.6,4.5-6.5c0.4-0.9,0.9-1.2,1.6-1.2 C207.9,167.4,208.7,168.1,208.7,169z M205.9,157c-0.9,0.1-1.5-0.5-1.5-1.4c0-0.9,0.5-1.5,1.3-1.5l16.5-1.2 c0.9-0.1,1.5,0.5,1.5,1.4c0,0.9-0.5,1.5-1.3,1.6L205.9,157z M222.3,167.6c2.2,1.9,4.5,4.5,5.6,6.3c0.5,0.7,0.6,1.2,0.6,1.7 c0,0.9-0.8,1.6-1.7,1.6c-0.5,0-1-0.2-1.3-0.6c-0.1-0.1-0.1-0.1-0.5-0.8c-1.1-1.9-3-4.5-4.6-6.6c-0.4-0.5-0.6-0.8-0.6-1.2 c0-0.6,0.5-1,1-1C221.4,166.9,221.8,167.1,222.3,167.6z"></path> <path class="st0" d="M247.3,169.8c0.3-0.2,0.8-0.5,1.3-0.8c0.3-0.2,0.3-0.2,1.2-0.8c0.4-0.2,0.7-0.4,1.1-0.4 c0.6,0,1.2,0.6,1.2,1.2c0,0.7-0.8,1.4-3.7,3.3c-3.4,2.2-6.4,3.8-7.2,3.8c-0.8,0-1.4-0.7-1.4-1.5c0-0.8,0.2-1,1.6-1.6 c1.1-0.5,2-0.9,3-1.5v-8.9l-2.9,0.4c-0.1,0-0.2,0-0.2,0c-0.7,0-1.2-0.6-1.2-1.5c0-0.7,0.5-1.2,1.2-1.3l3.2-0.4v-7 c0-0.7,0.7-1.3,1.5-1.3c0.8,0,1.5,0.6,1.5,1.3v6.5l2.3-0.3h0.2c0.7,0,1.2,0.6,1.2,1.3c0,0.8-0.4,1.3-1.2,1.4l-2.6,0.4V169.8z M266.3,170.5c-1.4,3.4-4.6,7.2-8,9.7c-0.9,0.7-1.3,0.8-1.6,0.8c-0.5,0-1-0.5-1-1s0-0.6,1.2-1.6c3-2.5,5.2-5.1,6.4-7.7l-2.4,0.1 c-1.6,3.1-6.8,7.8-8.5,7.8c-0.5,0-1-0.5-1-1s0.1-0.7,1.3-1.5c1.4-0.9,3.6-3.1,5.1-5.1l-2.4,0.2c-2.3,2.2-3.6,3.1-4.2,3.1 c-0.5,0-1-0.5-1-0.9c0-0.5,0.1-0.6,1-1.3c1.4-1,3.2-3.1,5-5.5l-4.1,0.2l-0.2,0c-0.6,0.1-1.2-0.5-1.2-1.1c0-0.7,0.5-1.2,1.2-1.2 l18.5-1.3h0.1c0.7,0,1.2,0.5,1.2,1.2c0,0.7-0.5,1.2-1.2,1.3l-11.3,0.7c-0.4,0.7-0.9,1.5-1.6,2.3l-0.1,0.2l10.7-0.7h0.3 c1.4,0,2.1,0.7,2.1,2c0,1.5-0.8,5.7-1.5,7.7c-0.9,2.6-1.9,3.6-3.4,3.6c-0.7,0-2.4-0.5-3.4-1.1c-0.7-0.4-1.1-0.8-1.1-1.3 c0-0.5,0.4-0.9,0.9-0.9c0.2,0,0.4,0,0.7,0.1c0.8,0.3,1.4,0.4,1.8,0.4c0.8,0,1.2-0.4,1.7-1.8c0.5-1.3,1.3-4.7,1.3-5.6 c0-0.5-0.3-0.7-0.8-0.7h-0.1L266.3,170.5z M256.6,162.1c-0.1,0.6-0.6,0.9-1.3,0.9c-0.8,0-1.3-0.4-1.3-1.3l-0.6-8.7v-0.2 c0-0.9,0.6-1.4,1.5-1.4c0.6,0,0.9,0.2,1.2,0.6l9.5-0.9c0.3,0,0.6,0,0.6,0c1.5,0,2.2,0.8,2.1,2.3l-0.5,7.7c0,0.8-0.5,1.3-1.4,1.3 c-0.7,0-1.2-0.3-1.3-0.8L256.6,162.1z M265.2,154.3c0-0.5-0.2-0.8-0.7-0.8h-0.1l-8.1,0.7l0.1,1.8l8.8-0.7L265.2,154.3z M256.5,158 l0.1,1.9l8.4-0.6l0-2L256.5,158z"></path> </g> </g> </svg> 